G75*
%MOIN*%
%OFA0B0*%
%FSLAX25Y25*%
%IPPOS*%
%LPD*%
%AMOC8*
5,1,8,0,0,1.08239X$1,22.5*
%
%ADD10C,0.00000*%
%ADD11R,0.03543X0.02756*%
%ADD12R,0.02756X0.03543*%
%ADD13R,0.02362X0.04724*%
%ADD14R,0.04331X0.03937*%
%ADD15R,0.03937X0.04331*%
%ADD16R,0.07874X0.04724*%
%ADD17R,0.11811X0.03346*%
%ADD18C,0.05150*%
%ADD19C,0.06299*%
%ADD20C,0.13386*%
%ADD21C,0.04362*%
%ADD22C,0.02381*%
%ADD23C,0.00787*%
%ADD24C,0.03150*%
%ADD25C,0.03937*%
%ADD26C,0.01575*%
%ADD27C,0.01181*%
%ADD28C,0.01969*%
%ADD29C,0.02362*%
%ADD30C,0.03150*%
%ADD31C,0.03937*%
%ADD32C,0.03543*%
D10*
X0016780Y0010913D02*
X0016780Y0018787D01*
X0008906Y0018787D01*
X0008906Y0079811D01*
X0016780Y0079811D01*
X0016780Y0087685D01*
X0096110Y0087685D01*
X0096110Y0083157D01*
X0108709Y0083157D01*
X0108709Y0087685D01*
X0181346Y0087685D01*
X0181346Y0077843D01*
X0196898Y0077843D01*
X0196898Y0020756D01*
X0181346Y0020756D01*
X0181346Y0010913D01*
X0108709Y0010913D01*
X0108709Y0015441D01*
X0096110Y0015441D01*
X0096110Y0010913D01*
X0016780Y0010913D01*
X0018157Y0040441D02*
X0018159Y0040549D01*
X0018165Y0040658D01*
X0018175Y0040766D01*
X0018189Y0040873D01*
X0018207Y0040980D01*
X0018228Y0041087D01*
X0018254Y0041192D01*
X0018284Y0041297D01*
X0018317Y0041400D01*
X0018354Y0041502D01*
X0018395Y0041602D01*
X0018439Y0041701D01*
X0018488Y0041799D01*
X0018539Y0041894D01*
X0018594Y0041987D01*
X0018653Y0042079D01*
X0018715Y0042168D01*
X0018780Y0042255D01*
X0018848Y0042339D01*
X0018919Y0042421D01*
X0018993Y0042500D01*
X0019070Y0042576D01*
X0019150Y0042650D01*
X0019233Y0042720D01*
X0019318Y0042788D01*
X0019405Y0042852D01*
X0019495Y0042913D01*
X0019587Y0042971D01*
X0019681Y0043025D01*
X0019777Y0043076D01*
X0019874Y0043123D01*
X0019974Y0043167D01*
X0020075Y0043207D01*
X0020177Y0043243D01*
X0020280Y0043275D01*
X0020385Y0043304D01*
X0020491Y0043328D01*
X0020597Y0043349D01*
X0020704Y0043366D01*
X0020812Y0043379D01*
X0020920Y0043388D01*
X0021029Y0043393D01*
X0021137Y0043394D01*
X0021246Y0043391D01*
X0021354Y0043384D01*
X0021462Y0043373D01*
X0021569Y0043358D01*
X0021676Y0043339D01*
X0021782Y0043316D01*
X0021887Y0043290D01*
X0021992Y0043259D01*
X0022094Y0043225D01*
X0022196Y0043187D01*
X0022296Y0043145D01*
X0022395Y0043100D01*
X0022492Y0043051D01*
X0022586Y0042998D01*
X0022679Y0042942D01*
X0022770Y0042883D01*
X0022859Y0042820D01*
X0022945Y0042755D01*
X0023029Y0042686D01*
X0023110Y0042614D01*
X0023188Y0042539D01*
X0023264Y0042461D01*
X0023337Y0042380D01*
X0023407Y0042297D01*
X0023473Y0042212D01*
X0023537Y0042124D01*
X0023597Y0042033D01*
X0023654Y0041941D01*
X0023707Y0041846D01*
X0023757Y0041750D01*
X0023803Y0041652D01*
X0023846Y0041552D01*
X0023885Y0041451D01*
X0023920Y0041348D01*
X0023952Y0041245D01*
X0023979Y0041140D01*
X0024003Y0041034D01*
X0024023Y0040927D01*
X0024039Y0040820D01*
X0024051Y0040712D01*
X0024059Y0040604D01*
X0024063Y0040495D01*
X0024063Y0040387D01*
X0024059Y0040278D01*
X0024051Y0040170D01*
X0024039Y0040062D01*
X0024023Y0039955D01*
X0024003Y0039848D01*
X0023979Y0039742D01*
X0023952Y0039637D01*
X0023920Y0039534D01*
X0023885Y0039431D01*
X0023846Y0039330D01*
X0023803Y0039230D01*
X0023757Y0039132D01*
X0023707Y0039036D01*
X0023654Y0038941D01*
X0023597Y0038849D01*
X0023537Y0038758D01*
X0023473Y0038670D01*
X0023407Y0038585D01*
X0023337Y0038502D01*
X0023264Y0038421D01*
X0023188Y0038343D01*
X0023110Y0038268D01*
X0023029Y0038196D01*
X0022945Y0038127D01*
X0022859Y0038062D01*
X0022770Y0037999D01*
X0022679Y0037940D01*
X0022587Y0037884D01*
X0022492Y0037831D01*
X0022395Y0037782D01*
X0022296Y0037737D01*
X0022196Y0037695D01*
X0022094Y0037657D01*
X0021992Y0037623D01*
X0021887Y0037592D01*
X0021782Y0037566D01*
X0021676Y0037543D01*
X0021569Y0037524D01*
X0021462Y0037509D01*
X0021354Y0037498D01*
X0021246Y0037491D01*
X0021137Y0037488D01*
X0021029Y0037489D01*
X0020920Y0037494D01*
X0020812Y0037503D01*
X0020704Y0037516D01*
X0020597Y0037533D01*
X0020491Y0037554D01*
X0020385Y0037578D01*
X0020280Y0037607D01*
X0020177Y0037639D01*
X0020075Y0037675D01*
X0019974Y0037715D01*
X0019874Y0037759D01*
X0019777Y0037806D01*
X0019681Y0037857D01*
X0019587Y0037911D01*
X0019495Y0037969D01*
X0019405Y0038030D01*
X0019318Y0038094D01*
X0019233Y0038162D01*
X0019150Y0038232D01*
X0019070Y0038306D01*
X0018993Y0038382D01*
X0018919Y0038461D01*
X0018848Y0038543D01*
X0018780Y0038627D01*
X0018715Y0038714D01*
X0018653Y0038803D01*
X0018594Y0038895D01*
X0018539Y0038988D01*
X0018488Y0039083D01*
X0018439Y0039181D01*
X0018395Y0039280D01*
X0018354Y0039380D01*
X0018317Y0039482D01*
X0018284Y0039585D01*
X0018254Y0039690D01*
X0018228Y0039795D01*
X0018207Y0039902D01*
X0018189Y0040009D01*
X0018175Y0040116D01*
X0018165Y0040224D01*
X0018159Y0040333D01*
X0018157Y0040441D01*
X0018157Y0058157D02*
X0018159Y0058265D01*
X0018165Y0058374D01*
X0018175Y0058482D01*
X0018189Y0058589D01*
X0018207Y0058696D01*
X0018228Y0058803D01*
X0018254Y0058908D01*
X0018284Y0059013D01*
X0018317Y0059116D01*
X0018354Y0059218D01*
X0018395Y0059318D01*
X0018439Y0059417D01*
X0018488Y0059515D01*
X0018539Y0059610D01*
X0018594Y0059703D01*
X0018653Y0059795D01*
X0018715Y0059884D01*
X0018780Y0059971D01*
X0018848Y0060055D01*
X0018919Y0060137D01*
X0018993Y0060216D01*
X0019070Y0060292D01*
X0019150Y0060366D01*
X0019233Y0060436D01*
X0019318Y0060504D01*
X0019405Y0060568D01*
X0019495Y0060629D01*
X0019587Y0060687D01*
X0019681Y0060741D01*
X0019777Y0060792D01*
X0019874Y0060839D01*
X0019974Y0060883D01*
X0020075Y0060923D01*
X0020177Y0060959D01*
X0020280Y0060991D01*
X0020385Y0061020D01*
X0020491Y0061044D01*
X0020597Y0061065D01*
X0020704Y0061082D01*
X0020812Y0061095D01*
X0020920Y0061104D01*
X0021029Y0061109D01*
X0021137Y0061110D01*
X0021246Y0061107D01*
X0021354Y0061100D01*
X0021462Y0061089D01*
X0021569Y0061074D01*
X0021676Y0061055D01*
X0021782Y0061032D01*
X0021887Y0061006D01*
X0021992Y0060975D01*
X0022094Y0060941D01*
X0022196Y0060903D01*
X0022296Y0060861D01*
X0022395Y0060816D01*
X0022492Y0060767D01*
X0022586Y0060714D01*
X0022679Y0060658D01*
X0022770Y0060599D01*
X0022859Y0060536D01*
X0022945Y0060471D01*
X0023029Y0060402D01*
X0023110Y0060330D01*
X0023188Y0060255D01*
X0023264Y0060177D01*
X0023337Y0060096D01*
X0023407Y0060013D01*
X0023473Y0059928D01*
X0023537Y0059840D01*
X0023597Y0059749D01*
X0023654Y0059657D01*
X0023707Y0059562D01*
X0023757Y0059466D01*
X0023803Y0059368D01*
X0023846Y0059268D01*
X0023885Y0059167D01*
X0023920Y0059064D01*
X0023952Y0058961D01*
X0023979Y0058856D01*
X0024003Y0058750D01*
X0024023Y0058643D01*
X0024039Y0058536D01*
X0024051Y0058428D01*
X0024059Y0058320D01*
X0024063Y0058211D01*
X0024063Y0058103D01*
X0024059Y0057994D01*
X0024051Y0057886D01*
X0024039Y0057778D01*
X0024023Y0057671D01*
X0024003Y0057564D01*
X0023979Y0057458D01*
X0023952Y0057353D01*
X0023920Y0057250D01*
X0023885Y0057147D01*
X0023846Y0057046D01*
X0023803Y0056946D01*
X0023757Y0056848D01*
X0023707Y0056752D01*
X0023654Y0056657D01*
X0023597Y0056565D01*
X0023537Y0056474D01*
X0023473Y0056386D01*
X0023407Y0056301D01*
X0023337Y0056218D01*
X0023264Y0056137D01*
X0023188Y0056059D01*
X0023110Y0055984D01*
X0023029Y0055912D01*
X0022945Y0055843D01*
X0022859Y0055778D01*
X0022770Y0055715D01*
X0022679Y0055656D01*
X0022587Y0055600D01*
X0022492Y0055547D01*
X0022395Y0055498D01*
X0022296Y0055453D01*
X0022196Y0055411D01*
X0022094Y0055373D01*
X0021992Y0055339D01*
X0021887Y0055308D01*
X0021782Y0055282D01*
X0021676Y0055259D01*
X0021569Y0055240D01*
X0021462Y0055225D01*
X0021354Y0055214D01*
X0021246Y0055207D01*
X0021137Y0055204D01*
X0021029Y0055205D01*
X0020920Y0055210D01*
X0020812Y0055219D01*
X0020704Y0055232D01*
X0020597Y0055249D01*
X0020491Y0055270D01*
X0020385Y0055294D01*
X0020280Y0055323D01*
X0020177Y0055355D01*
X0020075Y0055391D01*
X0019974Y0055431D01*
X0019874Y0055475D01*
X0019777Y0055522D01*
X0019681Y0055573D01*
X0019587Y0055627D01*
X0019495Y0055685D01*
X0019405Y0055746D01*
X0019318Y0055810D01*
X0019233Y0055878D01*
X0019150Y0055948D01*
X0019070Y0056022D01*
X0018993Y0056098D01*
X0018919Y0056177D01*
X0018848Y0056259D01*
X0018780Y0056343D01*
X0018715Y0056430D01*
X0018653Y0056519D01*
X0018594Y0056611D01*
X0018539Y0056704D01*
X0018488Y0056799D01*
X0018439Y0056897D01*
X0018395Y0056996D01*
X0018354Y0057096D01*
X0018317Y0057198D01*
X0018284Y0057301D01*
X0018254Y0057406D01*
X0018228Y0057511D01*
X0018207Y0057618D01*
X0018189Y0057725D01*
X0018175Y0057832D01*
X0018165Y0057940D01*
X0018159Y0058049D01*
X0018157Y0058157D01*
D11*
X0073079Y0030402D03*
X0078197Y0030402D03*
X0078197Y0024693D03*
X0073079Y0024693D03*
X0073079Y0019378D03*
X0078197Y0019378D03*
X0112606Y0038276D03*
X0117724Y0038276D03*
X0117764Y0031189D03*
X0122882Y0031189D03*
X0157921Y0025480D03*
X0163039Y0025480D03*
X0163039Y0039260D03*
X0157921Y0039260D03*
X0157921Y0054417D03*
X0163039Y0054417D03*
X0163827Y0068197D03*
X0158709Y0068197D03*
X0153000Y0068787D03*
X0147882Y0068787D03*
X0089457Y0043945D03*
X0084339Y0043945D03*
D12*
X0072685Y0040638D03*
X0072685Y0035520D03*
X0071504Y0048709D03*
X0071504Y0053827D03*
X0076425Y0053827D03*
X0076425Y0058945D03*
X0100244Y0052449D03*
X0100244Y0047331D03*
X0045323Y0024299D03*
X0037646Y0023118D03*
X0045323Y0019181D03*
X0037646Y0018000D03*
D13*
X0037646Y0030402D03*
X0041386Y0030402D03*
X0045126Y0030402D03*
X0045126Y0039457D03*
X0041386Y0039457D03*
X0037646Y0039457D03*
D14*
X0037646Y0055402D03*
X0044339Y0055402D03*
D15*
X0078000Y0047724D03*
X0078000Y0041031D03*
X0109496Y0044378D03*
X0109496Y0051071D03*
D16*
X0075441Y0072921D03*
X0064417Y0072921D03*
X0051228Y0072921D03*
X0040205Y0072921D03*
D17*
X0189969Y0069299D03*
X0189969Y0059299D03*
X0189969Y0049299D03*
X0189969Y0039299D03*
X0189969Y0029299D03*
D18*
X0072724Y0064654D03*
X0062724Y0064654D03*
X0052724Y0064654D03*
X0042724Y0064654D03*
D19*
X0028984Y0063079D03*
X0028984Y0053236D03*
X0028984Y0045362D03*
X0028984Y0035520D03*
D20*
X0021110Y0025677D03*
X0021110Y0072921D03*
D21*
X0112370Y0014260D03*
X0117370Y0014260D03*
X0122370Y0014260D03*
D22*
X0143945Y0017016D03*
X0143945Y0020756D03*
X0153787Y0017606D03*
X0163433Y0020953D03*
X0166780Y0023512D03*
X0172291Y0020756D03*
X0178197Y0020756D03*
X0188039Y0024693D03*
X0193945Y0024693D03*
X0181937Y0026858D03*
X0181543Y0033551D03*
X0186858Y0033157D03*
X0167173Y0040441D03*
X0163039Y0035717D03*
X0155953Y0034339D03*
X0153394Y0032173D03*
X0143551Y0028827D03*
X0140598Y0033945D03*
X0143945Y0037488D03*
X0147094Y0040047D03*
X0143945Y0042016D03*
X0143748Y0045953D03*
X0133709Y0047921D03*
X0144142Y0052646D03*
X0147685Y0054417D03*
X0144142Y0056386D03*
X0142173Y0058945D03*
X0143748Y0062291D03*
X0139417Y0067803D03*
X0134299Y0067803D03*
X0131543Y0065835D03*
X0130362Y0071150D03*
X0126622Y0071150D03*
X0140598Y0076858D03*
X0145323Y0073118D03*
X0151031Y0073118D03*
X0164024Y0071937D03*
X0165992Y0075087D03*
X0174457Y0079811D03*
X0182724Y0075480D03*
X0188236Y0075480D03*
X0194535Y0075480D03*
X0193945Y0065638D03*
X0190205Y0065638D03*
X0186071Y0063276D03*
X0180953Y0062685D03*
X0181937Y0054220D03*
X0182134Y0046740D03*
X0163039Y0050283D03*
X0153787Y0050874D03*
X0153984Y0043197D03*
X0122291Y0038472D03*
X0113630Y0034535D03*
X0105165Y0034535D03*
X0096701Y0034535D03*
X0087449Y0035913D03*
X0085283Y0033551D03*
X0081543Y0037685D03*
X0087646Y0040638D03*
X0096701Y0043000D03*
X0105165Y0043000D03*
X0113630Y0043000D03*
X0121898Y0047921D03*
X0105165Y0054417D03*
X0109299Y0057961D03*
X0091189Y0058748D03*
X0088236Y0056976D03*
X0091189Y0055205D03*
X0085087Y0055205D03*
X0085087Y0058748D03*
X0080165Y0058945D03*
X0071504Y0058157D03*
X0062449Y0056386D03*
X0062449Y0050087D03*
X0062449Y0043787D03*
X0065795Y0040441D03*
X0062449Y0037488D03*
X0068354Y0034535D03*
X0062449Y0031189D03*
X0062449Y0024890D03*
X0069339Y0024102D03*
X0068059Y0019181D03*
X0062449Y0018591D03*
X0062449Y0013276D03*
X0068945Y0013276D03*
X0082921Y0020756D03*
X0087646Y0020953D03*
X0086858Y0016031D03*
X0090598Y0016031D03*
X0081937Y0025677D03*
X0096701Y0026071D03*
X0105165Y0026071D03*
X0113630Y0026071D03*
X0122882Y0026071D03*
X0164024Y0014850D03*
X0172291Y0014850D03*
X0178197Y0014850D03*
X0091189Y0049299D03*
X0087252Y0049299D03*
X0079575Y0053630D03*
X0081740Y0065835D03*
X0077016Y0067409D03*
X0086858Y0065835D03*
X0091189Y0065835D03*
X0092173Y0072921D03*
X0099063Y0076858D03*
X0109299Y0076858D03*
X0113827Y0085323D03*
X0093157Y0085126D03*
X0077213Y0085323D03*
X0077213Y0080402D03*
X0067764Y0080402D03*
X0062449Y0080402D03*
X0062449Y0085323D03*
X0067764Y0085323D03*
X0045913Y0045165D03*
X0045323Y0015441D03*
X0031543Y0015638D03*
X0156346Y0061307D03*
X0156346Y0064260D03*
X0163039Y0064260D03*
X0155559Y0082567D03*
D23*
X0154181Y0083945D01*
X0127606Y0083945D01*
X0109299Y0065638D01*
X0109299Y0057961D01*
X0107625Y0059640D02*
X0079197Y0059640D01*
X0079197Y0059240D02*
X0079197Y0060900D01*
X0079102Y0061254D01*
X0078918Y0061572D01*
X0078659Y0061832D01*
X0078341Y0062015D01*
X0077987Y0062110D01*
X0076720Y0062110D01*
X0076720Y0059240D01*
X0076130Y0059240D01*
X0076130Y0058650D01*
X0073654Y0058650D01*
X0073654Y0056990D01*
X0073749Y0056635D01*
X0073932Y0056317D01*
X0074014Y0056235D01*
X0073965Y0056186D01*
X0073371Y0056780D01*
X0070126Y0056780D01*
X0070126Y0059181D01*
X0071882Y0060937D01*
X0071977Y0060898D01*
X0073472Y0060898D01*
X0073676Y0060982D01*
X0073654Y0060900D01*
X0073654Y0059240D01*
X0076130Y0059240D01*
X0076130Y0062110D01*
X0075493Y0062110D01*
X0075909Y0062526D01*
X0076480Y0063906D01*
X0076480Y0065401D01*
X0076031Y0066484D01*
X0076031Y0069378D01*
X0079867Y0069378D01*
X0080559Y0070070D01*
X0080559Y0070756D01*
X0086816Y0070756D01*
X0087829Y0071175D01*
X0088604Y0071951D01*
X0094299Y0077646D01*
X0115950Y0077646D01*
X0116963Y0078065D01*
X0119158Y0080261D01*
X0119633Y0080457D01*
X0120464Y0081288D01*
X0120913Y0082373D01*
X0120913Y0083548D01*
X0120464Y0084633D01*
X0119633Y0085464D01*
X0118548Y0085913D01*
X0117373Y0085913D01*
X0116288Y0085464D01*
X0115457Y0084633D01*
X0115261Y0084158D01*
X0114260Y0083157D01*
X0110102Y0083157D01*
X0110102Y0086291D01*
X0179953Y0086291D01*
X0179953Y0077265D01*
X0180769Y0076449D01*
X0195504Y0076449D01*
X0195504Y0072154D01*
X0183574Y0072154D01*
X0182882Y0071462D01*
X0182882Y0067137D01*
X0183574Y0066445D01*
X0187833Y0066445D01*
X0187833Y0064655D01*
X0189222Y0063266D01*
X0191187Y0063266D01*
X0192576Y0064655D01*
X0192576Y0066445D01*
X0195504Y0066445D01*
X0195504Y0062154D01*
X0183574Y0062154D01*
X0183324Y0061904D01*
X0183324Y0063667D01*
X0181935Y0065057D01*
X0179970Y0065057D01*
X0178581Y0063667D01*
X0178581Y0062540D01*
X0174457Y0058416D01*
X0174457Y0057111D01*
X0174457Y0032111D01*
X0175379Y0031189D01*
X0179565Y0027003D01*
X0179565Y0025876D01*
X0180955Y0024487D01*
X0182919Y0024487D01*
X0184309Y0025876D01*
X0184309Y0026445D01*
X0195504Y0026445D01*
X0195504Y0022150D01*
X0180769Y0022150D01*
X0179953Y0021333D01*
X0179953Y0012307D01*
X0125365Y0012307D01*
X0125538Y0012567D01*
X0125807Y0013217D01*
X0125945Y0013908D01*
X0125945Y0014063D01*
X0122567Y0014063D01*
X0122567Y0014457D01*
X0122173Y0014457D01*
X0122173Y0017835D01*
X0122018Y0017835D01*
X0121327Y0017697D01*
X0120677Y0017428D01*
X0120091Y0017037D01*
X0119720Y0016665D01*
X0119275Y0017110D01*
X0118945Y0017247D01*
X0118945Y0018849D01*
X0118022Y0019772D01*
X0117432Y0020362D01*
X0129440Y0020362D01*
X0131408Y0022331D01*
X0132331Y0023253D01*
X0132331Y0045945D01*
X0132726Y0045550D01*
X0133853Y0045550D01*
X0136465Y0042938D01*
X0136465Y0015773D01*
X0138433Y0013804D01*
X0139356Y0012882D01*
X0162638Y0012882D01*
X0163041Y0012479D01*
X0165006Y0012479D01*
X0166395Y0013868D01*
X0166395Y0015833D01*
X0165006Y0017222D01*
X0163041Y0017222D01*
X0161851Y0016031D01*
X0146315Y0016031D01*
X0146317Y0016033D01*
X0146317Y0017998D01*
X0144927Y0019387D01*
X0143800Y0019387D01*
X0142173Y0021015D01*
X0142173Y0032166D01*
X0142970Y0032963D01*
X0142970Y0034927D01*
X0141581Y0036317D01*
X0139616Y0036317D01*
X0139614Y0036315D01*
X0139614Y0044243D01*
X0136080Y0047777D01*
X0136080Y0048904D01*
X0134700Y0050283D01*
X0137190Y0050283D01*
X0141376Y0046097D01*
X0141376Y0044970D01*
X0142766Y0043581D01*
X0144730Y0043581D01*
X0146120Y0044970D01*
X0146120Y0046935D01*
X0144730Y0048324D01*
X0143603Y0048324D01*
X0138495Y0053433D01*
X0132269Y0053433D01*
X0131346Y0052511D01*
X0130756Y0051920D01*
X0130756Y0052978D01*
X0135148Y0057370D01*
X0140394Y0057370D01*
X0141191Y0056573D01*
X0143156Y0056573D01*
X0144545Y0057962D01*
X0144545Y0059927D01*
X0143156Y0061317D01*
X0141191Y0061317D01*
X0140394Y0060520D01*
X0133844Y0060520D01*
X0127606Y0054282D01*
X0127606Y0025345D01*
X0127348Y0025087D01*
X0125252Y0025087D01*
X0125254Y0025088D01*
X0125254Y0027053D01*
X0124654Y0027653D01*
X0124654Y0028630D01*
X0125143Y0028630D01*
X0125835Y0029322D01*
X0125835Y0033056D01*
X0125143Y0033748D01*
X0124063Y0033748D01*
X0124063Y0036890D01*
X0124663Y0037490D01*
X0124663Y0039455D01*
X0123274Y0040844D01*
X0121309Y0040844D01*
X0120709Y0040244D01*
X0120576Y0040244D01*
X0119985Y0040835D01*
X0115464Y0040835D01*
X0115316Y0040687D01*
X0115234Y0040769D01*
X0114916Y0040952D01*
X0114561Y0041047D01*
X0112902Y0041047D01*
X0112902Y0038571D01*
X0112311Y0038571D01*
X0112311Y0041047D01*
X0112233Y0041047D01*
X0112320Y0041097D01*
X0112580Y0041357D01*
X0112763Y0041675D01*
X0112858Y0042029D01*
X0112858Y0043984D01*
X0109890Y0043984D01*
X0109890Y0044772D01*
X0112858Y0044772D01*
X0112858Y0046727D01*
X0112763Y0047081D01*
X0112580Y0047399D01*
X0112320Y0047659D01*
X0112046Y0047817D01*
X0112646Y0048416D01*
X0112646Y0049102D01*
X0113855Y0049102D01*
X0115008Y0050255D01*
X0116780Y0052027D01*
X0116780Y0063838D01*
X0131374Y0078433D01*
X0148444Y0078433D01*
X0153000Y0073878D01*
X0153000Y0073228D01*
X0151119Y0071346D01*
X0150739Y0071346D01*
X0150591Y0071199D01*
X0150509Y0071281D01*
X0150191Y0071464D01*
X0149837Y0071559D01*
X0148177Y0071559D01*
X0148177Y0069083D01*
X0147587Y0069083D01*
X0147587Y0071559D01*
X0145927Y0071559D01*
X0145572Y0071464D01*
X0145254Y0071281D01*
X0144995Y0071021D01*
X0144812Y0070703D01*
X0144717Y0070349D01*
X0144717Y0069083D01*
X0147587Y0069083D01*
X0147587Y0068492D01*
X0148177Y0068492D01*
X0148177Y0066016D01*
X0149837Y0066016D01*
X0150191Y0066111D01*
X0150509Y0066294D01*
X0150591Y0066376D01*
X0150638Y0066330D01*
X0150638Y0064417D01*
X0150073Y0063852D01*
X0149654Y0062840D01*
X0149654Y0061743D01*
X0150073Y0060730D01*
X0150848Y0059955D01*
X0151861Y0059535D01*
X0152958Y0059535D01*
X0153971Y0059955D01*
X0154746Y0060730D01*
X0155165Y0061743D01*
X0155165Y0062840D01*
X0154746Y0063852D01*
X0154181Y0064417D01*
X0154181Y0066228D01*
X0155261Y0066228D01*
X0155570Y0066537D01*
X0155638Y0066281D01*
X0155822Y0065963D01*
X0156081Y0065704D01*
X0156399Y0065520D01*
X0156754Y0065425D01*
X0158413Y0065425D01*
X0158413Y0067901D01*
X0159004Y0067901D01*
X0159004Y0065425D01*
X0160664Y0065425D01*
X0160919Y0065494D01*
X0160668Y0065242D01*
X0160668Y0063277D01*
X0161071Y0062874D01*
X0161071Y0056976D01*
X0160778Y0056976D01*
X0160631Y0056829D01*
X0160549Y0056911D01*
X0160231Y0057094D01*
X0159876Y0057189D01*
X0158217Y0057189D01*
X0158217Y0054713D01*
X0157626Y0054713D01*
X0157626Y0057189D01*
X0155966Y0057189D01*
X0155612Y0057094D01*
X0155294Y0056911D01*
X0155034Y0056651D01*
X0154851Y0056333D01*
X0154756Y0055979D01*
X0154756Y0054713D01*
X0157626Y0054713D01*
X0157626Y0054122D01*
X0158217Y0054122D01*
X0158217Y0051646D01*
X0159876Y0051646D01*
X0160231Y0051741D01*
X0160549Y0051924D01*
X0160631Y0052006D01*
X0160778Y0051858D01*
X0161071Y0051858D01*
X0161071Y0051669D01*
X0160668Y0051266D01*
X0160668Y0049301D01*
X0161071Y0048898D01*
X0161071Y0041819D01*
X0160778Y0041819D01*
X0160631Y0041671D01*
X0160549Y0041753D01*
X0160231Y0041937D01*
X0159876Y0042031D01*
X0158217Y0042031D01*
X0158217Y0039555D01*
X0157626Y0039555D01*
X0157626Y0038965D01*
X0154756Y0038965D01*
X0154756Y0037698D01*
X0154851Y0037344D01*
X0155034Y0037026D01*
X0155294Y0036767D01*
X0155612Y0036583D01*
X0155966Y0036488D01*
X0157626Y0036488D01*
X0157626Y0038964D01*
X0158217Y0038964D01*
X0158217Y0036488D01*
X0159876Y0036488D01*
X0160231Y0036583D01*
X0160549Y0036767D01*
X0160631Y0036849D01*
X0160724Y0036755D01*
X0160668Y0036699D01*
X0160668Y0034734D01*
X0161071Y0034331D01*
X0161071Y0028039D01*
X0160778Y0028039D01*
X0160631Y0027892D01*
X0160549Y0027973D01*
X0160231Y0028157D01*
X0159876Y0028252D01*
X0158217Y0028252D01*
X0158217Y0025776D01*
X0157626Y0025776D01*
X0157626Y0028252D01*
X0155966Y0028252D01*
X0155612Y0028157D01*
X0155294Y0027973D01*
X0155034Y0027714D01*
X0154851Y0027396D01*
X0154756Y0027042D01*
X0154756Y0025776D01*
X0157626Y0025776D01*
X0157626Y0025185D01*
X0158217Y0025185D01*
X0158217Y0022709D01*
X0159876Y0022709D01*
X0160231Y0022804D01*
X0160549Y0022987D01*
X0160631Y0023069D01*
X0160778Y0022921D01*
X0161465Y0022921D01*
X0161465Y0022338D01*
X0161061Y0021935D01*
X0161061Y0019970D01*
X0162451Y0018581D01*
X0164415Y0018581D01*
X0165805Y0019970D01*
X0165805Y0021935D01*
X0165402Y0022338D01*
X0165402Y0023023D01*
X0165992Y0023613D01*
X0165992Y0027347D01*
X0165300Y0028039D01*
X0165008Y0028039D01*
X0165008Y0034331D01*
X0165411Y0034734D01*
X0165411Y0036699D01*
X0165355Y0036755D01*
X0165992Y0037393D01*
X0165992Y0041127D01*
X0165300Y0041819D01*
X0165008Y0041819D01*
X0165008Y0048898D01*
X0165411Y0049301D01*
X0165411Y0051266D01*
X0165008Y0051669D01*
X0165008Y0051858D01*
X0165300Y0051858D01*
X0165992Y0052550D01*
X0165992Y0056284D01*
X0165300Y0056976D01*
X0165008Y0056976D01*
X0165008Y0062874D01*
X0165411Y0063277D01*
X0165411Y0065242D01*
X0165015Y0065638D01*
X0166088Y0065638D01*
X0166780Y0066330D01*
X0166780Y0070064D01*
X0166088Y0070756D01*
X0161566Y0070756D01*
X0161418Y0070608D01*
X0161336Y0070690D01*
X0161018Y0070874D01*
X0160664Y0070968D01*
X0159004Y0070968D01*
X0159004Y0068492D01*
X0158413Y0068492D01*
X0158413Y0070968D01*
X0158257Y0070968D01*
X0158820Y0071531D01*
X0159299Y0072688D01*
X0159299Y0073402D01*
X0161771Y0075874D01*
X0167173Y0075874D01*
X0167173Y0074816D01*
X0166668Y0074312D01*
X0166189Y0073154D01*
X0166189Y0071901D01*
X0166668Y0070743D01*
X0167554Y0069857D01*
X0168712Y0069378D01*
X0169965Y0069378D01*
X0171123Y0069857D01*
X0172009Y0070743D01*
X0172488Y0071901D01*
X0172488Y0073154D01*
X0172009Y0074312D01*
X0171504Y0074816D01*
X0171504Y0077755D01*
X0170629Y0078630D01*
X0172284Y0078630D01*
X0173474Y0077439D01*
X0175439Y0077439D01*
X0176828Y0078829D01*
X0176828Y0080793D01*
X0175439Y0082183D01*
X0173474Y0082183D01*
X0173071Y0081780D01*
X0157931Y0081780D01*
X0157931Y0083549D01*
X0156541Y0084939D01*
X0155415Y0084939D01*
X0154833Y0085520D01*
X0126954Y0085520D01*
X0126031Y0084597D01*
X0107724Y0066290D01*
X0107724Y0059740D01*
X0106928Y0058943D01*
X0106928Y0056978D01*
X0107914Y0055992D01*
X0106945Y0055992D01*
X0106148Y0056789D01*
X0104183Y0056789D01*
X0102794Y0055400D01*
X0102794Y0054719D01*
X0102111Y0055402D01*
X0098377Y0055402D01*
X0097685Y0054710D01*
X0097685Y0054417D01*
X0096267Y0054417D01*
X0095900Y0054785D01*
X0094887Y0055205D01*
X0093790Y0055205D01*
X0092777Y0054785D01*
X0092410Y0054417D01*
X0085059Y0054417D01*
X0083906Y0053264D01*
X0083484Y0052843D01*
X0082331Y0051689D01*
X0082331Y0046504D01*
X0082078Y0046504D01*
X0081386Y0045812D01*
X0081386Y0042078D01*
X0082078Y0041386D01*
X0082921Y0041386D01*
X0082921Y0039661D01*
X0082526Y0040057D01*
X0081362Y0040057D01*
X0081362Y0040638D01*
X0078394Y0040638D01*
X0078394Y0041425D01*
X0081362Y0041425D01*
X0081362Y0043380D01*
X0081267Y0043735D01*
X0081084Y0044053D01*
X0080824Y0044312D01*
X0080550Y0044470D01*
X0081150Y0045070D01*
X0081150Y0050379D01*
X0080458Y0051071D01*
X0078489Y0051071D01*
X0078677Y0051258D01*
X0080557Y0051258D01*
X0081946Y0052648D01*
X0081946Y0054612D01*
X0080557Y0056002D01*
X0078984Y0056002D01*
X0078984Y0056088D01*
X0078836Y0056235D01*
X0078918Y0056317D01*
X0079102Y0056635D01*
X0079197Y0056990D01*
X0079197Y0058650D01*
X0076721Y0058650D01*
X0076721Y0059240D01*
X0079197Y0059240D01*
X0079197Y0058068D02*
X0106928Y0058068D01*
X0106928Y0057282D02*
X0079197Y0057282D01*
X0079022Y0056496D02*
X0103890Y0056496D01*
X0103104Y0055710D02*
X0080848Y0055710D01*
X0081634Y0054925D02*
X0093114Y0054925D01*
X0095563Y0054925D02*
X0097900Y0054925D01*
X0102588Y0054925D02*
X0102794Y0054925D01*
X0105165Y0054417D02*
X0110087Y0054417D01*
X0112646Y0056976D01*
X0112646Y0066228D01*
X0128787Y0082370D01*
X0152016Y0082370D01*
X0154181Y0080205D01*
X0174063Y0080205D01*
X0174457Y0079811D01*
X0176828Y0080074D02*
X0179953Y0080074D01*
X0179953Y0080860D02*
X0176762Y0080860D01*
X0175976Y0081646D02*
X0179953Y0081646D01*
X0179953Y0082431D02*
X0157931Y0082431D01*
X0157931Y0083217D02*
X0179953Y0083217D01*
X0179953Y0084003D02*
X0157477Y0084003D01*
X0156691Y0084789D02*
X0179953Y0084789D01*
X0179953Y0085575D02*
X0119365Y0085575D01*
X0120308Y0084789D02*
X0126224Y0084789D01*
X0125438Y0084003D02*
X0120725Y0084003D01*
X0120913Y0083217D02*
X0124652Y0083217D01*
X0123866Y0082431D02*
X0120913Y0082431D01*
X0120612Y0081646D02*
X0123080Y0081646D01*
X0122294Y0080860D02*
X0120035Y0080860D01*
X0118971Y0080074D02*
X0121508Y0080074D01*
X0120722Y0079288D02*
X0118185Y0079288D01*
X0117399Y0078502D02*
X0119936Y0078502D01*
X0119150Y0077716D02*
X0116120Y0077716D01*
X0118364Y0076930D02*
X0093583Y0076930D01*
X0092797Y0076144D02*
X0117578Y0076144D01*
X0116793Y0075358D02*
X0092012Y0075358D01*
X0091226Y0074572D02*
X0116007Y0074572D01*
X0115221Y0073786D02*
X0090440Y0073786D01*
X0089654Y0073001D02*
X0114435Y0073001D01*
X0113649Y0072215D02*
X0088868Y0072215D01*
X0088604Y0071951D02*
X0088604Y0071951D01*
X0088082Y0071429D02*
X0112863Y0071429D01*
X0112077Y0070643D02*
X0080559Y0070643D01*
X0080346Y0069857D02*
X0111291Y0069857D01*
X0110505Y0069071D02*
X0076031Y0069071D01*
X0076031Y0068285D02*
X0109719Y0068285D01*
X0108933Y0067499D02*
X0076031Y0067499D01*
X0076031Y0066713D02*
X0108148Y0066713D01*
X0107724Y0065927D02*
X0076262Y0065927D01*
X0076480Y0065141D02*
X0107724Y0065141D01*
X0107724Y0064355D02*
X0076480Y0064355D01*
X0076341Y0063570D02*
X0107724Y0063570D01*
X0107724Y0062784D02*
X0076015Y0062784D01*
X0076130Y0061998D02*
X0076720Y0061998D01*
X0076720Y0061212D02*
X0076130Y0061212D01*
X0076130Y0060426D02*
X0076720Y0060426D01*
X0076720Y0059640D02*
X0076130Y0059640D01*
X0076130Y0058854D02*
X0070126Y0058854D01*
X0070126Y0058068D02*
X0073654Y0058068D01*
X0073654Y0057282D02*
X0070126Y0057282D01*
X0073654Y0056496D02*
X0073829Y0056496D01*
X0073654Y0059640D02*
X0070585Y0059640D01*
X0071371Y0060426D02*
X0073654Y0060426D01*
X0076721Y0058854D02*
X0106928Y0058854D01*
X0107724Y0060426D02*
X0079197Y0060426D01*
X0079113Y0061212D02*
X0107724Y0061212D01*
X0107724Y0061998D02*
X0078371Y0061998D01*
X0070520Y0067760D02*
X0069540Y0066781D01*
X0069264Y0066114D01*
X0066466Y0063316D01*
X0066540Y0063496D01*
X0066692Y0064260D01*
X0063118Y0064260D01*
X0063118Y0065047D01*
X0066692Y0065047D01*
X0066540Y0065811D01*
X0066241Y0066533D01*
X0065807Y0067183D01*
X0065254Y0067736D01*
X0064604Y0068170D01*
X0063882Y0068470D01*
X0063118Y0068621D01*
X0063118Y0065047D01*
X0062331Y0065047D01*
X0062331Y0068621D01*
X0061567Y0068470D01*
X0060874Y0068183D01*
X0060874Y0069165D01*
X0064024Y0069165D01*
X0064024Y0072528D01*
X0064811Y0072528D01*
X0064811Y0073315D01*
X0064024Y0073315D01*
X0064024Y0076677D01*
X0060874Y0076677D01*
X0060874Y0086291D01*
X0094717Y0086291D01*
X0094717Y0083157D01*
X0092609Y0083157D01*
X0091596Y0082738D01*
X0090821Y0081963D01*
X0085126Y0076268D01*
X0080064Y0076268D01*
X0079867Y0076465D01*
X0071015Y0076465D01*
X0070323Y0075773D01*
X0070323Y0070070D01*
X0070520Y0069873D01*
X0070520Y0067760D01*
X0070258Y0067499D02*
X0065491Y0067499D01*
X0066121Y0066713D02*
X0069512Y0066713D01*
X0069077Y0065927D02*
X0066492Y0065927D01*
X0066674Y0065141D02*
X0068291Y0065141D01*
X0067505Y0064355D02*
X0063118Y0064355D01*
X0063118Y0064260D02*
X0063118Y0060686D01*
X0063882Y0060838D01*
X0064604Y0061137D01*
X0064770Y0061248D01*
X0064614Y0060871D01*
X0064614Y0050679D01*
X0064220Y0049729D01*
X0064220Y0048476D01*
X0064700Y0047318D01*
X0065586Y0046432D01*
X0066744Y0045953D01*
X0067997Y0045953D01*
X0068947Y0046346D01*
X0069046Y0046346D01*
X0069637Y0045756D01*
X0073371Y0045756D01*
X0073962Y0046346D01*
X0074850Y0046346D01*
X0074850Y0045070D01*
X0075450Y0044470D01*
X0075176Y0044312D01*
X0074916Y0044053D01*
X0074733Y0043735D01*
X0074709Y0043646D01*
X0074601Y0043708D01*
X0074246Y0043803D01*
X0072980Y0043803D01*
X0072980Y0040933D01*
X0072390Y0040933D01*
X0072390Y0043803D01*
X0071124Y0043803D01*
X0070769Y0043708D01*
X0070451Y0043525D01*
X0070192Y0043265D01*
X0070008Y0042947D01*
X0069913Y0042593D01*
X0069913Y0040933D01*
X0072390Y0040933D01*
X0072390Y0040342D01*
X0069913Y0040342D01*
X0069913Y0038683D01*
X0070008Y0038328D01*
X0070192Y0038010D01*
X0070274Y0037928D01*
X0070126Y0037781D01*
X0070126Y0036118D01*
X0069337Y0036907D01*
X0067372Y0036907D01*
X0065983Y0035518D01*
X0065983Y0033553D01*
X0067363Y0032173D01*
X0067030Y0032173D01*
X0065992Y0031135D01*
X0064471Y0029614D01*
X0063433Y0028576D01*
X0063433Y0021302D01*
X0065687Y0019047D01*
X0065687Y0018199D01*
X0067077Y0016809D01*
X0069041Y0016809D01*
X0069641Y0017409D01*
X0070227Y0017409D01*
X0070818Y0016819D01*
X0075340Y0016819D01*
X0075638Y0017117D01*
X0075936Y0016819D01*
X0080458Y0016819D01*
X0081150Y0017511D01*
X0081150Y0018787D01*
X0081536Y0018787D01*
X0081939Y0018384D01*
X0082293Y0018384D01*
X0081740Y0017831D01*
X0081740Y0015795D01*
X0081175Y0015230D01*
X0080756Y0014217D01*
X0080756Y0013121D01*
X0081093Y0012307D01*
X0060874Y0012307D01*
X0060874Y0061125D01*
X0061567Y0060838D01*
X0062331Y0060686D01*
X0062331Y0064260D01*
X0063118Y0064260D01*
X0063118Y0063570D02*
X0062331Y0063570D01*
X0062331Y0062784D02*
X0063118Y0062784D01*
X0063118Y0061998D02*
X0062331Y0061998D01*
X0062331Y0061212D02*
X0063118Y0061212D01*
X0064717Y0061212D02*
X0064755Y0061212D01*
X0064614Y0060426D02*
X0060874Y0060426D01*
X0060874Y0059640D02*
X0064614Y0059640D01*
X0064614Y0058854D02*
X0060874Y0058854D01*
X0060874Y0058068D02*
X0064614Y0058068D01*
X0064614Y0057282D02*
X0060874Y0057282D01*
X0060874Y0056496D02*
X0064614Y0056496D01*
X0064614Y0055710D02*
X0060874Y0055710D01*
X0060874Y0054925D02*
X0064614Y0054925D01*
X0064614Y0054139D02*
X0060874Y0054139D01*
X0060874Y0053353D02*
X0064614Y0053353D01*
X0064614Y0052567D02*
X0060874Y0052567D01*
X0060874Y0051781D02*
X0064614Y0051781D01*
X0064614Y0050995D02*
X0060874Y0050995D01*
X0060874Y0050209D02*
X0064419Y0050209D01*
X0064220Y0049423D02*
X0060874Y0049423D01*
X0060874Y0048637D02*
X0064220Y0048637D01*
X0064479Y0047851D02*
X0060874Y0047851D01*
X0060874Y0047065D02*
X0064953Y0047065D01*
X0065955Y0046279D02*
X0060874Y0046279D01*
X0060874Y0045494D02*
X0074850Y0045494D01*
X0074850Y0046279D02*
X0073895Y0046279D01*
X0075213Y0044708D02*
X0060874Y0044708D01*
X0060874Y0043922D02*
X0074841Y0043922D01*
X0072980Y0043136D02*
X0072390Y0043136D01*
X0072390Y0042350D02*
X0072980Y0042350D01*
X0072980Y0041564D02*
X0072390Y0041564D01*
X0072390Y0040778D02*
X0060874Y0040778D01*
X0060874Y0039992D02*
X0069913Y0039992D01*
X0069913Y0039206D02*
X0060874Y0039206D01*
X0060874Y0038420D02*
X0069984Y0038420D01*
X0070126Y0037634D02*
X0060874Y0037634D01*
X0060874Y0036849D02*
X0067313Y0036849D01*
X0066527Y0036063D02*
X0060874Y0036063D01*
X0060874Y0035277D02*
X0065983Y0035277D01*
X0065983Y0034491D02*
X0060874Y0034491D01*
X0060874Y0033705D02*
X0065983Y0033705D01*
X0066617Y0032919D02*
X0060874Y0032919D01*
X0060874Y0032133D02*
X0066990Y0032133D01*
X0066204Y0031347D02*
X0060874Y0031347D01*
X0060874Y0030561D02*
X0065418Y0030561D01*
X0064632Y0029775D02*
X0060874Y0029775D01*
X0060874Y0028989D02*
X0063846Y0028989D01*
X0063433Y0028203D02*
X0060874Y0028203D01*
X0060874Y0027418D02*
X0063433Y0027418D01*
X0063433Y0026632D02*
X0060874Y0026632D01*
X0060874Y0025846D02*
X0063433Y0025846D01*
X0063433Y0025060D02*
X0060874Y0025060D01*
X0060874Y0024274D02*
X0063433Y0024274D01*
X0063433Y0023488D02*
X0060874Y0023488D01*
X0060874Y0022702D02*
X0063433Y0022702D01*
X0063433Y0021916D02*
X0060874Y0021916D01*
X0060874Y0021130D02*
X0063604Y0021130D01*
X0064390Y0020344D02*
X0060874Y0020344D01*
X0060874Y0019558D02*
X0065176Y0019558D01*
X0065687Y0018773D02*
X0060874Y0018773D01*
X0060874Y0017987D02*
X0065900Y0017987D01*
X0066685Y0017201D02*
X0060874Y0017201D01*
X0060874Y0016415D02*
X0081740Y0016415D01*
X0081740Y0017201D02*
X0080840Y0017201D01*
X0081150Y0017987D02*
X0081896Y0017987D01*
X0081551Y0018773D02*
X0081150Y0018773D01*
X0079575Y0020362D02*
X0078591Y0019378D01*
X0078197Y0019378D01*
X0079575Y0020362D02*
X0082528Y0020362D01*
X0082921Y0020756D01*
X0078197Y0024693D02*
X0078197Y0025677D01*
X0081937Y0025677D01*
X0089811Y0024299D02*
X0089811Y0029024D01*
X0085283Y0033551D01*
X0087449Y0035913D02*
X0091386Y0031976D01*
X0091386Y0025087D01*
X0092961Y0023512D01*
X0128000Y0023512D01*
X0129181Y0024693D01*
X0129181Y0053630D01*
X0134496Y0058945D01*
X0142173Y0058945D01*
X0144545Y0058854D02*
X0161071Y0058854D01*
X0161071Y0058068D02*
X0144545Y0058068D01*
X0143865Y0057282D02*
X0161071Y0057282D01*
X0158217Y0056496D02*
X0157626Y0056496D01*
X0157626Y0055710D02*
X0158217Y0055710D01*
X0158217Y0054925D02*
X0157626Y0054925D01*
X0157626Y0054139D02*
X0131917Y0054139D01*
X0132189Y0053353D02*
X0131131Y0053353D01*
X0131403Y0052567D02*
X0130756Y0052567D01*
X0132921Y0051858D02*
X0137843Y0051858D01*
X0143748Y0045953D01*
X0141376Y0045494D02*
X0138363Y0045494D01*
X0137578Y0046279D02*
X0141194Y0046279D01*
X0140408Y0047065D02*
X0136792Y0047065D01*
X0136080Y0047851D02*
X0139622Y0047851D01*
X0138836Y0048637D02*
X0136080Y0048637D01*
X0135561Y0049423D02*
X0138051Y0049423D01*
X0137265Y0050209D02*
X0134775Y0050209D01*
X0132921Y0051858D02*
X0130756Y0049693D01*
X0130756Y0023906D01*
X0128787Y0021937D01*
X0092173Y0021937D01*
X0089811Y0024299D01*
X0092961Y0025739D02*
X0092961Y0032629D01*
X0089820Y0035769D01*
X0089820Y0036896D01*
X0088431Y0038285D01*
X0086858Y0038285D01*
X0086858Y0041435D01*
X0087147Y0041268D01*
X0087502Y0041173D01*
X0089161Y0041173D01*
X0089161Y0043650D01*
X0089752Y0043650D01*
X0089752Y0044240D01*
X0092622Y0044240D01*
X0092622Y0045506D01*
X0092527Y0045861D01*
X0092344Y0046179D01*
X0092084Y0046438D01*
X0091766Y0046622D01*
X0091412Y0046717D01*
X0089752Y0046717D01*
X0089752Y0044240D01*
X0089161Y0044240D01*
X0089161Y0046717D01*
X0087502Y0046717D01*
X0087147Y0046622D01*
X0086829Y0046438D01*
X0086747Y0046356D01*
X0086599Y0046504D01*
X0086268Y0046504D01*
X0086268Y0050059D01*
X0086689Y0050480D01*
X0092410Y0050480D01*
X0092777Y0050112D01*
X0093790Y0049693D01*
X0094887Y0049693D01*
X0095900Y0050112D01*
X0096267Y0050480D01*
X0097685Y0050480D01*
X0097685Y0050188D01*
X0097833Y0050040D01*
X0097751Y0049958D01*
X0097567Y0049640D01*
X0097472Y0049286D01*
X0097472Y0047626D01*
X0099949Y0047626D01*
X0099949Y0047035D01*
X0100539Y0047035D01*
X0100539Y0044165D01*
X0101806Y0044165D01*
X0102160Y0044260D01*
X0102478Y0044444D01*
X0102737Y0044703D01*
X0102921Y0045021D01*
X0103016Y0045376D01*
X0103016Y0047035D01*
X0100539Y0047035D01*
X0100539Y0047626D01*
X0103016Y0047626D01*
X0103016Y0049286D01*
X0102959Y0049496D01*
X0106346Y0049496D01*
X0106346Y0048416D01*
X0106946Y0047817D01*
X0106672Y0047659D01*
X0106412Y0047399D01*
X0106229Y0047081D01*
X0106134Y0046727D01*
X0106134Y0044772D01*
X0109102Y0044772D01*
X0109102Y0043984D01*
X0106134Y0043984D01*
X0106134Y0042029D01*
X0106229Y0041675D01*
X0106412Y0041357D01*
X0106672Y0041097D01*
X0106990Y0040914D01*
X0107344Y0040819D01*
X0109102Y0040819D01*
X0109102Y0043984D01*
X0109890Y0043984D01*
X0109890Y0040819D01*
X0110066Y0040819D01*
X0109979Y0040769D01*
X0109719Y0040509D01*
X0109536Y0040191D01*
X0109441Y0039837D01*
X0109441Y0038571D01*
X0112311Y0038571D01*
X0112311Y0037980D01*
X0112902Y0037980D01*
X0112902Y0035504D01*
X0114561Y0035504D01*
X0114916Y0035599D01*
X0115234Y0035782D01*
X0115316Y0035864D01*
X0115464Y0035717D01*
X0119985Y0035717D01*
X0120520Y0036251D01*
X0120520Y0033647D01*
X0120473Y0033600D01*
X0120391Y0033682D01*
X0120073Y0033866D01*
X0119719Y0033961D01*
X0118059Y0033961D01*
X0118059Y0031484D01*
X0117468Y0031484D01*
X0117468Y0030894D01*
X0114598Y0030894D01*
X0114598Y0029628D01*
X0114693Y0029273D01*
X0114877Y0028955D01*
X0115136Y0028696D01*
X0115454Y0028512D01*
X0115809Y0028417D01*
X0117468Y0028417D01*
X0117468Y0030894D01*
X0118059Y0030894D01*
X0118059Y0028417D01*
X0119719Y0028417D01*
X0120073Y0028512D01*
X0120391Y0028696D01*
X0120473Y0028778D01*
X0120621Y0028630D01*
X0121110Y0028630D01*
X0121110Y0027653D01*
X0120510Y0027053D01*
X0120510Y0025088D01*
X0120512Y0025087D01*
X0093613Y0025087D01*
X0092961Y0025739D01*
X0092961Y0025846D02*
X0120510Y0025846D01*
X0120510Y0026632D02*
X0092961Y0026632D01*
X0092961Y0027418D02*
X0120875Y0027418D01*
X0121110Y0028203D02*
X0092961Y0028203D01*
X0092961Y0028989D02*
X0114857Y0028989D01*
X0114598Y0029775D02*
X0092961Y0029775D01*
X0092961Y0030561D02*
X0114598Y0030561D01*
X0114598Y0031484D02*
X0117468Y0031484D01*
X0117468Y0033961D01*
X0115809Y0033961D01*
X0115454Y0033866D01*
X0115136Y0033682D01*
X0114877Y0033423D01*
X0114693Y0033105D01*
X0114598Y0032750D01*
X0114598Y0031484D01*
X0114598Y0032133D02*
X0092961Y0032133D01*
X0092961Y0031347D02*
X0117468Y0031347D01*
X0117468Y0030561D02*
X0118059Y0030561D01*
X0118059Y0029775D02*
X0117468Y0029775D01*
X0117468Y0028989D02*
X0118059Y0028989D01*
X0118059Y0032133D02*
X0117468Y0032133D01*
X0117468Y0032919D02*
X0118059Y0032919D01*
X0118059Y0033705D02*
X0117468Y0033705D01*
X0115176Y0033705D02*
X0091884Y0033705D01*
X0091099Y0034491D02*
X0120520Y0034491D01*
X0120520Y0035277D02*
X0090313Y0035277D01*
X0089820Y0036063D02*
X0109707Y0036063D01*
X0109719Y0036042D02*
X0109979Y0035782D01*
X0110297Y0035599D01*
X0110651Y0035504D01*
X0112311Y0035504D01*
X0112311Y0037980D01*
X0109441Y0037980D01*
X0109441Y0036714D01*
X0109536Y0036360D01*
X0109719Y0036042D01*
X0109441Y0036849D02*
X0089820Y0036849D01*
X0089082Y0037634D02*
X0109441Y0037634D01*
X0109441Y0039206D02*
X0086858Y0039206D01*
X0086858Y0038420D02*
X0112311Y0038420D01*
X0112311Y0037634D02*
X0112902Y0037634D01*
X0112902Y0036849D02*
X0112311Y0036849D01*
X0112311Y0036063D02*
X0112902Y0036063D01*
X0112902Y0039206D02*
X0112311Y0039206D01*
X0112311Y0039992D02*
X0112902Y0039992D01*
X0112902Y0040778D02*
X0112311Y0040778D01*
X0112699Y0041564D02*
X0127606Y0041564D01*
X0127606Y0042350D02*
X0112858Y0042350D01*
X0112858Y0043136D02*
X0127606Y0043136D01*
X0127606Y0043922D02*
X0112858Y0043922D01*
X0112858Y0045494D02*
X0127606Y0045494D01*
X0127606Y0046279D02*
X0123610Y0046279D01*
X0124269Y0046939D02*
X0122880Y0045550D01*
X0120915Y0045550D01*
X0119526Y0046939D01*
X0119526Y0048904D01*
X0120323Y0049700D01*
X0120323Y0056841D01*
X0129172Y0065690D01*
X0129172Y0066817D01*
X0130561Y0068206D01*
X0132526Y0068206D01*
X0133915Y0066817D01*
X0133915Y0064852D01*
X0132526Y0063463D01*
X0131399Y0063463D01*
X0123472Y0055537D01*
X0123472Y0049700D01*
X0124269Y0048904D01*
X0124269Y0046939D01*
X0124269Y0047065D02*
X0127606Y0047065D01*
X0127606Y0047851D02*
X0124269Y0047851D01*
X0124269Y0048637D02*
X0127606Y0048637D01*
X0127606Y0049423D02*
X0123750Y0049423D01*
X0123472Y0050209D02*
X0127606Y0050209D01*
X0127606Y0050995D02*
X0123472Y0050995D01*
X0123472Y0051781D02*
X0127606Y0051781D01*
X0127606Y0052567D02*
X0123472Y0052567D01*
X0123472Y0053353D02*
X0127606Y0053353D01*
X0127606Y0054139D02*
X0123472Y0054139D01*
X0123472Y0054925D02*
X0128249Y0054925D01*
X0129034Y0055710D02*
X0123646Y0055710D01*
X0124432Y0056496D02*
X0129820Y0056496D01*
X0130606Y0057282D02*
X0125218Y0057282D01*
X0126004Y0058068D02*
X0131392Y0058068D01*
X0132178Y0058854D02*
X0126790Y0058854D01*
X0127576Y0059640D02*
X0132964Y0059640D01*
X0133750Y0060426D02*
X0128362Y0060426D01*
X0129148Y0061212D02*
X0141086Y0061212D01*
X0143260Y0061212D02*
X0149874Y0061212D01*
X0149654Y0061998D02*
X0129933Y0061998D01*
X0130719Y0062784D02*
X0149654Y0062784D01*
X0149956Y0063570D02*
X0132632Y0063570D01*
X0133418Y0064355D02*
X0150576Y0064355D01*
X0150638Y0065141D02*
X0133915Y0065141D01*
X0133915Y0065927D02*
X0150638Y0065927D01*
X0148177Y0066713D02*
X0147587Y0066713D01*
X0147587Y0066016D02*
X0145927Y0066016D01*
X0145572Y0066111D01*
X0145254Y0066294D01*
X0144995Y0066554D01*
X0144812Y0066871D01*
X0144717Y0067226D01*
X0144717Y0068492D01*
X0147587Y0068492D01*
X0147587Y0066016D01*
X0147587Y0067499D02*
X0148177Y0067499D01*
X0148177Y0068285D02*
X0147587Y0068285D01*
X0147587Y0069071D02*
X0122012Y0069071D01*
X0121226Y0068285D02*
X0144717Y0068285D01*
X0144717Y0067499D02*
X0133233Y0067499D01*
X0133915Y0066713D02*
X0144903Y0066713D01*
X0144717Y0069857D02*
X0122798Y0069857D01*
X0123584Y0070643D02*
X0144795Y0070643D01*
X0145511Y0071429D02*
X0124370Y0071429D01*
X0125156Y0072215D02*
X0151987Y0072215D01*
X0152773Y0073001D02*
X0125942Y0073001D01*
X0126728Y0073786D02*
X0153000Y0073786D01*
X0152305Y0074572D02*
X0127514Y0074572D01*
X0128300Y0075358D02*
X0151519Y0075358D01*
X0150733Y0076144D02*
X0129086Y0076144D01*
X0129871Y0076930D02*
X0149947Y0076930D01*
X0149162Y0077716D02*
X0130657Y0077716D01*
X0116557Y0085575D02*
X0110102Y0085575D01*
X0110102Y0084789D02*
X0115613Y0084789D01*
X0115106Y0084003D02*
X0110102Y0084003D01*
X0110102Y0083217D02*
X0114320Y0083217D01*
X0113827Y0085323D02*
X0114614Y0086110D01*
X0125244Y0086110D01*
X0147587Y0071429D02*
X0148177Y0071429D01*
X0148177Y0070643D02*
X0147587Y0070643D01*
X0147587Y0069857D02*
X0148177Y0069857D01*
X0150253Y0071429D02*
X0151201Y0071429D01*
X0158413Y0070643D02*
X0159004Y0070643D01*
X0159004Y0069857D02*
X0158413Y0069857D01*
X0158413Y0069071D02*
X0159004Y0069071D01*
X0159004Y0067499D02*
X0158413Y0067499D01*
X0158413Y0066713D02*
X0159004Y0066713D01*
X0159004Y0065927D02*
X0158413Y0065927D01*
X0160668Y0065141D02*
X0154181Y0065141D01*
X0154181Y0065927D02*
X0155858Y0065927D01*
X0154243Y0064355D02*
X0160668Y0064355D01*
X0160668Y0063570D02*
X0154863Y0063570D01*
X0155165Y0062784D02*
X0161071Y0062784D01*
X0161071Y0061998D02*
X0155165Y0061998D01*
X0154945Y0061212D02*
X0161071Y0061212D01*
X0161071Y0060426D02*
X0154441Y0060426D01*
X0153210Y0059640D02*
X0161071Y0059640D01*
X0165008Y0059640D02*
X0175681Y0059640D01*
X0176467Y0060426D02*
X0165008Y0060426D01*
X0165008Y0061212D02*
X0177252Y0061212D01*
X0178038Y0061998D02*
X0165008Y0061998D01*
X0165008Y0062784D02*
X0178581Y0062784D01*
X0178581Y0063570D02*
X0165411Y0063570D01*
X0165411Y0064355D02*
X0179269Y0064355D01*
X0180953Y0062685D02*
X0176031Y0057764D01*
X0176031Y0032764D01*
X0181937Y0026858D01*
X0179565Y0026632D02*
X0165992Y0026632D01*
X0165992Y0025846D02*
X0179596Y0025846D01*
X0180381Y0025060D02*
X0165992Y0025060D01*
X0165992Y0024274D02*
X0195504Y0024274D01*
X0195504Y0025060D02*
X0183493Y0025060D01*
X0184278Y0025846D02*
X0195504Y0025846D01*
X0195504Y0023488D02*
X0165867Y0023488D01*
X0165402Y0022702D02*
X0195504Y0022702D01*
X0189969Y0029299D02*
X0189850Y0029417D01*
X0186071Y0029417D01*
X0185874Y0029614D01*
X0184693Y0029614D01*
X0184496Y0029811D01*
X0184496Y0034535D01*
X0179181Y0039850D01*
X0179181Y0051465D01*
X0181937Y0054220D01*
X0177606Y0056976D02*
X0179969Y0059339D01*
X0186465Y0059339D01*
X0186858Y0059732D01*
X0189535Y0059732D01*
X0189969Y0059299D01*
X0183418Y0061998D02*
X0183324Y0061998D01*
X0183324Y0062784D02*
X0195504Y0062784D01*
X0195504Y0063570D02*
X0191491Y0063570D01*
X0192276Y0064355D02*
X0195504Y0064355D01*
X0195504Y0065141D02*
X0192576Y0065141D01*
X0192576Y0065927D02*
X0195504Y0065927D01*
X0190205Y0065638D02*
X0190205Y0069181D01*
X0190087Y0069299D01*
X0189969Y0069299D01*
X0188866Y0068197D01*
X0187833Y0065927D02*
X0166377Y0065927D01*
X0166780Y0066713D02*
X0183305Y0066713D01*
X0182882Y0067499D02*
X0166780Y0067499D01*
X0166780Y0068285D02*
X0182882Y0068285D01*
X0182882Y0069071D02*
X0166780Y0069071D01*
X0166780Y0069857D02*
X0167556Y0069857D01*
X0166769Y0070643D02*
X0166201Y0070643D01*
X0166385Y0071429D02*
X0158718Y0071429D01*
X0159103Y0072215D02*
X0166189Y0072215D01*
X0166189Y0073001D02*
X0159299Y0073001D01*
X0159683Y0073786D02*
X0166451Y0073786D01*
X0166929Y0074572D02*
X0160469Y0074572D01*
X0161255Y0075358D02*
X0167173Y0075358D01*
X0171504Y0075358D02*
X0195504Y0075358D01*
X0195504Y0074572D02*
X0171748Y0074572D01*
X0172226Y0073786D02*
X0195504Y0073786D01*
X0195504Y0073001D02*
X0172488Y0073001D01*
X0172488Y0072215D02*
X0195504Y0072215D01*
X0195504Y0076144D02*
X0171504Y0076144D01*
X0171504Y0076930D02*
X0180288Y0076930D01*
X0179953Y0077716D02*
X0175716Y0077716D01*
X0176502Y0078502D02*
X0179953Y0078502D01*
X0179953Y0079288D02*
X0176828Y0079288D01*
X0173198Y0077716D02*
X0171504Y0077716D01*
X0170757Y0078502D02*
X0172412Y0078502D01*
X0172293Y0071429D02*
X0182882Y0071429D01*
X0182882Y0070643D02*
X0171908Y0070643D01*
X0171121Y0069857D02*
X0182882Y0069857D01*
X0187833Y0065141D02*
X0165411Y0065141D01*
X0165008Y0058854D02*
X0174895Y0058854D01*
X0174457Y0058068D02*
X0165008Y0058068D01*
X0165008Y0057282D02*
X0174457Y0057282D01*
X0174457Y0056496D02*
X0165780Y0056496D01*
X0165992Y0055710D02*
X0174457Y0055710D01*
X0174457Y0054925D02*
X0165992Y0054925D01*
X0165992Y0054139D02*
X0174457Y0054139D01*
X0174457Y0053353D02*
X0165992Y0053353D01*
X0165992Y0052567D02*
X0174457Y0052567D01*
X0174457Y0051781D02*
X0165008Y0051781D01*
X0165411Y0050995D02*
X0174457Y0050995D01*
X0174457Y0050209D02*
X0165411Y0050209D01*
X0165411Y0049423D02*
X0174457Y0049423D01*
X0174457Y0048637D02*
X0165008Y0048637D01*
X0165008Y0047851D02*
X0174457Y0047851D01*
X0174457Y0047065D02*
X0165008Y0047065D01*
X0165008Y0046279D02*
X0174457Y0046279D01*
X0174457Y0045494D02*
X0165008Y0045494D01*
X0165008Y0044708D02*
X0174457Y0044708D01*
X0174457Y0043922D02*
X0165008Y0043922D01*
X0165008Y0043136D02*
X0174457Y0043136D01*
X0174457Y0042350D02*
X0165008Y0042350D01*
X0165555Y0041564D02*
X0174457Y0041564D01*
X0174457Y0040778D02*
X0165992Y0040778D01*
X0165992Y0039992D02*
X0174457Y0039992D01*
X0174457Y0039206D02*
X0165992Y0039206D01*
X0165992Y0038420D02*
X0174457Y0038420D01*
X0174457Y0037634D02*
X0165992Y0037634D01*
X0165448Y0036849D02*
X0174457Y0036849D01*
X0174457Y0036063D02*
X0165411Y0036063D01*
X0165411Y0035277D02*
X0174457Y0035277D01*
X0174457Y0034491D02*
X0165168Y0034491D01*
X0165008Y0033705D02*
X0174457Y0033705D01*
X0174457Y0032919D02*
X0165008Y0032919D01*
X0165008Y0032133D02*
X0174457Y0032133D01*
X0175221Y0031347D02*
X0165008Y0031347D01*
X0165008Y0030561D02*
X0176007Y0030561D01*
X0176793Y0029775D02*
X0165008Y0029775D01*
X0165008Y0028989D02*
X0177579Y0028989D01*
X0178365Y0028203D02*
X0165008Y0028203D01*
X0165922Y0027418D02*
X0179151Y0027418D01*
X0180536Y0021916D02*
X0165805Y0021916D01*
X0165805Y0021130D02*
X0179953Y0021130D01*
X0179953Y0020344D02*
X0165805Y0020344D01*
X0165393Y0019558D02*
X0179953Y0019558D01*
X0179953Y0018773D02*
X0164607Y0018773D01*
X0162259Y0018773D02*
X0145542Y0018773D01*
X0146317Y0017987D02*
X0179953Y0017987D01*
X0179953Y0017201D02*
X0165027Y0017201D01*
X0165813Y0016415D02*
X0179953Y0016415D01*
X0179953Y0015629D02*
X0166395Y0015629D01*
X0166395Y0014843D02*
X0179953Y0014843D01*
X0179953Y0014057D02*
X0166395Y0014057D01*
X0165798Y0013271D02*
X0179953Y0013271D01*
X0179953Y0012485D02*
X0165012Y0012485D01*
X0163035Y0012485D02*
X0125484Y0012485D01*
X0125818Y0013271D02*
X0138966Y0013271D01*
X0138180Y0014057D02*
X0125945Y0014057D01*
X0125945Y0014457D02*
X0125945Y0014612D01*
X0125807Y0015303D01*
X0125538Y0015953D01*
X0125147Y0016539D01*
X0124649Y0017037D01*
X0124063Y0017428D01*
X0123413Y0017697D01*
X0122722Y0017835D01*
X0122567Y0017835D01*
X0122567Y0014457D01*
X0125945Y0014457D01*
X0125899Y0014843D02*
X0137395Y0014843D01*
X0136609Y0015629D02*
X0125672Y0015629D01*
X0125230Y0016415D02*
X0136465Y0016415D01*
X0136465Y0017201D02*
X0124403Y0017201D01*
X0122567Y0017201D02*
X0122173Y0017201D01*
X0122173Y0016415D02*
X0122567Y0016415D01*
X0122567Y0015629D02*
X0122173Y0015629D01*
X0122173Y0014843D02*
X0122567Y0014843D01*
X0120337Y0017201D02*
X0119056Y0017201D01*
X0118945Y0017987D02*
X0136465Y0017987D01*
X0136465Y0018773D02*
X0118945Y0018773D01*
X0118236Y0019558D02*
X0136465Y0019558D01*
X0136465Y0020344D02*
X0117450Y0020344D01*
X0115402Y0020165D02*
X0117370Y0018197D01*
X0117370Y0014260D01*
X0112370Y0014260D02*
X0109024Y0017606D01*
X0092173Y0017606D01*
X0090598Y0016031D01*
X0086858Y0016031D02*
X0090992Y0020165D01*
X0115402Y0020165D01*
X0125254Y0025846D02*
X0127606Y0025846D01*
X0127606Y0026632D02*
X0125254Y0026632D01*
X0124889Y0027418D02*
X0127606Y0027418D01*
X0127606Y0028203D02*
X0124654Y0028203D01*
X0125502Y0028989D02*
X0127606Y0028989D01*
X0127606Y0029775D02*
X0125835Y0029775D01*
X0125835Y0030561D02*
X0127606Y0030561D01*
X0127606Y0031347D02*
X0125835Y0031347D01*
X0125835Y0032133D02*
X0127606Y0032133D01*
X0127606Y0032919D02*
X0125835Y0032919D01*
X0125186Y0033705D02*
X0127606Y0033705D01*
X0127606Y0034491D02*
X0124063Y0034491D01*
X0124063Y0035277D02*
X0127606Y0035277D01*
X0127606Y0036063D02*
X0124063Y0036063D01*
X0124063Y0036849D02*
X0127606Y0036849D01*
X0127606Y0037634D02*
X0124663Y0037634D01*
X0124663Y0038420D02*
X0127606Y0038420D01*
X0127606Y0039206D02*
X0124663Y0039206D01*
X0124126Y0039992D02*
X0127606Y0039992D01*
X0127606Y0040778D02*
X0123340Y0040778D01*
X0121243Y0040778D02*
X0120042Y0040778D01*
X0115407Y0040778D02*
X0115218Y0040778D01*
X0109995Y0040778D02*
X0086858Y0040778D01*
X0086858Y0039992D02*
X0109483Y0039992D01*
X0109102Y0041564D02*
X0109890Y0041564D01*
X0109890Y0042350D02*
X0109102Y0042350D01*
X0109102Y0043136D02*
X0109890Y0043136D01*
X0109890Y0043922D02*
X0109102Y0043922D01*
X0109102Y0044708D02*
X0102740Y0044708D01*
X0103016Y0045494D02*
X0106134Y0045494D01*
X0106134Y0046279D02*
X0103016Y0046279D01*
X0100539Y0046279D02*
X0099949Y0046279D01*
X0099949Y0047035D02*
X0099949Y0044165D01*
X0098683Y0044165D01*
X0098328Y0044260D01*
X0098010Y0044444D01*
X0097751Y0044703D01*
X0097567Y0045021D01*
X0097472Y0045376D01*
X0097472Y0047035D01*
X0099949Y0047035D01*
X0099949Y0047065D02*
X0086268Y0047065D01*
X0086268Y0047851D02*
X0097472Y0047851D01*
X0097472Y0048637D02*
X0086268Y0048637D01*
X0086268Y0049423D02*
X0097509Y0049423D01*
X0097685Y0050209D02*
X0095996Y0050209D01*
X0092681Y0050209D02*
X0086418Y0050209D01*
X0083484Y0052843D02*
X0083484Y0052843D01*
X0083208Y0052567D02*
X0081866Y0052567D01*
X0081946Y0053353D02*
X0083994Y0053353D01*
X0083906Y0053264D02*
X0083906Y0053264D01*
X0084780Y0054139D02*
X0081946Y0054139D01*
X0082422Y0051781D02*
X0081080Y0051781D01*
X0080534Y0050995D02*
X0082331Y0050995D01*
X0082331Y0050209D02*
X0081150Y0050209D01*
X0081150Y0049423D02*
X0082331Y0049423D01*
X0082331Y0048637D02*
X0081150Y0048637D01*
X0081150Y0047851D02*
X0082331Y0047851D01*
X0082331Y0047065D02*
X0081150Y0047065D01*
X0081150Y0046279D02*
X0081853Y0046279D01*
X0081386Y0045494D02*
X0081150Y0045494D01*
X0081386Y0044708D02*
X0080787Y0044708D01*
X0081159Y0043922D02*
X0081386Y0043922D01*
X0081362Y0043136D02*
X0081386Y0043136D01*
X0081362Y0042350D02*
X0081386Y0042350D01*
X0081362Y0041564D02*
X0081900Y0041564D01*
X0082921Y0040778D02*
X0078394Y0040778D01*
X0078394Y0040638D02*
X0078394Y0037472D01*
X0079104Y0037472D01*
X0076622Y0034991D01*
X0076622Y0033686D01*
X0076622Y0032961D01*
X0075936Y0032961D01*
X0075638Y0032662D01*
X0075340Y0032961D01*
X0074946Y0032961D01*
X0075244Y0033259D01*
X0075244Y0037711D01*
X0075494Y0037567D01*
X0075848Y0037472D01*
X0077606Y0037472D01*
X0077606Y0040638D01*
X0074638Y0040638D01*
X0074638Y0040342D01*
X0072980Y0040342D01*
X0072980Y0040933D01*
X0075457Y0040933D01*
X0075457Y0041425D01*
X0077606Y0041425D01*
X0077606Y0040638D01*
X0078394Y0040638D01*
X0078394Y0039992D02*
X0077606Y0039992D01*
X0077606Y0039206D02*
X0078394Y0039206D01*
X0078394Y0038420D02*
X0077606Y0038420D01*
X0077606Y0037634D02*
X0078394Y0037634D01*
X0078480Y0036849D02*
X0075244Y0036849D01*
X0075244Y0037634D02*
X0075377Y0037634D01*
X0075244Y0036063D02*
X0077694Y0036063D01*
X0076908Y0035277D02*
X0075244Y0035277D01*
X0075244Y0034491D02*
X0076622Y0034491D01*
X0076622Y0033705D02*
X0075244Y0033705D01*
X0075381Y0032919D02*
X0075894Y0032919D01*
X0078197Y0034339D02*
X0081543Y0037685D01*
X0082590Y0039992D02*
X0082921Y0039992D01*
X0077606Y0040778D02*
X0072980Y0040778D01*
X0069913Y0041564D02*
X0060874Y0041564D01*
X0060874Y0042350D02*
X0069913Y0042350D01*
X0070117Y0043136D02*
X0060874Y0043136D01*
X0068785Y0046279D02*
X0069113Y0046279D01*
X0069395Y0036849D02*
X0070126Y0036849D01*
X0078197Y0034339D02*
X0078197Y0030402D01*
X0092670Y0032919D02*
X0114644Y0032919D01*
X0120352Y0033705D02*
X0120520Y0033705D01*
X0120520Y0036063D02*
X0120331Y0036063D01*
X0132331Y0036063D02*
X0136465Y0036063D01*
X0136465Y0036849D02*
X0132331Y0036849D01*
X0132331Y0037634D02*
X0136465Y0037634D01*
X0136465Y0038420D02*
X0132331Y0038420D01*
X0132331Y0039206D02*
X0136465Y0039206D01*
X0136465Y0039992D02*
X0132331Y0039992D01*
X0132331Y0040778D02*
X0136465Y0040778D01*
X0136465Y0041564D02*
X0132331Y0041564D01*
X0132331Y0042350D02*
X0136465Y0042350D01*
X0136267Y0043136D02*
X0132331Y0043136D01*
X0132331Y0043922D02*
X0135481Y0043922D01*
X0134695Y0044708D02*
X0132331Y0044708D01*
X0132331Y0045494D02*
X0133909Y0045494D01*
X0133709Y0047921D02*
X0138039Y0043591D01*
X0138039Y0016425D01*
X0140008Y0014457D01*
X0163630Y0014457D01*
X0164024Y0014850D01*
X0162234Y0016415D02*
X0146317Y0016415D01*
X0146317Y0017201D02*
X0163020Y0017201D01*
X0161473Y0019558D02*
X0143629Y0019558D01*
X0142843Y0020344D02*
X0161061Y0020344D01*
X0161061Y0021130D02*
X0142173Y0021130D01*
X0142173Y0021916D02*
X0161061Y0021916D01*
X0161465Y0022702D02*
X0142173Y0022702D01*
X0142173Y0023488D02*
X0154895Y0023488D01*
X0154851Y0023564D02*
X0155034Y0023247D01*
X0155294Y0022987D01*
X0155612Y0022804D01*
X0155966Y0022709D01*
X0157626Y0022709D01*
X0157626Y0025185D01*
X0154756Y0025185D01*
X0154756Y0023919D01*
X0154851Y0023564D01*
X0154756Y0024274D02*
X0142173Y0024274D01*
X0142173Y0025060D02*
X0154756Y0025060D01*
X0154756Y0025846D02*
X0142173Y0025846D01*
X0142173Y0026632D02*
X0154756Y0026632D01*
X0154863Y0027418D02*
X0142173Y0027418D01*
X0142173Y0028203D02*
X0155785Y0028203D01*
X0157626Y0028203D02*
X0158217Y0028203D01*
X0158217Y0027418D02*
X0157626Y0027418D01*
X0157626Y0026632D02*
X0158217Y0026632D01*
X0158217Y0025846D02*
X0157626Y0025846D01*
X0157626Y0025060D02*
X0158217Y0025060D01*
X0158217Y0024274D02*
X0157626Y0024274D01*
X0157626Y0023488D02*
X0158217Y0023488D01*
X0160057Y0028203D02*
X0161071Y0028203D01*
X0161071Y0028989D02*
X0142173Y0028989D01*
X0142173Y0029775D02*
X0161071Y0029775D01*
X0161071Y0030561D02*
X0142173Y0030561D01*
X0142173Y0031347D02*
X0161071Y0031347D01*
X0161071Y0032133D02*
X0142173Y0032133D01*
X0142927Y0032919D02*
X0161071Y0032919D01*
X0161071Y0033705D02*
X0142970Y0033705D01*
X0142970Y0034491D02*
X0160911Y0034491D01*
X0160668Y0035277D02*
X0142621Y0035277D01*
X0141835Y0036063D02*
X0160668Y0036063D01*
X0160631Y0036849D02*
X0160631Y0036849D01*
X0158217Y0036849D02*
X0157626Y0036849D01*
X0157626Y0037634D02*
X0158217Y0037634D01*
X0158217Y0038420D02*
X0157626Y0038420D01*
X0157626Y0039206D02*
X0139614Y0039206D01*
X0139614Y0038420D02*
X0154756Y0038420D01*
X0154773Y0037634D02*
X0139614Y0037634D01*
X0139614Y0036849D02*
X0155212Y0036849D01*
X0154756Y0039555D02*
X0157626Y0039555D01*
X0157626Y0042031D01*
X0155966Y0042031D01*
X0155612Y0041937D01*
X0155294Y0041753D01*
X0155034Y0041494D01*
X0154851Y0041176D01*
X0154756Y0040821D01*
X0154756Y0039555D01*
X0154756Y0039992D02*
X0139614Y0039992D01*
X0139614Y0040778D02*
X0154756Y0040778D01*
X0155105Y0041564D02*
X0139614Y0041564D01*
X0139614Y0042350D02*
X0161071Y0042350D01*
X0161071Y0043136D02*
X0139614Y0043136D01*
X0139614Y0043922D02*
X0142425Y0043922D01*
X0141639Y0044708D02*
X0139149Y0044708D01*
X0145071Y0043922D02*
X0161071Y0043922D01*
X0161071Y0044708D02*
X0145857Y0044708D01*
X0146120Y0045494D02*
X0161071Y0045494D01*
X0161071Y0046279D02*
X0146120Y0046279D01*
X0145989Y0047065D02*
X0161071Y0047065D01*
X0161071Y0047851D02*
X0145204Y0047851D01*
X0143291Y0048637D02*
X0161071Y0048637D01*
X0160668Y0049423D02*
X0142505Y0049423D01*
X0141719Y0050209D02*
X0160668Y0050209D01*
X0160668Y0050995D02*
X0140933Y0050995D01*
X0140147Y0051781D02*
X0155542Y0051781D01*
X0155612Y0051741D02*
X0155966Y0051646D01*
X0157626Y0051646D01*
X0157626Y0054122D01*
X0154756Y0054122D01*
X0154756Y0052856D01*
X0154851Y0052501D01*
X0155034Y0052184D01*
X0155294Y0051924D01*
X0155612Y0051741D01*
X0154833Y0052567D02*
X0139361Y0052567D01*
X0138575Y0053353D02*
X0154756Y0053353D01*
X0154756Y0054925D02*
X0132703Y0054925D01*
X0133489Y0055710D02*
X0154756Y0055710D01*
X0154945Y0056496D02*
X0134275Y0056496D01*
X0135061Y0057282D02*
X0140482Y0057282D01*
X0144545Y0059640D02*
X0151609Y0059640D01*
X0150377Y0060426D02*
X0144046Y0060426D01*
X0131543Y0065835D02*
X0121898Y0056189D01*
X0121898Y0047921D01*
X0119526Y0047851D02*
X0112081Y0047851D01*
X0112646Y0048637D02*
X0119526Y0048637D01*
X0120045Y0049423D02*
X0114176Y0049423D01*
X0114961Y0050209D02*
X0120323Y0050209D01*
X0120323Y0050995D02*
X0115747Y0050995D01*
X0116533Y0051781D02*
X0120323Y0051781D01*
X0120323Y0052567D02*
X0116780Y0052567D01*
X0116780Y0053353D02*
X0120323Y0053353D01*
X0120323Y0054139D02*
X0116780Y0054139D01*
X0116780Y0054925D02*
X0120323Y0054925D01*
X0120323Y0055710D02*
X0116780Y0055710D01*
X0116780Y0056496D02*
X0120323Y0056496D01*
X0120764Y0057282D02*
X0116780Y0057282D01*
X0116780Y0058068D02*
X0121550Y0058068D01*
X0122336Y0058854D02*
X0116780Y0058854D01*
X0116780Y0059640D02*
X0123122Y0059640D01*
X0123907Y0060426D02*
X0116780Y0060426D01*
X0116780Y0061212D02*
X0124693Y0061212D01*
X0125479Y0061998D02*
X0116780Y0061998D01*
X0116780Y0062784D02*
X0126265Y0062784D01*
X0127051Y0063570D02*
X0116780Y0063570D01*
X0117297Y0064355D02*
X0127837Y0064355D01*
X0128623Y0065141D02*
X0118083Y0065141D01*
X0118869Y0065927D02*
X0129172Y0065927D01*
X0129172Y0066713D02*
X0119655Y0066713D01*
X0120440Y0067499D02*
X0129854Y0067499D01*
X0107409Y0056496D02*
X0106440Y0056496D01*
X0106346Y0049423D02*
X0102979Y0049423D01*
X0103016Y0048637D02*
X0106346Y0048637D01*
X0106911Y0047851D02*
X0103016Y0047851D01*
X0100539Y0047065D02*
X0106225Y0047065D01*
X0109890Y0044708D02*
X0127606Y0044708D01*
X0120185Y0046279D02*
X0112858Y0046279D01*
X0112768Y0047065D02*
X0119526Y0047065D01*
X0106134Y0043922D02*
X0089752Y0043922D01*
X0089752Y0043650D02*
X0092622Y0043650D01*
X0092622Y0042383D01*
X0092527Y0042029D01*
X0092344Y0041711D01*
X0092084Y0041452D01*
X0091766Y0041268D01*
X0091412Y0041173D01*
X0089752Y0041173D01*
X0089752Y0043650D01*
X0089752Y0043136D02*
X0089161Y0043136D01*
X0089161Y0042350D02*
X0089752Y0042350D01*
X0089752Y0041564D02*
X0089161Y0041564D01*
X0092196Y0041564D02*
X0106293Y0041564D01*
X0106134Y0042350D02*
X0092613Y0042350D01*
X0092622Y0043136D02*
X0106134Y0043136D01*
X0100539Y0044708D02*
X0099949Y0044708D01*
X0099949Y0045494D02*
X0100539Y0045494D01*
X0097748Y0044708D02*
X0092622Y0044708D01*
X0092622Y0045494D02*
X0097472Y0045494D01*
X0097472Y0046279D02*
X0092243Y0046279D01*
X0089752Y0046279D02*
X0089161Y0046279D01*
X0089161Y0045494D02*
X0089752Y0045494D01*
X0089752Y0044708D02*
X0089161Y0044708D01*
X0066719Y0063570D02*
X0066555Y0063570D01*
X0063118Y0065141D02*
X0062331Y0065141D01*
X0062331Y0065927D02*
X0063118Y0065927D01*
X0063118Y0066713D02*
X0062331Y0066713D01*
X0062331Y0067499D02*
X0063118Y0067499D01*
X0063118Y0068285D02*
X0062331Y0068285D01*
X0061121Y0068285D02*
X0060874Y0068285D01*
X0060874Y0069071D02*
X0070520Y0069071D01*
X0070520Y0069857D02*
X0069558Y0069857D01*
X0069470Y0069703D02*
X0069653Y0070021D01*
X0069748Y0070376D01*
X0069748Y0072528D01*
X0064811Y0072528D01*
X0064811Y0069165D01*
X0068538Y0069165D01*
X0068892Y0069260D01*
X0069210Y0069444D01*
X0069470Y0069703D01*
X0069748Y0070643D02*
X0070323Y0070643D01*
X0070323Y0071429D02*
X0069748Y0071429D01*
X0069748Y0072215D02*
X0070323Y0072215D01*
X0070323Y0073001D02*
X0064811Y0073001D01*
X0064811Y0073315D02*
X0069748Y0073315D01*
X0069748Y0075467D01*
X0069653Y0075821D01*
X0069470Y0076139D01*
X0069210Y0076399D01*
X0068892Y0076582D01*
X0068538Y0076677D01*
X0064811Y0076677D01*
X0064811Y0073315D01*
X0064811Y0073786D02*
X0064024Y0073786D01*
X0064024Y0074572D02*
X0064811Y0074572D01*
X0064811Y0075358D02*
X0064024Y0075358D01*
X0064024Y0076144D02*
X0064811Y0076144D01*
X0060874Y0076930D02*
X0085789Y0076930D01*
X0086574Y0077716D02*
X0060874Y0077716D01*
X0060874Y0078502D02*
X0087360Y0078502D01*
X0088146Y0079288D02*
X0060874Y0079288D01*
X0060874Y0080074D02*
X0088932Y0080074D01*
X0089718Y0080860D02*
X0060874Y0080860D01*
X0060874Y0081646D02*
X0090504Y0081646D01*
X0091290Y0082431D02*
X0060874Y0082431D01*
X0060874Y0083217D02*
X0094717Y0083217D01*
X0094717Y0084003D02*
X0060874Y0084003D01*
X0060874Y0084789D02*
X0094717Y0084789D01*
X0094717Y0085575D02*
X0060874Y0085575D01*
X0049850Y0085575D02*
X0018173Y0085575D01*
X0018173Y0086291D02*
X0049850Y0086291D01*
X0049850Y0076465D01*
X0046802Y0076465D01*
X0046110Y0075773D01*
X0046110Y0070070D01*
X0046802Y0069378D01*
X0049654Y0069378D01*
X0049654Y0066894D01*
X0049540Y0066781D01*
X0048969Y0065401D01*
X0048969Y0064795D01*
X0042725Y0058551D01*
X0041684Y0058551D01*
X0041085Y0057952D01*
X0040926Y0058226D01*
X0040667Y0058485D01*
X0040349Y0058669D01*
X0039995Y0058764D01*
X0038039Y0058764D01*
X0038039Y0055795D01*
X0037252Y0055795D01*
X0037252Y0055008D01*
X0034087Y0055008D01*
X0034087Y0053250D01*
X0034182Y0052895D01*
X0034365Y0052577D01*
X0034625Y0052318D01*
X0034942Y0052134D01*
X0035297Y0052039D01*
X0037252Y0052039D01*
X0037252Y0055008D01*
X0038039Y0055008D01*
X0038039Y0052039D01*
X0039995Y0052039D01*
X0040349Y0052134D01*
X0040667Y0052318D01*
X0040926Y0052577D01*
X0041085Y0052851D01*
X0041684Y0052252D01*
X0042961Y0052252D01*
X0042961Y0052246D01*
X0041780Y0051065D01*
X0039024Y0048309D01*
X0039024Y0045424D01*
X0032951Y0051496D01*
X0033315Y0052375D01*
X0033315Y0054098D01*
X0032656Y0055689D01*
X0031437Y0056908D01*
X0029846Y0057567D01*
X0028123Y0057567D01*
X0026531Y0056908D01*
X0025313Y0055689D01*
X0024654Y0054098D01*
X0024654Y0052375D01*
X0025313Y0050783D01*
X0026531Y0049565D01*
X0027172Y0049299D01*
X0026531Y0049034D01*
X0025313Y0047815D01*
X0024654Y0046224D01*
X0024654Y0044501D01*
X0025313Y0042909D01*
X0026531Y0041691D01*
X0028123Y0041031D01*
X0029846Y0041031D01*
X0031437Y0041691D01*
X0032656Y0042909D01*
X0033315Y0044501D01*
X0033315Y0046224D01*
X0032993Y0047000D01*
X0036071Y0043922D01*
X0033075Y0043922D01*
X0033315Y0044708D02*
X0035286Y0044708D01*
X0036071Y0043922D02*
X0036071Y0043000D01*
X0035975Y0043000D01*
X0035283Y0042308D01*
X0035283Y0036701D01*
X0033183Y0036701D01*
X0032656Y0037973D01*
X0031437Y0039191D01*
X0029846Y0039850D01*
X0028123Y0039850D01*
X0026531Y0039191D01*
X0025313Y0037973D01*
X0024654Y0036381D01*
X0024654Y0034658D01*
X0025313Y0033067D01*
X0026531Y0031848D01*
X0028123Y0031189D01*
X0029846Y0031189D01*
X0031437Y0031848D01*
X0032353Y0032764D01*
X0035283Y0032764D01*
X0035283Y0027550D01*
X0035874Y0026960D01*
X0035874Y0026071D01*
X0035778Y0026071D01*
X0035087Y0025379D01*
X0035087Y0020857D01*
X0035385Y0020559D01*
X0035087Y0020261D01*
X0035087Y0019772D01*
X0033172Y0019772D01*
X0031409Y0018009D01*
X0030561Y0018009D01*
X0029172Y0016620D01*
X0029172Y0014655D01*
X0030561Y0013266D01*
X0032526Y0013266D01*
X0033915Y0014655D01*
X0033915Y0015504D01*
X0034639Y0016228D01*
X0035087Y0016228D01*
X0035087Y0015739D01*
X0035778Y0015047D01*
X0039513Y0015047D01*
X0040205Y0015739D01*
X0040205Y0020261D01*
X0039907Y0020559D01*
X0040205Y0020857D01*
X0040205Y0025379D01*
X0039513Y0026071D01*
X0039417Y0026071D01*
X0039417Y0026885D01*
X0039667Y0026741D01*
X0040021Y0026646D01*
X0041189Y0026646D01*
X0041189Y0030205D01*
X0041583Y0030205D01*
X0041583Y0026646D01*
X0042750Y0026646D01*
X0042886Y0026682D01*
X0042764Y0026560D01*
X0042764Y0022038D01*
X0043062Y0021740D01*
X0042764Y0021442D01*
X0042764Y0016920D01*
X0043106Y0016578D01*
X0042951Y0016423D01*
X0042951Y0014459D01*
X0044340Y0013069D01*
X0046305Y0013069D01*
X0047694Y0014459D01*
X0047694Y0016423D01*
X0047540Y0016578D01*
X0047882Y0016920D01*
X0047882Y0021442D01*
X0047584Y0021740D01*
X0047882Y0022038D01*
X0047882Y0026560D01*
X0047190Y0027252D01*
X0047488Y0027550D01*
X0047488Y0033253D01*
X0046796Y0033945D01*
X0043456Y0033945D01*
X0043402Y0033891D01*
X0043105Y0034062D01*
X0042750Y0034157D01*
X0042611Y0034157D01*
X0043354Y0034901D01*
X0043354Y0036015D01*
X0043456Y0035913D01*
X0046796Y0035913D01*
X0047488Y0036605D01*
X0047488Y0042308D01*
X0047094Y0042702D01*
X0047094Y0042992D01*
X0048285Y0044183D01*
X0048285Y0046148D01*
X0047216Y0047217D01*
X0047697Y0047417D01*
X0048583Y0048302D01*
X0049063Y0049460D01*
X0049063Y0050713D01*
X0048583Y0051871D01*
X0047697Y0052757D01*
X0047685Y0052762D01*
X0047685Y0055717D01*
X0049850Y0057882D01*
X0049850Y0012307D01*
X0018173Y0012307D01*
X0018173Y0018141D01*
X0018505Y0018003D01*
X0019529Y0017729D01*
X0020580Y0017591D01*
X0020717Y0017591D01*
X0020717Y0025283D01*
X0021504Y0025283D01*
X0021504Y0017591D01*
X0021640Y0017591D01*
X0022691Y0017729D01*
X0023715Y0018003D01*
X0024695Y0018409D01*
X0025613Y0018939D01*
X0026454Y0019584D01*
X0027203Y0020334D01*
X0027848Y0021175D01*
X0028378Y0022093D01*
X0028784Y0023072D01*
X0029058Y0024096D01*
X0029197Y0025147D01*
X0029197Y0025283D01*
X0021504Y0025283D01*
X0021504Y0026071D01*
X0020717Y0026071D01*
X0020717Y0033764D01*
X0020580Y0033764D01*
X0019529Y0033625D01*
X0018505Y0033351D01*
X0017526Y0032945D01*
X0016608Y0032415D01*
X0015767Y0031770D01*
X0015017Y0031020D01*
X0014372Y0030179D01*
X0013842Y0029261D01*
X0013436Y0028282D01*
X0013162Y0027258D01*
X0013024Y0026207D01*
X0013024Y0026071D01*
X0020716Y0026071D01*
X0020716Y0025283D01*
X0013024Y0025283D01*
X0013024Y0025147D01*
X0013162Y0024096D01*
X0013436Y0023072D01*
X0013842Y0022093D01*
X0014372Y0021175D01*
X0015017Y0020334D01*
X0015170Y0020181D01*
X0010299Y0020181D01*
X0010299Y0078417D01*
X0015170Y0078417D01*
X0015017Y0078265D01*
X0014372Y0077424D01*
X0013842Y0076506D01*
X0013436Y0075526D01*
X0013162Y0074502D01*
X0013024Y0073451D01*
X0013024Y0073315D01*
X0020716Y0073315D01*
X0020716Y0072528D01*
X0013024Y0072528D01*
X0013024Y0072391D01*
X0013162Y0071340D01*
X0013436Y0070316D01*
X0013842Y0069337D01*
X0014372Y0068419D01*
X0015017Y0067578D01*
X0015767Y0066828D01*
X0016608Y0066183D01*
X0017526Y0065653D01*
X0018505Y0065247D01*
X0019529Y0064973D01*
X0020580Y0064835D01*
X0020717Y0064835D01*
X0020717Y0072527D01*
X0021504Y0072527D01*
X0021504Y0064835D01*
X0021640Y0064835D01*
X0022691Y0064973D01*
X0023715Y0065247D01*
X0024695Y0065653D01*
X0025613Y0066183D01*
X0025831Y0066351D01*
X0025519Y0066038D01*
X0025098Y0065460D01*
X0024774Y0064823D01*
X0024553Y0064143D01*
X0024447Y0063472D01*
X0028590Y0063472D01*
X0028590Y0062685D01*
X0024447Y0062685D01*
X0024553Y0062015D01*
X0024774Y0061335D01*
X0025098Y0060698D01*
X0025519Y0060119D01*
X0026024Y0059613D01*
X0026603Y0059193D01*
X0027240Y0058868D01*
X0027920Y0058647D01*
X0028591Y0058541D01*
X0028591Y0062685D01*
X0029378Y0062685D01*
X0029378Y0063472D01*
X0033522Y0063472D01*
X0033416Y0064143D01*
X0033195Y0064823D01*
X0032870Y0065460D01*
X0032450Y0066038D01*
X0031944Y0066544D01*
X0031365Y0066965D01*
X0030728Y0067289D01*
X0030048Y0067510D01*
X0029378Y0067616D01*
X0029378Y0063472D01*
X0028591Y0063472D01*
X0028591Y0067616D01*
X0027920Y0067510D01*
X0027240Y0067289D01*
X0026603Y0066965D01*
X0026554Y0066929D01*
X0027203Y0067578D01*
X0027848Y0068419D01*
X0028378Y0069337D01*
X0028784Y0070316D01*
X0029058Y0071340D01*
X0029197Y0072391D01*
X0029197Y0072528D01*
X0021504Y0072528D01*
X0021504Y0073315D01*
X0029197Y0073315D01*
X0029197Y0073451D01*
X0029058Y0074502D01*
X0028784Y0075526D01*
X0028378Y0076506D01*
X0027848Y0077424D01*
X0027203Y0078265D01*
X0026454Y0079014D01*
X0025613Y0079659D01*
X0024695Y0080189D01*
X0023715Y0080595D01*
X0022691Y0080870D01*
X0021640Y0081008D01*
X0021504Y0081008D01*
X0021504Y0073315D01*
X0020717Y0073315D01*
X0020717Y0081008D01*
X0020580Y0081008D01*
X0019529Y0080870D01*
X0018505Y0080595D01*
X0018173Y0080458D01*
X0018173Y0086291D01*
X0018173Y0084789D02*
X0049850Y0084789D01*
X0049850Y0084003D02*
X0018173Y0084003D01*
X0018173Y0083217D02*
X0049850Y0083217D01*
X0049850Y0082431D02*
X0018173Y0082431D01*
X0018173Y0081646D02*
X0049850Y0081646D01*
X0049850Y0080860D02*
X0022728Y0080860D01*
X0021504Y0080860D02*
X0020717Y0080860D01*
X0020717Y0080074D02*
X0021504Y0080074D01*
X0021504Y0079288D02*
X0020717Y0079288D01*
X0020717Y0078502D02*
X0021504Y0078502D01*
X0021504Y0077716D02*
X0020717Y0077716D01*
X0020717Y0076930D02*
X0021504Y0076930D01*
X0021504Y0076144D02*
X0020717Y0076144D01*
X0020717Y0075358D02*
X0021504Y0075358D01*
X0021504Y0074572D02*
X0020717Y0074572D01*
X0020717Y0073786D02*
X0021504Y0073786D01*
X0021504Y0073001D02*
X0039811Y0073001D01*
X0039811Y0073315D02*
X0039811Y0072528D01*
X0034874Y0072528D01*
X0034874Y0070376D01*
X0034969Y0070021D01*
X0035152Y0069703D01*
X0035412Y0069444D01*
X0035730Y0069260D01*
X0036084Y0069165D01*
X0039811Y0069165D01*
X0039811Y0072528D01*
X0040598Y0072528D01*
X0040598Y0073315D01*
X0039811Y0073315D01*
X0039811Y0076677D01*
X0036084Y0076677D01*
X0035730Y0076582D01*
X0035412Y0076399D01*
X0035152Y0076139D01*
X0034969Y0075821D01*
X0034874Y0075467D01*
X0034874Y0073315D01*
X0039811Y0073315D01*
X0039811Y0073786D02*
X0040598Y0073786D01*
X0040598Y0073315D02*
X0040598Y0076677D01*
X0044325Y0076677D01*
X0044680Y0076582D01*
X0044997Y0076399D01*
X0045257Y0076139D01*
X0045440Y0075821D01*
X0045535Y0075467D01*
X0045535Y0073315D01*
X0040598Y0073315D01*
X0040598Y0073001D02*
X0046110Y0073001D01*
X0045535Y0072528D02*
X0040598Y0072528D01*
X0040598Y0069165D01*
X0044325Y0069165D01*
X0044680Y0069260D01*
X0044997Y0069444D01*
X0045257Y0069703D01*
X0045440Y0070021D01*
X0045535Y0070376D01*
X0045535Y0072528D01*
X0045535Y0072215D02*
X0046110Y0072215D01*
X0046110Y0071429D02*
X0045535Y0071429D01*
X0045535Y0070643D02*
X0046110Y0070643D01*
X0046323Y0069857D02*
X0045346Y0069857D01*
X0043882Y0068470D02*
X0043118Y0068621D01*
X0043118Y0065047D01*
X0046692Y0065047D01*
X0046540Y0065811D01*
X0046241Y0066533D01*
X0045807Y0067183D01*
X0045254Y0067736D01*
X0044604Y0068170D01*
X0043882Y0068470D01*
X0044327Y0068285D02*
X0049654Y0068285D01*
X0049654Y0067499D02*
X0045491Y0067499D01*
X0046121Y0066713D02*
X0049512Y0066713D01*
X0049187Y0065927D02*
X0046492Y0065927D01*
X0046674Y0065141D02*
X0048969Y0065141D01*
X0048529Y0064355D02*
X0043118Y0064355D01*
X0043118Y0064260D02*
X0043118Y0065047D01*
X0042331Y0065047D01*
X0042331Y0068621D01*
X0041567Y0068470D01*
X0040845Y0068170D01*
X0040195Y0067736D01*
X0039642Y0067183D01*
X0039208Y0066533D01*
X0038908Y0065811D01*
X0038756Y0065047D01*
X0042331Y0065047D01*
X0042331Y0064260D01*
X0043118Y0064260D01*
X0046692Y0064260D01*
X0046540Y0063496D01*
X0046241Y0062774D01*
X0045807Y0062124D01*
X0045254Y0061571D01*
X0044604Y0061137D01*
X0043882Y0060838D01*
X0043118Y0060686D01*
X0043118Y0064260D01*
X0043118Y0063570D02*
X0042331Y0063570D01*
X0042331Y0064260D02*
X0042331Y0060686D01*
X0041567Y0060838D01*
X0040845Y0061137D01*
X0040195Y0061571D01*
X0039642Y0062124D01*
X0039208Y0062774D01*
X0038908Y0063496D01*
X0038756Y0064260D01*
X0042331Y0064260D01*
X0042331Y0064355D02*
X0033347Y0064355D01*
X0033506Y0063570D02*
X0038894Y0063570D01*
X0039203Y0062784D02*
X0029378Y0062784D01*
X0029378Y0062685D02*
X0033522Y0062685D01*
X0033416Y0062015D01*
X0033195Y0061335D01*
X0032870Y0060698D01*
X0032450Y0060119D01*
X0031944Y0059613D01*
X0031365Y0059193D01*
X0030728Y0058868D01*
X0030048Y0058647D01*
X0029378Y0058541D01*
X0029378Y0062685D01*
X0029378Y0061998D02*
X0028591Y0061998D01*
X0028590Y0062784D02*
X0010299Y0062784D01*
X0010299Y0063570D02*
X0024462Y0063570D01*
X0024622Y0064355D02*
X0010299Y0064355D01*
X0010299Y0065141D02*
X0018901Y0065141D01*
X0020717Y0065141D02*
X0021504Y0065141D01*
X0021504Y0065927D02*
X0020717Y0065927D01*
X0020717Y0066713D02*
X0021504Y0066713D01*
X0021504Y0067499D02*
X0020717Y0067499D01*
X0020717Y0068285D02*
X0021504Y0068285D01*
X0021504Y0069071D02*
X0020717Y0069071D01*
X0020717Y0069857D02*
X0021504Y0069857D01*
X0021504Y0070643D02*
X0020717Y0070643D01*
X0020717Y0071429D02*
X0021504Y0071429D01*
X0021504Y0072215D02*
X0020717Y0072215D01*
X0020716Y0073001D02*
X0010299Y0073001D01*
X0010299Y0073786D02*
X0013068Y0073786D01*
X0013181Y0074572D02*
X0010299Y0074572D01*
X0010299Y0075358D02*
X0013391Y0075358D01*
X0013692Y0076144D02*
X0010299Y0076144D01*
X0010299Y0076930D02*
X0014087Y0076930D01*
X0014596Y0077716D02*
X0010299Y0077716D01*
X0018173Y0080860D02*
X0019492Y0080860D01*
X0024895Y0080074D02*
X0049850Y0080074D01*
X0049850Y0079288D02*
X0026097Y0079288D01*
X0026966Y0078502D02*
X0049850Y0078502D01*
X0049850Y0077716D02*
X0027624Y0077716D01*
X0028133Y0076930D02*
X0049850Y0076930D01*
X0046482Y0076144D02*
X0045252Y0076144D01*
X0045535Y0075358D02*
X0046110Y0075358D01*
X0046110Y0074572D02*
X0045535Y0074572D01*
X0045535Y0073786D02*
X0046110Y0073786D01*
X0040598Y0074572D02*
X0039811Y0074572D01*
X0039811Y0075358D02*
X0040598Y0075358D01*
X0040598Y0076144D02*
X0039811Y0076144D01*
X0035157Y0076144D02*
X0028528Y0076144D01*
X0028829Y0075358D02*
X0034874Y0075358D01*
X0034874Y0074572D02*
X0029040Y0074572D01*
X0029153Y0073786D02*
X0034874Y0073786D01*
X0034874Y0072215D02*
X0029174Y0072215D01*
X0029070Y0071429D02*
X0034874Y0071429D01*
X0034874Y0070643D02*
X0028872Y0070643D01*
X0028594Y0069857D02*
X0035064Y0069857D01*
X0039811Y0069857D02*
X0040598Y0069857D01*
X0040598Y0070643D02*
X0039811Y0070643D01*
X0039811Y0071429D02*
X0040598Y0071429D01*
X0040598Y0072215D02*
X0039811Y0072215D01*
X0041121Y0068285D02*
X0027746Y0068285D01*
X0027886Y0067499D02*
X0027124Y0067499D01*
X0028591Y0067499D02*
X0029378Y0067499D01*
X0030082Y0067499D02*
X0039958Y0067499D01*
X0039328Y0066713D02*
X0031711Y0066713D01*
X0032530Y0065927D02*
X0038957Y0065927D01*
X0038775Y0065141D02*
X0033032Y0065141D01*
X0029378Y0065141D02*
X0028591Y0065141D01*
X0028591Y0064355D02*
X0029378Y0064355D01*
X0029378Y0063570D02*
X0028591Y0063570D01*
X0028591Y0061212D02*
X0029378Y0061212D01*
X0029378Y0060426D02*
X0028591Y0060426D01*
X0028591Y0059640D02*
X0029378Y0059640D01*
X0029378Y0058854D02*
X0028591Y0058854D01*
X0027284Y0058854D02*
X0025457Y0058854D01*
X0025457Y0059022D02*
X0024795Y0060620D01*
X0023572Y0061842D01*
X0021975Y0062504D01*
X0020246Y0062504D01*
X0018648Y0061842D01*
X0017425Y0060620D01*
X0016764Y0059022D01*
X0016764Y0057293D01*
X0017425Y0055695D01*
X0018648Y0054473D01*
X0020246Y0053811D01*
X0021975Y0053811D01*
X0023572Y0054473D01*
X0024795Y0055695D01*
X0025457Y0057293D01*
X0025457Y0059022D01*
X0025201Y0059640D02*
X0025998Y0059640D01*
X0025296Y0060426D02*
X0024875Y0060426D01*
X0024836Y0061212D02*
X0024203Y0061212D01*
X0024558Y0061998D02*
X0023197Y0061998D01*
X0019024Y0061998D02*
X0010299Y0061998D01*
X0010299Y0061212D02*
X0018018Y0061212D01*
X0017345Y0060426D02*
X0010299Y0060426D01*
X0010299Y0059640D02*
X0017020Y0059640D01*
X0016764Y0058854D02*
X0010299Y0058854D01*
X0010299Y0058068D02*
X0016764Y0058068D01*
X0016768Y0057282D02*
X0010299Y0057282D01*
X0010299Y0056496D02*
X0017094Y0056496D01*
X0017419Y0055710D02*
X0010299Y0055710D01*
X0010299Y0054925D02*
X0018196Y0054925D01*
X0019455Y0054139D02*
X0010299Y0054139D01*
X0010299Y0053353D02*
X0024654Y0053353D01*
X0024671Y0054139D02*
X0022766Y0054139D01*
X0024024Y0054925D02*
X0024996Y0054925D01*
X0024801Y0055710D02*
X0025334Y0055710D01*
X0025127Y0056496D02*
X0026120Y0056496D01*
X0025452Y0057282D02*
X0027436Y0057282D01*
X0025457Y0058068D02*
X0034274Y0058068D01*
X0034365Y0058226D02*
X0034182Y0057908D01*
X0034087Y0057554D01*
X0034087Y0055795D01*
X0037252Y0055795D01*
X0037252Y0058764D01*
X0035297Y0058764D01*
X0034942Y0058669D01*
X0034625Y0058485D01*
X0034365Y0058226D01*
X0034087Y0057282D02*
X0030533Y0057282D01*
X0031849Y0056496D02*
X0034087Y0056496D01*
X0032635Y0055710D02*
X0037252Y0055710D01*
X0037252Y0054925D02*
X0038039Y0054925D01*
X0038039Y0054139D02*
X0037252Y0054139D01*
X0037252Y0053353D02*
X0038039Y0053353D01*
X0038039Y0052567D02*
X0037252Y0052567D01*
X0034376Y0052567D02*
X0033315Y0052567D01*
X0033315Y0053353D02*
X0034087Y0053353D01*
X0034087Y0054139D02*
X0033298Y0054139D01*
X0032972Y0054925D02*
X0034087Y0054925D01*
X0037252Y0056496D02*
X0038039Y0056496D01*
X0038039Y0057282D02*
X0037252Y0057282D01*
X0037252Y0058068D02*
X0038039Y0058068D01*
X0041017Y0058068D02*
X0041201Y0058068D01*
X0043028Y0058854D02*
X0030684Y0058854D01*
X0031971Y0059640D02*
X0043813Y0059640D01*
X0044599Y0060426D02*
X0032673Y0060426D01*
X0033132Y0061212D02*
X0040732Y0061212D01*
X0039768Y0061998D02*
X0033410Y0061998D01*
X0029378Y0065927D02*
X0028591Y0065927D01*
X0028591Y0066713D02*
X0029378Y0066713D01*
X0028225Y0069071D02*
X0049654Y0069071D01*
X0043118Y0068285D02*
X0042331Y0068285D01*
X0042331Y0067499D02*
X0043118Y0067499D01*
X0043118Y0066713D02*
X0042331Y0066713D01*
X0042331Y0065927D02*
X0043118Y0065927D01*
X0043118Y0065141D02*
X0042331Y0065141D01*
X0042331Y0062784D02*
X0043118Y0062784D01*
X0043118Y0061998D02*
X0042331Y0061998D01*
X0042331Y0061212D02*
X0043118Y0061212D01*
X0044717Y0061212D02*
X0045385Y0061212D01*
X0045681Y0061998D02*
X0046171Y0061998D01*
X0046245Y0062784D02*
X0046957Y0062784D01*
X0046555Y0063570D02*
X0047743Y0063570D01*
X0049251Y0057282D02*
X0049850Y0057282D01*
X0049850Y0056496D02*
X0048465Y0056496D01*
X0047685Y0055710D02*
X0049850Y0055710D01*
X0049850Y0054925D02*
X0047685Y0054925D01*
X0047685Y0054139D02*
X0049850Y0054139D01*
X0049850Y0053353D02*
X0047685Y0053353D01*
X0047887Y0052567D02*
X0049850Y0052567D01*
X0049850Y0051781D02*
X0048621Y0051781D01*
X0048946Y0050995D02*
X0049850Y0050995D01*
X0049850Y0050209D02*
X0049063Y0050209D01*
X0049048Y0049423D02*
X0049850Y0049423D01*
X0049850Y0048637D02*
X0048722Y0048637D01*
X0048132Y0047851D02*
X0049850Y0047851D01*
X0049850Y0047065D02*
X0047367Y0047065D01*
X0048153Y0046279D02*
X0049850Y0046279D01*
X0049850Y0045494D02*
X0048285Y0045494D01*
X0048285Y0044708D02*
X0049850Y0044708D01*
X0049850Y0043922D02*
X0048024Y0043922D01*
X0047238Y0043136D02*
X0049850Y0043136D01*
X0049850Y0042350D02*
X0047446Y0042350D01*
X0047488Y0041564D02*
X0049850Y0041564D01*
X0049850Y0040778D02*
X0047488Y0040778D01*
X0047488Y0039992D02*
X0049850Y0039992D01*
X0049850Y0039206D02*
X0047488Y0039206D01*
X0047488Y0038420D02*
X0049850Y0038420D01*
X0049850Y0037634D02*
X0047488Y0037634D01*
X0047488Y0036849D02*
X0049850Y0036849D01*
X0049850Y0036063D02*
X0046946Y0036063D01*
X0049850Y0035277D02*
X0043354Y0035277D01*
X0042944Y0034491D02*
X0049850Y0034491D01*
X0049850Y0033705D02*
X0047036Y0033705D01*
X0047488Y0032919D02*
X0049850Y0032919D01*
X0049850Y0032133D02*
X0047488Y0032133D01*
X0047488Y0031347D02*
X0049850Y0031347D01*
X0049850Y0030561D02*
X0047488Y0030561D01*
X0047488Y0029775D02*
X0049850Y0029775D01*
X0049850Y0028989D02*
X0047488Y0028989D01*
X0047488Y0028203D02*
X0049850Y0028203D01*
X0049850Y0027418D02*
X0047356Y0027418D01*
X0047190Y0027252D02*
X0047190Y0027252D01*
X0047810Y0026632D02*
X0049850Y0026632D01*
X0049850Y0025846D02*
X0047882Y0025846D01*
X0047882Y0025060D02*
X0049850Y0025060D01*
X0049850Y0024274D02*
X0047882Y0024274D01*
X0047882Y0023488D02*
X0049850Y0023488D01*
X0049850Y0022702D02*
X0047882Y0022702D01*
X0047760Y0021916D02*
X0049850Y0021916D01*
X0049850Y0021130D02*
X0047882Y0021130D01*
X0047882Y0020344D02*
X0049850Y0020344D01*
X0049850Y0019558D02*
X0047882Y0019558D01*
X0047882Y0018773D02*
X0049850Y0018773D01*
X0049850Y0017987D02*
X0047882Y0017987D01*
X0047882Y0017201D02*
X0049850Y0017201D01*
X0049850Y0016415D02*
X0047694Y0016415D01*
X0047694Y0015629D02*
X0049850Y0015629D01*
X0049850Y0014843D02*
X0047694Y0014843D01*
X0047293Y0014057D02*
X0049850Y0014057D01*
X0049850Y0013271D02*
X0046507Y0013271D01*
X0044139Y0013271D02*
X0032531Y0013271D01*
X0033317Y0014057D02*
X0043353Y0014057D01*
X0042951Y0014843D02*
X0033915Y0014843D01*
X0034040Y0015629D02*
X0035197Y0015629D01*
X0030538Y0017987D02*
X0023653Y0017987D01*
X0025324Y0018773D02*
X0032173Y0018773D01*
X0032958Y0019558D02*
X0026420Y0019558D01*
X0027211Y0020344D02*
X0035170Y0020344D01*
X0035087Y0021130D02*
X0027814Y0021130D01*
X0028276Y0021916D02*
X0035087Y0021916D01*
X0035087Y0022702D02*
X0028631Y0022702D01*
X0028896Y0023488D02*
X0035087Y0023488D01*
X0035087Y0024274D02*
X0029082Y0024274D01*
X0029185Y0025060D02*
X0035087Y0025060D01*
X0035553Y0025846D02*
X0021504Y0025846D01*
X0021504Y0026071D02*
X0029197Y0026071D01*
X0029197Y0026207D01*
X0029058Y0027258D01*
X0028784Y0028282D01*
X0028378Y0029261D01*
X0027848Y0030179D01*
X0027203Y0031020D01*
X0026454Y0031770D01*
X0025613Y0032415D01*
X0024695Y0032945D01*
X0023715Y0033351D01*
X0022691Y0033625D01*
X0021640Y0033764D01*
X0021504Y0033764D01*
X0021504Y0026071D01*
X0021504Y0026632D02*
X0020717Y0026632D01*
X0020717Y0027418D02*
X0021504Y0027418D01*
X0021504Y0028203D02*
X0020717Y0028203D01*
X0020717Y0028989D02*
X0021504Y0028989D01*
X0021504Y0029775D02*
X0020717Y0029775D01*
X0020717Y0030561D02*
X0021504Y0030561D01*
X0021504Y0031347D02*
X0020717Y0031347D01*
X0020717Y0032133D02*
X0021504Y0032133D01*
X0021504Y0032919D02*
X0020717Y0032919D01*
X0020717Y0033705D02*
X0021504Y0033705D01*
X0022088Y0033705D02*
X0025048Y0033705D01*
X0024740Y0032919D02*
X0025460Y0032919D01*
X0025980Y0032133D02*
X0026246Y0032133D01*
X0026876Y0031347D02*
X0027741Y0031347D01*
X0027556Y0030561D02*
X0035283Y0030561D01*
X0035283Y0029775D02*
X0028082Y0029775D01*
X0028491Y0028989D02*
X0035283Y0028989D01*
X0035283Y0028203D02*
X0028805Y0028203D01*
X0029016Y0027418D02*
X0035416Y0027418D01*
X0035874Y0026632D02*
X0029141Y0026632D01*
X0021504Y0025060D02*
X0020717Y0025060D01*
X0020716Y0025846D02*
X0010299Y0025846D01*
X0010299Y0026632D02*
X0013080Y0026632D01*
X0013205Y0027418D02*
X0010299Y0027418D01*
X0010299Y0028203D02*
X0013415Y0028203D01*
X0013729Y0028989D02*
X0010299Y0028989D01*
X0010299Y0029775D02*
X0014139Y0029775D01*
X0014665Y0030561D02*
X0010299Y0030561D01*
X0010299Y0031347D02*
X0015344Y0031347D01*
X0016240Y0032133D02*
X0010299Y0032133D01*
X0010299Y0032919D02*
X0017480Y0032919D01*
X0020133Y0033705D02*
X0010299Y0033705D01*
X0010299Y0034491D02*
X0024723Y0034491D01*
X0024654Y0035277D02*
X0010299Y0035277D01*
X0010299Y0036063D02*
X0024654Y0036063D01*
X0024847Y0036849D02*
X0023665Y0036849D01*
X0023572Y0036756D02*
X0024795Y0037979D01*
X0025457Y0039576D01*
X0025457Y0041306D01*
X0024795Y0042903D01*
X0023572Y0044126D01*
X0021975Y0044787D01*
X0020246Y0044787D01*
X0018648Y0044126D01*
X0017425Y0042903D01*
X0016764Y0041306D01*
X0016764Y0039576D01*
X0017425Y0037979D01*
X0018648Y0036756D01*
X0020246Y0036094D01*
X0021975Y0036094D01*
X0023572Y0036756D01*
X0024451Y0037634D02*
X0025173Y0037634D01*
X0024978Y0038420D02*
X0025760Y0038420D01*
X0025303Y0039206D02*
X0026568Y0039206D01*
X0025457Y0039992D02*
X0035283Y0039992D01*
X0035283Y0039206D02*
X0031401Y0039206D01*
X0032208Y0038420D02*
X0035283Y0038420D01*
X0035283Y0037634D02*
X0032796Y0037634D01*
X0033121Y0036849D02*
X0035283Y0036849D01*
X0037646Y0039457D02*
X0037646Y0044575D01*
X0028984Y0053236D01*
X0024900Y0051781D02*
X0010299Y0051781D01*
X0010299Y0052567D02*
X0024654Y0052567D01*
X0025225Y0050995D02*
X0010299Y0050995D01*
X0010299Y0050209D02*
X0025887Y0050209D01*
X0026873Y0049423D02*
X0010299Y0049423D01*
X0010299Y0048637D02*
X0026135Y0048637D01*
X0025349Y0047851D02*
X0010299Y0047851D01*
X0010299Y0047065D02*
X0025002Y0047065D01*
X0024677Y0046279D02*
X0010299Y0046279D01*
X0010299Y0045494D02*
X0024654Y0045494D01*
X0024654Y0044708D02*
X0022167Y0044708D01*
X0023776Y0043922D02*
X0024893Y0043922D01*
X0025219Y0043136D02*
X0024562Y0043136D01*
X0025024Y0042350D02*
X0025872Y0042350D01*
X0025350Y0041564D02*
X0026837Y0041564D01*
X0025457Y0040778D02*
X0035283Y0040778D01*
X0035283Y0041564D02*
X0031131Y0041564D01*
X0032096Y0042350D02*
X0035325Y0042350D01*
X0036071Y0043136D02*
X0032750Y0043136D01*
X0033315Y0045494D02*
X0034500Y0045494D01*
X0033714Y0046279D02*
X0033292Y0046279D01*
X0036596Y0047851D02*
X0039024Y0047851D01*
X0039024Y0047065D02*
X0037382Y0047065D01*
X0038168Y0046279D02*
X0039024Y0046279D01*
X0039024Y0045494D02*
X0038954Y0045494D01*
X0039352Y0048637D02*
X0035810Y0048637D01*
X0035024Y0049423D02*
X0040138Y0049423D01*
X0040923Y0050209D02*
X0034239Y0050209D01*
X0033453Y0050995D02*
X0041709Y0050995D01*
X0042495Y0051781D02*
X0033069Y0051781D01*
X0040916Y0052567D02*
X0041369Y0052567D01*
X0045913Y0045165D02*
X0045520Y0044772D01*
X0045520Y0039850D01*
X0035283Y0032133D02*
X0031722Y0032133D01*
X0030227Y0031347D02*
X0035283Y0031347D01*
X0041189Y0029775D02*
X0041583Y0029775D01*
X0041583Y0028989D02*
X0041189Y0028989D01*
X0041189Y0028203D02*
X0041583Y0028203D01*
X0041583Y0027418D02*
X0041189Y0027418D01*
X0042835Y0026632D02*
X0039417Y0026632D01*
X0039738Y0025846D02*
X0042764Y0025846D01*
X0042764Y0025060D02*
X0040205Y0025060D01*
X0040205Y0024274D02*
X0042764Y0024274D01*
X0042764Y0023488D02*
X0040205Y0023488D01*
X0040205Y0022702D02*
X0042764Y0022702D01*
X0042886Y0021916D02*
X0040205Y0021916D01*
X0040205Y0021130D02*
X0042764Y0021130D01*
X0042764Y0020344D02*
X0040121Y0020344D01*
X0040205Y0019558D02*
X0042764Y0019558D01*
X0042764Y0018773D02*
X0040205Y0018773D01*
X0040205Y0017987D02*
X0042764Y0017987D01*
X0042764Y0017201D02*
X0040205Y0017201D01*
X0040205Y0016415D02*
X0042951Y0016415D01*
X0042951Y0015629D02*
X0040094Y0015629D01*
X0049850Y0012485D02*
X0018173Y0012485D01*
X0018173Y0013271D02*
X0030556Y0013271D01*
X0029770Y0014057D02*
X0018173Y0014057D01*
X0018173Y0014843D02*
X0029172Y0014843D01*
X0029172Y0015629D02*
X0018173Y0015629D01*
X0018173Y0016415D02*
X0029172Y0016415D01*
X0029752Y0017201D02*
X0018173Y0017201D01*
X0018173Y0017987D02*
X0018567Y0017987D01*
X0020717Y0017987D02*
X0021504Y0017987D01*
X0021504Y0018773D02*
X0020717Y0018773D01*
X0020717Y0019558D02*
X0021504Y0019558D01*
X0021504Y0020344D02*
X0020717Y0020344D01*
X0020717Y0021130D02*
X0021504Y0021130D01*
X0021504Y0021916D02*
X0020717Y0021916D01*
X0020717Y0022702D02*
X0021504Y0022702D01*
X0021504Y0023488D02*
X0020717Y0023488D01*
X0020717Y0024274D02*
X0021504Y0024274D01*
X0015009Y0020344D02*
X0010299Y0020344D01*
X0010299Y0021130D02*
X0014406Y0021130D01*
X0013944Y0021916D02*
X0010299Y0021916D01*
X0010299Y0022702D02*
X0013590Y0022702D01*
X0013325Y0023488D02*
X0010299Y0023488D01*
X0010299Y0024274D02*
X0013139Y0024274D01*
X0013035Y0025060D02*
X0010299Y0025060D01*
X0010299Y0036849D02*
X0018556Y0036849D01*
X0017770Y0037634D02*
X0010299Y0037634D01*
X0010299Y0038420D02*
X0017243Y0038420D01*
X0016917Y0039206D02*
X0010299Y0039206D01*
X0010299Y0039992D02*
X0016764Y0039992D01*
X0016764Y0040778D02*
X0010299Y0040778D01*
X0010299Y0041564D02*
X0016871Y0041564D01*
X0017196Y0042350D02*
X0010299Y0042350D01*
X0010299Y0043136D02*
X0017658Y0043136D01*
X0018444Y0043922D02*
X0010299Y0043922D01*
X0010299Y0044708D02*
X0020053Y0044708D01*
X0023320Y0065141D02*
X0024936Y0065141D01*
X0025170Y0065927D02*
X0025438Y0065927D01*
X0017051Y0065927D02*
X0010299Y0065927D01*
X0010299Y0066713D02*
X0015917Y0066713D01*
X0015096Y0067499D02*
X0010299Y0067499D01*
X0010299Y0068285D02*
X0014475Y0068285D01*
X0013996Y0069071D02*
X0010299Y0069071D01*
X0010299Y0069857D02*
X0013627Y0069857D01*
X0013349Y0070643D02*
X0010299Y0070643D01*
X0010299Y0071429D02*
X0013150Y0071429D01*
X0013047Y0072215D02*
X0010299Y0072215D01*
X0064024Y0072215D02*
X0064811Y0072215D01*
X0064811Y0071429D02*
X0064024Y0071429D01*
X0064024Y0070643D02*
X0064811Y0070643D01*
X0064811Y0069857D02*
X0064024Y0069857D01*
X0064327Y0068285D02*
X0070520Y0068285D01*
X0070323Y0073786D02*
X0069748Y0073786D01*
X0069748Y0074572D02*
X0070323Y0074572D01*
X0070323Y0075358D02*
X0069748Y0075358D01*
X0069465Y0076144D02*
X0070694Y0076144D01*
X0132331Y0035277D02*
X0136465Y0035277D01*
X0136465Y0034491D02*
X0132331Y0034491D01*
X0132331Y0033705D02*
X0136465Y0033705D01*
X0136465Y0032919D02*
X0132331Y0032919D01*
X0132331Y0032133D02*
X0136465Y0032133D01*
X0136465Y0031347D02*
X0132331Y0031347D01*
X0132331Y0030561D02*
X0136465Y0030561D01*
X0136465Y0029775D02*
X0132331Y0029775D01*
X0132331Y0028989D02*
X0136465Y0028989D01*
X0136465Y0028203D02*
X0132331Y0028203D01*
X0132331Y0027418D02*
X0136465Y0027418D01*
X0136465Y0026632D02*
X0132331Y0026632D01*
X0132331Y0025846D02*
X0136465Y0025846D01*
X0136465Y0025060D02*
X0132331Y0025060D01*
X0132331Y0024274D02*
X0136465Y0024274D01*
X0136465Y0023488D02*
X0132331Y0023488D01*
X0131780Y0022702D02*
X0136465Y0022702D01*
X0136465Y0021916D02*
X0130994Y0021916D01*
X0130208Y0021130D02*
X0136465Y0021130D01*
X0140598Y0020362D02*
X0143945Y0017016D01*
X0140598Y0020362D02*
X0140598Y0033945D01*
X0157626Y0039992D02*
X0158217Y0039992D01*
X0158217Y0040778D02*
X0157626Y0040778D01*
X0157626Y0041564D02*
X0158217Y0041564D01*
X0177606Y0035323D02*
X0177606Y0056976D01*
X0183324Y0063570D02*
X0188919Y0063570D01*
X0188133Y0064355D02*
X0182636Y0064355D01*
X0161453Y0070643D02*
X0161383Y0070643D01*
X0158217Y0053353D02*
X0157626Y0053353D01*
X0157626Y0052567D02*
X0158217Y0052567D01*
X0158217Y0051781D02*
X0157626Y0051781D01*
X0160300Y0051781D02*
X0161071Y0051781D01*
X0182134Y0048512D02*
X0182134Y0046740D01*
X0182134Y0048512D02*
X0182724Y0049102D01*
X0189772Y0049102D01*
X0189969Y0049299D01*
X0189969Y0039299D02*
X0189929Y0039260D01*
X0187055Y0039260D01*
X0186858Y0039063D01*
X0186858Y0033157D01*
X0181543Y0033551D02*
X0179378Y0033551D01*
X0177606Y0035323D01*
X0188236Y0038866D02*
X0188669Y0039299D01*
X0189969Y0039299D01*
X0081574Y0015629D02*
X0060874Y0015629D01*
X0060874Y0014843D02*
X0081015Y0014843D01*
X0080756Y0014057D02*
X0060874Y0014057D01*
X0060874Y0013271D02*
X0080756Y0013271D01*
X0081019Y0012485D02*
X0060874Y0012485D01*
X0069433Y0017201D02*
X0070436Y0017201D01*
D24*
X0083512Y0013669D03*
X0094339Y0052449D03*
X0152409Y0062291D03*
D25*
X0169339Y0072528D03*
X0156150Y0073315D03*
X0067370Y0049102D03*
X0045913Y0050087D03*
D26*
X0041386Y0039457D02*
X0041386Y0035717D01*
X0040402Y0034732D01*
X0030362Y0034732D01*
X0029575Y0035520D01*
X0028984Y0035520D01*
X0071504Y0053827D02*
X0076425Y0053827D01*
X0076425Y0053630D01*
X0079575Y0053630D01*
X0084299Y0050874D02*
X0084299Y0043984D01*
X0084339Y0043945D01*
X0084890Y0043394D01*
X0084890Y0037094D01*
X0081740Y0033945D01*
X0081740Y0030795D01*
X0087646Y0024890D01*
X0087646Y0020953D01*
X0083709Y0017016D01*
X0083709Y0013669D01*
X0117724Y0038276D02*
X0122291Y0038276D01*
X0122291Y0038472D01*
X0113039Y0051071D02*
X0109496Y0051071D01*
X0109496Y0051465D01*
X0100638Y0051465D01*
X0100244Y0051858D01*
X0100244Y0052449D01*
X0094339Y0052449D01*
X0085874Y0052449D01*
X0084299Y0050874D01*
X0094339Y0052252D02*
X0094339Y0052449D01*
X0113039Y0051071D02*
X0114811Y0052843D01*
X0114811Y0064654D01*
X0130559Y0080402D01*
X0149260Y0080402D01*
X0156150Y0073512D01*
X0156150Y0073315D01*
X0163039Y0068197D02*
X0163039Y0064260D01*
X0163039Y0054417D01*
X0163039Y0050283D01*
X0163039Y0039260D01*
X0163039Y0035717D01*
X0163039Y0025480D01*
X0163433Y0025087D01*
X0163433Y0020953D01*
D27*
X0122882Y0026071D02*
X0122882Y0031189D01*
X0122291Y0031189D01*
X0122291Y0038276D01*
X0084339Y0043945D02*
X0083906Y0043512D01*
X0084339Y0043945D02*
X0083354Y0043945D01*
X0083315Y0043984D01*
X0083709Y0044575D02*
X0084339Y0043945D01*
X0072685Y0035520D02*
X0072685Y0035126D01*
X0071898Y0034339D01*
X0068551Y0034339D01*
X0068354Y0034535D01*
X0067764Y0030402D02*
X0073079Y0030402D01*
X0067764Y0030402D02*
X0065205Y0027843D01*
X0065205Y0022035D01*
X0068059Y0019181D01*
X0072882Y0019181D01*
X0073079Y0019378D01*
X0072291Y0024102D02*
X0069339Y0024102D01*
X0072291Y0024102D02*
X0072882Y0024693D01*
X0073079Y0024693D01*
X0083512Y0013669D02*
X0083709Y0013669D01*
X0045323Y0015441D02*
X0045323Y0019181D01*
X0037646Y0018000D02*
X0033906Y0018000D01*
X0031543Y0015638D01*
X0037646Y0023118D02*
X0037646Y0030402D01*
X0045126Y0030402D02*
X0045323Y0030205D01*
X0045323Y0024299D01*
X0045126Y0039457D02*
X0045520Y0039850D01*
X0152409Y0062291D02*
X0152409Y0068197D01*
X0153000Y0068787D01*
X0163039Y0068197D02*
X0163827Y0068197D01*
D28*
X0169339Y0072528D02*
X0169339Y0076858D01*
X0168157Y0078039D01*
X0160874Y0078039D01*
X0156150Y0073315D01*
X0153000Y0070165D01*
X0153000Y0068787D01*
D29*
X0078000Y0048315D02*
X0078000Y0047724D01*
X0078000Y0048315D02*
X0077606Y0048709D01*
X0071504Y0048709D01*
X0067764Y0048709D01*
X0067370Y0049102D01*
X0045913Y0050087D02*
X0045323Y0050677D01*
X0045323Y0055008D01*
X0044929Y0055402D01*
X0044339Y0055402D01*
X0044142Y0050087D02*
X0045913Y0050087D01*
X0044142Y0050087D02*
X0041386Y0047331D01*
X0041386Y0039457D01*
D30*
X0067370Y0049102D02*
X0067370Y0060323D01*
X0071701Y0064654D01*
X0072724Y0064654D01*
X0073276Y0065205D01*
X0073276Y0073118D01*
X0073472Y0072921D01*
X0075441Y0072921D01*
X0074654Y0072921D01*
X0075244Y0073512D01*
X0086268Y0073512D01*
X0093157Y0080402D01*
X0115402Y0080402D01*
X0117961Y0082961D01*
X0052724Y0064654D02*
X0044339Y0056268D01*
X0044339Y0055402D01*
D31*
X0052724Y0064654D02*
X0052803Y0064732D01*
X0052803Y0072528D01*
X0052409Y0072921D01*
X0051228Y0072921D01*
D32*
X0117961Y0082961D03*
M02*
