G75*
%MOIN*%
%OFA0B0*%
%FSLAX25Y25*%
%IPPOS*%
%LPD*%
%AMOC8*
5,1,8,0,0,1.08239X$1,22.5*
%
%ADD10C,0.00000*%
%ADD11R,0.08274X0.02762*%
%ADD12R,0.03943X0.03156*%
%ADD13R,0.03550X0.01581*%
%ADD14R,0.03156X0.03943*%
%ADD15R,0.04731X0.05518*%
%ADD16R,0.05912X0.04337*%
%ADD17R,0.04337X0.05912*%
%ADD18R,0.12211X0.03746*%
%ADD19R,0.05124X0.02762*%
%ADD20R,0.04337X0.04731*%
%ADD21R,0.03550X0.03550*%
%ADD22R,0.04731X0.02172*%
%ADD23R,0.04731X0.02959*%
%ADD24R,0.02172X0.04731*%
%ADD25R,0.02959X0.04731*%
%ADD26C,0.01796*%
%ADD27R,0.01581X0.03550*%
%ADD28R,0.07093X0.05124*%
%ADD29C,0.05550*%
%ADD30C,0.04369*%
%ADD31C,0.06699*%
%ADD32C,0.13786*%
%ADD33C,0.06306*%
D10*
X0010283Y0010126D02*
X0096110Y0010126D01*
X0096110Y0015244D01*
X0108709Y0015244D01*
X0108709Y0010126D01*
X0194535Y0010126D01*
X0194630Y0010128D01*
X0194725Y0010134D01*
X0194820Y0010143D01*
X0194914Y0010157D01*
X0195007Y0010174D01*
X0195100Y0010195D01*
X0195192Y0010219D01*
X0195283Y0010248D01*
X0195373Y0010279D01*
X0195461Y0010315D01*
X0195548Y0010354D01*
X0195633Y0010397D01*
X0195716Y0010442D01*
X0195797Y0010492D01*
X0195877Y0010544D01*
X0195954Y0010600D01*
X0196029Y0010658D01*
X0196101Y0010720D01*
X0196171Y0010785D01*
X0196238Y0010852D01*
X0196303Y0010922D01*
X0196365Y0010994D01*
X0196423Y0011069D01*
X0196479Y0011146D01*
X0196531Y0011226D01*
X0196581Y0011307D01*
X0196626Y0011390D01*
X0196669Y0011475D01*
X0196708Y0011562D01*
X0196744Y0011650D01*
X0196775Y0011740D01*
X0196804Y0011831D01*
X0196828Y0011923D01*
X0196849Y0012016D01*
X0196866Y0012109D01*
X0196880Y0012203D01*
X0196889Y0012298D01*
X0196895Y0012393D01*
X0196897Y0012488D01*
X0196898Y0012488D02*
X0196898Y0086504D01*
X0196897Y0086504D02*
X0196895Y0086599D01*
X0196889Y0086694D01*
X0196880Y0086789D01*
X0196866Y0086883D01*
X0196849Y0086976D01*
X0196828Y0087069D01*
X0196804Y0087161D01*
X0196775Y0087252D01*
X0196744Y0087342D01*
X0196708Y0087430D01*
X0196669Y0087517D01*
X0196626Y0087602D01*
X0196581Y0087685D01*
X0196531Y0087766D01*
X0196479Y0087846D01*
X0196423Y0087923D01*
X0196365Y0087998D01*
X0196303Y0088070D01*
X0196238Y0088140D01*
X0196171Y0088207D01*
X0196101Y0088272D01*
X0196029Y0088334D01*
X0195954Y0088392D01*
X0195877Y0088448D01*
X0195797Y0088500D01*
X0195716Y0088550D01*
X0195633Y0088595D01*
X0195548Y0088638D01*
X0195461Y0088677D01*
X0195373Y0088713D01*
X0195283Y0088744D01*
X0195192Y0088773D01*
X0195100Y0088797D01*
X0195007Y0088818D01*
X0194914Y0088835D01*
X0194820Y0088849D01*
X0194725Y0088858D01*
X0194630Y0088864D01*
X0194535Y0088866D01*
X0108709Y0088866D01*
X0108709Y0083748D01*
X0096110Y0083748D01*
X0096110Y0088866D01*
X0010283Y0088866D01*
X0010188Y0088864D01*
X0010093Y0088858D01*
X0009998Y0088849D01*
X0009904Y0088835D01*
X0009811Y0088818D01*
X0009718Y0088797D01*
X0009626Y0088773D01*
X0009535Y0088744D01*
X0009445Y0088713D01*
X0009357Y0088677D01*
X0009270Y0088638D01*
X0009185Y0088595D01*
X0009102Y0088550D01*
X0009021Y0088500D01*
X0008941Y0088448D01*
X0008864Y0088392D01*
X0008789Y0088334D01*
X0008717Y0088272D01*
X0008647Y0088207D01*
X0008580Y0088140D01*
X0008515Y0088070D01*
X0008453Y0087998D01*
X0008395Y0087923D01*
X0008339Y0087846D01*
X0008287Y0087766D01*
X0008237Y0087685D01*
X0008192Y0087602D01*
X0008149Y0087517D01*
X0008110Y0087430D01*
X0008074Y0087342D01*
X0008043Y0087252D01*
X0008014Y0087161D01*
X0007990Y0087069D01*
X0007969Y0086976D01*
X0007952Y0086883D01*
X0007938Y0086789D01*
X0007929Y0086694D01*
X0007923Y0086599D01*
X0007921Y0086504D01*
X0007921Y0012488D01*
X0007923Y0012393D01*
X0007929Y0012298D01*
X0007938Y0012203D01*
X0007952Y0012109D01*
X0007969Y0012016D01*
X0007990Y0011923D01*
X0008014Y0011831D01*
X0008043Y0011740D01*
X0008074Y0011650D01*
X0008110Y0011562D01*
X0008149Y0011475D01*
X0008192Y0011390D01*
X0008237Y0011307D01*
X0008287Y0011226D01*
X0008339Y0011146D01*
X0008395Y0011069D01*
X0008453Y0010994D01*
X0008515Y0010922D01*
X0008580Y0010852D01*
X0008647Y0010785D01*
X0008717Y0010720D01*
X0008789Y0010658D01*
X0008864Y0010600D01*
X0008941Y0010544D01*
X0009021Y0010492D01*
X0009102Y0010442D01*
X0009185Y0010397D01*
X0009270Y0010354D01*
X0009357Y0010315D01*
X0009445Y0010279D01*
X0009535Y0010248D01*
X0009626Y0010219D01*
X0009718Y0010195D01*
X0009811Y0010174D01*
X0009904Y0010157D01*
X0009998Y0010143D01*
X0010093Y0010134D01*
X0010188Y0010128D01*
X0010283Y0010126D01*
X0016582Y0040441D02*
X0016584Y0040549D01*
X0016590Y0040658D01*
X0016600Y0040766D01*
X0016614Y0040873D01*
X0016632Y0040980D01*
X0016653Y0041087D01*
X0016679Y0041192D01*
X0016709Y0041297D01*
X0016742Y0041400D01*
X0016779Y0041502D01*
X0016820Y0041602D01*
X0016864Y0041701D01*
X0016913Y0041799D01*
X0016964Y0041894D01*
X0017019Y0041987D01*
X0017078Y0042079D01*
X0017140Y0042168D01*
X0017205Y0042255D01*
X0017273Y0042339D01*
X0017344Y0042421D01*
X0017418Y0042500D01*
X0017495Y0042576D01*
X0017575Y0042650D01*
X0017658Y0042720D01*
X0017743Y0042788D01*
X0017830Y0042852D01*
X0017920Y0042913D01*
X0018012Y0042971D01*
X0018106Y0043025D01*
X0018202Y0043076D01*
X0018299Y0043123D01*
X0018399Y0043167D01*
X0018500Y0043207D01*
X0018602Y0043243D01*
X0018705Y0043275D01*
X0018810Y0043304D01*
X0018916Y0043328D01*
X0019022Y0043349D01*
X0019129Y0043366D01*
X0019237Y0043379D01*
X0019345Y0043388D01*
X0019454Y0043393D01*
X0019562Y0043394D01*
X0019671Y0043391D01*
X0019779Y0043384D01*
X0019887Y0043373D01*
X0019994Y0043358D01*
X0020101Y0043339D01*
X0020207Y0043316D01*
X0020312Y0043290D01*
X0020417Y0043259D01*
X0020519Y0043225D01*
X0020621Y0043187D01*
X0020721Y0043145D01*
X0020820Y0043100D01*
X0020917Y0043051D01*
X0021011Y0042998D01*
X0021104Y0042942D01*
X0021195Y0042883D01*
X0021284Y0042820D01*
X0021370Y0042755D01*
X0021454Y0042686D01*
X0021535Y0042614D01*
X0021613Y0042539D01*
X0021689Y0042461D01*
X0021762Y0042380D01*
X0021832Y0042297D01*
X0021898Y0042212D01*
X0021962Y0042124D01*
X0022022Y0042033D01*
X0022079Y0041941D01*
X0022132Y0041846D01*
X0022182Y0041750D01*
X0022228Y0041652D01*
X0022271Y0041552D01*
X0022310Y0041451D01*
X0022345Y0041348D01*
X0022377Y0041245D01*
X0022404Y0041140D01*
X0022428Y0041034D01*
X0022448Y0040927D01*
X0022464Y0040820D01*
X0022476Y0040712D01*
X0022484Y0040604D01*
X0022488Y0040495D01*
X0022488Y0040387D01*
X0022484Y0040278D01*
X0022476Y0040170D01*
X0022464Y0040062D01*
X0022448Y0039955D01*
X0022428Y0039848D01*
X0022404Y0039742D01*
X0022377Y0039637D01*
X0022345Y0039534D01*
X0022310Y0039431D01*
X0022271Y0039330D01*
X0022228Y0039230D01*
X0022182Y0039132D01*
X0022132Y0039036D01*
X0022079Y0038941D01*
X0022022Y0038849D01*
X0021962Y0038758D01*
X0021898Y0038670D01*
X0021832Y0038585D01*
X0021762Y0038502D01*
X0021689Y0038421D01*
X0021613Y0038343D01*
X0021535Y0038268D01*
X0021454Y0038196D01*
X0021370Y0038127D01*
X0021284Y0038062D01*
X0021195Y0037999D01*
X0021104Y0037940D01*
X0021012Y0037884D01*
X0020917Y0037831D01*
X0020820Y0037782D01*
X0020721Y0037737D01*
X0020621Y0037695D01*
X0020519Y0037657D01*
X0020417Y0037623D01*
X0020312Y0037592D01*
X0020207Y0037566D01*
X0020101Y0037543D01*
X0019994Y0037524D01*
X0019887Y0037509D01*
X0019779Y0037498D01*
X0019671Y0037491D01*
X0019562Y0037488D01*
X0019454Y0037489D01*
X0019345Y0037494D01*
X0019237Y0037503D01*
X0019129Y0037516D01*
X0019022Y0037533D01*
X0018916Y0037554D01*
X0018810Y0037578D01*
X0018705Y0037607D01*
X0018602Y0037639D01*
X0018500Y0037675D01*
X0018399Y0037715D01*
X0018299Y0037759D01*
X0018202Y0037806D01*
X0018106Y0037857D01*
X0018012Y0037911D01*
X0017920Y0037969D01*
X0017830Y0038030D01*
X0017743Y0038094D01*
X0017658Y0038162D01*
X0017575Y0038232D01*
X0017495Y0038306D01*
X0017418Y0038382D01*
X0017344Y0038461D01*
X0017273Y0038543D01*
X0017205Y0038627D01*
X0017140Y0038714D01*
X0017078Y0038803D01*
X0017019Y0038895D01*
X0016964Y0038988D01*
X0016913Y0039083D01*
X0016864Y0039181D01*
X0016820Y0039280D01*
X0016779Y0039380D01*
X0016742Y0039482D01*
X0016709Y0039585D01*
X0016679Y0039690D01*
X0016653Y0039795D01*
X0016632Y0039902D01*
X0016614Y0040009D01*
X0016600Y0040116D01*
X0016590Y0040224D01*
X0016584Y0040333D01*
X0016582Y0040441D01*
X0016582Y0058157D02*
X0016584Y0058265D01*
X0016590Y0058374D01*
X0016600Y0058482D01*
X0016614Y0058589D01*
X0016632Y0058696D01*
X0016653Y0058803D01*
X0016679Y0058908D01*
X0016709Y0059013D01*
X0016742Y0059116D01*
X0016779Y0059218D01*
X0016820Y0059318D01*
X0016864Y0059417D01*
X0016913Y0059515D01*
X0016964Y0059610D01*
X0017019Y0059703D01*
X0017078Y0059795D01*
X0017140Y0059884D01*
X0017205Y0059971D01*
X0017273Y0060055D01*
X0017344Y0060137D01*
X0017418Y0060216D01*
X0017495Y0060292D01*
X0017575Y0060366D01*
X0017658Y0060436D01*
X0017743Y0060504D01*
X0017830Y0060568D01*
X0017920Y0060629D01*
X0018012Y0060687D01*
X0018106Y0060741D01*
X0018202Y0060792D01*
X0018299Y0060839D01*
X0018399Y0060883D01*
X0018500Y0060923D01*
X0018602Y0060959D01*
X0018705Y0060991D01*
X0018810Y0061020D01*
X0018916Y0061044D01*
X0019022Y0061065D01*
X0019129Y0061082D01*
X0019237Y0061095D01*
X0019345Y0061104D01*
X0019454Y0061109D01*
X0019562Y0061110D01*
X0019671Y0061107D01*
X0019779Y0061100D01*
X0019887Y0061089D01*
X0019994Y0061074D01*
X0020101Y0061055D01*
X0020207Y0061032D01*
X0020312Y0061006D01*
X0020417Y0060975D01*
X0020519Y0060941D01*
X0020621Y0060903D01*
X0020721Y0060861D01*
X0020820Y0060816D01*
X0020917Y0060767D01*
X0021011Y0060714D01*
X0021104Y0060658D01*
X0021195Y0060599D01*
X0021284Y0060536D01*
X0021370Y0060471D01*
X0021454Y0060402D01*
X0021535Y0060330D01*
X0021613Y0060255D01*
X0021689Y0060177D01*
X0021762Y0060096D01*
X0021832Y0060013D01*
X0021898Y0059928D01*
X0021962Y0059840D01*
X0022022Y0059749D01*
X0022079Y0059657D01*
X0022132Y0059562D01*
X0022182Y0059466D01*
X0022228Y0059368D01*
X0022271Y0059268D01*
X0022310Y0059167D01*
X0022345Y0059064D01*
X0022377Y0058961D01*
X0022404Y0058856D01*
X0022428Y0058750D01*
X0022448Y0058643D01*
X0022464Y0058536D01*
X0022476Y0058428D01*
X0022484Y0058320D01*
X0022488Y0058211D01*
X0022488Y0058103D01*
X0022484Y0057994D01*
X0022476Y0057886D01*
X0022464Y0057778D01*
X0022448Y0057671D01*
X0022428Y0057564D01*
X0022404Y0057458D01*
X0022377Y0057353D01*
X0022345Y0057250D01*
X0022310Y0057147D01*
X0022271Y0057046D01*
X0022228Y0056946D01*
X0022182Y0056848D01*
X0022132Y0056752D01*
X0022079Y0056657D01*
X0022022Y0056565D01*
X0021962Y0056474D01*
X0021898Y0056386D01*
X0021832Y0056301D01*
X0021762Y0056218D01*
X0021689Y0056137D01*
X0021613Y0056059D01*
X0021535Y0055984D01*
X0021454Y0055912D01*
X0021370Y0055843D01*
X0021284Y0055778D01*
X0021195Y0055715D01*
X0021104Y0055656D01*
X0021012Y0055600D01*
X0020917Y0055547D01*
X0020820Y0055498D01*
X0020721Y0055453D01*
X0020621Y0055411D01*
X0020519Y0055373D01*
X0020417Y0055339D01*
X0020312Y0055308D01*
X0020207Y0055282D01*
X0020101Y0055259D01*
X0019994Y0055240D01*
X0019887Y0055225D01*
X0019779Y0055214D01*
X0019671Y0055207D01*
X0019562Y0055204D01*
X0019454Y0055205D01*
X0019345Y0055210D01*
X0019237Y0055219D01*
X0019129Y0055232D01*
X0019022Y0055249D01*
X0018916Y0055270D01*
X0018810Y0055294D01*
X0018705Y0055323D01*
X0018602Y0055355D01*
X0018500Y0055391D01*
X0018399Y0055431D01*
X0018299Y0055475D01*
X0018202Y0055522D01*
X0018106Y0055573D01*
X0018012Y0055627D01*
X0017920Y0055685D01*
X0017830Y0055746D01*
X0017743Y0055810D01*
X0017658Y0055878D01*
X0017575Y0055948D01*
X0017495Y0056022D01*
X0017418Y0056098D01*
X0017344Y0056177D01*
X0017273Y0056259D01*
X0017205Y0056343D01*
X0017140Y0056430D01*
X0017078Y0056519D01*
X0017019Y0056611D01*
X0016964Y0056704D01*
X0016913Y0056799D01*
X0016864Y0056897D01*
X0016820Y0056996D01*
X0016779Y0057096D01*
X0016742Y0057198D01*
X0016709Y0057301D01*
X0016679Y0057406D01*
X0016653Y0057511D01*
X0016632Y0057618D01*
X0016614Y0057725D01*
X0016600Y0057832D01*
X0016590Y0057940D01*
X0016584Y0058049D01*
X0016582Y0058157D01*
D11*
X0038630Y0049280D03*
X0038630Y0044280D03*
X0038630Y0039280D03*
X0038630Y0034280D03*
X0038630Y0029280D03*
X0038630Y0024280D03*
X0038630Y0019280D03*
X0038630Y0014280D03*
X0075638Y0014280D03*
X0075638Y0019280D03*
X0075638Y0024280D03*
X0075638Y0029280D03*
X0075638Y0034280D03*
X0075638Y0039280D03*
X0075638Y0044280D03*
X0075638Y0049280D03*
D12*
X0083906Y0062488D03*
X0089024Y0062488D03*
X0127606Y0043984D03*
X0132724Y0043984D03*
X0132724Y0038866D03*
X0127606Y0038866D03*
X0151228Y0039850D03*
X0156346Y0039850D03*
X0156346Y0025283D03*
X0151228Y0025283D03*
X0134890Y0016031D03*
X0129772Y0016031D03*
X0151622Y0054417D03*
X0156740Y0054417D03*
X0150244Y0069772D03*
X0145126Y0069772D03*
X0139417Y0071346D03*
X0134299Y0071346D03*
X0159693Y0080795D03*
X0164811Y0080795D03*
X0164811Y0085323D03*
X0159693Y0085323D03*
X0173472Y0086307D03*
X0178591Y0086307D03*
X0026228Y0014063D03*
X0021110Y0014063D03*
D13*
X0091386Y0023906D03*
X0091386Y0025874D03*
X0091386Y0027843D03*
X0091386Y0029811D03*
X0091386Y0031780D03*
X0091386Y0033748D03*
X0091386Y0035717D03*
X0091386Y0037685D03*
X0091386Y0039654D03*
X0091386Y0041622D03*
X0091386Y0043591D03*
X0091386Y0045559D03*
X0118945Y0045559D03*
X0118945Y0043591D03*
X0118945Y0041622D03*
X0118945Y0039654D03*
X0118945Y0037685D03*
X0118945Y0035717D03*
X0118945Y0033748D03*
X0118945Y0031780D03*
X0118945Y0029811D03*
X0118945Y0027843D03*
X0118945Y0025874D03*
X0118945Y0023906D03*
X0147685Y0020953D03*
X0147685Y0018984D03*
X0147685Y0017016D03*
X0147685Y0015047D03*
X0159890Y0015047D03*
X0159890Y0017016D03*
X0159890Y0018984D03*
X0159890Y0020953D03*
X0159890Y0029614D03*
X0159890Y0031583D03*
X0159890Y0033551D03*
X0159890Y0035520D03*
X0147685Y0035520D03*
X0147685Y0033551D03*
X0147685Y0031583D03*
X0147685Y0029614D03*
X0147685Y0044181D03*
X0147685Y0046150D03*
X0147685Y0048118D03*
X0147685Y0050087D03*
X0159890Y0050087D03*
X0159890Y0048118D03*
X0159890Y0046150D03*
X0159890Y0044181D03*
X0159890Y0058748D03*
X0159890Y0060717D03*
X0159890Y0062685D03*
X0159890Y0064654D03*
X0147685Y0064654D03*
X0147685Y0062685D03*
X0147685Y0060717D03*
X0147685Y0058748D03*
D14*
X0160480Y0069969D03*
X0160480Y0075087D03*
D15*
X0134496Y0031976D03*
X0127016Y0031976D03*
X0127016Y0022921D03*
X0134496Y0022921D03*
D16*
X0127016Y0058551D03*
X0119535Y0058551D03*
X0110874Y0062291D03*
X0119535Y0066031D03*
X0127016Y0066031D03*
X0135677Y0062291D03*
D17*
X0171110Y0079811D03*
X0178591Y0079811D03*
X0174850Y0071150D03*
D18*
X0189969Y0069496D03*
X0189969Y0059496D03*
X0189969Y0049496D03*
X0189969Y0039496D03*
X0189969Y0029496D03*
D19*
X0145126Y0077252D03*
X0136071Y0077252D03*
X0136071Y0080992D03*
X0136071Y0084732D03*
X0145126Y0084732D03*
D20*
X0151622Y0085126D03*
X0151622Y0078433D03*
X0129575Y0077646D03*
X0129575Y0084339D03*
D21*
X0122882Y0080402D03*
X0113827Y0080402D03*
X0104772Y0080402D03*
X0095717Y0080402D03*
X0095717Y0074496D03*
X0104772Y0074496D03*
X0113827Y0074496D03*
X0122882Y0074496D03*
D22*
X0169929Y0054417D03*
X0169929Y0051268D03*
X0177409Y0051268D03*
X0177409Y0054417D03*
X0177409Y0033748D03*
X0177409Y0030598D03*
X0169929Y0030598D03*
X0169929Y0033748D03*
D23*
X0169929Y0037291D03*
X0177409Y0037291D03*
X0177409Y0027055D03*
X0169929Y0027055D03*
X0169929Y0047724D03*
X0177409Y0047724D03*
X0177409Y0057961D03*
X0169929Y0057961D03*
D24*
X0101228Y0060717D03*
X0098079Y0060717D03*
X0098079Y0068197D03*
X0101228Y0068197D03*
D25*
X0104772Y0068197D03*
X0094535Y0068197D03*
X0094535Y0060717D03*
X0104772Y0060717D03*
D26*
X0094840Y0045057D02*
X0115490Y0045057D01*
X0115490Y0024407D01*
X0094840Y0024407D01*
X0094840Y0045057D01*
X0094840Y0026202D02*
X0115490Y0026202D01*
X0115490Y0027997D02*
X0094840Y0027997D01*
X0094840Y0029792D02*
X0115490Y0029792D01*
X0115490Y0031587D02*
X0094840Y0031587D01*
X0094840Y0033382D02*
X0115490Y0033382D01*
X0115490Y0035177D02*
X0094840Y0035177D01*
X0094840Y0036972D02*
X0115490Y0036972D01*
X0115490Y0038767D02*
X0094840Y0038767D01*
X0094840Y0040562D02*
X0115490Y0040562D01*
X0115490Y0042357D02*
X0094840Y0042357D01*
X0094840Y0044152D02*
X0115490Y0044152D01*
D27*
X0115992Y0048512D03*
X0114024Y0048512D03*
X0112055Y0048512D03*
X0110087Y0048512D03*
X0108118Y0048512D03*
X0106150Y0048512D03*
X0104181Y0048512D03*
X0102213Y0048512D03*
X0100244Y0048512D03*
X0098276Y0048512D03*
X0096307Y0048512D03*
X0094339Y0048512D03*
X0094339Y0020953D03*
X0096307Y0020953D03*
X0098276Y0020953D03*
X0100244Y0020953D03*
X0102213Y0020953D03*
X0104181Y0020953D03*
X0106150Y0020953D03*
X0108118Y0020953D03*
X0110087Y0020953D03*
X0112055Y0020953D03*
X0114024Y0020953D03*
X0115992Y0020953D03*
D28*
X0086661Y0071937D03*
X0086661Y0085323D03*
D29*
X0072724Y0064850D03*
X0062724Y0064850D03*
X0052724Y0064850D03*
X0042724Y0064850D03*
D30*
X0112370Y0013472D03*
X0117370Y0013472D03*
X0122370Y0013472D03*
X0185343Y0013531D03*
X0190343Y0013531D03*
X0190343Y0018531D03*
X0185343Y0018531D03*
D31*
X0028984Y0035520D03*
X0028984Y0045362D03*
X0028984Y0053236D03*
X0028984Y0063079D03*
D32*
X0021110Y0072921D03*
X0021110Y0025677D03*
D33*
X0019535Y0040441D03*
X0019535Y0058157D03*
M02*
