G75*
%MOIN*%
%OFA0B0*%
%FSLAX25Y25*%
%IPPOS*%
%LPD*%
%AMOC8*
5,1,8,0,0,1.08239X$1,22.5*
%
%ADD10C,0.00000*%
%ADD11R,0.08274X0.02762*%
%ADD12R,0.03943X0.03156*%
%ADD13R,0.03550X0.01581*%
%ADD14R,0.03156X0.03943*%
%ADD15R,0.04731X0.05518*%
%ADD16R,0.05912X0.04337*%
%ADD17R,0.04337X0.05912*%
%ADD18R,0.12211X0.03746*%
%ADD19R,0.05124X0.02762*%
%ADD20R,0.04337X0.04731*%
%ADD21R,0.03550X0.03550*%
%ADD22R,0.04731X0.02172*%
%ADD23R,0.04731X0.02959*%
%ADD24R,0.02172X0.04731*%
%ADD25R,0.02959X0.04731*%
%ADD26C,0.01796*%
%ADD27R,0.01581X0.03550*%
%ADD28R,0.07093X0.05124*%
%ADD29C,0.05550*%
%ADD30C,0.06699*%
%ADD31C,0.13786*%
%ADD32C,0.06306*%
%ADD33C,0.04762*%
D10*
X0016780Y0010913D02*
X0016780Y0018787D01*
X0008906Y0018787D01*
X0008906Y0079811D01*
X0016780Y0079811D01*
X0016780Y0087685D01*
X0096110Y0087685D01*
X0096110Y0083157D01*
X0108709Y0083157D01*
X0108709Y0087685D01*
X0181346Y0087685D01*
X0181346Y0077843D01*
X0196898Y0077843D01*
X0196898Y0020756D01*
X0181346Y0020756D01*
X0181346Y0010913D01*
X0108709Y0010913D01*
X0108709Y0015441D01*
X0096110Y0015441D01*
X0096110Y0010913D01*
X0016780Y0010913D01*
X0018157Y0040441D02*
X0018159Y0040549D01*
X0018165Y0040658D01*
X0018175Y0040766D01*
X0018189Y0040873D01*
X0018207Y0040980D01*
X0018228Y0041087D01*
X0018254Y0041192D01*
X0018284Y0041297D01*
X0018317Y0041400D01*
X0018354Y0041502D01*
X0018395Y0041602D01*
X0018439Y0041701D01*
X0018488Y0041799D01*
X0018539Y0041894D01*
X0018594Y0041987D01*
X0018653Y0042079D01*
X0018715Y0042168D01*
X0018780Y0042255D01*
X0018848Y0042339D01*
X0018919Y0042421D01*
X0018993Y0042500D01*
X0019070Y0042576D01*
X0019150Y0042650D01*
X0019233Y0042720D01*
X0019318Y0042788D01*
X0019405Y0042852D01*
X0019495Y0042913D01*
X0019587Y0042971D01*
X0019681Y0043025D01*
X0019777Y0043076D01*
X0019874Y0043123D01*
X0019974Y0043167D01*
X0020075Y0043207D01*
X0020177Y0043243D01*
X0020280Y0043275D01*
X0020385Y0043304D01*
X0020491Y0043328D01*
X0020597Y0043349D01*
X0020704Y0043366D01*
X0020812Y0043379D01*
X0020920Y0043388D01*
X0021029Y0043393D01*
X0021137Y0043394D01*
X0021246Y0043391D01*
X0021354Y0043384D01*
X0021462Y0043373D01*
X0021569Y0043358D01*
X0021676Y0043339D01*
X0021782Y0043316D01*
X0021887Y0043290D01*
X0021992Y0043259D01*
X0022094Y0043225D01*
X0022196Y0043187D01*
X0022296Y0043145D01*
X0022395Y0043100D01*
X0022492Y0043051D01*
X0022586Y0042998D01*
X0022679Y0042942D01*
X0022770Y0042883D01*
X0022859Y0042820D01*
X0022945Y0042755D01*
X0023029Y0042686D01*
X0023110Y0042614D01*
X0023188Y0042539D01*
X0023264Y0042461D01*
X0023337Y0042380D01*
X0023407Y0042297D01*
X0023473Y0042212D01*
X0023537Y0042124D01*
X0023597Y0042033D01*
X0023654Y0041941D01*
X0023707Y0041846D01*
X0023757Y0041750D01*
X0023803Y0041652D01*
X0023846Y0041552D01*
X0023885Y0041451D01*
X0023920Y0041348D01*
X0023952Y0041245D01*
X0023979Y0041140D01*
X0024003Y0041034D01*
X0024023Y0040927D01*
X0024039Y0040820D01*
X0024051Y0040712D01*
X0024059Y0040604D01*
X0024063Y0040495D01*
X0024063Y0040387D01*
X0024059Y0040278D01*
X0024051Y0040170D01*
X0024039Y0040062D01*
X0024023Y0039955D01*
X0024003Y0039848D01*
X0023979Y0039742D01*
X0023952Y0039637D01*
X0023920Y0039534D01*
X0023885Y0039431D01*
X0023846Y0039330D01*
X0023803Y0039230D01*
X0023757Y0039132D01*
X0023707Y0039036D01*
X0023654Y0038941D01*
X0023597Y0038849D01*
X0023537Y0038758D01*
X0023473Y0038670D01*
X0023407Y0038585D01*
X0023337Y0038502D01*
X0023264Y0038421D01*
X0023188Y0038343D01*
X0023110Y0038268D01*
X0023029Y0038196D01*
X0022945Y0038127D01*
X0022859Y0038062D01*
X0022770Y0037999D01*
X0022679Y0037940D01*
X0022587Y0037884D01*
X0022492Y0037831D01*
X0022395Y0037782D01*
X0022296Y0037737D01*
X0022196Y0037695D01*
X0022094Y0037657D01*
X0021992Y0037623D01*
X0021887Y0037592D01*
X0021782Y0037566D01*
X0021676Y0037543D01*
X0021569Y0037524D01*
X0021462Y0037509D01*
X0021354Y0037498D01*
X0021246Y0037491D01*
X0021137Y0037488D01*
X0021029Y0037489D01*
X0020920Y0037494D01*
X0020812Y0037503D01*
X0020704Y0037516D01*
X0020597Y0037533D01*
X0020491Y0037554D01*
X0020385Y0037578D01*
X0020280Y0037607D01*
X0020177Y0037639D01*
X0020075Y0037675D01*
X0019974Y0037715D01*
X0019874Y0037759D01*
X0019777Y0037806D01*
X0019681Y0037857D01*
X0019587Y0037911D01*
X0019495Y0037969D01*
X0019405Y0038030D01*
X0019318Y0038094D01*
X0019233Y0038162D01*
X0019150Y0038232D01*
X0019070Y0038306D01*
X0018993Y0038382D01*
X0018919Y0038461D01*
X0018848Y0038543D01*
X0018780Y0038627D01*
X0018715Y0038714D01*
X0018653Y0038803D01*
X0018594Y0038895D01*
X0018539Y0038988D01*
X0018488Y0039083D01*
X0018439Y0039181D01*
X0018395Y0039280D01*
X0018354Y0039380D01*
X0018317Y0039482D01*
X0018284Y0039585D01*
X0018254Y0039690D01*
X0018228Y0039795D01*
X0018207Y0039902D01*
X0018189Y0040009D01*
X0018175Y0040116D01*
X0018165Y0040224D01*
X0018159Y0040333D01*
X0018157Y0040441D01*
X0018157Y0058157D02*
X0018159Y0058265D01*
X0018165Y0058374D01*
X0018175Y0058482D01*
X0018189Y0058589D01*
X0018207Y0058696D01*
X0018228Y0058803D01*
X0018254Y0058908D01*
X0018284Y0059013D01*
X0018317Y0059116D01*
X0018354Y0059218D01*
X0018395Y0059318D01*
X0018439Y0059417D01*
X0018488Y0059515D01*
X0018539Y0059610D01*
X0018594Y0059703D01*
X0018653Y0059795D01*
X0018715Y0059884D01*
X0018780Y0059971D01*
X0018848Y0060055D01*
X0018919Y0060137D01*
X0018993Y0060216D01*
X0019070Y0060292D01*
X0019150Y0060366D01*
X0019233Y0060436D01*
X0019318Y0060504D01*
X0019405Y0060568D01*
X0019495Y0060629D01*
X0019587Y0060687D01*
X0019681Y0060741D01*
X0019777Y0060792D01*
X0019874Y0060839D01*
X0019974Y0060883D01*
X0020075Y0060923D01*
X0020177Y0060959D01*
X0020280Y0060991D01*
X0020385Y0061020D01*
X0020491Y0061044D01*
X0020597Y0061065D01*
X0020704Y0061082D01*
X0020812Y0061095D01*
X0020920Y0061104D01*
X0021029Y0061109D01*
X0021137Y0061110D01*
X0021246Y0061107D01*
X0021354Y0061100D01*
X0021462Y0061089D01*
X0021569Y0061074D01*
X0021676Y0061055D01*
X0021782Y0061032D01*
X0021887Y0061006D01*
X0021992Y0060975D01*
X0022094Y0060941D01*
X0022196Y0060903D01*
X0022296Y0060861D01*
X0022395Y0060816D01*
X0022492Y0060767D01*
X0022586Y0060714D01*
X0022679Y0060658D01*
X0022770Y0060599D01*
X0022859Y0060536D01*
X0022945Y0060471D01*
X0023029Y0060402D01*
X0023110Y0060330D01*
X0023188Y0060255D01*
X0023264Y0060177D01*
X0023337Y0060096D01*
X0023407Y0060013D01*
X0023473Y0059928D01*
X0023537Y0059840D01*
X0023597Y0059749D01*
X0023654Y0059657D01*
X0023707Y0059562D01*
X0023757Y0059466D01*
X0023803Y0059368D01*
X0023846Y0059268D01*
X0023885Y0059167D01*
X0023920Y0059064D01*
X0023952Y0058961D01*
X0023979Y0058856D01*
X0024003Y0058750D01*
X0024023Y0058643D01*
X0024039Y0058536D01*
X0024051Y0058428D01*
X0024059Y0058320D01*
X0024063Y0058211D01*
X0024063Y0058103D01*
X0024059Y0057994D01*
X0024051Y0057886D01*
X0024039Y0057778D01*
X0024023Y0057671D01*
X0024003Y0057564D01*
X0023979Y0057458D01*
X0023952Y0057353D01*
X0023920Y0057250D01*
X0023885Y0057147D01*
X0023846Y0057046D01*
X0023803Y0056946D01*
X0023757Y0056848D01*
X0023707Y0056752D01*
X0023654Y0056657D01*
X0023597Y0056565D01*
X0023537Y0056474D01*
X0023473Y0056386D01*
X0023407Y0056301D01*
X0023337Y0056218D01*
X0023264Y0056137D01*
X0023188Y0056059D01*
X0023110Y0055984D01*
X0023029Y0055912D01*
X0022945Y0055843D01*
X0022859Y0055778D01*
X0022770Y0055715D01*
X0022679Y0055656D01*
X0022587Y0055600D01*
X0022492Y0055547D01*
X0022395Y0055498D01*
X0022296Y0055453D01*
X0022196Y0055411D01*
X0022094Y0055373D01*
X0021992Y0055339D01*
X0021887Y0055308D01*
X0021782Y0055282D01*
X0021676Y0055259D01*
X0021569Y0055240D01*
X0021462Y0055225D01*
X0021354Y0055214D01*
X0021246Y0055207D01*
X0021137Y0055204D01*
X0021029Y0055205D01*
X0020920Y0055210D01*
X0020812Y0055219D01*
X0020704Y0055232D01*
X0020597Y0055249D01*
X0020491Y0055270D01*
X0020385Y0055294D01*
X0020280Y0055323D01*
X0020177Y0055355D01*
X0020075Y0055391D01*
X0019974Y0055431D01*
X0019874Y0055475D01*
X0019777Y0055522D01*
X0019681Y0055573D01*
X0019587Y0055627D01*
X0019495Y0055685D01*
X0019405Y0055746D01*
X0019318Y0055810D01*
X0019233Y0055878D01*
X0019150Y0055948D01*
X0019070Y0056022D01*
X0018993Y0056098D01*
X0018919Y0056177D01*
X0018848Y0056259D01*
X0018780Y0056343D01*
X0018715Y0056430D01*
X0018653Y0056519D01*
X0018594Y0056611D01*
X0018539Y0056704D01*
X0018488Y0056799D01*
X0018439Y0056897D01*
X0018395Y0056996D01*
X0018354Y0057096D01*
X0018317Y0057198D01*
X0018284Y0057301D01*
X0018254Y0057406D01*
X0018228Y0057511D01*
X0018207Y0057618D01*
X0018189Y0057725D01*
X0018175Y0057832D01*
X0018165Y0057940D01*
X0018159Y0058049D01*
X0018157Y0058157D01*
D11*
X0038630Y0050264D03*
X0038630Y0045264D03*
X0038630Y0040264D03*
X0038630Y0035264D03*
X0038630Y0030264D03*
X0038630Y0025264D03*
X0038630Y0020264D03*
X0038630Y0015264D03*
X0075638Y0015264D03*
X0075638Y0020264D03*
X0075638Y0025264D03*
X0075638Y0030264D03*
X0075638Y0035264D03*
X0075638Y0040264D03*
X0075638Y0045264D03*
X0075638Y0050264D03*
D12*
X0083906Y0062291D03*
X0089024Y0062291D03*
X0127606Y0043787D03*
X0132724Y0043787D03*
X0132724Y0038669D03*
X0127606Y0038669D03*
X0151228Y0039654D03*
X0156346Y0039654D03*
X0156346Y0025087D03*
X0151228Y0025087D03*
X0134890Y0015835D03*
X0129772Y0015835D03*
X0151622Y0054220D03*
X0156740Y0054220D03*
X0150244Y0069575D03*
X0145126Y0069575D03*
X0139417Y0071150D03*
X0134299Y0071150D03*
X0159693Y0080205D03*
X0164811Y0080205D03*
X0171504Y0083945D03*
X0176622Y0083945D03*
X0164811Y0084929D03*
X0159693Y0084929D03*
X0026228Y0013866D03*
X0021110Y0013866D03*
D13*
X0091386Y0023709D03*
X0091386Y0025677D03*
X0091386Y0027646D03*
X0091386Y0029614D03*
X0091386Y0031583D03*
X0091386Y0033551D03*
X0091386Y0035520D03*
X0091386Y0037488D03*
X0091386Y0039457D03*
X0091386Y0041425D03*
X0091386Y0043394D03*
X0091386Y0045362D03*
X0118945Y0045362D03*
X0118945Y0043394D03*
X0118945Y0041425D03*
X0118945Y0039457D03*
X0118945Y0037488D03*
X0118945Y0035520D03*
X0118945Y0033551D03*
X0118945Y0031583D03*
X0118945Y0029614D03*
X0118945Y0027646D03*
X0118945Y0025677D03*
X0118945Y0023709D03*
X0147685Y0020953D03*
X0147685Y0018984D03*
X0147685Y0017016D03*
X0147685Y0015047D03*
X0159890Y0015047D03*
X0159890Y0017016D03*
X0159890Y0018984D03*
X0159890Y0020953D03*
X0159890Y0029417D03*
X0159890Y0031386D03*
X0159890Y0033354D03*
X0159890Y0035323D03*
X0147685Y0035323D03*
X0147685Y0033354D03*
X0147685Y0031386D03*
X0147685Y0029417D03*
X0147685Y0043984D03*
X0147685Y0045953D03*
X0147685Y0047921D03*
X0147685Y0049890D03*
X0159890Y0049890D03*
X0159890Y0047921D03*
X0159890Y0045953D03*
X0159890Y0043984D03*
X0159890Y0058551D03*
X0159890Y0060520D03*
X0159890Y0062488D03*
X0159890Y0064457D03*
X0147685Y0064457D03*
X0147685Y0062488D03*
X0147685Y0060520D03*
X0147685Y0058551D03*
D14*
X0160480Y0069772D03*
X0160480Y0074890D03*
D15*
X0134496Y0031780D03*
X0127016Y0031780D03*
X0127016Y0022724D03*
X0134496Y0022724D03*
D16*
X0127016Y0058354D03*
X0119535Y0058354D03*
X0110874Y0062094D03*
X0119535Y0065835D03*
X0127016Y0065835D03*
X0135677Y0062094D03*
D17*
X0170520Y0077646D03*
X0178000Y0077646D03*
X0174260Y0068984D03*
D18*
X0189969Y0069299D03*
X0189969Y0059299D03*
X0189969Y0049299D03*
X0189969Y0039299D03*
X0189969Y0029299D03*
D19*
X0145126Y0076465D03*
X0136071Y0076465D03*
X0136071Y0080205D03*
X0136071Y0083945D03*
X0145126Y0083945D03*
D20*
X0151622Y0084142D03*
X0151622Y0077449D03*
X0128984Y0076858D03*
X0128984Y0083551D03*
D21*
X0122882Y0080205D03*
X0113827Y0080205D03*
X0104772Y0080205D03*
X0095717Y0080205D03*
X0095717Y0074299D03*
X0104772Y0074299D03*
X0113827Y0074299D03*
X0122882Y0074299D03*
D22*
X0169929Y0054220D03*
X0169929Y0051071D03*
X0177409Y0051071D03*
X0177409Y0054220D03*
X0177409Y0033551D03*
X0177409Y0030402D03*
X0169929Y0030402D03*
X0169929Y0033551D03*
D23*
X0169929Y0037094D03*
X0177409Y0037094D03*
X0177409Y0026858D03*
X0169929Y0026858D03*
X0169929Y0047528D03*
X0177409Y0047528D03*
X0177409Y0057764D03*
X0169929Y0057764D03*
D24*
X0101228Y0060520D03*
X0098079Y0060520D03*
X0098079Y0068000D03*
X0101228Y0068000D03*
D25*
X0104772Y0068000D03*
X0094535Y0068000D03*
X0094535Y0060520D03*
X0104772Y0060520D03*
D26*
X0094840Y0044860D02*
X0115490Y0044860D01*
X0115490Y0024210D01*
X0094840Y0024210D01*
X0094840Y0044860D01*
X0094840Y0026005D02*
X0115490Y0026005D01*
X0115490Y0027800D02*
X0094840Y0027800D01*
X0094840Y0029595D02*
X0115490Y0029595D01*
X0115490Y0031390D02*
X0094840Y0031390D01*
X0094840Y0033185D02*
X0115490Y0033185D01*
X0115490Y0034980D02*
X0094840Y0034980D01*
X0094840Y0036775D02*
X0115490Y0036775D01*
X0115490Y0038570D02*
X0094840Y0038570D01*
X0094840Y0040365D02*
X0115490Y0040365D01*
X0115490Y0042160D02*
X0094840Y0042160D01*
X0094840Y0043955D02*
X0115490Y0043955D01*
D27*
X0115992Y0048315D03*
X0114024Y0048315D03*
X0112055Y0048315D03*
X0110087Y0048315D03*
X0108118Y0048315D03*
X0106150Y0048315D03*
X0104181Y0048315D03*
X0102213Y0048315D03*
X0100244Y0048315D03*
X0098276Y0048315D03*
X0096307Y0048315D03*
X0094339Y0048315D03*
X0094339Y0020756D03*
X0096307Y0020756D03*
X0098276Y0020756D03*
X0100244Y0020756D03*
X0102213Y0020756D03*
X0104181Y0020756D03*
X0106150Y0020756D03*
X0108118Y0020756D03*
X0110087Y0020756D03*
X0112055Y0020756D03*
X0114024Y0020756D03*
X0115992Y0020756D03*
D28*
X0086858Y0070165D03*
X0086858Y0083551D03*
D29*
X0072724Y0064654D03*
X0062724Y0064654D03*
X0052724Y0064654D03*
X0042724Y0064654D03*
D30*
X0028984Y0063079D03*
X0028984Y0053236D03*
X0028984Y0045362D03*
X0028984Y0035520D03*
D31*
X0021110Y0025677D03*
X0021110Y0072921D03*
D32*
X0021110Y0058157D03*
X0021110Y0040441D03*
D33*
X0112370Y0014260D03*
X0117370Y0014260D03*
X0122370Y0014260D03*
M02*
