G75*
%MOIN*%
%OFA0B0*%
%FSLAX25Y25*%
%IPPOS*%
%LPD*%
%AMOC8*
5,1,8,0,0,1.08239X$1,22.5*
%
%ADD10C,0.00000*%
%ADD11C,0.00600*%
%ADD12C,0.00500*%
%ADD13C,0.00472*%
%ADD14R,0.00984X0.00984*%
D10*
X0016780Y0010913D02*
X0016780Y0018787D01*
X0008906Y0018787D01*
X0008906Y0079811D01*
X0016780Y0079811D01*
X0016780Y0087685D01*
X0096110Y0087685D01*
X0096110Y0083157D01*
X0108709Y0083157D01*
X0108709Y0087685D01*
X0181346Y0087685D01*
X0181346Y0077843D01*
X0196898Y0077843D01*
X0196898Y0020756D01*
X0181346Y0020756D01*
X0181346Y0010913D01*
X0108709Y0010913D01*
X0108709Y0015441D01*
X0096110Y0015441D01*
X0096110Y0010913D01*
X0016780Y0010913D01*
X0018157Y0040441D02*
X0018159Y0040549D01*
X0018165Y0040658D01*
X0018175Y0040766D01*
X0018189Y0040873D01*
X0018207Y0040980D01*
X0018228Y0041087D01*
X0018254Y0041192D01*
X0018284Y0041297D01*
X0018317Y0041400D01*
X0018354Y0041502D01*
X0018395Y0041602D01*
X0018439Y0041701D01*
X0018488Y0041799D01*
X0018539Y0041894D01*
X0018594Y0041987D01*
X0018653Y0042079D01*
X0018715Y0042168D01*
X0018780Y0042255D01*
X0018848Y0042339D01*
X0018919Y0042421D01*
X0018993Y0042500D01*
X0019070Y0042576D01*
X0019150Y0042650D01*
X0019233Y0042720D01*
X0019318Y0042788D01*
X0019405Y0042852D01*
X0019495Y0042913D01*
X0019587Y0042971D01*
X0019681Y0043025D01*
X0019777Y0043076D01*
X0019874Y0043123D01*
X0019974Y0043167D01*
X0020075Y0043207D01*
X0020177Y0043243D01*
X0020280Y0043275D01*
X0020385Y0043304D01*
X0020491Y0043328D01*
X0020597Y0043349D01*
X0020704Y0043366D01*
X0020812Y0043379D01*
X0020920Y0043388D01*
X0021029Y0043393D01*
X0021137Y0043394D01*
X0021246Y0043391D01*
X0021354Y0043384D01*
X0021462Y0043373D01*
X0021569Y0043358D01*
X0021676Y0043339D01*
X0021782Y0043316D01*
X0021887Y0043290D01*
X0021992Y0043259D01*
X0022094Y0043225D01*
X0022196Y0043187D01*
X0022296Y0043145D01*
X0022395Y0043100D01*
X0022492Y0043051D01*
X0022586Y0042998D01*
X0022679Y0042942D01*
X0022770Y0042883D01*
X0022859Y0042820D01*
X0022945Y0042755D01*
X0023029Y0042686D01*
X0023110Y0042614D01*
X0023188Y0042539D01*
X0023264Y0042461D01*
X0023337Y0042380D01*
X0023407Y0042297D01*
X0023473Y0042212D01*
X0023537Y0042124D01*
X0023597Y0042033D01*
X0023654Y0041941D01*
X0023707Y0041846D01*
X0023757Y0041750D01*
X0023803Y0041652D01*
X0023846Y0041552D01*
X0023885Y0041451D01*
X0023920Y0041348D01*
X0023952Y0041245D01*
X0023979Y0041140D01*
X0024003Y0041034D01*
X0024023Y0040927D01*
X0024039Y0040820D01*
X0024051Y0040712D01*
X0024059Y0040604D01*
X0024063Y0040495D01*
X0024063Y0040387D01*
X0024059Y0040278D01*
X0024051Y0040170D01*
X0024039Y0040062D01*
X0024023Y0039955D01*
X0024003Y0039848D01*
X0023979Y0039742D01*
X0023952Y0039637D01*
X0023920Y0039534D01*
X0023885Y0039431D01*
X0023846Y0039330D01*
X0023803Y0039230D01*
X0023757Y0039132D01*
X0023707Y0039036D01*
X0023654Y0038941D01*
X0023597Y0038849D01*
X0023537Y0038758D01*
X0023473Y0038670D01*
X0023407Y0038585D01*
X0023337Y0038502D01*
X0023264Y0038421D01*
X0023188Y0038343D01*
X0023110Y0038268D01*
X0023029Y0038196D01*
X0022945Y0038127D01*
X0022859Y0038062D01*
X0022770Y0037999D01*
X0022679Y0037940D01*
X0022587Y0037884D01*
X0022492Y0037831D01*
X0022395Y0037782D01*
X0022296Y0037737D01*
X0022196Y0037695D01*
X0022094Y0037657D01*
X0021992Y0037623D01*
X0021887Y0037592D01*
X0021782Y0037566D01*
X0021676Y0037543D01*
X0021569Y0037524D01*
X0021462Y0037509D01*
X0021354Y0037498D01*
X0021246Y0037491D01*
X0021137Y0037488D01*
X0021029Y0037489D01*
X0020920Y0037494D01*
X0020812Y0037503D01*
X0020704Y0037516D01*
X0020597Y0037533D01*
X0020491Y0037554D01*
X0020385Y0037578D01*
X0020280Y0037607D01*
X0020177Y0037639D01*
X0020075Y0037675D01*
X0019974Y0037715D01*
X0019874Y0037759D01*
X0019777Y0037806D01*
X0019681Y0037857D01*
X0019587Y0037911D01*
X0019495Y0037969D01*
X0019405Y0038030D01*
X0019318Y0038094D01*
X0019233Y0038162D01*
X0019150Y0038232D01*
X0019070Y0038306D01*
X0018993Y0038382D01*
X0018919Y0038461D01*
X0018848Y0038543D01*
X0018780Y0038627D01*
X0018715Y0038714D01*
X0018653Y0038803D01*
X0018594Y0038895D01*
X0018539Y0038988D01*
X0018488Y0039083D01*
X0018439Y0039181D01*
X0018395Y0039280D01*
X0018354Y0039380D01*
X0018317Y0039482D01*
X0018284Y0039585D01*
X0018254Y0039690D01*
X0018228Y0039795D01*
X0018207Y0039902D01*
X0018189Y0040009D01*
X0018175Y0040116D01*
X0018165Y0040224D01*
X0018159Y0040333D01*
X0018157Y0040441D01*
X0018157Y0058157D02*
X0018159Y0058265D01*
X0018165Y0058374D01*
X0018175Y0058482D01*
X0018189Y0058589D01*
X0018207Y0058696D01*
X0018228Y0058803D01*
X0018254Y0058908D01*
X0018284Y0059013D01*
X0018317Y0059116D01*
X0018354Y0059218D01*
X0018395Y0059318D01*
X0018439Y0059417D01*
X0018488Y0059515D01*
X0018539Y0059610D01*
X0018594Y0059703D01*
X0018653Y0059795D01*
X0018715Y0059884D01*
X0018780Y0059971D01*
X0018848Y0060055D01*
X0018919Y0060137D01*
X0018993Y0060216D01*
X0019070Y0060292D01*
X0019150Y0060366D01*
X0019233Y0060436D01*
X0019318Y0060504D01*
X0019405Y0060568D01*
X0019495Y0060629D01*
X0019587Y0060687D01*
X0019681Y0060741D01*
X0019777Y0060792D01*
X0019874Y0060839D01*
X0019974Y0060883D01*
X0020075Y0060923D01*
X0020177Y0060959D01*
X0020280Y0060991D01*
X0020385Y0061020D01*
X0020491Y0061044D01*
X0020597Y0061065D01*
X0020704Y0061082D01*
X0020812Y0061095D01*
X0020920Y0061104D01*
X0021029Y0061109D01*
X0021137Y0061110D01*
X0021246Y0061107D01*
X0021354Y0061100D01*
X0021462Y0061089D01*
X0021569Y0061074D01*
X0021676Y0061055D01*
X0021782Y0061032D01*
X0021887Y0061006D01*
X0021992Y0060975D01*
X0022094Y0060941D01*
X0022196Y0060903D01*
X0022296Y0060861D01*
X0022395Y0060816D01*
X0022492Y0060767D01*
X0022586Y0060714D01*
X0022679Y0060658D01*
X0022770Y0060599D01*
X0022859Y0060536D01*
X0022945Y0060471D01*
X0023029Y0060402D01*
X0023110Y0060330D01*
X0023188Y0060255D01*
X0023264Y0060177D01*
X0023337Y0060096D01*
X0023407Y0060013D01*
X0023473Y0059928D01*
X0023537Y0059840D01*
X0023597Y0059749D01*
X0023654Y0059657D01*
X0023707Y0059562D01*
X0023757Y0059466D01*
X0023803Y0059368D01*
X0023846Y0059268D01*
X0023885Y0059167D01*
X0023920Y0059064D01*
X0023952Y0058961D01*
X0023979Y0058856D01*
X0024003Y0058750D01*
X0024023Y0058643D01*
X0024039Y0058536D01*
X0024051Y0058428D01*
X0024059Y0058320D01*
X0024063Y0058211D01*
X0024063Y0058103D01*
X0024059Y0057994D01*
X0024051Y0057886D01*
X0024039Y0057778D01*
X0024023Y0057671D01*
X0024003Y0057564D01*
X0023979Y0057458D01*
X0023952Y0057353D01*
X0023920Y0057250D01*
X0023885Y0057147D01*
X0023846Y0057046D01*
X0023803Y0056946D01*
X0023757Y0056848D01*
X0023707Y0056752D01*
X0023654Y0056657D01*
X0023597Y0056565D01*
X0023537Y0056474D01*
X0023473Y0056386D01*
X0023407Y0056301D01*
X0023337Y0056218D01*
X0023264Y0056137D01*
X0023188Y0056059D01*
X0023110Y0055984D01*
X0023029Y0055912D01*
X0022945Y0055843D01*
X0022859Y0055778D01*
X0022770Y0055715D01*
X0022679Y0055656D01*
X0022587Y0055600D01*
X0022492Y0055547D01*
X0022395Y0055498D01*
X0022296Y0055453D01*
X0022196Y0055411D01*
X0022094Y0055373D01*
X0021992Y0055339D01*
X0021887Y0055308D01*
X0021782Y0055282D01*
X0021676Y0055259D01*
X0021569Y0055240D01*
X0021462Y0055225D01*
X0021354Y0055214D01*
X0021246Y0055207D01*
X0021137Y0055204D01*
X0021029Y0055205D01*
X0020920Y0055210D01*
X0020812Y0055219D01*
X0020704Y0055232D01*
X0020597Y0055249D01*
X0020491Y0055270D01*
X0020385Y0055294D01*
X0020280Y0055323D01*
X0020177Y0055355D01*
X0020075Y0055391D01*
X0019974Y0055431D01*
X0019874Y0055475D01*
X0019777Y0055522D01*
X0019681Y0055573D01*
X0019587Y0055627D01*
X0019495Y0055685D01*
X0019405Y0055746D01*
X0019318Y0055810D01*
X0019233Y0055878D01*
X0019150Y0055948D01*
X0019070Y0056022D01*
X0018993Y0056098D01*
X0018919Y0056177D01*
X0018848Y0056259D01*
X0018780Y0056343D01*
X0018715Y0056430D01*
X0018653Y0056519D01*
X0018594Y0056611D01*
X0018539Y0056704D01*
X0018488Y0056799D01*
X0018439Y0056897D01*
X0018395Y0056996D01*
X0018354Y0057096D01*
X0018317Y0057198D01*
X0018284Y0057301D01*
X0018254Y0057406D01*
X0018228Y0057511D01*
X0018207Y0057618D01*
X0018189Y0057725D01*
X0018175Y0057832D01*
X0018165Y0057940D01*
X0018159Y0058049D01*
X0018157Y0058157D01*
D11*
X0078297Y0084048D02*
X0078297Y0085718D01*
X0078854Y0086275D01*
X0079410Y0086275D01*
X0079967Y0085718D01*
X0079967Y0084048D01*
X0081637Y0084048D02*
X0078297Y0084048D01*
X0079967Y0085718D02*
X0080524Y0086275D01*
X0081080Y0086275D01*
X0081637Y0085718D01*
X0081637Y0084048D01*
D12*
X0049714Y0084116D02*
X0047946Y0084116D01*
X0049714Y0085884D01*
X0049714Y0086326D01*
X0049272Y0086768D01*
X0048388Y0086768D01*
X0047946Y0086326D01*
X0046814Y0086326D02*
X0046372Y0086768D01*
X0045488Y0086768D01*
X0045046Y0086326D01*
X0045046Y0084558D01*
X0045488Y0084116D01*
X0046372Y0084116D01*
X0046814Y0084558D01*
X0043996Y0084116D02*
X0043112Y0084116D01*
X0043554Y0084116D02*
X0043554Y0086768D01*
X0043112Y0086768D02*
X0043996Y0086768D01*
X0026960Y0084239D02*
X0026960Y0083797D01*
X0026518Y0083355D01*
X0025192Y0083355D01*
X0024060Y0082913D02*
X0024060Y0082472D01*
X0023618Y0082030D01*
X0022734Y0082030D01*
X0022292Y0082472D01*
X0022734Y0083355D02*
X0023618Y0083355D01*
X0024060Y0082913D01*
X0022734Y0083355D02*
X0022292Y0083797D01*
X0022292Y0084239D01*
X0022734Y0084681D01*
X0023618Y0084681D01*
X0024060Y0084239D01*
X0025192Y0084681D02*
X0026518Y0084681D01*
X0026960Y0084239D01*
X0026518Y0083355D02*
X0026960Y0082913D01*
X0026960Y0082472D01*
X0026518Y0082030D01*
X0025192Y0082030D01*
X0025192Y0084681D01*
X0021160Y0084681D02*
X0021160Y0082472D01*
X0020718Y0082030D01*
X0019834Y0082030D01*
X0019392Y0082472D01*
X0019392Y0084681D01*
X0043112Y0057319D02*
X0043996Y0057319D01*
X0043554Y0057319D02*
X0043554Y0054667D01*
X0043112Y0054667D02*
X0043996Y0054667D01*
X0045046Y0055109D02*
X0045488Y0054667D01*
X0046372Y0054667D01*
X0046814Y0055109D01*
X0047946Y0055109D02*
X0048388Y0054667D01*
X0049272Y0054667D01*
X0049714Y0055109D01*
X0049714Y0055551D01*
X0049272Y0055993D01*
X0048830Y0055993D01*
X0049272Y0055993D02*
X0049714Y0056435D01*
X0049714Y0056877D01*
X0049272Y0057319D01*
X0048388Y0057319D01*
X0047946Y0056877D01*
X0046814Y0056877D02*
X0046372Y0057319D01*
X0045488Y0057319D01*
X0045046Y0056877D01*
X0045046Y0055109D01*
X0081200Y0054470D02*
X0081200Y0055796D01*
X0081642Y0056238D01*
X0082526Y0056238D01*
X0082968Y0055796D01*
X0082968Y0054470D01*
X0083852Y0054470D02*
X0081200Y0054470D01*
X0082968Y0055354D02*
X0083852Y0056238D01*
X0082526Y0057371D02*
X0082526Y0059138D01*
X0081200Y0058697D02*
X0082526Y0057371D01*
X0083852Y0058697D02*
X0081200Y0058697D01*
X0096662Y0056335D02*
X0096662Y0053683D01*
X0096662Y0054567D02*
X0097988Y0054567D01*
X0098430Y0055009D01*
X0098430Y0055893D01*
X0097988Y0056335D01*
X0096662Y0056335D01*
X0099562Y0055451D02*
X0100446Y0056335D01*
X0100446Y0053683D01*
X0099562Y0053683D02*
X0101330Y0053683D01*
X0098430Y0053683D02*
X0097546Y0054567D01*
X0114667Y0054563D02*
X0114667Y0052795D01*
X0115551Y0051911D01*
X0116435Y0052795D01*
X0116435Y0054563D01*
X0117567Y0054563D02*
X0119335Y0054563D01*
X0118451Y0054563D02*
X0118451Y0051911D01*
X0120468Y0051911D02*
X0122235Y0053679D01*
X0122235Y0054121D01*
X0121793Y0054563D01*
X0120910Y0054563D01*
X0120468Y0054121D01*
X0125297Y0054760D02*
X0125297Y0052992D01*
X0126181Y0052108D01*
X0127065Y0052992D01*
X0127065Y0054760D01*
X0128197Y0054760D02*
X0129965Y0054760D01*
X0129081Y0054760D02*
X0129081Y0052108D01*
X0131097Y0052108D02*
X0132865Y0052108D01*
X0131981Y0052108D02*
X0131981Y0054760D01*
X0131097Y0053876D01*
X0135730Y0054121D02*
X0135730Y0052353D01*
X0136172Y0051911D01*
X0137056Y0051911D01*
X0137498Y0052353D01*
X0138630Y0051911D02*
X0140398Y0051911D01*
X0139514Y0051911D02*
X0139514Y0054563D01*
X0138630Y0053679D01*
X0137498Y0054121D02*
X0137056Y0054563D01*
X0136172Y0054563D01*
X0135730Y0054121D01*
X0141531Y0054121D02*
X0141531Y0053679D01*
X0141973Y0053237D01*
X0143298Y0053237D01*
X0143298Y0052353D02*
X0143298Y0054121D01*
X0142856Y0054563D01*
X0141973Y0054563D01*
X0141531Y0054121D01*
X0141531Y0052353D02*
X0141973Y0051911D01*
X0142856Y0051911D01*
X0143298Y0052353D01*
X0132472Y0049397D02*
X0132472Y0047629D01*
X0132030Y0047187D01*
X0131146Y0047187D01*
X0130704Y0047629D01*
X0132472Y0049397D01*
X0132030Y0049839D01*
X0131146Y0049839D01*
X0130704Y0049397D01*
X0130704Y0047629D01*
X0129572Y0047187D02*
X0127804Y0047187D01*
X0128688Y0047187D02*
X0128688Y0049839D01*
X0127804Y0048955D01*
X0126671Y0049397D02*
X0126229Y0049839D01*
X0125346Y0049839D01*
X0124904Y0049397D01*
X0124904Y0047629D01*
X0125346Y0047187D01*
X0126229Y0047187D01*
X0126671Y0047629D01*
X0122235Y0051911D02*
X0120468Y0051911D01*
X0138683Y0043098D02*
X0138683Y0041330D01*
X0139125Y0040888D01*
X0140009Y0040888D01*
X0140451Y0041330D01*
X0141583Y0040888D02*
X0143351Y0042656D01*
X0143351Y0043098D01*
X0142909Y0043540D01*
X0142025Y0043540D01*
X0141583Y0043098D01*
X0140451Y0043098D02*
X0140009Y0043540D01*
X0139125Y0043540D01*
X0138683Y0043098D01*
X0141583Y0040888D02*
X0143351Y0040888D01*
X0144483Y0040888D02*
X0146251Y0040888D01*
X0145367Y0040888D02*
X0145367Y0043540D01*
X0144483Y0042656D01*
X0140989Y0039209D02*
X0140105Y0038767D01*
X0139221Y0037883D01*
X0140547Y0037883D01*
X0140989Y0037441D01*
X0140989Y0036999D01*
X0140547Y0036557D01*
X0139663Y0036557D01*
X0139221Y0036999D01*
X0139221Y0037883D01*
X0138089Y0036999D02*
X0137647Y0036557D01*
X0136763Y0036557D01*
X0136321Y0036999D01*
X0136321Y0038767D01*
X0136763Y0039209D01*
X0137647Y0039209D01*
X0138089Y0038767D01*
X0138928Y0032910D02*
X0139812Y0032910D01*
X0140254Y0032468D01*
X0140254Y0030700D01*
X0139812Y0030258D01*
X0138928Y0030258D01*
X0138486Y0030700D01*
X0138486Y0032468D01*
X0138928Y0032910D01*
X0141386Y0032026D02*
X0142270Y0032910D01*
X0142270Y0030258D01*
X0141386Y0030258D02*
X0143154Y0030258D01*
X0140254Y0030258D02*
X0139370Y0031142D01*
X0140661Y0027988D02*
X0140219Y0027547D01*
X0140219Y0025779D01*
X0140661Y0025337D01*
X0141545Y0025337D01*
X0141987Y0025779D01*
X0143119Y0025337D02*
X0144887Y0027105D01*
X0144887Y0027547D01*
X0144445Y0027988D01*
X0143561Y0027988D01*
X0143119Y0027547D01*
X0141987Y0027547D02*
X0141545Y0027988D01*
X0140661Y0027988D01*
X0146019Y0027547D02*
X0146461Y0027988D01*
X0147345Y0027988D01*
X0147787Y0027547D01*
X0147787Y0027105D01*
X0146019Y0025337D01*
X0147787Y0025337D01*
X0144887Y0025337D02*
X0143119Y0025337D01*
X0142909Y0016571D02*
X0142025Y0016571D01*
X0141583Y0016129D01*
X0140451Y0016129D02*
X0140009Y0016571D01*
X0139125Y0016571D01*
X0138683Y0016129D01*
X0138683Y0014361D01*
X0139125Y0013919D01*
X0140009Y0013919D01*
X0140451Y0014361D01*
X0141583Y0014361D02*
X0142025Y0013919D01*
X0142909Y0013919D01*
X0143351Y0014361D01*
X0143351Y0014803D01*
X0142909Y0015245D01*
X0142467Y0015245D01*
X0142909Y0015245D02*
X0143351Y0015687D01*
X0143351Y0016129D01*
X0142909Y0016571D01*
X0164035Y0016628D02*
X0166687Y0016628D01*
X0166687Y0016186D02*
X0166687Y0017070D01*
X0166245Y0018119D02*
X0164477Y0018119D01*
X0164035Y0018561D01*
X0164035Y0019445D01*
X0164477Y0019887D01*
X0164477Y0021019D02*
X0164919Y0021019D01*
X0165361Y0021461D01*
X0165361Y0022345D01*
X0165803Y0022787D01*
X0166245Y0022787D01*
X0166687Y0022345D01*
X0166687Y0021461D01*
X0166245Y0021019D01*
X0165803Y0021019D01*
X0165361Y0021461D01*
X0165361Y0022345D02*
X0164919Y0022787D01*
X0164477Y0022787D01*
X0164035Y0022345D01*
X0164035Y0021461D01*
X0164477Y0021019D01*
X0166245Y0019887D02*
X0166687Y0019445D01*
X0166687Y0018561D01*
X0166245Y0018119D01*
X0164035Y0017070D02*
X0164035Y0016186D01*
X0165309Y0027603D02*
X0165309Y0028487D01*
X0165309Y0028045D02*
X0162657Y0028045D01*
X0162657Y0027603D02*
X0162657Y0028487D01*
X0163099Y0029536D02*
X0164867Y0029536D01*
X0165309Y0029978D01*
X0165309Y0030862D01*
X0164867Y0031304D01*
X0164867Y0032436D02*
X0163983Y0032436D01*
X0163983Y0033762D01*
X0164425Y0034204D01*
X0164867Y0034204D01*
X0165309Y0033762D01*
X0165309Y0032878D01*
X0164867Y0032436D01*
X0163983Y0032436D02*
X0163099Y0033320D01*
X0162657Y0034204D01*
X0163099Y0031304D02*
X0162657Y0030862D01*
X0162657Y0029978D01*
X0163099Y0029536D01*
X0170770Y0040691D02*
X0170770Y0043343D01*
X0172096Y0043343D01*
X0172538Y0042901D01*
X0172538Y0042017D01*
X0172096Y0041575D01*
X0170770Y0041575D01*
X0171654Y0041575D02*
X0172538Y0040691D01*
X0173670Y0040691D02*
X0175438Y0040691D01*
X0174554Y0040691D02*
X0174554Y0043343D01*
X0173670Y0042459D01*
X0176570Y0042017D02*
X0177454Y0042459D01*
X0177896Y0042459D01*
X0178338Y0042017D01*
X0178338Y0041133D01*
X0177896Y0040691D01*
X0177012Y0040691D01*
X0176570Y0041133D01*
X0176570Y0042017D02*
X0176570Y0043343D01*
X0178338Y0043343D01*
X0188447Y0042756D02*
X0189773Y0042756D01*
X0190215Y0043198D01*
X0190215Y0044082D01*
X0189773Y0044524D01*
X0188447Y0044524D01*
X0188447Y0041872D01*
X0189331Y0042756D02*
X0190215Y0041872D01*
X0191347Y0041872D02*
X0193115Y0044524D01*
X0194248Y0044524D02*
X0195573Y0044524D01*
X0196015Y0044082D01*
X0196015Y0042314D01*
X0195573Y0041872D01*
X0194248Y0041872D01*
X0194248Y0044524D01*
X0193115Y0041872D02*
X0191347Y0044524D01*
X0191347Y0051911D02*
X0193115Y0054563D01*
X0194248Y0054563D02*
X0195573Y0054563D01*
X0196015Y0054121D01*
X0196015Y0052353D01*
X0195573Y0051911D01*
X0194248Y0051911D01*
X0194248Y0054563D01*
X0193115Y0051911D02*
X0191347Y0054563D01*
X0190215Y0054563D02*
X0188447Y0054563D01*
X0189331Y0054563D02*
X0189331Y0051911D01*
X0177108Y0060967D02*
X0177108Y0063618D01*
X0175783Y0062292D01*
X0177550Y0062292D01*
X0174650Y0060967D02*
X0172882Y0060967D01*
X0173766Y0060967D02*
X0173766Y0063618D01*
X0172882Y0062734D01*
X0171750Y0062292D02*
X0171308Y0061850D01*
X0169982Y0061850D01*
X0169982Y0060967D02*
X0169982Y0063618D01*
X0171308Y0063618D01*
X0171750Y0063176D01*
X0171750Y0062292D01*
X0170866Y0061850D02*
X0171750Y0060967D01*
X0166923Y0063684D02*
X0164271Y0063684D01*
X0164271Y0065009D01*
X0164713Y0065451D01*
X0165597Y0065451D01*
X0166039Y0065009D01*
X0166039Y0063684D01*
X0166039Y0064567D02*
X0166923Y0065451D01*
X0166923Y0066584D02*
X0166923Y0068352D01*
X0166923Y0067468D02*
X0164271Y0067468D01*
X0165155Y0066584D01*
X0164713Y0069484D02*
X0164271Y0069926D01*
X0164271Y0070810D01*
X0164713Y0071252D01*
X0166481Y0069484D01*
X0166923Y0069926D01*
X0166923Y0070810D01*
X0166481Y0071252D01*
X0164713Y0071252D01*
X0164713Y0069484D02*
X0166481Y0069484D01*
X0155900Y0069830D02*
X0153248Y0069830D01*
X0154132Y0068946D01*
X0153690Y0067814D02*
X0154574Y0067814D01*
X0155016Y0067372D01*
X0155016Y0066046D01*
X0155900Y0066046D02*
X0153248Y0066046D01*
X0153248Y0067372D01*
X0153690Y0067814D01*
X0155016Y0066930D02*
X0155900Y0067814D01*
X0155900Y0068946D02*
X0155900Y0070714D01*
X0155900Y0071846D02*
X0154132Y0073614D01*
X0153690Y0073614D01*
X0153248Y0073172D01*
X0153248Y0072288D01*
X0153690Y0071846D01*
X0155900Y0071846D02*
X0155900Y0073614D01*
X0141884Y0077800D02*
X0141884Y0078684D01*
X0141884Y0078242D02*
X0139232Y0078242D01*
X0139232Y0077800D02*
X0139232Y0078684D01*
X0139674Y0079733D02*
X0141442Y0079733D01*
X0141884Y0080175D01*
X0141884Y0081059D01*
X0141442Y0081501D01*
X0141884Y0082633D02*
X0141884Y0084401D01*
X0141884Y0083517D02*
X0139232Y0083517D01*
X0140116Y0082633D01*
X0139674Y0081501D02*
X0139232Y0081059D01*
X0139232Y0080175D01*
X0139674Y0079733D01*
X0162657Y0061960D02*
X0162657Y0060192D01*
X0163983Y0060192D01*
X0163541Y0061076D01*
X0163541Y0061518D01*
X0163983Y0061960D01*
X0164867Y0061960D01*
X0165309Y0061518D01*
X0165309Y0060634D01*
X0164867Y0060192D01*
X0164867Y0059060D02*
X0165309Y0058618D01*
X0165309Y0057734D01*
X0164867Y0057292D01*
X0163099Y0057292D01*
X0162657Y0057734D01*
X0162657Y0058618D01*
X0163099Y0059060D01*
X0162657Y0056243D02*
X0162657Y0055359D01*
X0162657Y0055801D02*
X0165309Y0055801D01*
X0165309Y0055359D02*
X0165309Y0056243D01*
X0163099Y0048574D02*
X0164867Y0046807D01*
X0165309Y0046807D01*
X0164867Y0045674D02*
X0165309Y0045232D01*
X0165309Y0044348D01*
X0164867Y0043906D01*
X0163099Y0043906D01*
X0162657Y0044348D01*
X0162657Y0045232D01*
X0163099Y0045674D01*
X0162657Y0046807D02*
X0162657Y0048574D01*
X0163099Y0048574D01*
X0162657Y0042857D02*
X0162657Y0041973D01*
X0162657Y0042415D02*
X0165309Y0042415D01*
X0165309Y0041973D02*
X0165309Y0042857D01*
X0188447Y0034239D02*
X0188447Y0032472D01*
X0188889Y0032030D01*
X0189773Y0032030D01*
X0190215Y0032472D01*
X0190215Y0033355D01*
X0189331Y0033355D01*
X0188447Y0034239D02*
X0188889Y0034681D01*
X0189773Y0034681D01*
X0190215Y0034239D01*
X0191347Y0034681D02*
X0193115Y0032030D01*
X0193115Y0034681D01*
X0194248Y0034681D02*
X0195573Y0034681D01*
X0196015Y0034239D01*
X0196015Y0032472D01*
X0195573Y0032030D01*
X0194248Y0032030D01*
X0194248Y0034681D01*
X0191347Y0034681D02*
X0191347Y0032030D01*
X0191347Y0061951D02*
X0191347Y0064603D01*
X0193115Y0061951D01*
X0193115Y0064603D01*
X0194248Y0064603D02*
X0195573Y0064603D01*
X0196015Y0064161D01*
X0196015Y0062393D01*
X0195573Y0061951D01*
X0194248Y0061951D01*
X0194248Y0064603D01*
X0190215Y0064161D02*
X0189773Y0064603D01*
X0188889Y0064603D01*
X0188447Y0064161D01*
X0188447Y0062393D01*
X0188889Y0061951D01*
X0189773Y0061951D01*
X0190215Y0062393D01*
X0190215Y0063277D01*
X0189331Y0063277D01*
X0188447Y0071990D02*
X0188447Y0074642D01*
X0189773Y0074642D01*
X0190215Y0074200D01*
X0190215Y0073316D01*
X0189773Y0072874D01*
X0188447Y0072874D01*
X0191347Y0071990D02*
X0192231Y0072874D01*
X0193115Y0071990D01*
X0193115Y0074642D01*
X0194248Y0074642D02*
X0195573Y0074642D01*
X0196015Y0074200D01*
X0196015Y0073316D01*
X0195573Y0072874D01*
X0194248Y0072874D01*
X0195131Y0072874D02*
X0196015Y0071990D01*
X0194248Y0071990D02*
X0194248Y0074642D01*
X0191347Y0074642D02*
X0191347Y0071990D01*
X0087789Y0031046D02*
X0085138Y0031046D01*
X0086463Y0029720D01*
X0086463Y0031488D01*
X0085579Y0028588D02*
X0085138Y0028146D01*
X0085138Y0027262D01*
X0085579Y0026820D01*
X0087347Y0026820D01*
X0087789Y0027262D01*
X0087789Y0028146D01*
X0087347Y0028588D01*
X0087789Y0025770D02*
X0087789Y0024886D01*
X0087789Y0025328D02*
X0085138Y0025328D01*
X0085138Y0024886D02*
X0085138Y0025770D01*
X0032131Y0019279D02*
X0032131Y0018837D01*
X0031689Y0018395D01*
X0030805Y0018395D01*
X0030363Y0018837D01*
X0030363Y0019279D01*
X0030805Y0019721D01*
X0031689Y0019721D01*
X0032131Y0019279D01*
X0031689Y0018395D02*
X0032131Y0017953D01*
X0032131Y0017511D01*
X0031689Y0017069D01*
X0030805Y0017069D01*
X0030363Y0017511D01*
X0030363Y0017953D01*
X0030805Y0018395D01*
X0029231Y0019279D02*
X0028789Y0019721D01*
X0027905Y0019721D01*
X0027463Y0019279D01*
X0027463Y0017511D01*
X0027905Y0017069D01*
X0028789Y0017069D01*
X0029231Y0017511D01*
D13*
X0029024Y0016268D02*
X0029024Y0011465D01*
X0018315Y0011465D01*
X0018315Y0016268D01*
X0029024Y0016268D01*
X0033669Y0011543D02*
X0080598Y0011543D01*
X0080598Y0053984D01*
X0033669Y0053984D01*
X0035677Y0053984D01*
X0033669Y0051976D01*
X0033669Y0053984D01*
X0033669Y0011543D01*
X0033039Y0023551D02*
X0028591Y0023551D01*
X0033039Y0023551D02*
X0033039Y0075047D01*
X0028591Y0075047D01*
X0013630Y0075047D02*
X0008118Y0075047D01*
X0008118Y0023551D01*
X0013630Y0023551D01*
X0033669Y0052357D02*
X0034050Y0052357D01*
X0033669Y0052828D02*
X0034521Y0052828D01*
X0034992Y0053299D02*
X0033669Y0053299D01*
X0033669Y0053770D02*
X0035463Y0053770D01*
X0035087Y0060126D02*
X0035087Y0083276D01*
X0080362Y0083276D01*
X0080362Y0060126D01*
X0035087Y0060126D01*
X0081110Y0059890D02*
X0081110Y0064693D01*
X0091819Y0064693D01*
X0091819Y0059890D01*
X0081110Y0059890D01*
X0092232Y0057331D02*
X0092232Y0071189D01*
X0107075Y0071189D01*
X0107075Y0057331D01*
X0092232Y0057331D01*
X0088787Y0050913D02*
X0121543Y0050913D01*
X0121543Y0018157D01*
X0118748Y0018157D01*
X0121543Y0020953D01*
X0121543Y0018157D01*
X0088787Y0018157D01*
X0088787Y0050913D01*
X0091622Y0048079D02*
X0092764Y0048079D01*
X0091622Y0048079D02*
X0091622Y0046937D01*
X0107094Y0055362D02*
X0123315Y0055362D01*
X0123315Y0068827D01*
X0107094Y0068827D01*
X0107094Y0055362D01*
X0112685Y0056425D02*
X0115756Y0056425D01*
X0112685Y0056425D02*
X0112685Y0059102D01*
X0123236Y0055362D02*
X0139457Y0055362D01*
X0139457Y0068827D01*
X0123236Y0068827D01*
X0123236Y0055362D01*
X0130795Y0056425D02*
X0133866Y0056425D01*
X0133866Y0059102D01*
X0133866Y0065087D02*
X0133866Y0067764D01*
X0130795Y0067764D01*
X0131504Y0068748D02*
X0131504Y0073551D01*
X0142213Y0073551D01*
X0142213Y0068748D01*
X0131504Y0068748D01*
X0125480Y0071701D02*
X0120283Y0071701D01*
X0120283Y0077921D01*
X0125480Y0077921D01*
X0125480Y0071701D01*
X0125992Y0073669D02*
X0125992Y0086740D01*
X0131976Y0086740D01*
X0131976Y0073669D01*
X0125992Y0073669D01*
X0125480Y0077921D02*
X0125480Y0082803D01*
X0120283Y0082803D01*
X0120283Y0077921D01*
X0116425Y0077921D02*
X0111228Y0077921D01*
X0111228Y0082803D01*
X0116425Y0082803D01*
X0116425Y0077921D01*
X0116425Y0071701D01*
X0111228Y0071701D01*
X0111228Y0077921D01*
X0107370Y0077921D02*
X0102173Y0077921D01*
X0102173Y0082803D01*
X0107370Y0082803D01*
X0107370Y0077921D01*
X0107370Y0071701D01*
X0102173Y0071701D01*
X0102173Y0077921D01*
X0098315Y0077921D02*
X0093118Y0077921D01*
X0093118Y0082803D01*
X0098315Y0082803D01*
X0098315Y0077921D01*
X0098315Y0071701D01*
X0093118Y0071701D01*
X0093118Y0077921D01*
X0091543Y0082528D02*
X0091543Y0071189D01*
X0082173Y0071189D02*
X0082173Y0082528D01*
X0112685Y0067764D02*
X0115756Y0067764D01*
X0112685Y0067764D02*
X0112685Y0065087D01*
X0132685Y0073177D02*
X0132685Y0087232D01*
X0132685Y0085224D01*
X0134693Y0087232D01*
X0132685Y0087232D01*
X0148512Y0087232D01*
X0148512Y0073177D01*
X0132685Y0073177D01*
X0142331Y0071976D02*
X0142331Y0067173D01*
X0153039Y0067173D01*
X0153039Y0071976D01*
X0142331Y0071976D01*
X0148630Y0074260D02*
X0154614Y0074260D01*
X0154614Y0087331D01*
X0148630Y0087331D01*
X0148630Y0074260D01*
X0156898Y0077803D02*
X0156898Y0082606D01*
X0167606Y0082606D01*
X0167606Y0077803D01*
X0156898Y0077803D01*
X0158079Y0077685D02*
X0162882Y0077685D01*
X0162882Y0066976D01*
X0158079Y0066976D01*
X0158079Y0077685D01*
X0167528Y0081425D02*
X0167528Y0065205D01*
X0180992Y0065205D01*
X0180992Y0081425D01*
X0167528Y0081425D01*
X0167606Y0082528D02*
X0156898Y0082528D01*
X0156898Y0087331D01*
X0167606Y0087331D01*
X0167606Y0082528D01*
X0168709Y0081543D02*
X0168709Y0086346D01*
X0179417Y0086346D01*
X0179417Y0081543D01*
X0168709Y0081543D01*
X0168591Y0073866D02*
X0168591Y0070795D01*
X0171268Y0070795D01*
X0177252Y0070795D02*
X0179929Y0070795D01*
X0179929Y0073866D01*
X0157331Y0065402D02*
X0155687Y0065402D01*
X0157331Y0065402D02*
X0157331Y0057606D01*
X0150244Y0057606D01*
X0150244Y0065402D01*
X0151888Y0065402D01*
X0151887Y0065402D02*
X0151889Y0065316D01*
X0151895Y0065229D01*
X0151905Y0065143D01*
X0151918Y0065058D01*
X0151936Y0064973D01*
X0151957Y0064889D01*
X0151983Y0064807D01*
X0152012Y0064725D01*
X0152044Y0064645D01*
X0152081Y0064567D01*
X0152120Y0064490D01*
X0152164Y0064415D01*
X0152210Y0064342D01*
X0152260Y0064271D01*
X0152313Y0064203D01*
X0152369Y0064137D01*
X0152428Y0064074D01*
X0152490Y0064013D01*
X0152555Y0063956D01*
X0152622Y0063901D01*
X0152691Y0063850D01*
X0152763Y0063801D01*
X0152837Y0063757D01*
X0152913Y0063715D01*
X0152991Y0063677D01*
X0153070Y0063643D01*
X0153151Y0063612D01*
X0153233Y0063585D01*
X0153316Y0063561D01*
X0153400Y0063542D01*
X0153486Y0063526D01*
X0153571Y0063514D01*
X0153657Y0063506D01*
X0153744Y0063502D01*
X0153830Y0063502D01*
X0153917Y0063506D01*
X0154003Y0063514D01*
X0154088Y0063526D01*
X0154174Y0063542D01*
X0154258Y0063561D01*
X0154341Y0063585D01*
X0154423Y0063612D01*
X0154504Y0063643D01*
X0154583Y0063677D01*
X0154661Y0063715D01*
X0154737Y0063757D01*
X0154811Y0063801D01*
X0154883Y0063850D01*
X0154952Y0063901D01*
X0155019Y0063956D01*
X0155084Y0064013D01*
X0155146Y0064074D01*
X0155205Y0064137D01*
X0155261Y0064203D01*
X0155314Y0064271D01*
X0155364Y0064342D01*
X0155410Y0064415D01*
X0155454Y0064490D01*
X0155493Y0064567D01*
X0155530Y0064645D01*
X0155562Y0064725D01*
X0155591Y0064807D01*
X0155617Y0064889D01*
X0155638Y0064973D01*
X0155656Y0065058D01*
X0155669Y0065143D01*
X0155679Y0065229D01*
X0155685Y0065316D01*
X0155687Y0065402D01*
X0166740Y0060067D02*
X0180598Y0060067D01*
X0180598Y0045224D01*
X0166740Y0045224D01*
X0166740Y0060067D01*
X0159535Y0056622D02*
X0159535Y0051819D01*
X0148827Y0051819D01*
X0148827Y0056622D01*
X0159535Y0056622D01*
X0148079Y0052252D02*
X0146307Y0052252D01*
X0145126Y0051071D01*
X0135874Y0051071D01*
X0135520Y0046189D02*
X0124811Y0046189D01*
X0124811Y0041386D01*
X0135520Y0041386D01*
X0135520Y0046189D01*
X0135520Y0041071D02*
X0124811Y0041071D01*
X0124811Y0036268D01*
X0135520Y0036268D01*
X0135520Y0041071D01*
X0138630Y0040047D02*
X0144339Y0040047D01*
X0146504Y0037882D01*
X0147685Y0037882D01*
X0148433Y0037252D02*
X0148433Y0042055D01*
X0159142Y0042055D01*
X0159142Y0037252D01*
X0148433Y0037252D01*
X0150244Y0036268D02*
X0151888Y0036268D01*
X0150244Y0036268D02*
X0150244Y0028472D01*
X0157331Y0028472D01*
X0157331Y0036268D01*
X0155687Y0036268D01*
X0155685Y0036182D01*
X0155679Y0036095D01*
X0155669Y0036009D01*
X0155656Y0035924D01*
X0155638Y0035839D01*
X0155617Y0035755D01*
X0155591Y0035673D01*
X0155562Y0035591D01*
X0155530Y0035511D01*
X0155493Y0035433D01*
X0155454Y0035356D01*
X0155410Y0035281D01*
X0155364Y0035208D01*
X0155314Y0035137D01*
X0155261Y0035069D01*
X0155205Y0035003D01*
X0155146Y0034940D01*
X0155084Y0034879D01*
X0155019Y0034822D01*
X0154952Y0034767D01*
X0154883Y0034716D01*
X0154811Y0034667D01*
X0154737Y0034623D01*
X0154661Y0034581D01*
X0154583Y0034543D01*
X0154504Y0034509D01*
X0154423Y0034478D01*
X0154341Y0034451D01*
X0154258Y0034427D01*
X0154174Y0034408D01*
X0154088Y0034392D01*
X0154003Y0034380D01*
X0153917Y0034372D01*
X0153830Y0034368D01*
X0153744Y0034368D01*
X0153657Y0034372D01*
X0153571Y0034380D01*
X0153486Y0034392D01*
X0153400Y0034408D01*
X0153316Y0034427D01*
X0153233Y0034451D01*
X0153151Y0034478D01*
X0153070Y0034509D01*
X0152991Y0034543D01*
X0152913Y0034581D01*
X0152837Y0034623D01*
X0152763Y0034667D01*
X0152691Y0034716D01*
X0152622Y0034767D01*
X0152555Y0034822D01*
X0152490Y0034879D01*
X0152428Y0034940D01*
X0152369Y0035003D01*
X0152313Y0035069D01*
X0152260Y0035137D01*
X0152210Y0035208D01*
X0152164Y0035281D01*
X0152120Y0035356D01*
X0152081Y0035433D01*
X0152044Y0035511D01*
X0152012Y0035591D01*
X0151983Y0035673D01*
X0151957Y0035755D01*
X0151936Y0035839D01*
X0151918Y0035924D01*
X0151905Y0036009D01*
X0151895Y0036095D01*
X0151889Y0036182D01*
X0151887Y0036268D01*
X0150244Y0043039D02*
X0157331Y0043039D01*
X0157331Y0050835D01*
X0155687Y0050835D01*
X0155685Y0050749D01*
X0155679Y0050662D01*
X0155669Y0050576D01*
X0155656Y0050491D01*
X0155638Y0050406D01*
X0155617Y0050322D01*
X0155591Y0050240D01*
X0155562Y0050158D01*
X0155530Y0050078D01*
X0155493Y0050000D01*
X0155454Y0049923D01*
X0155410Y0049848D01*
X0155364Y0049775D01*
X0155314Y0049704D01*
X0155261Y0049636D01*
X0155205Y0049570D01*
X0155146Y0049507D01*
X0155084Y0049446D01*
X0155019Y0049389D01*
X0154952Y0049334D01*
X0154883Y0049283D01*
X0154811Y0049234D01*
X0154737Y0049190D01*
X0154661Y0049148D01*
X0154583Y0049110D01*
X0154504Y0049076D01*
X0154423Y0049045D01*
X0154341Y0049018D01*
X0154258Y0048994D01*
X0154174Y0048975D01*
X0154088Y0048959D01*
X0154003Y0048947D01*
X0153917Y0048939D01*
X0153830Y0048935D01*
X0153744Y0048935D01*
X0153657Y0048939D01*
X0153571Y0048947D01*
X0153486Y0048959D01*
X0153400Y0048975D01*
X0153316Y0048994D01*
X0153233Y0049018D01*
X0153151Y0049045D01*
X0153070Y0049076D01*
X0152991Y0049110D01*
X0152913Y0049148D01*
X0152837Y0049190D01*
X0152763Y0049234D01*
X0152691Y0049283D01*
X0152622Y0049334D01*
X0152555Y0049389D01*
X0152490Y0049446D01*
X0152428Y0049507D01*
X0152369Y0049570D01*
X0152313Y0049636D01*
X0152260Y0049704D01*
X0152210Y0049775D01*
X0152164Y0049848D01*
X0152120Y0049923D01*
X0152081Y0050000D01*
X0152044Y0050078D01*
X0152012Y0050158D01*
X0151983Y0050240D01*
X0151957Y0050322D01*
X0151936Y0050406D01*
X0151918Y0050491D01*
X0151905Y0050576D01*
X0151895Y0050662D01*
X0151889Y0050749D01*
X0151887Y0050835D01*
X0151888Y0050835D02*
X0150244Y0050835D01*
X0150244Y0043039D01*
X0137685Y0035362D02*
X0123827Y0035362D01*
X0123827Y0019142D01*
X0137685Y0019142D01*
X0137685Y0035362D01*
X0148433Y0027488D02*
X0148433Y0022685D01*
X0159142Y0022685D01*
X0159142Y0027488D01*
X0148433Y0027488D01*
X0150244Y0021898D02*
X0151888Y0021898D01*
X0150244Y0021898D02*
X0150244Y0014102D01*
X0157331Y0014102D01*
X0157331Y0021898D01*
X0155687Y0021898D01*
X0155685Y0021812D01*
X0155679Y0021725D01*
X0155669Y0021639D01*
X0155656Y0021554D01*
X0155638Y0021469D01*
X0155617Y0021385D01*
X0155591Y0021303D01*
X0155562Y0021221D01*
X0155530Y0021141D01*
X0155493Y0021063D01*
X0155454Y0020986D01*
X0155410Y0020911D01*
X0155364Y0020838D01*
X0155314Y0020767D01*
X0155261Y0020699D01*
X0155205Y0020633D01*
X0155146Y0020570D01*
X0155084Y0020509D01*
X0155019Y0020452D01*
X0154952Y0020397D01*
X0154883Y0020346D01*
X0154811Y0020297D01*
X0154737Y0020253D01*
X0154661Y0020211D01*
X0154583Y0020173D01*
X0154504Y0020139D01*
X0154423Y0020108D01*
X0154341Y0020081D01*
X0154258Y0020057D01*
X0154174Y0020038D01*
X0154088Y0020022D01*
X0154003Y0020010D01*
X0153917Y0020002D01*
X0153830Y0019998D01*
X0153744Y0019998D01*
X0153657Y0020002D01*
X0153571Y0020010D01*
X0153486Y0020022D01*
X0153400Y0020038D01*
X0153316Y0020057D01*
X0153233Y0020081D01*
X0153151Y0020108D01*
X0153070Y0020139D01*
X0152991Y0020173D01*
X0152913Y0020211D01*
X0152837Y0020253D01*
X0152763Y0020297D01*
X0152691Y0020346D01*
X0152622Y0020397D01*
X0152555Y0020452D01*
X0152490Y0020509D01*
X0152428Y0020570D01*
X0152369Y0020633D01*
X0152313Y0020699D01*
X0152260Y0020767D01*
X0152210Y0020838D01*
X0152164Y0020911D01*
X0152120Y0020986D01*
X0152081Y0021063D01*
X0152044Y0021141D01*
X0152012Y0021221D01*
X0151983Y0021303D01*
X0151957Y0021385D01*
X0151936Y0021469D01*
X0151918Y0021554D01*
X0151905Y0021639D01*
X0151895Y0021725D01*
X0151889Y0021812D01*
X0151887Y0021898D01*
X0137685Y0018236D02*
X0137685Y0013433D01*
X0126976Y0013433D01*
X0126976Y0018236D01*
X0137685Y0018236D01*
X0125670Y0017260D02*
X0125670Y0011260D01*
X0109070Y0011260D01*
X0109070Y0017260D01*
X0125670Y0017260D01*
X0121543Y0018449D02*
X0119039Y0018449D01*
X0119510Y0018920D02*
X0121543Y0018920D01*
X0121543Y0019391D02*
X0119981Y0019391D01*
X0120452Y0019861D02*
X0121543Y0019861D01*
X0121543Y0020332D02*
X0120923Y0020332D01*
X0121394Y0020803D02*
X0121543Y0020803D01*
X0118709Y0020992D02*
X0118709Y0022134D01*
X0118709Y0020992D02*
X0117567Y0020992D01*
X0092764Y0020992D02*
X0091622Y0020992D01*
X0091622Y0022134D01*
X0118709Y0046937D02*
X0118709Y0048079D01*
X0117567Y0048079D01*
X0166740Y0039398D02*
X0166740Y0024555D01*
X0180598Y0024555D01*
X0180598Y0039398D01*
X0166740Y0039398D01*
X0132784Y0085324D02*
X0132685Y0085324D01*
X0132685Y0085795D02*
X0133255Y0085795D01*
X0133726Y0086266D02*
X0132685Y0086266D01*
X0132685Y0086737D02*
X0134197Y0086737D01*
X0134668Y0087208D02*
X0132685Y0087208D01*
D14*
X0118256Y0021445D03*
M02*
