G75*
%MOIN*%
%OFA0B0*%
%FSLAX25Y25*%
%IPPOS*%
%LPD*%
%AMOC8*
5,1,8,0,0,1.08239X$1,22.5*
%
%ADD10C,0.00000*%
%ADD11C,0.00600*%
%ADD12C,0.00500*%
%ADD13C,0.00472*%
%ADD14R,0.00984X0.00984*%
D10*
X0010283Y0010126D02*
X0096110Y0010126D01*
X0096110Y0015244D01*
X0108709Y0015244D01*
X0108709Y0010126D01*
X0194535Y0010126D01*
X0194630Y0010128D01*
X0194725Y0010134D01*
X0194820Y0010143D01*
X0194914Y0010157D01*
X0195007Y0010174D01*
X0195100Y0010195D01*
X0195192Y0010219D01*
X0195283Y0010248D01*
X0195373Y0010279D01*
X0195461Y0010315D01*
X0195548Y0010354D01*
X0195633Y0010397D01*
X0195716Y0010442D01*
X0195797Y0010492D01*
X0195877Y0010544D01*
X0195954Y0010600D01*
X0196029Y0010658D01*
X0196101Y0010720D01*
X0196171Y0010785D01*
X0196238Y0010852D01*
X0196303Y0010922D01*
X0196365Y0010994D01*
X0196423Y0011069D01*
X0196479Y0011146D01*
X0196531Y0011226D01*
X0196581Y0011307D01*
X0196626Y0011390D01*
X0196669Y0011475D01*
X0196708Y0011562D01*
X0196744Y0011650D01*
X0196775Y0011740D01*
X0196804Y0011831D01*
X0196828Y0011923D01*
X0196849Y0012016D01*
X0196866Y0012109D01*
X0196880Y0012203D01*
X0196889Y0012298D01*
X0196895Y0012393D01*
X0196897Y0012488D01*
X0196898Y0012488D02*
X0196898Y0086504D01*
X0196897Y0086504D02*
X0196895Y0086599D01*
X0196889Y0086694D01*
X0196880Y0086789D01*
X0196866Y0086883D01*
X0196849Y0086976D01*
X0196828Y0087069D01*
X0196804Y0087161D01*
X0196775Y0087252D01*
X0196744Y0087342D01*
X0196708Y0087430D01*
X0196669Y0087517D01*
X0196626Y0087602D01*
X0196581Y0087685D01*
X0196531Y0087766D01*
X0196479Y0087846D01*
X0196423Y0087923D01*
X0196365Y0087998D01*
X0196303Y0088070D01*
X0196238Y0088140D01*
X0196171Y0088207D01*
X0196101Y0088272D01*
X0196029Y0088334D01*
X0195954Y0088392D01*
X0195877Y0088448D01*
X0195797Y0088500D01*
X0195716Y0088550D01*
X0195633Y0088595D01*
X0195548Y0088638D01*
X0195461Y0088677D01*
X0195373Y0088713D01*
X0195283Y0088744D01*
X0195192Y0088773D01*
X0195100Y0088797D01*
X0195007Y0088818D01*
X0194914Y0088835D01*
X0194820Y0088849D01*
X0194725Y0088858D01*
X0194630Y0088864D01*
X0194535Y0088866D01*
X0108709Y0088866D01*
X0108709Y0083748D01*
X0096110Y0083748D01*
X0096110Y0088866D01*
X0010283Y0088866D01*
X0010188Y0088864D01*
X0010093Y0088858D01*
X0009998Y0088849D01*
X0009904Y0088835D01*
X0009811Y0088818D01*
X0009718Y0088797D01*
X0009626Y0088773D01*
X0009535Y0088744D01*
X0009445Y0088713D01*
X0009357Y0088677D01*
X0009270Y0088638D01*
X0009185Y0088595D01*
X0009102Y0088550D01*
X0009021Y0088500D01*
X0008941Y0088448D01*
X0008864Y0088392D01*
X0008789Y0088334D01*
X0008717Y0088272D01*
X0008647Y0088207D01*
X0008580Y0088140D01*
X0008515Y0088070D01*
X0008453Y0087998D01*
X0008395Y0087923D01*
X0008339Y0087846D01*
X0008287Y0087766D01*
X0008237Y0087685D01*
X0008192Y0087602D01*
X0008149Y0087517D01*
X0008110Y0087430D01*
X0008074Y0087342D01*
X0008043Y0087252D01*
X0008014Y0087161D01*
X0007990Y0087069D01*
X0007969Y0086976D01*
X0007952Y0086883D01*
X0007938Y0086789D01*
X0007929Y0086694D01*
X0007923Y0086599D01*
X0007921Y0086504D01*
X0007921Y0012488D01*
X0007923Y0012393D01*
X0007929Y0012298D01*
X0007938Y0012203D01*
X0007952Y0012109D01*
X0007969Y0012016D01*
X0007990Y0011923D01*
X0008014Y0011831D01*
X0008043Y0011740D01*
X0008074Y0011650D01*
X0008110Y0011562D01*
X0008149Y0011475D01*
X0008192Y0011390D01*
X0008237Y0011307D01*
X0008287Y0011226D01*
X0008339Y0011146D01*
X0008395Y0011069D01*
X0008453Y0010994D01*
X0008515Y0010922D01*
X0008580Y0010852D01*
X0008647Y0010785D01*
X0008717Y0010720D01*
X0008789Y0010658D01*
X0008864Y0010600D01*
X0008941Y0010544D01*
X0009021Y0010492D01*
X0009102Y0010442D01*
X0009185Y0010397D01*
X0009270Y0010354D01*
X0009357Y0010315D01*
X0009445Y0010279D01*
X0009535Y0010248D01*
X0009626Y0010219D01*
X0009718Y0010195D01*
X0009811Y0010174D01*
X0009904Y0010157D01*
X0009998Y0010143D01*
X0010093Y0010134D01*
X0010188Y0010128D01*
X0010283Y0010126D01*
X0016582Y0040441D02*
X0016584Y0040549D01*
X0016590Y0040658D01*
X0016600Y0040766D01*
X0016614Y0040873D01*
X0016632Y0040980D01*
X0016653Y0041087D01*
X0016679Y0041192D01*
X0016709Y0041297D01*
X0016742Y0041400D01*
X0016779Y0041502D01*
X0016820Y0041602D01*
X0016864Y0041701D01*
X0016913Y0041799D01*
X0016964Y0041894D01*
X0017019Y0041987D01*
X0017078Y0042079D01*
X0017140Y0042168D01*
X0017205Y0042255D01*
X0017273Y0042339D01*
X0017344Y0042421D01*
X0017418Y0042500D01*
X0017495Y0042576D01*
X0017575Y0042650D01*
X0017658Y0042720D01*
X0017743Y0042788D01*
X0017830Y0042852D01*
X0017920Y0042913D01*
X0018012Y0042971D01*
X0018106Y0043025D01*
X0018202Y0043076D01*
X0018299Y0043123D01*
X0018399Y0043167D01*
X0018500Y0043207D01*
X0018602Y0043243D01*
X0018705Y0043275D01*
X0018810Y0043304D01*
X0018916Y0043328D01*
X0019022Y0043349D01*
X0019129Y0043366D01*
X0019237Y0043379D01*
X0019345Y0043388D01*
X0019454Y0043393D01*
X0019562Y0043394D01*
X0019671Y0043391D01*
X0019779Y0043384D01*
X0019887Y0043373D01*
X0019994Y0043358D01*
X0020101Y0043339D01*
X0020207Y0043316D01*
X0020312Y0043290D01*
X0020417Y0043259D01*
X0020519Y0043225D01*
X0020621Y0043187D01*
X0020721Y0043145D01*
X0020820Y0043100D01*
X0020917Y0043051D01*
X0021011Y0042998D01*
X0021104Y0042942D01*
X0021195Y0042883D01*
X0021284Y0042820D01*
X0021370Y0042755D01*
X0021454Y0042686D01*
X0021535Y0042614D01*
X0021613Y0042539D01*
X0021689Y0042461D01*
X0021762Y0042380D01*
X0021832Y0042297D01*
X0021898Y0042212D01*
X0021962Y0042124D01*
X0022022Y0042033D01*
X0022079Y0041941D01*
X0022132Y0041846D01*
X0022182Y0041750D01*
X0022228Y0041652D01*
X0022271Y0041552D01*
X0022310Y0041451D01*
X0022345Y0041348D01*
X0022377Y0041245D01*
X0022404Y0041140D01*
X0022428Y0041034D01*
X0022448Y0040927D01*
X0022464Y0040820D01*
X0022476Y0040712D01*
X0022484Y0040604D01*
X0022488Y0040495D01*
X0022488Y0040387D01*
X0022484Y0040278D01*
X0022476Y0040170D01*
X0022464Y0040062D01*
X0022448Y0039955D01*
X0022428Y0039848D01*
X0022404Y0039742D01*
X0022377Y0039637D01*
X0022345Y0039534D01*
X0022310Y0039431D01*
X0022271Y0039330D01*
X0022228Y0039230D01*
X0022182Y0039132D01*
X0022132Y0039036D01*
X0022079Y0038941D01*
X0022022Y0038849D01*
X0021962Y0038758D01*
X0021898Y0038670D01*
X0021832Y0038585D01*
X0021762Y0038502D01*
X0021689Y0038421D01*
X0021613Y0038343D01*
X0021535Y0038268D01*
X0021454Y0038196D01*
X0021370Y0038127D01*
X0021284Y0038062D01*
X0021195Y0037999D01*
X0021104Y0037940D01*
X0021012Y0037884D01*
X0020917Y0037831D01*
X0020820Y0037782D01*
X0020721Y0037737D01*
X0020621Y0037695D01*
X0020519Y0037657D01*
X0020417Y0037623D01*
X0020312Y0037592D01*
X0020207Y0037566D01*
X0020101Y0037543D01*
X0019994Y0037524D01*
X0019887Y0037509D01*
X0019779Y0037498D01*
X0019671Y0037491D01*
X0019562Y0037488D01*
X0019454Y0037489D01*
X0019345Y0037494D01*
X0019237Y0037503D01*
X0019129Y0037516D01*
X0019022Y0037533D01*
X0018916Y0037554D01*
X0018810Y0037578D01*
X0018705Y0037607D01*
X0018602Y0037639D01*
X0018500Y0037675D01*
X0018399Y0037715D01*
X0018299Y0037759D01*
X0018202Y0037806D01*
X0018106Y0037857D01*
X0018012Y0037911D01*
X0017920Y0037969D01*
X0017830Y0038030D01*
X0017743Y0038094D01*
X0017658Y0038162D01*
X0017575Y0038232D01*
X0017495Y0038306D01*
X0017418Y0038382D01*
X0017344Y0038461D01*
X0017273Y0038543D01*
X0017205Y0038627D01*
X0017140Y0038714D01*
X0017078Y0038803D01*
X0017019Y0038895D01*
X0016964Y0038988D01*
X0016913Y0039083D01*
X0016864Y0039181D01*
X0016820Y0039280D01*
X0016779Y0039380D01*
X0016742Y0039482D01*
X0016709Y0039585D01*
X0016679Y0039690D01*
X0016653Y0039795D01*
X0016632Y0039902D01*
X0016614Y0040009D01*
X0016600Y0040116D01*
X0016590Y0040224D01*
X0016584Y0040333D01*
X0016582Y0040441D01*
X0016582Y0058157D02*
X0016584Y0058265D01*
X0016590Y0058374D01*
X0016600Y0058482D01*
X0016614Y0058589D01*
X0016632Y0058696D01*
X0016653Y0058803D01*
X0016679Y0058908D01*
X0016709Y0059013D01*
X0016742Y0059116D01*
X0016779Y0059218D01*
X0016820Y0059318D01*
X0016864Y0059417D01*
X0016913Y0059515D01*
X0016964Y0059610D01*
X0017019Y0059703D01*
X0017078Y0059795D01*
X0017140Y0059884D01*
X0017205Y0059971D01*
X0017273Y0060055D01*
X0017344Y0060137D01*
X0017418Y0060216D01*
X0017495Y0060292D01*
X0017575Y0060366D01*
X0017658Y0060436D01*
X0017743Y0060504D01*
X0017830Y0060568D01*
X0017920Y0060629D01*
X0018012Y0060687D01*
X0018106Y0060741D01*
X0018202Y0060792D01*
X0018299Y0060839D01*
X0018399Y0060883D01*
X0018500Y0060923D01*
X0018602Y0060959D01*
X0018705Y0060991D01*
X0018810Y0061020D01*
X0018916Y0061044D01*
X0019022Y0061065D01*
X0019129Y0061082D01*
X0019237Y0061095D01*
X0019345Y0061104D01*
X0019454Y0061109D01*
X0019562Y0061110D01*
X0019671Y0061107D01*
X0019779Y0061100D01*
X0019887Y0061089D01*
X0019994Y0061074D01*
X0020101Y0061055D01*
X0020207Y0061032D01*
X0020312Y0061006D01*
X0020417Y0060975D01*
X0020519Y0060941D01*
X0020621Y0060903D01*
X0020721Y0060861D01*
X0020820Y0060816D01*
X0020917Y0060767D01*
X0021011Y0060714D01*
X0021104Y0060658D01*
X0021195Y0060599D01*
X0021284Y0060536D01*
X0021370Y0060471D01*
X0021454Y0060402D01*
X0021535Y0060330D01*
X0021613Y0060255D01*
X0021689Y0060177D01*
X0021762Y0060096D01*
X0021832Y0060013D01*
X0021898Y0059928D01*
X0021962Y0059840D01*
X0022022Y0059749D01*
X0022079Y0059657D01*
X0022132Y0059562D01*
X0022182Y0059466D01*
X0022228Y0059368D01*
X0022271Y0059268D01*
X0022310Y0059167D01*
X0022345Y0059064D01*
X0022377Y0058961D01*
X0022404Y0058856D01*
X0022428Y0058750D01*
X0022448Y0058643D01*
X0022464Y0058536D01*
X0022476Y0058428D01*
X0022484Y0058320D01*
X0022488Y0058211D01*
X0022488Y0058103D01*
X0022484Y0057994D01*
X0022476Y0057886D01*
X0022464Y0057778D01*
X0022448Y0057671D01*
X0022428Y0057564D01*
X0022404Y0057458D01*
X0022377Y0057353D01*
X0022345Y0057250D01*
X0022310Y0057147D01*
X0022271Y0057046D01*
X0022228Y0056946D01*
X0022182Y0056848D01*
X0022132Y0056752D01*
X0022079Y0056657D01*
X0022022Y0056565D01*
X0021962Y0056474D01*
X0021898Y0056386D01*
X0021832Y0056301D01*
X0021762Y0056218D01*
X0021689Y0056137D01*
X0021613Y0056059D01*
X0021535Y0055984D01*
X0021454Y0055912D01*
X0021370Y0055843D01*
X0021284Y0055778D01*
X0021195Y0055715D01*
X0021104Y0055656D01*
X0021012Y0055600D01*
X0020917Y0055547D01*
X0020820Y0055498D01*
X0020721Y0055453D01*
X0020621Y0055411D01*
X0020519Y0055373D01*
X0020417Y0055339D01*
X0020312Y0055308D01*
X0020207Y0055282D01*
X0020101Y0055259D01*
X0019994Y0055240D01*
X0019887Y0055225D01*
X0019779Y0055214D01*
X0019671Y0055207D01*
X0019562Y0055204D01*
X0019454Y0055205D01*
X0019345Y0055210D01*
X0019237Y0055219D01*
X0019129Y0055232D01*
X0019022Y0055249D01*
X0018916Y0055270D01*
X0018810Y0055294D01*
X0018705Y0055323D01*
X0018602Y0055355D01*
X0018500Y0055391D01*
X0018399Y0055431D01*
X0018299Y0055475D01*
X0018202Y0055522D01*
X0018106Y0055573D01*
X0018012Y0055627D01*
X0017920Y0055685D01*
X0017830Y0055746D01*
X0017743Y0055810D01*
X0017658Y0055878D01*
X0017575Y0055948D01*
X0017495Y0056022D01*
X0017418Y0056098D01*
X0017344Y0056177D01*
X0017273Y0056259D01*
X0017205Y0056343D01*
X0017140Y0056430D01*
X0017078Y0056519D01*
X0017019Y0056611D01*
X0016964Y0056704D01*
X0016913Y0056799D01*
X0016864Y0056897D01*
X0016820Y0056996D01*
X0016779Y0057096D01*
X0016742Y0057198D01*
X0016709Y0057301D01*
X0016679Y0057406D01*
X0016653Y0057511D01*
X0016632Y0057618D01*
X0016614Y0057725D01*
X0016600Y0057832D01*
X0016590Y0057940D01*
X0016584Y0058049D01*
X0016582Y0058157D01*
D11*
X0078694Y0084442D02*
X0080364Y0084442D01*
X0080920Y0084998D01*
X0080920Y0085555D01*
X0080364Y0086112D01*
X0078694Y0086112D01*
X0080364Y0086112D02*
X0080920Y0086668D01*
X0080920Y0087225D01*
X0080364Y0087782D01*
X0078694Y0087782D01*
X0078694Y0084442D01*
D12*
X0049714Y0084313D02*
X0047946Y0084313D01*
X0049714Y0086081D01*
X0049714Y0086523D01*
X0049272Y0086965D01*
X0048388Y0086965D01*
X0047946Y0086523D01*
X0046814Y0086523D02*
X0046372Y0086965D01*
X0045488Y0086965D01*
X0045046Y0086523D01*
X0045046Y0084755D01*
X0045488Y0084313D01*
X0046372Y0084313D01*
X0046814Y0084755D01*
X0043996Y0084313D02*
X0043112Y0084313D01*
X0043554Y0084313D02*
X0043554Y0086965D01*
X0043112Y0086965D02*
X0043996Y0086965D01*
X0024991Y0084239D02*
X0024991Y0083797D01*
X0024549Y0083355D01*
X0023223Y0083355D01*
X0022091Y0082913D02*
X0022091Y0082472D01*
X0021649Y0082030D01*
X0020765Y0082030D01*
X0020323Y0082472D01*
X0020765Y0083355D02*
X0021649Y0083355D01*
X0022091Y0082913D01*
X0022091Y0084239D02*
X0021649Y0084681D01*
X0020765Y0084681D01*
X0020323Y0084239D01*
X0020323Y0083797D01*
X0020765Y0083355D01*
X0019191Y0082472D02*
X0019191Y0084681D01*
X0017423Y0084681D02*
X0017423Y0082472D01*
X0017865Y0082030D01*
X0018749Y0082030D01*
X0019191Y0082472D01*
X0023223Y0082030D02*
X0024549Y0082030D01*
X0024991Y0082472D01*
X0024991Y0082913D01*
X0024549Y0083355D01*
X0024991Y0084239D02*
X0024549Y0084681D01*
X0023223Y0084681D01*
X0023223Y0082030D01*
X0043112Y0056335D02*
X0043996Y0056335D01*
X0043554Y0056335D02*
X0043554Y0053683D01*
X0043112Y0053683D02*
X0043996Y0053683D01*
X0045046Y0054125D02*
X0045488Y0053683D01*
X0046372Y0053683D01*
X0046814Y0054125D01*
X0047946Y0054125D02*
X0048388Y0053683D01*
X0049272Y0053683D01*
X0049714Y0054125D01*
X0049714Y0054567D01*
X0049272Y0055009D01*
X0048830Y0055009D01*
X0049272Y0055009D02*
X0049714Y0055451D01*
X0049714Y0055893D01*
X0049272Y0056335D01*
X0048388Y0056335D01*
X0047946Y0055893D01*
X0046814Y0055893D02*
X0046372Y0056335D01*
X0045488Y0056335D01*
X0045046Y0055893D01*
X0045046Y0054125D01*
X0081200Y0054667D02*
X0081200Y0055993D01*
X0081642Y0056435D01*
X0082526Y0056435D01*
X0082968Y0055993D01*
X0082968Y0054667D01*
X0082968Y0055551D02*
X0083852Y0056435D01*
X0082526Y0057567D02*
X0082526Y0059335D01*
X0081200Y0058893D02*
X0082526Y0057567D01*
X0083852Y0058893D02*
X0081200Y0058893D01*
X0081200Y0054667D02*
X0083852Y0054667D01*
X0096662Y0054764D02*
X0097988Y0054764D01*
X0098430Y0055206D01*
X0098430Y0056090D01*
X0097988Y0056532D01*
X0096662Y0056532D01*
X0096662Y0053880D01*
X0097546Y0054764D02*
X0098430Y0053880D01*
X0099562Y0053880D02*
X0101330Y0053880D01*
X0100446Y0053880D02*
X0100446Y0056532D01*
X0099562Y0055648D01*
X0114667Y0054760D02*
X0114667Y0052992D01*
X0115551Y0052108D01*
X0116435Y0052992D01*
X0116435Y0054760D01*
X0117567Y0054760D02*
X0119335Y0054760D01*
X0118451Y0054760D02*
X0118451Y0052108D01*
X0120468Y0052108D02*
X0122235Y0053876D01*
X0122235Y0054318D01*
X0121793Y0054760D01*
X0120910Y0054760D01*
X0120468Y0054318D01*
X0120468Y0052108D02*
X0122235Y0052108D01*
X0125297Y0053189D02*
X0126181Y0052305D01*
X0127065Y0053189D01*
X0127065Y0054957D01*
X0128197Y0054957D02*
X0129965Y0054957D01*
X0129081Y0054957D02*
X0129081Y0052305D01*
X0131097Y0052305D02*
X0132865Y0052305D01*
X0131981Y0052305D02*
X0131981Y0054957D01*
X0131097Y0054073D01*
X0135730Y0054318D02*
X0135730Y0052550D01*
X0136172Y0052108D01*
X0137056Y0052108D01*
X0137498Y0052550D01*
X0138630Y0052108D02*
X0140398Y0052108D01*
X0139514Y0052108D02*
X0139514Y0054760D01*
X0138630Y0053876D01*
X0137498Y0054318D02*
X0137056Y0054760D01*
X0136172Y0054760D01*
X0135730Y0054318D01*
X0141531Y0054318D02*
X0141531Y0053876D01*
X0141973Y0053434D01*
X0143298Y0053434D01*
X0143298Y0052550D02*
X0142856Y0052108D01*
X0141973Y0052108D01*
X0141531Y0052550D01*
X0143298Y0052550D02*
X0143298Y0054318D01*
X0142856Y0054760D01*
X0141973Y0054760D01*
X0141531Y0054318D01*
X0132472Y0049594D02*
X0132030Y0050036D01*
X0131146Y0050036D01*
X0130704Y0049594D01*
X0130704Y0047826D01*
X0132472Y0049594D01*
X0132472Y0047826D01*
X0132030Y0047384D01*
X0131146Y0047384D01*
X0130704Y0047826D01*
X0129572Y0047384D02*
X0127804Y0047384D01*
X0128688Y0047384D02*
X0128688Y0050036D01*
X0127804Y0049152D01*
X0126671Y0049594D02*
X0126229Y0050036D01*
X0125346Y0050036D01*
X0124904Y0049594D01*
X0124904Y0047826D01*
X0125346Y0047384D01*
X0126229Y0047384D01*
X0126671Y0047826D01*
X0125297Y0053189D02*
X0125297Y0054957D01*
X0138683Y0043295D02*
X0138683Y0041527D01*
X0139125Y0041085D01*
X0140009Y0041085D01*
X0140451Y0041527D01*
X0141583Y0041085D02*
X0143351Y0042853D01*
X0143351Y0043295D01*
X0142909Y0043737D01*
X0142025Y0043737D01*
X0141583Y0043295D01*
X0140451Y0043295D02*
X0140009Y0043737D01*
X0139125Y0043737D01*
X0138683Y0043295D01*
X0144483Y0042853D02*
X0145367Y0043737D01*
X0145367Y0041085D01*
X0144483Y0041085D02*
X0146251Y0041085D01*
X0143351Y0041085D02*
X0141583Y0041085D01*
X0140989Y0039406D02*
X0140105Y0038964D01*
X0139221Y0038080D01*
X0140547Y0038080D01*
X0140989Y0037638D01*
X0140989Y0037196D01*
X0140547Y0036754D01*
X0139663Y0036754D01*
X0139221Y0037196D01*
X0139221Y0038080D01*
X0138089Y0038964D02*
X0137647Y0039406D01*
X0136763Y0039406D01*
X0136321Y0038964D01*
X0136321Y0037196D01*
X0136763Y0036754D01*
X0137647Y0036754D01*
X0138089Y0037196D01*
X0138928Y0033107D02*
X0138486Y0032665D01*
X0138486Y0030897D01*
X0138928Y0030455D01*
X0139812Y0030455D01*
X0140254Y0030897D01*
X0140254Y0032665D01*
X0139812Y0033107D01*
X0138928Y0033107D01*
X0141386Y0032223D02*
X0142270Y0033107D01*
X0142270Y0030455D01*
X0141386Y0030455D02*
X0143154Y0030455D01*
X0140254Y0030455D02*
X0139370Y0031339D01*
X0140661Y0028185D02*
X0140219Y0027743D01*
X0140219Y0025975D01*
X0140661Y0025533D01*
X0141545Y0025533D01*
X0141987Y0025975D01*
X0143119Y0025533D02*
X0144887Y0027301D01*
X0144887Y0027743D01*
X0144445Y0028185D01*
X0143561Y0028185D01*
X0143119Y0027743D01*
X0141987Y0027743D02*
X0141545Y0028185D01*
X0140661Y0028185D01*
X0143119Y0025533D02*
X0144887Y0025533D01*
X0146019Y0025533D02*
X0147787Y0027301D01*
X0147787Y0027743D01*
X0147345Y0028185D01*
X0146461Y0028185D01*
X0146019Y0027743D01*
X0146019Y0025533D02*
X0147787Y0025533D01*
X0162657Y0027800D02*
X0162657Y0028684D01*
X0162657Y0028242D02*
X0165309Y0028242D01*
X0165309Y0027800D02*
X0165309Y0028684D01*
X0164867Y0029733D02*
X0165309Y0030175D01*
X0165309Y0031059D01*
X0164867Y0031501D01*
X0164867Y0032633D02*
X0165309Y0033075D01*
X0165309Y0033959D01*
X0164867Y0034401D01*
X0164425Y0034401D01*
X0163983Y0033959D01*
X0163983Y0032633D01*
X0164867Y0032633D01*
X0163983Y0032633D02*
X0163099Y0033517D01*
X0162657Y0034401D01*
X0163099Y0031501D02*
X0162657Y0031059D01*
X0162657Y0030175D01*
X0163099Y0029733D01*
X0164867Y0029733D01*
X0164919Y0022787D02*
X0165361Y0022345D01*
X0165361Y0021461D01*
X0164919Y0021019D01*
X0164477Y0021019D01*
X0164035Y0021461D01*
X0164035Y0022345D01*
X0164477Y0022787D01*
X0164919Y0022787D01*
X0165361Y0022345D02*
X0165803Y0022787D01*
X0166245Y0022787D01*
X0166687Y0022345D01*
X0166687Y0021461D01*
X0166245Y0021019D01*
X0165803Y0021019D01*
X0165361Y0021461D01*
X0164477Y0019887D02*
X0164035Y0019445D01*
X0164035Y0018561D01*
X0164477Y0018119D01*
X0166245Y0018119D01*
X0166687Y0018561D01*
X0166687Y0019445D01*
X0166245Y0019887D01*
X0166687Y0017070D02*
X0166687Y0016186D01*
X0166687Y0016628D02*
X0164035Y0016628D01*
X0164035Y0016186D02*
X0164035Y0017070D01*
X0183382Y0022629D02*
X0183824Y0022187D01*
X0184708Y0022187D01*
X0185150Y0022629D01*
X0185150Y0024839D01*
X0186282Y0023955D02*
X0187166Y0024839D01*
X0188050Y0023955D01*
X0188050Y0022187D01*
X0189182Y0022187D02*
X0189182Y0024839D01*
X0190508Y0024839D01*
X0190950Y0024397D01*
X0190950Y0023513D01*
X0190508Y0023071D01*
X0189182Y0023071D01*
X0190066Y0023071D02*
X0190950Y0022187D01*
X0192966Y0022187D02*
X0192966Y0024839D01*
X0192082Y0024839D02*
X0193850Y0024839D01*
X0188050Y0023513D02*
X0186282Y0023513D01*
X0186282Y0023955D02*
X0186282Y0022187D01*
X0183382Y0022629D02*
X0183382Y0024839D01*
X0188889Y0032226D02*
X0189773Y0032226D01*
X0190215Y0032668D01*
X0190215Y0033552D01*
X0189331Y0033552D01*
X0188447Y0032668D02*
X0188889Y0032226D01*
X0188447Y0032668D02*
X0188447Y0034436D01*
X0188889Y0034878D01*
X0189773Y0034878D01*
X0190215Y0034436D01*
X0191347Y0034878D02*
X0193115Y0032226D01*
X0193115Y0034878D01*
X0194248Y0034878D02*
X0195573Y0034878D01*
X0196015Y0034436D01*
X0196015Y0032668D01*
X0195573Y0032226D01*
X0194248Y0032226D01*
X0194248Y0034878D01*
X0191347Y0034878D02*
X0191347Y0032226D01*
X0178338Y0041330D02*
X0177896Y0040888D01*
X0177012Y0040888D01*
X0176570Y0041330D01*
X0176570Y0042214D02*
X0177454Y0042656D01*
X0177896Y0042656D01*
X0178338Y0042214D01*
X0178338Y0041330D01*
X0176570Y0042214D02*
X0176570Y0043540D01*
X0178338Y0043540D01*
X0174554Y0043540D02*
X0174554Y0040888D01*
X0173670Y0040888D02*
X0175438Y0040888D01*
X0172538Y0040888D02*
X0171654Y0041772D01*
X0172096Y0041772D02*
X0170770Y0041772D01*
X0170770Y0040888D02*
X0170770Y0043540D01*
X0172096Y0043540D01*
X0172538Y0043098D01*
X0172538Y0042214D01*
X0172096Y0041772D01*
X0173670Y0042656D02*
X0174554Y0043540D01*
X0165309Y0043054D02*
X0165309Y0042170D01*
X0165309Y0042612D02*
X0162657Y0042612D01*
X0162657Y0042170D02*
X0162657Y0043054D01*
X0163099Y0044103D02*
X0164867Y0044103D01*
X0165309Y0044545D01*
X0165309Y0045429D01*
X0164867Y0045871D01*
X0164867Y0047003D02*
X0165309Y0047003D01*
X0164867Y0047003D02*
X0163099Y0048771D01*
X0162657Y0048771D01*
X0162657Y0047003D01*
X0163099Y0045871D02*
X0162657Y0045429D01*
X0162657Y0044545D01*
X0163099Y0044103D01*
X0188447Y0052747D02*
X0188447Y0054515D01*
X0188889Y0054957D01*
X0189773Y0054957D01*
X0190215Y0054515D01*
X0190215Y0053631D02*
X0189331Y0053631D01*
X0190215Y0053631D02*
X0190215Y0052747D01*
X0189773Y0052305D01*
X0188889Y0052305D01*
X0188447Y0052747D01*
X0191347Y0052305D02*
X0191347Y0054957D01*
X0193115Y0052305D01*
X0193115Y0054957D01*
X0194248Y0054957D02*
X0195573Y0054957D01*
X0196015Y0054515D01*
X0196015Y0052747D01*
X0195573Y0052305D01*
X0194248Y0052305D01*
X0194248Y0054957D01*
X0194248Y0062148D02*
X0195573Y0062148D01*
X0196015Y0062590D01*
X0196015Y0064358D01*
X0195573Y0064800D01*
X0194248Y0064800D01*
X0194248Y0062148D01*
X0193115Y0062148D02*
X0193115Y0064800D01*
X0191347Y0064800D02*
X0193115Y0062148D01*
X0191347Y0062148D02*
X0191347Y0064800D01*
X0190215Y0064358D02*
X0189773Y0064800D01*
X0188889Y0064800D01*
X0188447Y0064358D01*
X0188447Y0062590D01*
X0188889Y0062148D01*
X0189773Y0062148D01*
X0190215Y0062590D01*
X0190215Y0063474D01*
X0189331Y0063474D01*
X0177550Y0062489D02*
X0175783Y0062489D01*
X0177108Y0063815D01*
X0177108Y0061163D01*
X0174650Y0061163D02*
X0172882Y0061163D01*
X0173766Y0061163D02*
X0173766Y0063815D01*
X0172882Y0062931D01*
X0171750Y0063373D02*
X0171750Y0062489D01*
X0171308Y0062047D01*
X0169982Y0062047D01*
X0169982Y0061163D02*
X0169982Y0063815D01*
X0171308Y0063815D01*
X0171750Y0063373D01*
X0170866Y0062047D02*
X0171750Y0061163D01*
X0166923Y0063880D02*
X0164271Y0063880D01*
X0164271Y0065206D01*
X0164713Y0065648D01*
X0165597Y0065648D01*
X0166039Y0065206D01*
X0166039Y0063880D01*
X0166039Y0064764D02*
X0166923Y0065648D01*
X0166923Y0066780D02*
X0166923Y0068548D01*
X0166923Y0067664D02*
X0164271Y0067664D01*
X0165155Y0066780D01*
X0164713Y0069681D02*
X0164271Y0070123D01*
X0164271Y0071007D01*
X0164713Y0071448D01*
X0166481Y0069681D01*
X0166923Y0070123D01*
X0166923Y0071007D01*
X0166481Y0071448D01*
X0164713Y0071448D01*
X0164713Y0069681D02*
X0166481Y0069681D01*
X0156687Y0069830D02*
X0154035Y0069830D01*
X0154919Y0068946D01*
X0154477Y0067814D02*
X0155361Y0067814D01*
X0155803Y0067372D01*
X0155803Y0066046D01*
X0155803Y0066930D02*
X0156687Y0067814D01*
X0156687Y0068946D02*
X0156687Y0070714D01*
X0156687Y0071846D02*
X0154919Y0073614D01*
X0154477Y0073614D01*
X0154035Y0073172D01*
X0154035Y0072288D01*
X0154477Y0071846D01*
X0156687Y0071846D02*
X0156687Y0073614D01*
X0154477Y0067814D02*
X0154035Y0067372D01*
X0154035Y0066046D01*
X0156687Y0066046D01*
X0162657Y0062157D02*
X0162657Y0060389D01*
X0163983Y0060389D01*
X0163541Y0061273D01*
X0163541Y0061715D01*
X0163983Y0062157D01*
X0164867Y0062157D01*
X0165309Y0061715D01*
X0165309Y0060831D01*
X0164867Y0060389D01*
X0164867Y0059257D02*
X0165309Y0058815D01*
X0165309Y0057931D01*
X0164867Y0057489D01*
X0163099Y0057489D01*
X0162657Y0057931D01*
X0162657Y0058815D01*
X0163099Y0059257D01*
X0162657Y0056440D02*
X0162657Y0055556D01*
X0162657Y0055998D02*
X0165309Y0055998D01*
X0165309Y0055556D02*
X0165309Y0056440D01*
X0188447Y0072187D02*
X0188447Y0074839D01*
X0189773Y0074839D01*
X0190215Y0074397D01*
X0190215Y0073513D01*
X0189773Y0073071D01*
X0188447Y0073071D01*
X0191347Y0072187D02*
X0192231Y0073071D01*
X0193115Y0072187D01*
X0193115Y0074839D01*
X0194248Y0074839D02*
X0195573Y0074839D01*
X0196015Y0074397D01*
X0196015Y0073513D01*
X0195573Y0073071D01*
X0194248Y0073071D01*
X0195131Y0073071D02*
X0196015Y0072187D01*
X0194248Y0072187D02*
X0194248Y0074839D01*
X0191347Y0074839D02*
X0191347Y0072187D01*
X0189707Y0076518D02*
X0188823Y0076518D01*
X0188381Y0076960D01*
X0189265Y0077844D02*
X0189707Y0077844D01*
X0190149Y0077402D01*
X0190149Y0076960D01*
X0189707Y0076518D01*
X0189707Y0077844D02*
X0190149Y0078286D01*
X0190149Y0078728D01*
X0189707Y0079170D01*
X0188823Y0079170D01*
X0188381Y0078728D01*
X0187249Y0079170D02*
X0185481Y0079170D01*
X0186365Y0079170D02*
X0186365Y0076518D01*
X0184349Y0077402D02*
X0184349Y0079170D01*
X0182581Y0079170D02*
X0182581Y0077402D01*
X0183465Y0076518D01*
X0184349Y0077402D01*
X0183565Y0085179D02*
X0183565Y0087831D01*
X0184891Y0087831D01*
X0185333Y0087389D01*
X0185333Y0086505D01*
X0184891Y0086063D01*
X0183565Y0086063D01*
X0184449Y0086063D02*
X0185333Y0085179D01*
X0186465Y0085179D02*
X0188233Y0085179D01*
X0187349Y0085179D02*
X0187349Y0087831D01*
X0186465Y0086947D01*
X0189365Y0087389D02*
X0189807Y0087831D01*
X0190691Y0087831D01*
X0191133Y0087389D01*
X0191133Y0086947D01*
X0190691Y0086505D01*
X0191133Y0086063D01*
X0191133Y0085621D01*
X0190691Y0085179D01*
X0189807Y0085179D01*
X0189365Y0085621D01*
X0190249Y0086505D02*
X0190691Y0086505D01*
X0141884Y0085189D02*
X0141884Y0083421D01*
X0141884Y0084305D02*
X0139232Y0084305D01*
X0140116Y0083421D01*
X0139674Y0082289D02*
X0139232Y0081847D01*
X0139232Y0080963D01*
X0139674Y0080521D01*
X0141442Y0080521D01*
X0141884Y0080963D01*
X0141884Y0081847D01*
X0141442Y0082289D01*
X0141884Y0079471D02*
X0141884Y0078587D01*
X0141884Y0079029D02*
X0139232Y0079029D01*
X0139232Y0078587D02*
X0139232Y0079471D01*
X0086463Y0031685D02*
X0086463Y0029917D01*
X0085138Y0031243D01*
X0087789Y0031243D01*
X0087347Y0028785D02*
X0087789Y0028343D01*
X0087789Y0027459D01*
X0087347Y0027017D01*
X0085579Y0027017D01*
X0085138Y0027459D01*
X0085138Y0028343D01*
X0085579Y0028785D01*
X0085138Y0025967D02*
X0085138Y0025083D01*
X0085138Y0025525D02*
X0087789Y0025525D01*
X0087789Y0025083D02*
X0087789Y0025967D01*
X0100888Y0017704D02*
X0100888Y0017262D01*
X0101330Y0016820D01*
X0102214Y0016820D01*
X0102656Y0016378D01*
X0102656Y0015936D01*
X0102214Y0015494D01*
X0101330Y0015494D01*
X0100888Y0015936D01*
X0100888Y0017704D02*
X0101330Y0018146D01*
X0102214Y0018146D01*
X0102656Y0017704D01*
X0103788Y0018146D02*
X0103788Y0015494D01*
X0104672Y0016378D01*
X0105556Y0015494D01*
X0105556Y0018146D01*
X0106688Y0018146D02*
X0108014Y0018146D01*
X0108456Y0017704D01*
X0108456Y0015936D01*
X0108014Y0015494D01*
X0106688Y0015494D01*
X0106688Y0018146D01*
X0138683Y0016326D02*
X0138683Y0014558D01*
X0139125Y0014116D01*
X0140009Y0014116D01*
X0140451Y0014558D01*
X0141583Y0014558D02*
X0142025Y0014116D01*
X0142909Y0014116D01*
X0143351Y0014558D01*
X0143351Y0015000D01*
X0142909Y0015442D01*
X0142467Y0015442D01*
X0142909Y0015442D02*
X0143351Y0015884D01*
X0143351Y0016326D01*
X0142909Y0016768D01*
X0142025Y0016768D01*
X0141583Y0016326D01*
X0140451Y0016326D02*
X0140009Y0016768D01*
X0139125Y0016768D01*
X0138683Y0016326D01*
X0017275Y0014751D02*
X0017275Y0014309D01*
X0016833Y0013867D01*
X0015949Y0013867D01*
X0015507Y0014309D01*
X0015507Y0014751D01*
X0015949Y0015193D01*
X0016833Y0015193D01*
X0017275Y0014751D01*
X0016833Y0013867D02*
X0017275Y0013425D01*
X0017275Y0012983D01*
X0016833Y0012541D01*
X0015949Y0012541D01*
X0015507Y0012983D01*
X0015507Y0013425D01*
X0015949Y0013867D01*
X0014375Y0012983D02*
X0013933Y0012541D01*
X0013049Y0012541D01*
X0012607Y0012983D01*
X0012607Y0014751D01*
X0013049Y0015193D01*
X0013933Y0015193D01*
X0014375Y0014751D01*
D13*
X0018315Y0016465D02*
X0029024Y0016465D01*
X0029024Y0011661D01*
X0018315Y0011661D01*
X0018315Y0016465D01*
X0013630Y0023551D02*
X0008118Y0023551D01*
X0008118Y0075047D01*
X0013630Y0075047D01*
X0028591Y0075047D02*
X0033039Y0075047D01*
X0033039Y0023551D01*
X0028591Y0023551D01*
X0033669Y0010559D02*
X0080598Y0010559D01*
X0080598Y0053000D01*
X0033669Y0053000D01*
X0035677Y0053000D01*
X0033669Y0050992D01*
X0033669Y0053000D01*
X0033669Y0010559D01*
X0088787Y0018354D02*
X0088787Y0051110D01*
X0121543Y0051110D01*
X0121543Y0018354D01*
X0118748Y0018354D01*
X0121543Y0021150D01*
X0121543Y0018354D01*
X0088787Y0018354D01*
X0091622Y0021189D02*
X0091622Y0022331D01*
X0091622Y0021189D02*
X0092764Y0021189D01*
X0109070Y0016472D02*
X0109070Y0010472D01*
X0125670Y0010472D01*
X0125670Y0016472D01*
X0109070Y0016472D01*
X0117567Y0021189D02*
X0118709Y0021189D01*
X0118709Y0022331D01*
X0120881Y0020487D02*
X0121543Y0020487D01*
X0121543Y0020958D02*
X0121352Y0020958D01*
X0121543Y0020016D02*
X0120410Y0020016D01*
X0119939Y0019545D02*
X0121543Y0019545D01*
X0121543Y0019074D02*
X0119468Y0019074D01*
X0118997Y0018603D02*
X0121543Y0018603D01*
X0123827Y0019339D02*
X0123827Y0035559D01*
X0137685Y0035559D01*
X0137685Y0019339D01*
X0123827Y0019339D01*
X0126976Y0018433D02*
X0137685Y0018433D01*
X0137685Y0013630D01*
X0126976Y0013630D01*
X0126976Y0018433D01*
X0148433Y0022882D02*
X0148433Y0027685D01*
X0159142Y0027685D01*
X0159142Y0022882D01*
X0148433Y0022882D01*
X0150244Y0021898D02*
X0151888Y0021898D01*
X0150244Y0021898D02*
X0150244Y0014102D01*
X0157331Y0014102D01*
X0157331Y0021898D01*
X0155687Y0021898D01*
X0155685Y0021812D01*
X0155679Y0021725D01*
X0155669Y0021639D01*
X0155656Y0021554D01*
X0155638Y0021469D01*
X0155617Y0021385D01*
X0155591Y0021303D01*
X0155562Y0021221D01*
X0155530Y0021141D01*
X0155493Y0021063D01*
X0155454Y0020986D01*
X0155410Y0020911D01*
X0155364Y0020838D01*
X0155314Y0020767D01*
X0155261Y0020699D01*
X0155205Y0020633D01*
X0155146Y0020570D01*
X0155084Y0020509D01*
X0155019Y0020452D01*
X0154952Y0020397D01*
X0154883Y0020346D01*
X0154811Y0020297D01*
X0154737Y0020253D01*
X0154661Y0020211D01*
X0154583Y0020173D01*
X0154504Y0020139D01*
X0154423Y0020108D01*
X0154341Y0020081D01*
X0154258Y0020057D01*
X0154174Y0020038D01*
X0154088Y0020022D01*
X0154003Y0020010D01*
X0153917Y0020002D01*
X0153830Y0019998D01*
X0153744Y0019998D01*
X0153657Y0020002D01*
X0153571Y0020010D01*
X0153486Y0020022D01*
X0153400Y0020038D01*
X0153316Y0020057D01*
X0153233Y0020081D01*
X0153151Y0020108D01*
X0153070Y0020139D01*
X0152991Y0020173D01*
X0152913Y0020211D01*
X0152837Y0020253D01*
X0152763Y0020297D01*
X0152691Y0020346D01*
X0152622Y0020397D01*
X0152555Y0020452D01*
X0152490Y0020509D01*
X0152428Y0020570D01*
X0152369Y0020633D01*
X0152313Y0020699D01*
X0152260Y0020767D01*
X0152210Y0020838D01*
X0152164Y0020911D01*
X0152120Y0020986D01*
X0152081Y0021063D01*
X0152044Y0021141D01*
X0152012Y0021221D01*
X0151983Y0021303D01*
X0151957Y0021385D01*
X0151936Y0021469D01*
X0151918Y0021554D01*
X0151905Y0021639D01*
X0151895Y0021725D01*
X0151889Y0021812D01*
X0151887Y0021898D01*
X0166740Y0024752D02*
X0180598Y0024752D01*
X0180598Y0039594D01*
X0166740Y0039594D01*
X0166740Y0024752D01*
X0157331Y0028669D02*
X0157331Y0036465D01*
X0155687Y0036465D01*
X0155685Y0036379D01*
X0155679Y0036292D01*
X0155669Y0036206D01*
X0155656Y0036121D01*
X0155638Y0036036D01*
X0155617Y0035952D01*
X0155591Y0035870D01*
X0155562Y0035788D01*
X0155530Y0035708D01*
X0155493Y0035630D01*
X0155454Y0035553D01*
X0155410Y0035478D01*
X0155364Y0035405D01*
X0155314Y0035334D01*
X0155261Y0035266D01*
X0155205Y0035200D01*
X0155146Y0035137D01*
X0155084Y0035076D01*
X0155019Y0035019D01*
X0154952Y0034964D01*
X0154883Y0034913D01*
X0154811Y0034864D01*
X0154737Y0034820D01*
X0154661Y0034778D01*
X0154583Y0034740D01*
X0154504Y0034706D01*
X0154423Y0034675D01*
X0154341Y0034648D01*
X0154258Y0034624D01*
X0154174Y0034605D01*
X0154088Y0034589D01*
X0154003Y0034577D01*
X0153917Y0034569D01*
X0153830Y0034565D01*
X0153744Y0034565D01*
X0153657Y0034569D01*
X0153571Y0034577D01*
X0153486Y0034589D01*
X0153400Y0034605D01*
X0153316Y0034624D01*
X0153233Y0034648D01*
X0153151Y0034675D01*
X0153070Y0034706D01*
X0152991Y0034740D01*
X0152913Y0034778D01*
X0152837Y0034820D01*
X0152763Y0034864D01*
X0152691Y0034913D01*
X0152622Y0034964D01*
X0152555Y0035019D01*
X0152490Y0035076D01*
X0152428Y0035137D01*
X0152369Y0035200D01*
X0152313Y0035266D01*
X0152260Y0035334D01*
X0152210Y0035405D01*
X0152164Y0035478D01*
X0152120Y0035553D01*
X0152081Y0035630D01*
X0152044Y0035708D01*
X0152012Y0035788D01*
X0151983Y0035870D01*
X0151957Y0035952D01*
X0151936Y0036036D01*
X0151918Y0036121D01*
X0151905Y0036206D01*
X0151895Y0036292D01*
X0151889Y0036379D01*
X0151887Y0036465D01*
X0151888Y0036465D02*
X0150244Y0036465D01*
X0150244Y0028669D01*
X0157331Y0028669D01*
X0159142Y0037449D02*
X0148433Y0037449D01*
X0148433Y0042252D01*
X0159142Y0042252D01*
X0159142Y0037449D01*
X0147685Y0038079D02*
X0146504Y0038079D01*
X0144339Y0040244D01*
X0138630Y0040244D01*
X0135520Y0041268D02*
X0135520Y0036465D01*
X0124811Y0036465D01*
X0124811Y0041268D01*
X0135520Y0041268D01*
X0135520Y0041583D02*
X0124811Y0041583D01*
X0124811Y0046386D01*
X0135520Y0046386D01*
X0135520Y0041583D01*
X0150244Y0043236D02*
X0157331Y0043236D01*
X0157331Y0051031D01*
X0155687Y0051031D01*
X0155685Y0050945D01*
X0155679Y0050858D01*
X0155669Y0050772D01*
X0155656Y0050687D01*
X0155638Y0050602D01*
X0155617Y0050518D01*
X0155591Y0050436D01*
X0155562Y0050354D01*
X0155530Y0050274D01*
X0155493Y0050196D01*
X0155454Y0050119D01*
X0155410Y0050044D01*
X0155364Y0049971D01*
X0155314Y0049900D01*
X0155261Y0049832D01*
X0155205Y0049766D01*
X0155146Y0049703D01*
X0155084Y0049642D01*
X0155019Y0049585D01*
X0154952Y0049530D01*
X0154883Y0049479D01*
X0154811Y0049430D01*
X0154737Y0049386D01*
X0154661Y0049344D01*
X0154583Y0049306D01*
X0154504Y0049272D01*
X0154423Y0049241D01*
X0154341Y0049214D01*
X0154258Y0049190D01*
X0154174Y0049171D01*
X0154088Y0049155D01*
X0154003Y0049143D01*
X0153917Y0049135D01*
X0153830Y0049131D01*
X0153744Y0049131D01*
X0153657Y0049135D01*
X0153571Y0049143D01*
X0153486Y0049155D01*
X0153400Y0049171D01*
X0153316Y0049190D01*
X0153233Y0049214D01*
X0153151Y0049241D01*
X0153070Y0049272D01*
X0152991Y0049306D01*
X0152913Y0049344D01*
X0152837Y0049386D01*
X0152763Y0049430D01*
X0152691Y0049479D01*
X0152622Y0049530D01*
X0152555Y0049585D01*
X0152490Y0049642D01*
X0152428Y0049703D01*
X0152369Y0049766D01*
X0152313Y0049832D01*
X0152260Y0049900D01*
X0152210Y0049971D01*
X0152164Y0050044D01*
X0152120Y0050119D01*
X0152081Y0050196D01*
X0152044Y0050274D01*
X0152012Y0050354D01*
X0151983Y0050436D01*
X0151957Y0050518D01*
X0151936Y0050602D01*
X0151918Y0050687D01*
X0151905Y0050772D01*
X0151895Y0050858D01*
X0151889Y0050945D01*
X0151887Y0051031D01*
X0151888Y0051031D02*
X0150244Y0051031D01*
X0150244Y0043236D01*
X0166740Y0045421D02*
X0180598Y0045421D01*
X0180598Y0060264D01*
X0166740Y0060264D01*
X0166740Y0045421D01*
X0159535Y0052016D02*
X0148827Y0052016D01*
X0148827Y0056819D01*
X0159535Y0056819D01*
X0159535Y0052016D01*
X0148079Y0052449D02*
X0146307Y0052449D01*
X0145126Y0051268D01*
X0135874Y0051268D01*
X0139457Y0055559D02*
X0139457Y0069024D01*
X0123236Y0069024D01*
X0123236Y0055559D01*
X0139457Y0055559D01*
X0133866Y0056622D02*
X0130795Y0056622D01*
X0133866Y0056622D02*
X0133866Y0059299D01*
X0123315Y0055559D02*
X0107094Y0055559D01*
X0107094Y0069024D01*
X0123315Y0069024D01*
X0123315Y0055559D01*
X0115756Y0056622D02*
X0112685Y0056622D01*
X0112685Y0059299D01*
X0107075Y0057528D02*
X0107075Y0071386D01*
X0092232Y0071386D01*
X0092232Y0057528D01*
X0107075Y0057528D01*
X0091819Y0060087D02*
X0091819Y0064890D01*
X0081110Y0064890D01*
X0081110Y0060087D01*
X0091819Y0060087D01*
X0080362Y0060323D02*
X0080362Y0083472D01*
X0035087Y0083472D01*
X0035087Y0060323D01*
X0080362Y0060323D01*
X0091622Y0048276D02*
X0092764Y0048276D01*
X0091622Y0048276D02*
X0091622Y0047134D01*
X0117567Y0048276D02*
X0118709Y0048276D01*
X0118709Y0047134D01*
X0150244Y0057803D02*
X0157331Y0057803D01*
X0157331Y0065598D01*
X0155687Y0065598D01*
X0155685Y0065512D01*
X0155679Y0065425D01*
X0155669Y0065339D01*
X0155656Y0065254D01*
X0155638Y0065169D01*
X0155617Y0065085D01*
X0155591Y0065003D01*
X0155562Y0064921D01*
X0155530Y0064841D01*
X0155493Y0064763D01*
X0155454Y0064686D01*
X0155410Y0064611D01*
X0155364Y0064538D01*
X0155314Y0064467D01*
X0155261Y0064399D01*
X0155205Y0064333D01*
X0155146Y0064270D01*
X0155084Y0064209D01*
X0155019Y0064152D01*
X0154952Y0064097D01*
X0154883Y0064046D01*
X0154811Y0063997D01*
X0154737Y0063953D01*
X0154661Y0063911D01*
X0154583Y0063873D01*
X0154504Y0063839D01*
X0154423Y0063808D01*
X0154341Y0063781D01*
X0154258Y0063757D01*
X0154174Y0063738D01*
X0154088Y0063722D01*
X0154003Y0063710D01*
X0153917Y0063702D01*
X0153830Y0063698D01*
X0153744Y0063698D01*
X0153657Y0063702D01*
X0153571Y0063710D01*
X0153486Y0063722D01*
X0153400Y0063738D01*
X0153316Y0063757D01*
X0153233Y0063781D01*
X0153151Y0063808D01*
X0153070Y0063839D01*
X0152991Y0063873D01*
X0152913Y0063911D01*
X0152837Y0063953D01*
X0152763Y0063997D01*
X0152691Y0064046D01*
X0152622Y0064097D01*
X0152555Y0064152D01*
X0152490Y0064209D01*
X0152428Y0064270D01*
X0152369Y0064333D01*
X0152313Y0064399D01*
X0152260Y0064467D01*
X0152210Y0064538D01*
X0152164Y0064611D01*
X0152120Y0064686D01*
X0152081Y0064763D01*
X0152044Y0064841D01*
X0152012Y0064921D01*
X0151983Y0065003D01*
X0151957Y0065085D01*
X0151936Y0065169D01*
X0151918Y0065254D01*
X0151905Y0065339D01*
X0151895Y0065425D01*
X0151889Y0065512D01*
X0151887Y0065598D01*
X0151888Y0065598D02*
X0150244Y0065598D01*
X0150244Y0057803D01*
X0133866Y0065283D02*
X0133866Y0067961D01*
X0130795Y0067961D01*
X0131504Y0068945D02*
X0131504Y0073748D01*
X0142213Y0073748D01*
X0142213Y0068945D01*
X0131504Y0068945D01*
X0125480Y0071898D02*
X0120283Y0071898D01*
X0120283Y0078118D01*
X0125480Y0078118D01*
X0125480Y0071898D01*
X0126583Y0074457D02*
X0126583Y0087528D01*
X0132567Y0087528D01*
X0132567Y0074457D01*
X0126583Y0074457D01*
X0132685Y0073965D02*
X0132685Y0088020D01*
X0132685Y0086012D01*
X0134693Y0088020D01*
X0132685Y0088020D01*
X0148512Y0088020D01*
X0148512Y0073965D01*
X0132685Y0073965D01*
X0125480Y0078118D02*
X0125480Y0083000D01*
X0120283Y0083000D01*
X0120283Y0078118D01*
X0116425Y0078118D02*
X0111228Y0078118D01*
X0111228Y0083000D01*
X0116425Y0083000D01*
X0116425Y0078118D01*
X0116425Y0071898D01*
X0111228Y0071898D01*
X0111228Y0078118D01*
X0107370Y0078118D02*
X0102173Y0078118D01*
X0102173Y0083000D01*
X0107370Y0083000D01*
X0107370Y0078118D01*
X0107370Y0071898D01*
X0102173Y0071898D01*
X0102173Y0078118D01*
X0098315Y0078118D02*
X0093118Y0078118D01*
X0093118Y0083000D01*
X0098315Y0083000D01*
X0098315Y0078118D01*
X0098315Y0071898D01*
X0093118Y0071898D01*
X0093118Y0078118D01*
X0091346Y0072961D02*
X0091346Y0084299D01*
X0081976Y0084299D02*
X0081976Y0072961D01*
X0112685Y0067961D02*
X0112685Y0065283D01*
X0112685Y0067961D02*
X0115756Y0067961D01*
X0142331Y0067370D02*
X0142331Y0072173D01*
X0153039Y0072173D01*
X0153039Y0067370D01*
X0142331Y0067370D01*
X0158079Y0067173D02*
X0162882Y0067173D01*
X0162882Y0077882D01*
X0158079Y0077882D01*
X0158079Y0067173D01*
X0168118Y0067370D02*
X0181583Y0067370D01*
X0181583Y0083591D01*
X0168118Y0083591D01*
X0168118Y0067370D01*
X0169181Y0072961D02*
X0169181Y0076031D01*
X0167606Y0078394D02*
X0156898Y0078394D01*
X0156898Y0083197D01*
X0167606Y0083197D01*
X0167606Y0078394D01*
X0167606Y0082921D02*
X0156898Y0082921D01*
X0156898Y0087724D01*
X0167606Y0087724D01*
X0167606Y0082921D01*
X0170677Y0083906D02*
X0170677Y0088709D01*
X0181386Y0088709D01*
X0181386Y0083906D01*
X0170677Y0083906D01*
X0154614Y0088315D02*
X0154614Y0075244D01*
X0148630Y0075244D01*
X0148630Y0088315D01*
X0154614Y0088315D01*
X0134506Y0087833D02*
X0132685Y0087833D01*
X0132685Y0087362D02*
X0134035Y0087362D01*
X0133564Y0086891D02*
X0132685Y0086891D01*
X0132685Y0086420D02*
X0133093Y0086420D01*
X0169181Y0072961D02*
X0171858Y0072961D01*
X0177843Y0072961D02*
X0180520Y0072961D01*
X0180520Y0076031D01*
X0182043Y0021531D02*
X0182043Y0010531D01*
X0193643Y0010531D01*
X0193643Y0021531D01*
X0182043Y0021531D01*
X0035660Y0052983D02*
X0033669Y0052983D01*
X0033669Y0052512D02*
X0035189Y0052512D01*
X0034718Y0052041D02*
X0033669Y0052041D01*
X0033669Y0051570D02*
X0034247Y0051570D01*
X0033776Y0051099D02*
X0033669Y0051099D01*
D14*
X0118256Y0021642D03*
M02*
