%
M48
M72
T01C0.01181
T02C0.01575
T03C0.01969
T04C0.03150
T05C0.03543
T06C0.05906
T07C0.09055
%
T01
X31543Y15835
X45323Y16228
X62449Y18787
X68059Y19378
X69339Y24299
X62449Y25087
X62449Y31386
X68354Y34732
X62449Y37685
X65795Y40638
X62449Y43984
X62449Y50283
X62449Y56583
X71504Y58354
X80165Y59142
X85087Y58945
X88236Y57173
X91189Y58945
X91189Y55402
X85087Y55402
X79575Y53827
X87252Y49496
X91189Y49496
X96701Y43197
X105165Y43197
X113630Y43197
X122291Y38669
X113630Y34732
X105165Y34732
X96701Y34732
X87449Y36110
X81543Y37882
X87646Y40835
X85283Y33748
X96701Y26268
X105165Y26268
X113630Y26268
X122882Y26268
X140598Y34142
X135677Y36110
X143945Y37685
X147094Y40244
X143945Y42213
X143748Y46150
X153984Y43394
X163039Y35913
X155953Y34535
X153394Y32370
X143354Y29024
X143354Y24693
X147094Y24693
X143354Y20362
X141189Y17803
X151622Y17803
X156150Y17803
X163236Y14654
X167764Y13472
X174457Y13472
X174457Y18787
X165205Y19378
X163039Y21740
X166780Y23709
X181937Y27055
X181543Y33748
X186858Y33354
X173472Y42016
X167173Y40638
X182134Y46937
X181937Y54417
X163039Y50480
X153787Y51071
X147685Y54614
X144142Y52843
X144142Y56583
X142173Y59142
X143748Y62488
X139417Y68000
X134299Y68000
X131543Y66031
X130362Y71346
X126622Y71346
X140598Y77055
X145323Y73315
X151031Y73315
X164417Y72134
X164417Y75283
X155559Y82764
X169142Y85520
X182528Y85520
X182724Y80402
X182724Y75677
X188236Y75677
X194535Y75677
X193945Y65835
X190205Y65835
X186071Y63472
X180953Y62882
X163039Y64457
X156346Y64457
X156346Y61504
X133709Y48118
X121898Y48118
X105165Y54614
X109299Y58157
X91189Y66031
X86858Y66031
X81740Y66031
X77016Y67606
X92173Y73118
X99063Y77055
X109299Y77055
X113827Y85520
X93157Y85323
X77213Y85520
X77213Y80598
X67764Y80598
X62449Y80598
X62449Y85520
X67764Y85520
X45913Y45362
X62449Y13472
X68945Y13472
X82921Y20953
X87646Y21150
X86858Y16228
X90598Y16228
X81937Y25874
T02
X94339Y52646
X152409Y62488
X83512Y13866
T03
X45913Y50283
X67370Y49299
X112370Y14457
X117370Y14457
X122370Y14457
X179437Y14909
X184437Y14909
X184437Y19909
X179437Y19909
X169929Y72724
X156150Y73512
X117961Y83157
T04
X42724Y64850
X52724Y64850
X62724Y64850
X72724Y64850
T05
X28984Y35717
X28984Y45559
X28984Y53433
X28984Y63276
T06
X19535Y40638
X19535Y58354
T07
X21110Y25874
X21110Y73118
M30
