G75*
%MOIN*%
%OFA0B0*%
%FSLAX25Y25*%
%IPPOS*%
%LPD*%
%AMOC8*
5,1,8,0,0,1.08239X$1,22.5*
%
%ADD10C,0.00000*%
%ADD11C,0.00500*%
%ADD12C,0.00472*%
%ADD13C,0.00600*%
D10*
X0015795Y0010126D02*
X0015795Y0018000D01*
X0007921Y0018000D01*
X0007921Y0080992D01*
X0015795Y0080992D01*
X0015795Y0088866D01*
X0096110Y0088866D01*
X0096110Y0083748D01*
X0108709Y0083748D01*
X0108709Y0088866D01*
X0189024Y0088866D01*
X0189024Y0080992D01*
X0196898Y0080992D01*
X0196898Y0018000D01*
X0189024Y0018000D01*
X0189024Y0010126D01*
X0108709Y0010126D01*
X0108709Y0015244D01*
X0096110Y0015244D01*
X0096110Y0010126D01*
X0015795Y0010126D01*
X0016582Y0040638D02*
X0016584Y0040746D01*
X0016590Y0040855D01*
X0016600Y0040963D01*
X0016614Y0041070D01*
X0016632Y0041177D01*
X0016653Y0041284D01*
X0016679Y0041389D01*
X0016709Y0041494D01*
X0016742Y0041597D01*
X0016779Y0041699D01*
X0016820Y0041799D01*
X0016864Y0041898D01*
X0016913Y0041996D01*
X0016964Y0042091D01*
X0017019Y0042184D01*
X0017078Y0042276D01*
X0017140Y0042365D01*
X0017205Y0042452D01*
X0017273Y0042536D01*
X0017344Y0042618D01*
X0017418Y0042697D01*
X0017495Y0042773D01*
X0017575Y0042847D01*
X0017658Y0042917D01*
X0017743Y0042985D01*
X0017830Y0043049D01*
X0017920Y0043110D01*
X0018012Y0043168D01*
X0018106Y0043222D01*
X0018202Y0043273D01*
X0018299Y0043320D01*
X0018399Y0043364D01*
X0018500Y0043404D01*
X0018602Y0043440D01*
X0018705Y0043472D01*
X0018810Y0043501D01*
X0018916Y0043525D01*
X0019022Y0043546D01*
X0019129Y0043563D01*
X0019237Y0043576D01*
X0019345Y0043585D01*
X0019454Y0043590D01*
X0019562Y0043591D01*
X0019671Y0043588D01*
X0019779Y0043581D01*
X0019887Y0043570D01*
X0019994Y0043555D01*
X0020101Y0043536D01*
X0020207Y0043513D01*
X0020312Y0043487D01*
X0020417Y0043456D01*
X0020519Y0043422D01*
X0020621Y0043384D01*
X0020721Y0043342D01*
X0020820Y0043297D01*
X0020917Y0043248D01*
X0021011Y0043195D01*
X0021104Y0043139D01*
X0021195Y0043080D01*
X0021284Y0043017D01*
X0021370Y0042952D01*
X0021454Y0042883D01*
X0021535Y0042811D01*
X0021613Y0042736D01*
X0021689Y0042658D01*
X0021762Y0042577D01*
X0021832Y0042494D01*
X0021898Y0042409D01*
X0021962Y0042321D01*
X0022022Y0042230D01*
X0022079Y0042138D01*
X0022132Y0042043D01*
X0022182Y0041947D01*
X0022228Y0041849D01*
X0022271Y0041749D01*
X0022310Y0041648D01*
X0022345Y0041545D01*
X0022377Y0041442D01*
X0022404Y0041337D01*
X0022428Y0041231D01*
X0022448Y0041124D01*
X0022464Y0041017D01*
X0022476Y0040909D01*
X0022484Y0040801D01*
X0022488Y0040692D01*
X0022488Y0040584D01*
X0022484Y0040475D01*
X0022476Y0040367D01*
X0022464Y0040259D01*
X0022448Y0040152D01*
X0022428Y0040045D01*
X0022404Y0039939D01*
X0022377Y0039834D01*
X0022345Y0039731D01*
X0022310Y0039628D01*
X0022271Y0039527D01*
X0022228Y0039427D01*
X0022182Y0039329D01*
X0022132Y0039233D01*
X0022079Y0039138D01*
X0022022Y0039046D01*
X0021962Y0038955D01*
X0021898Y0038867D01*
X0021832Y0038782D01*
X0021762Y0038699D01*
X0021689Y0038618D01*
X0021613Y0038540D01*
X0021535Y0038465D01*
X0021454Y0038393D01*
X0021370Y0038324D01*
X0021284Y0038259D01*
X0021195Y0038196D01*
X0021104Y0038137D01*
X0021012Y0038081D01*
X0020917Y0038028D01*
X0020820Y0037979D01*
X0020721Y0037934D01*
X0020621Y0037892D01*
X0020519Y0037854D01*
X0020417Y0037820D01*
X0020312Y0037789D01*
X0020207Y0037763D01*
X0020101Y0037740D01*
X0019994Y0037721D01*
X0019887Y0037706D01*
X0019779Y0037695D01*
X0019671Y0037688D01*
X0019562Y0037685D01*
X0019454Y0037686D01*
X0019345Y0037691D01*
X0019237Y0037700D01*
X0019129Y0037713D01*
X0019022Y0037730D01*
X0018916Y0037751D01*
X0018810Y0037775D01*
X0018705Y0037804D01*
X0018602Y0037836D01*
X0018500Y0037872D01*
X0018399Y0037912D01*
X0018299Y0037956D01*
X0018202Y0038003D01*
X0018106Y0038054D01*
X0018012Y0038108D01*
X0017920Y0038166D01*
X0017830Y0038227D01*
X0017743Y0038291D01*
X0017658Y0038359D01*
X0017575Y0038429D01*
X0017495Y0038503D01*
X0017418Y0038579D01*
X0017344Y0038658D01*
X0017273Y0038740D01*
X0017205Y0038824D01*
X0017140Y0038911D01*
X0017078Y0039000D01*
X0017019Y0039092D01*
X0016964Y0039185D01*
X0016913Y0039280D01*
X0016864Y0039378D01*
X0016820Y0039477D01*
X0016779Y0039577D01*
X0016742Y0039679D01*
X0016709Y0039782D01*
X0016679Y0039887D01*
X0016653Y0039992D01*
X0016632Y0040099D01*
X0016614Y0040206D01*
X0016600Y0040313D01*
X0016590Y0040421D01*
X0016584Y0040530D01*
X0016582Y0040638D01*
X0016582Y0058354D02*
X0016584Y0058462D01*
X0016590Y0058571D01*
X0016600Y0058679D01*
X0016614Y0058786D01*
X0016632Y0058893D01*
X0016653Y0059000D01*
X0016679Y0059105D01*
X0016709Y0059210D01*
X0016742Y0059313D01*
X0016779Y0059415D01*
X0016820Y0059515D01*
X0016864Y0059614D01*
X0016913Y0059712D01*
X0016964Y0059807D01*
X0017019Y0059900D01*
X0017078Y0059992D01*
X0017140Y0060081D01*
X0017205Y0060168D01*
X0017273Y0060252D01*
X0017344Y0060334D01*
X0017418Y0060413D01*
X0017495Y0060489D01*
X0017575Y0060563D01*
X0017658Y0060633D01*
X0017743Y0060701D01*
X0017830Y0060765D01*
X0017920Y0060826D01*
X0018012Y0060884D01*
X0018106Y0060938D01*
X0018202Y0060989D01*
X0018299Y0061036D01*
X0018399Y0061080D01*
X0018500Y0061120D01*
X0018602Y0061156D01*
X0018705Y0061188D01*
X0018810Y0061217D01*
X0018916Y0061241D01*
X0019022Y0061262D01*
X0019129Y0061279D01*
X0019237Y0061292D01*
X0019345Y0061301D01*
X0019454Y0061306D01*
X0019562Y0061307D01*
X0019671Y0061304D01*
X0019779Y0061297D01*
X0019887Y0061286D01*
X0019994Y0061271D01*
X0020101Y0061252D01*
X0020207Y0061229D01*
X0020312Y0061203D01*
X0020417Y0061172D01*
X0020519Y0061138D01*
X0020621Y0061100D01*
X0020721Y0061058D01*
X0020820Y0061013D01*
X0020917Y0060964D01*
X0021011Y0060911D01*
X0021104Y0060855D01*
X0021195Y0060796D01*
X0021284Y0060733D01*
X0021370Y0060668D01*
X0021454Y0060599D01*
X0021535Y0060527D01*
X0021613Y0060452D01*
X0021689Y0060374D01*
X0021762Y0060293D01*
X0021832Y0060210D01*
X0021898Y0060125D01*
X0021962Y0060037D01*
X0022022Y0059946D01*
X0022079Y0059854D01*
X0022132Y0059759D01*
X0022182Y0059663D01*
X0022228Y0059565D01*
X0022271Y0059465D01*
X0022310Y0059364D01*
X0022345Y0059261D01*
X0022377Y0059158D01*
X0022404Y0059053D01*
X0022428Y0058947D01*
X0022448Y0058840D01*
X0022464Y0058733D01*
X0022476Y0058625D01*
X0022484Y0058517D01*
X0022488Y0058408D01*
X0022488Y0058300D01*
X0022484Y0058191D01*
X0022476Y0058083D01*
X0022464Y0057975D01*
X0022448Y0057868D01*
X0022428Y0057761D01*
X0022404Y0057655D01*
X0022377Y0057550D01*
X0022345Y0057447D01*
X0022310Y0057344D01*
X0022271Y0057243D01*
X0022228Y0057143D01*
X0022182Y0057045D01*
X0022132Y0056949D01*
X0022079Y0056854D01*
X0022022Y0056762D01*
X0021962Y0056671D01*
X0021898Y0056583D01*
X0021832Y0056498D01*
X0021762Y0056415D01*
X0021689Y0056334D01*
X0021613Y0056256D01*
X0021535Y0056181D01*
X0021454Y0056109D01*
X0021370Y0056040D01*
X0021284Y0055975D01*
X0021195Y0055912D01*
X0021104Y0055853D01*
X0021012Y0055797D01*
X0020917Y0055744D01*
X0020820Y0055695D01*
X0020721Y0055650D01*
X0020621Y0055608D01*
X0020519Y0055570D01*
X0020417Y0055536D01*
X0020312Y0055505D01*
X0020207Y0055479D01*
X0020101Y0055456D01*
X0019994Y0055437D01*
X0019887Y0055422D01*
X0019779Y0055411D01*
X0019671Y0055404D01*
X0019562Y0055401D01*
X0019454Y0055402D01*
X0019345Y0055407D01*
X0019237Y0055416D01*
X0019129Y0055429D01*
X0019022Y0055446D01*
X0018916Y0055467D01*
X0018810Y0055491D01*
X0018705Y0055520D01*
X0018602Y0055552D01*
X0018500Y0055588D01*
X0018399Y0055628D01*
X0018299Y0055672D01*
X0018202Y0055719D01*
X0018106Y0055770D01*
X0018012Y0055824D01*
X0017920Y0055882D01*
X0017830Y0055943D01*
X0017743Y0056007D01*
X0017658Y0056075D01*
X0017575Y0056145D01*
X0017495Y0056219D01*
X0017418Y0056295D01*
X0017344Y0056374D01*
X0017273Y0056456D01*
X0017205Y0056540D01*
X0017140Y0056627D01*
X0017078Y0056716D01*
X0017019Y0056808D01*
X0016964Y0056901D01*
X0016913Y0056996D01*
X0016864Y0057094D01*
X0016820Y0057193D01*
X0016779Y0057293D01*
X0016742Y0057395D01*
X0016709Y0057498D01*
X0016679Y0057603D01*
X0016653Y0057708D01*
X0016632Y0057815D01*
X0016614Y0057922D01*
X0016600Y0058029D01*
X0016590Y0058137D01*
X0016584Y0058246D01*
X0016582Y0058354D01*
D11*
X0035680Y0059834D02*
X0036122Y0059392D01*
X0037006Y0059392D01*
X0037448Y0059834D01*
X0037448Y0060718D02*
X0036564Y0061160D01*
X0036122Y0061160D01*
X0035680Y0060718D01*
X0035680Y0059834D01*
X0037448Y0060718D02*
X0037448Y0062044D01*
X0035680Y0062044D01*
X0038581Y0061602D02*
X0039022Y0062044D01*
X0039906Y0062044D01*
X0040348Y0061602D01*
X0040348Y0059834D01*
X0039906Y0059392D01*
X0039022Y0059392D01*
X0038581Y0059834D01*
X0063436Y0055548D02*
X0065204Y0055548D01*
X0065204Y0054222D01*
X0064320Y0054664D01*
X0063878Y0054664D01*
X0063436Y0054222D01*
X0063436Y0053338D01*
X0063878Y0052896D01*
X0064762Y0052896D01*
X0065204Y0053338D01*
X0066336Y0052896D02*
X0067220Y0053780D01*
X0066778Y0053780D02*
X0068104Y0053780D01*
X0068104Y0052896D02*
X0068104Y0055548D01*
X0066778Y0055548D01*
X0066336Y0055106D01*
X0066336Y0054222D01*
X0066778Y0053780D01*
X0080063Y0055700D02*
X0080063Y0056142D01*
X0080505Y0056584D01*
X0081831Y0056584D01*
X0081831Y0055700D01*
X0081389Y0055258D01*
X0080505Y0055258D01*
X0080063Y0055700D01*
X0080947Y0057468D02*
X0081831Y0056584D01*
X0082963Y0056584D02*
X0083405Y0056142D01*
X0084731Y0056142D01*
X0083847Y0056142D02*
X0082963Y0055258D01*
X0082963Y0056584D02*
X0082963Y0057468D01*
X0083405Y0057910D01*
X0084731Y0057910D01*
X0084731Y0055258D01*
X0080947Y0057468D02*
X0080063Y0057910D01*
X0082426Y0050823D02*
X0082426Y0050381D01*
X0084193Y0048613D01*
X0084193Y0048171D01*
X0085326Y0048171D02*
X0087094Y0048171D01*
X0086210Y0048171D02*
X0086210Y0050823D01*
X0087094Y0049939D01*
X0088226Y0050381D02*
X0088668Y0050823D01*
X0089552Y0050823D01*
X0089994Y0050381D01*
X0089994Y0048613D01*
X0089552Y0048171D01*
X0088668Y0048171D01*
X0088226Y0048613D01*
X0084193Y0050823D02*
X0082426Y0050823D01*
X0069681Y0044125D02*
X0069239Y0043241D01*
X0068355Y0042357D01*
X0068355Y0043683D01*
X0067913Y0044125D01*
X0067472Y0044125D01*
X0067030Y0043683D01*
X0067030Y0042799D01*
X0067472Y0042357D01*
X0068355Y0042357D01*
X0067030Y0041225D02*
X0067030Y0039457D01*
X0067030Y0040341D02*
X0069681Y0040341D01*
X0068797Y0039457D01*
X0069239Y0038325D02*
X0069681Y0037883D01*
X0069681Y0036999D01*
X0069239Y0036557D01*
X0067472Y0036557D01*
X0067030Y0036999D01*
X0067030Y0037883D01*
X0067472Y0038325D01*
X0068156Y0032122D02*
X0067714Y0031680D01*
X0067714Y0030796D01*
X0068156Y0030354D01*
X0069482Y0030354D01*
X0069482Y0029470D02*
X0069482Y0032122D01*
X0068156Y0032122D01*
X0066582Y0031680D02*
X0066582Y0031238D01*
X0066140Y0030796D01*
X0064814Y0030796D01*
X0064814Y0029912D02*
X0064814Y0031680D01*
X0065256Y0032122D01*
X0066140Y0032122D01*
X0066582Y0031680D01*
X0066582Y0029912D02*
X0066140Y0029470D01*
X0065256Y0029470D01*
X0064814Y0029912D01*
X0067714Y0029470D02*
X0068598Y0030354D01*
X0068104Y0026020D02*
X0066778Y0026020D01*
X0066336Y0025578D01*
X0066336Y0024694D01*
X0066778Y0024252D01*
X0068104Y0024252D01*
X0067220Y0024252D02*
X0066336Y0023368D01*
X0065204Y0023810D02*
X0064762Y0023368D01*
X0063878Y0023368D01*
X0063436Y0023810D01*
X0063436Y0024252D01*
X0063878Y0024694D01*
X0064762Y0024694D01*
X0065204Y0025136D01*
X0065204Y0025578D01*
X0064762Y0026020D01*
X0063878Y0026020D01*
X0063436Y0025578D01*
X0063436Y0025136D01*
X0063878Y0024694D01*
X0064762Y0024694D02*
X0065204Y0024252D01*
X0065204Y0023810D01*
X0068104Y0023368D02*
X0068104Y0026020D01*
X0072885Y0016177D02*
X0072885Y0015735D01*
X0074653Y0013968D01*
X0074653Y0013526D01*
X0075785Y0013526D02*
X0076669Y0014410D01*
X0076227Y0014410D02*
X0077553Y0014410D01*
X0077553Y0013526D02*
X0077553Y0016177D01*
X0076227Y0016177D01*
X0075785Y0015735D01*
X0075785Y0014852D01*
X0076227Y0014410D01*
X0074653Y0016177D02*
X0072885Y0016177D01*
X0047723Y0013815D02*
X0047723Y0011163D01*
X0047723Y0012047D02*
X0046398Y0012047D01*
X0045956Y0012489D01*
X0045956Y0013373D01*
X0046398Y0013815D01*
X0047723Y0013815D01*
X0046839Y0012047D02*
X0045956Y0011163D01*
X0044823Y0011163D02*
X0043055Y0012931D01*
X0043055Y0013373D01*
X0043497Y0013815D01*
X0044381Y0013815D01*
X0044823Y0013373D01*
X0044823Y0011163D02*
X0043055Y0011163D01*
X0034443Y0023171D02*
X0034443Y0025823D01*
X0033117Y0025823D01*
X0032675Y0025381D01*
X0032675Y0024497D01*
X0033117Y0024055D01*
X0034443Y0024055D01*
X0033559Y0024055D02*
X0032675Y0023171D01*
X0031543Y0023613D02*
X0031101Y0023171D01*
X0030217Y0023171D01*
X0029775Y0023613D01*
X0029775Y0024055D01*
X0030217Y0024497D01*
X0030659Y0024497D01*
X0030217Y0024497D02*
X0029775Y0024939D01*
X0029775Y0025381D01*
X0030217Y0025823D01*
X0031101Y0025823D01*
X0031543Y0025381D01*
X0038830Y0043841D02*
X0040598Y0043841D01*
X0039714Y0043841D02*
X0039714Y0046492D01*
X0040598Y0045608D01*
X0041730Y0046050D02*
X0041730Y0044283D01*
X0042172Y0043841D01*
X0043498Y0043841D01*
X0043498Y0046492D01*
X0042172Y0046492D01*
X0041730Y0046050D01*
X0084630Y0039615D02*
X0086398Y0039615D01*
X0085072Y0040941D01*
X0085072Y0038289D01*
X0087530Y0038289D02*
X0089298Y0038289D01*
X0088414Y0038289D02*
X0088414Y0040941D01*
X0089298Y0040057D01*
X0090430Y0040499D02*
X0090872Y0040941D01*
X0091756Y0040941D01*
X0092198Y0040499D01*
X0092198Y0038731D01*
X0091756Y0038289D01*
X0090872Y0038289D01*
X0090430Y0038731D01*
X0098919Y0039260D02*
X0098919Y0041028D01*
X0098919Y0040144D02*
X0101571Y0040144D01*
X0100687Y0039260D01*
X0101129Y0038128D02*
X0101571Y0037686D01*
X0101571Y0036802D01*
X0101129Y0036360D01*
X0099361Y0036360D01*
X0098919Y0036802D01*
X0098919Y0037686D01*
X0099361Y0038128D01*
X0098919Y0042160D02*
X0100687Y0043928D01*
X0101129Y0043928D01*
X0101571Y0043486D01*
X0101571Y0042602D01*
X0101129Y0042160D01*
X0098919Y0042160D02*
X0098919Y0043928D01*
X0113331Y0051911D02*
X0115099Y0051911D01*
X0114215Y0051911D02*
X0114215Y0054563D01*
X0115099Y0053679D01*
X0117115Y0054563D02*
X0117115Y0051911D01*
X0117999Y0051911D02*
X0116231Y0051911D01*
X0119131Y0052353D02*
X0119573Y0051911D01*
X0120457Y0051911D01*
X0120899Y0052353D01*
X0120899Y0054121D01*
X0120457Y0054563D01*
X0119573Y0054563D01*
X0119131Y0054121D01*
X0117999Y0053679D02*
X0117115Y0054563D01*
X0120811Y0050333D02*
X0122579Y0048565D01*
X0123712Y0049449D02*
X0125479Y0049449D01*
X0125479Y0049891D02*
X0125037Y0050333D01*
X0124154Y0050333D01*
X0123712Y0049891D01*
X0123712Y0049449D01*
X0124154Y0048565D02*
X0125037Y0048565D01*
X0125479Y0049007D01*
X0125479Y0049891D01*
X0126529Y0050333D02*
X0127413Y0050333D01*
X0126971Y0050775D02*
X0126971Y0049007D01*
X0126529Y0048565D01*
X0128946Y0050333D02*
X0129830Y0049449D01*
X0129830Y0048565D02*
X0129830Y0050333D01*
X0128946Y0050333D02*
X0128504Y0050333D01*
X0130962Y0049891D02*
X0131404Y0050333D01*
X0132288Y0050333D01*
X0132730Y0049891D01*
X0132730Y0049007D01*
X0132288Y0048565D01*
X0131404Y0048565D01*
X0130962Y0049007D01*
X0130962Y0049891D01*
X0133862Y0050775D02*
X0134304Y0051217D01*
X0135188Y0051217D01*
X0135630Y0050775D01*
X0135630Y0049007D01*
X0135188Y0048565D01*
X0134304Y0048565D01*
X0133862Y0049007D01*
X0139662Y0048565D02*
X0139662Y0051217D01*
X0140546Y0050333D01*
X0141430Y0051217D01*
X0141430Y0048565D01*
X0142562Y0048565D02*
X0143446Y0049449D01*
X0143004Y0049449D02*
X0144330Y0049449D01*
X0144330Y0048565D02*
X0144330Y0051217D01*
X0143004Y0051217D01*
X0142562Y0050775D01*
X0142562Y0049891D01*
X0143004Y0049449D01*
X0145462Y0049891D02*
X0147230Y0049891D01*
X0147230Y0050333D02*
X0147230Y0048565D01*
X0145462Y0048565D02*
X0145462Y0050333D01*
X0146346Y0051217D01*
X0147230Y0050333D01*
X0151263Y0050333D02*
X0152589Y0050333D01*
X0153031Y0049891D01*
X0153031Y0049007D01*
X0152589Y0048565D01*
X0151263Y0048565D01*
X0151263Y0051217D01*
X0154163Y0049891D02*
X0154163Y0049449D01*
X0155931Y0049449D01*
X0155931Y0049891D02*
X0155489Y0050333D01*
X0154605Y0050333D01*
X0154163Y0049891D01*
X0154605Y0048565D02*
X0155489Y0048565D01*
X0155931Y0049007D01*
X0155931Y0049891D01*
X0156980Y0050333D02*
X0157864Y0050333D01*
X0157422Y0050775D02*
X0157422Y0049007D01*
X0156980Y0048565D01*
X0158996Y0048565D02*
X0158996Y0049891D01*
X0159438Y0050333D01*
X0160322Y0050333D01*
X0160322Y0049449D02*
X0158996Y0049449D01*
X0158996Y0048565D02*
X0160322Y0048565D01*
X0160764Y0049007D01*
X0160322Y0049449D01*
X0161814Y0048565D02*
X0162698Y0048565D01*
X0162256Y0048565D02*
X0162256Y0051217D01*
X0162698Y0051217D01*
X0163830Y0049891D02*
X0164272Y0050333D01*
X0165156Y0050333D01*
X0165598Y0049891D01*
X0165598Y0049007D01*
X0165156Y0048565D01*
X0164272Y0048565D01*
X0163830Y0049007D01*
X0163830Y0049891D01*
X0166730Y0050333D02*
X0168056Y0050333D01*
X0168498Y0049891D01*
X0168056Y0049449D01*
X0167172Y0049449D01*
X0166730Y0049007D01*
X0167172Y0048565D01*
X0168498Y0048565D01*
X0169547Y0048565D02*
X0170431Y0048565D01*
X0169989Y0048565D02*
X0169989Y0051217D01*
X0170431Y0051217D02*
X0169547Y0051217D01*
X0176692Y0052550D02*
X0176692Y0054318D01*
X0177134Y0054760D01*
X0178018Y0054760D01*
X0178460Y0054318D01*
X0178460Y0052550D01*
X0178018Y0052108D01*
X0177134Y0052108D01*
X0176692Y0052550D01*
X0179592Y0052550D02*
X0179592Y0054318D01*
X0180034Y0054760D01*
X0181360Y0054760D01*
X0181360Y0052108D01*
X0180034Y0052108D01*
X0179592Y0052550D01*
X0182492Y0054760D02*
X0184260Y0054760D01*
X0183376Y0054760D02*
X0183376Y0052108D01*
X0188292Y0052550D02*
X0188292Y0054318D01*
X0188734Y0054760D01*
X0189618Y0054760D01*
X0190060Y0054318D01*
X0190060Y0052550D01*
X0189618Y0052108D01*
X0188734Y0052108D01*
X0188292Y0052550D01*
X0191192Y0052108D02*
X0191192Y0054760D01*
X0192960Y0054760D02*
X0192960Y0052108D01*
X0192076Y0052992D01*
X0191192Y0052108D01*
X0194092Y0052550D02*
X0194534Y0052108D01*
X0195418Y0052108D01*
X0195860Y0052550D01*
X0195418Y0053434D02*
X0194534Y0053434D01*
X0194092Y0052992D01*
X0194092Y0052550D01*
X0195418Y0053434D02*
X0195860Y0053876D01*
X0195860Y0054318D01*
X0195418Y0054760D01*
X0194534Y0054760D01*
X0194092Y0054318D01*
X0194534Y0062148D02*
X0195418Y0062148D01*
X0195860Y0062590D01*
X0195418Y0063474D02*
X0194534Y0063474D01*
X0194092Y0063032D01*
X0194092Y0062590D01*
X0194534Y0062148D01*
X0192960Y0062148D02*
X0192076Y0063032D01*
X0191192Y0062148D01*
X0191192Y0064800D01*
X0190060Y0064358D02*
X0190060Y0062590D01*
X0189618Y0062148D01*
X0188734Y0062148D01*
X0188292Y0062590D01*
X0187160Y0062148D02*
X0185392Y0062148D01*
X0184260Y0062148D02*
X0184260Y0064800D01*
X0183818Y0063474D02*
X0182492Y0062148D01*
X0184260Y0063032D02*
X0182492Y0064800D01*
X0178460Y0064800D02*
X0176692Y0064800D01*
X0177576Y0064800D02*
X0177576Y0062148D01*
X0175559Y0062590D02*
X0175117Y0062148D01*
X0174234Y0062148D01*
X0173792Y0062590D01*
X0172659Y0063032D02*
X0170891Y0064800D01*
X0172659Y0064800D02*
X0172659Y0062148D01*
X0172217Y0063474D02*
X0170891Y0062148D01*
X0173792Y0064358D02*
X0174234Y0064800D01*
X0175117Y0064800D01*
X0175559Y0064358D01*
X0175559Y0062590D01*
X0166372Y0060027D02*
X0166372Y0058259D01*
X0165930Y0057817D01*
X0165046Y0057817D01*
X0164604Y0058259D01*
X0163471Y0057817D02*
X0161704Y0057817D01*
X0160571Y0058259D02*
X0160129Y0057817D01*
X0159245Y0057817D01*
X0158803Y0058259D01*
X0158803Y0059143D01*
X0159245Y0059585D01*
X0159687Y0059585D01*
X0160571Y0059143D01*
X0160571Y0060469D01*
X0158803Y0060469D01*
X0161704Y0060027D02*
X0161704Y0059585D01*
X0163471Y0057817D01*
X0163471Y0060027D02*
X0163030Y0060469D01*
X0162146Y0060469D01*
X0161704Y0060027D01*
X0164604Y0060027D02*
X0165046Y0060469D01*
X0165930Y0060469D01*
X0166372Y0060027D01*
X0153773Y0063968D02*
X0153331Y0063526D01*
X0152447Y0063526D01*
X0152005Y0063968D01*
X0150873Y0063526D02*
X0149105Y0063526D01*
X0147973Y0063968D02*
X0146205Y0065735D01*
X0146205Y0063968D01*
X0146647Y0063526D01*
X0147531Y0063526D01*
X0147973Y0063968D01*
X0147973Y0065735D01*
X0147531Y0066177D01*
X0146647Y0066177D01*
X0146205Y0065735D01*
X0143735Y0065100D02*
X0142410Y0065100D01*
X0141968Y0065542D01*
X0141968Y0065984D01*
X0142410Y0066426D01*
X0143735Y0066426D01*
X0142410Y0066426D02*
X0141968Y0066868D01*
X0141968Y0067310D01*
X0142410Y0067752D01*
X0143735Y0067752D01*
X0143735Y0065100D01*
X0140835Y0065100D02*
X0139951Y0065100D01*
X0140393Y0065100D02*
X0140393Y0067752D01*
X0140835Y0067752D01*
X0138460Y0066868D02*
X0137576Y0066868D01*
X0137134Y0066426D01*
X0137134Y0065100D01*
X0138460Y0065100D01*
X0138902Y0065542D01*
X0138460Y0065984D01*
X0137134Y0065984D01*
X0136002Y0065542D02*
X0135560Y0065100D01*
X0134234Y0065100D01*
X0133102Y0065100D02*
X0133102Y0067752D01*
X0134234Y0066868D02*
X0135560Y0066868D01*
X0136002Y0066426D01*
X0136002Y0065542D01*
X0133102Y0065984D02*
X0131776Y0066868D01*
X0130685Y0066868D02*
X0130243Y0066426D01*
X0129359Y0066426D01*
X0128917Y0065984D01*
X0128917Y0065542D01*
X0129359Y0065100D01*
X0130243Y0065100D01*
X0130685Y0065542D01*
X0131776Y0065100D02*
X0133102Y0065984D01*
X0130685Y0066868D02*
X0130685Y0067310D01*
X0130243Y0067752D01*
X0129359Y0067752D01*
X0128917Y0067310D01*
X0127785Y0066868D02*
X0126459Y0066868D01*
X0126017Y0066426D01*
X0126017Y0065542D01*
X0126459Y0065100D01*
X0127785Y0065100D01*
X0127785Y0064216D02*
X0127785Y0066868D01*
X0124885Y0066426D02*
X0124443Y0066868D01*
X0123559Y0066868D01*
X0123117Y0066426D01*
X0123117Y0065100D01*
X0121985Y0065542D02*
X0121985Y0066426D01*
X0121543Y0066868D01*
X0120659Y0066868D01*
X0120217Y0066426D01*
X0120217Y0065984D01*
X0121985Y0065984D01*
X0121985Y0065542D02*
X0121543Y0065100D01*
X0120659Y0065100D01*
X0119085Y0065100D02*
X0119085Y0066868D01*
X0119085Y0065984D02*
X0118201Y0066868D01*
X0117759Y0066868D01*
X0116668Y0066426D02*
X0116226Y0066868D01*
X0115342Y0066868D01*
X0114900Y0066426D01*
X0114900Y0065984D01*
X0116668Y0065984D01*
X0116668Y0065542D02*
X0116668Y0066426D01*
X0116668Y0065542D02*
X0116226Y0065100D01*
X0115342Y0065100D01*
X0112884Y0065100D02*
X0112884Y0067752D01*
X0113768Y0067752D02*
X0112000Y0067752D01*
X0110868Y0066426D02*
X0110426Y0066868D01*
X0109542Y0066868D01*
X0109100Y0066426D01*
X0109100Y0065984D01*
X0110868Y0065984D01*
X0110868Y0065542D02*
X0110868Y0066426D01*
X0110868Y0065542D02*
X0110426Y0065100D01*
X0109542Y0065100D01*
X0107967Y0065542D02*
X0107967Y0066426D01*
X0107525Y0066868D01*
X0106200Y0066868D01*
X0105067Y0066426D02*
X0104625Y0066868D01*
X0103741Y0066868D01*
X0103299Y0066426D01*
X0103299Y0065100D01*
X0102167Y0065100D02*
X0102167Y0066868D01*
X0100841Y0066868D01*
X0100399Y0066426D01*
X0100399Y0065100D01*
X0099267Y0065542D02*
X0098825Y0065100D01*
X0097941Y0065100D01*
X0097499Y0065542D01*
X0097499Y0066426D01*
X0097941Y0066868D01*
X0098825Y0066868D01*
X0099267Y0066426D01*
X0099267Y0065542D01*
X0096367Y0065100D02*
X0095483Y0065100D01*
X0095925Y0065100D02*
X0095925Y0067752D01*
X0096367Y0067752D01*
X0094434Y0066426D02*
X0094434Y0065542D01*
X0093992Y0065100D01*
X0093108Y0065100D01*
X0092666Y0065542D01*
X0092666Y0066426D01*
X0093108Y0066868D01*
X0093992Y0066868D01*
X0094434Y0066426D01*
X0091533Y0066426D02*
X0091533Y0065542D01*
X0091091Y0065100D01*
X0089766Y0065100D01*
X0089766Y0064658D02*
X0089766Y0066868D01*
X0091091Y0066868D01*
X0091533Y0066426D01*
X0088633Y0066868D02*
X0088191Y0066868D01*
X0088191Y0065100D01*
X0088633Y0065100D02*
X0087749Y0065100D01*
X0086700Y0065542D02*
X0086700Y0066426D01*
X0086258Y0066868D01*
X0085374Y0066868D01*
X0084932Y0066426D01*
X0084932Y0065984D01*
X0086700Y0065984D01*
X0086700Y0065542D02*
X0086258Y0065100D01*
X0085374Y0065100D01*
X0083800Y0065100D02*
X0082474Y0065100D01*
X0082032Y0065542D01*
X0082474Y0065984D01*
X0083358Y0065984D01*
X0083800Y0066426D01*
X0083358Y0066868D01*
X0082032Y0066868D01*
X0088191Y0067752D02*
X0088191Y0068194D01*
X0089766Y0064658D02*
X0090208Y0064216D01*
X0090650Y0064216D01*
X0103783Y0063028D02*
X0103783Y0060376D01*
X0105109Y0060376D01*
X0105551Y0060818D01*
X0105551Y0061702D01*
X0105109Y0062144D01*
X0103783Y0062144D01*
X0106683Y0061702D02*
X0106683Y0061260D01*
X0108451Y0061260D01*
X0108451Y0061702D02*
X0108009Y0062144D01*
X0107125Y0062144D01*
X0106683Y0061702D01*
X0107125Y0060376D02*
X0108009Y0060376D01*
X0108451Y0060818D01*
X0108451Y0061702D01*
X0109542Y0062144D02*
X0109984Y0062144D01*
X0110868Y0061260D01*
X0110868Y0060376D02*
X0110868Y0062144D01*
X0112000Y0061702D02*
X0112000Y0060376D01*
X0113326Y0060376D01*
X0113768Y0060818D01*
X0113326Y0061260D01*
X0112000Y0061260D01*
X0112000Y0061702D02*
X0112442Y0062144D01*
X0113326Y0062144D01*
X0114900Y0062144D02*
X0114900Y0060376D01*
X0116226Y0060376D01*
X0116668Y0060818D01*
X0116668Y0062144D01*
X0117800Y0062144D02*
X0119126Y0062144D01*
X0119568Y0061702D01*
X0119568Y0060818D01*
X0119126Y0060376D01*
X0117800Y0060376D01*
X0117800Y0059492D02*
X0117800Y0062144D01*
X0120700Y0062586D02*
X0121142Y0063028D01*
X0122026Y0063028D01*
X0122468Y0062586D01*
X0122468Y0062144D01*
X0122026Y0061702D01*
X0121142Y0061702D01*
X0120700Y0061260D01*
X0120700Y0060818D01*
X0121142Y0060376D01*
X0122026Y0060376D01*
X0122468Y0060818D01*
X0123517Y0060376D02*
X0123959Y0060818D01*
X0123959Y0062586D01*
X0124401Y0062144D02*
X0123517Y0062144D01*
X0125893Y0062144D02*
X0125893Y0060376D01*
X0126335Y0060376D02*
X0125451Y0060376D01*
X0127467Y0060818D02*
X0127467Y0061260D01*
X0127909Y0061702D01*
X0129235Y0061702D01*
X0129235Y0060376D02*
X0129235Y0063028D01*
X0127909Y0063028D01*
X0127467Y0062586D01*
X0127467Y0062144D01*
X0127909Y0061702D01*
X0127467Y0060818D02*
X0127909Y0060376D01*
X0129235Y0060376D01*
X0130367Y0060376D02*
X0132135Y0060376D01*
X0131251Y0060376D02*
X0131251Y0063028D01*
X0132135Y0062144D01*
X0136167Y0062144D02*
X0137493Y0062144D01*
X0137935Y0061702D01*
X0137935Y0060818D01*
X0137493Y0060376D01*
X0136167Y0060376D01*
X0136167Y0063028D01*
X0139067Y0061702D02*
X0139067Y0060376D01*
X0139067Y0061702D02*
X0139509Y0062144D01*
X0140835Y0062144D01*
X0140835Y0060376D01*
X0141968Y0060376D02*
X0141968Y0061702D01*
X0142410Y0062144D01*
X0143293Y0062144D01*
X0143293Y0061260D02*
X0141968Y0061260D01*
X0141968Y0060376D02*
X0143293Y0060376D01*
X0143735Y0060818D01*
X0143293Y0061260D01*
X0149105Y0065294D02*
X0149105Y0065735D01*
X0149547Y0066177D01*
X0150431Y0066177D01*
X0150873Y0065735D01*
X0152005Y0065735D02*
X0152447Y0066177D01*
X0153331Y0066177D01*
X0153773Y0065735D01*
X0153773Y0063968D01*
X0150873Y0063526D02*
X0149105Y0065294D01*
X0143735Y0069825D02*
X0143735Y0072477D01*
X0142410Y0072477D01*
X0141968Y0072035D01*
X0141968Y0071151D01*
X0142410Y0070709D01*
X0143735Y0070709D01*
X0140835Y0070709D02*
X0139951Y0071593D01*
X0139509Y0071593D01*
X0138419Y0071151D02*
X0138419Y0070267D01*
X0137977Y0069825D01*
X0137093Y0069825D01*
X0136651Y0070267D01*
X0136651Y0071151D01*
X0137093Y0071593D01*
X0137977Y0071593D01*
X0138419Y0071151D01*
X0140835Y0071593D02*
X0140835Y0069825D01*
X0135518Y0069825D02*
X0135518Y0072477D01*
X0135518Y0071593D02*
X0134193Y0071593D01*
X0133751Y0071151D01*
X0133751Y0070267D01*
X0134193Y0069825D01*
X0135518Y0069825D01*
X0132618Y0070267D02*
X0132618Y0071151D01*
X0132176Y0071593D01*
X0131292Y0071593D01*
X0130850Y0071151D01*
X0130850Y0070709D01*
X0132618Y0070709D01*
X0132618Y0070267D02*
X0132176Y0069825D01*
X0131292Y0069825D01*
X0126818Y0071593D02*
X0125934Y0069825D01*
X0125050Y0071593D01*
X0123918Y0072035D02*
X0123476Y0072477D01*
X0122592Y0072477D01*
X0122150Y0072035D01*
X0122150Y0071593D01*
X0123918Y0069825D01*
X0122150Y0069825D01*
X0121018Y0069825D02*
X0120576Y0069825D01*
X0120576Y0070267D01*
X0121018Y0070267D01*
X0121018Y0069825D01*
X0119568Y0069825D02*
X0117800Y0069825D01*
X0118684Y0069825D02*
X0118684Y0072477D01*
X0119568Y0071593D01*
X0113768Y0071593D02*
X0112442Y0071593D01*
X0112000Y0071151D01*
X0112000Y0070267D01*
X0112442Y0069825D01*
X0113768Y0069825D01*
X0113768Y0072477D01*
X0113850Y0074549D02*
X0114734Y0074549D01*
X0114292Y0074549D02*
X0114292Y0077201D01*
X0114734Y0077201D01*
X0115867Y0076759D02*
X0115867Y0076317D01*
X0116309Y0075875D01*
X0117634Y0075875D01*
X0116309Y0075875D02*
X0115867Y0075433D01*
X0115867Y0074991D01*
X0116309Y0074549D01*
X0117634Y0074549D01*
X0117634Y0077201D01*
X0116309Y0077201D01*
X0115867Y0076759D01*
X0112359Y0076317D02*
X0111475Y0076317D01*
X0111033Y0075875D01*
X0111033Y0074549D01*
X0112359Y0074549D01*
X0112801Y0074991D01*
X0112359Y0075433D01*
X0111033Y0075433D01*
X0109901Y0074991D02*
X0109459Y0074549D01*
X0108133Y0074549D01*
X0107001Y0074549D02*
X0107001Y0077201D01*
X0108133Y0076317D02*
X0109459Y0076317D01*
X0109901Y0075875D01*
X0109901Y0074991D01*
X0107001Y0075433D02*
X0105675Y0074549D01*
X0107001Y0075433D02*
X0105675Y0076317D01*
X0101684Y0077201D02*
X0101684Y0074549D01*
X0099916Y0074549D02*
X0099916Y0077201D01*
X0100800Y0076317D01*
X0101684Y0077201D01*
X0098342Y0076317D02*
X0097458Y0076317D01*
X0097016Y0075875D01*
X0097016Y0074549D01*
X0098342Y0074549D01*
X0098784Y0074991D01*
X0098342Y0075433D01*
X0097016Y0075433D01*
X0095884Y0074991D02*
X0095442Y0074549D01*
X0094116Y0074549D01*
X0094116Y0074107D02*
X0094116Y0076317D01*
X0095442Y0076317D01*
X0095884Y0075875D01*
X0095884Y0074991D01*
X0095000Y0073665D02*
X0094558Y0073665D01*
X0094116Y0074107D01*
X0092984Y0074549D02*
X0092100Y0074549D01*
X0092542Y0074549D02*
X0092542Y0076317D01*
X0092984Y0076317D01*
X0092542Y0077201D02*
X0092542Y0077643D01*
X0091050Y0075875D02*
X0091050Y0074991D01*
X0090608Y0074549D01*
X0089282Y0074549D01*
X0089282Y0076317D02*
X0090608Y0076317D01*
X0091050Y0075875D01*
X0076175Y0078928D02*
X0075733Y0078486D01*
X0074849Y0078486D01*
X0074407Y0078928D01*
X0073275Y0078486D02*
X0071507Y0078486D01*
X0072391Y0078486D02*
X0072391Y0081138D01*
X0073275Y0080254D01*
X0074407Y0080696D02*
X0074849Y0081138D01*
X0075733Y0081138D01*
X0076175Y0080696D01*
X0076175Y0078928D01*
X0070375Y0078928D02*
X0069933Y0078486D01*
X0069049Y0078486D01*
X0068607Y0078928D01*
X0068607Y0079812D01*
X0069049Y0080254D01*
X0069491Y0080254D01*
X0070375Y0079812D01*
X0070375Y0081138D01*
X0068607Y0081138D01*
X0048511Y0080696D02*
X0048511Y0078928D01*
X0048069Y0078486D01*
X0047185Y0078486D01*
X0046743Y0078928D01*
X0045611Y0078928D02*
X0045611Y0078486D01*
X0045611Y0078928D02*
X0043843Y0080696D01*
X0043843Y0081138D01*
X0045611Y0081138D01*
X0046743Y0080696D02*
X0047185Y0081138D01*
X0048069Y0081138D01*
X0048511Y0080696D01*
X0105067Y0067752D02*
X0105067Y0065100D01*
X0106200Y0065100D02*
X0107525Y0065100D01*
X0107967Y0065542D01*
X0109542Y0068941D02*
X0109100Y0069383D01*
X0109100Y0071593D01*
X0110868Y0071593D02*
X0110868Y0070267D01*
X0110426Y0069825D01*
X0109100Y0069825D01*
X0109542Y0068941D02*
X0109984Y0068941D01*
X0121667Y0074549D02*
X0121667Y0075875D01*
X0122109Y0076317D01*
X0123435Y0076317D01*
X0123435Y0074549D01*
X0124567Y0074991D02*
X0124567Y0075875D01*
X0125009Y0076317D01*
X0125893Y0076317D01*
X0126335Y0075875D01*
X0126335Y0074991D01*
X0125893Y0074549D01*
X0125009Y0074549D01*
X0124567Y0074991D01*
X0130367Y0074549D02*
X0130367Y0077201D01*
X0130367Y0076317D02*
X0131693Y0076317D01*
X0132135Y0075875D01*
X0132135Y0074991D01*
X0131693Y0074549D01*
X0130367Y0074549D01*
X0133267Y0075433D02*
X0133267Y0075875D01*
X0133709Y0076317D01*
X0134593Y0076317D01*
X0135035Y0075875D01*
X0135035Y0074991D01*
X0134593Y0074549D01*
X0133709Y0074549D01*
X0133267Y0075433D02*
X0135035Y0075433D01*
X0136167Y0074991D02*
X0136609Y0075433D01*
X0137493Y0075433D01*
X0137935Y0075875D01*
X0137493Y0076317D01*
X0136167Y0076317D01*
X0136167Y0074991D02*
X0136609Y0074549D01*
X0137935Y0074549D01*
X0139067Y0074549D02*
X0140393Y0074549D01*
X0140835Y0074991D01*
X0140393Y0075433D01*
X0139067Y0075433D01*
X0139067Y0075875D02*
X0139067Y0074549D01*
X0139067Y0075875D02*
X0139509Y0076317D01*
X0140393Y0076317D01*
X0141968Y0076317D02*
X0141968Y0076759D01*
X0142410Y0077201D01*
X0143735Y0077201D01*
X0143735Y0074549D01*
X0142410Y0074549D01*
X0141968Y0074991D01*
X0141968Y0075433D01*
X0142410Y0075875D01*
X0143735Y0075875D01*
X0142410Y0075875D02*
X0141968Y0076317D01*
X0141590Y0079077D02*
X0139822Y0079077D01*
X0138690Y0079077D02*
X0138690Y0079519D01*
X0136922Y0081287D01*
X0136922Y0081729D01*
X0138690Y0081729D01*
X0139822Y0081287D02*
X0140264Y0081729D01*
X0141148Y0081729D01*
X0141590Y0081287D01*
X0142722Y0080845D02*
X0144490Y0079077D01*
X0145622Y0079519D02*
X0146064Y0079077D01*
X0146948Y0079077D01*
X0147390Y0079519D01*
X0145622Y0081287D01*
X0145622Y0079519D01*
X0144490Y0080845D02*
X0142722Y0079077D01*
X0141590Y0079077D02*
X0139822Y0080845D01*
X0139822Y0081287D01*
X0135790Y0081287D02*
X0135348Y0081729D01*
X0134464Y0081729D01*
X0134022Y0081287D01*
X0134022Y0080845D01*
X0134464Y0080403D01*
X0134022Y0079961D01*
X0134022Y0079519D01*
X0134464Y0079077D01*
X0135348Y0079077D01*
X0135790Y0079519D01*
X0134906Y0080403D02*
X0134464Y0080403D01*
X0132890Y0079519D02*
X0132890Y0081287D01*
X0132448Y0081729D01*
X0131564Y0081729D01*
X0131122Y0081287D01*
X0132890Y0079519D01*
X0132448Y0079077D01*
X0131564Y0079077D01*
X0131122Y0079519D01*
X0131122Y0081287D01*
X0130956Y0083801D02*
X0129189Y0083801D01*
X0130072Y0083801D02*
X0130072Y0086453D01*
X0130956Y0085569D01*
X0132089Y0085569D02*
X0132973Y0083801D01*
X0133857Y0085569D01*
X0137889Y0085127D02*
X0137889Y0084685D01*
X0139657Y0084685D01*
X0139657Y0084243D02*
X0139657Y0085127D01*
X0139215Y0085569D01*
X0138331Y0085569D01*
X0137889Y0085127D01*
X0138331Y0083801D02*
X0139215Y0083801D01*
X0139657Y0084243D01*
X0140789Y0084243D02*
X0140789Y0085127D01*
X0141231Y0085569D01*
X0142557Y0085569D01*
X0142557Y0086453D02*
X0142557Y0083801D01*
X0141231Y0083801D01*
X0140789Y0084243D01*
X0143689Y0084243D02*
X0143689Y0085127D01*
X0144131Y0085569D01*
X0145015Y0085569D01*
X0145457Y0085127D01*
X0145457Y0084243D01*
X0145015Y0083801D01*
X0144131Y0083801D01*
X0143689Y0084243D01*
X0146548Y0085569D02*
X0146990Y0085569D01*
X0147874Y0084685D01*
X0147874Y0083801D02*
X0147874Y0085569D01*
X0149006Y0086011D02*
X0149006Y0085127D01*
X0149448Y0084685D01*
X0150774Y0084685D01*
X0150774Y0083801D02*
X0150774Y0086453D01*
X0149448Y0086453D01*
X0149006Y0086011D01*
X0154806Y0085127D02*
X0154806Y0083801D01*
X0154806Y0085127D02*
X0155248Y0085569D01*
X0156574Y0085569D01*
X0156574Y0083801D01*
X0157706Y0083801D02*
X0157706Y0085569D01*
X0159474Y0085569D02*
X0159474Y0084243D01*
X0159032Y0083801D01*
X0157706Y0083801D01*
X0160606Y0083801D02*
X0161932Y0083801D01*
X0162374Y0084243D01*
X0162374Y0085127D01*
X0161932Y0085569D01*
X0160606Y0085569D01*
X0160606Y0083359D01*
X0161048Y0082917D01*
X0161490Y0082917D01*
X0161573Y0081729D02*
X0161573Y0079077D01*
X0160441Y0079077D02*
X0159557Y0079077D01*
X0159999Y0079077D02*
X0159999Y0080845D01*
X0160441Y0080845D01*
X0159999Y0081729D02*
X0159999Y0082171D01*
X0161573Y0081729D02*
X0162457Y0080845D01*
X0163341Y0081729D01*
X0163341Y0079077D01*
X0167373Y0079077D02*
X0168699Y0079077D01*
X0169141Y0079519D01*
X0169141Y0080845D01*
X0170273Y0080403D02*
X0170715Y0080845D01*
X0172041Y0080845D01*
X0172041Y0081729D02*
X0172041Y0079077D01*
X0170715Y0079077D01*
X0170273Y0079519D01*
X0170273Y0080403D01*
X0167373Y0080845D02*
X0167373Y0078635D01*
X0167815Y0078193D01*
X0168257Y0078193D01*
X0171858Y0074397D02*
X0172300Y0074839D01*
X0173184Y0074839D01*
X0173626Y0074397D01*
X0173626Y0073955D01*
X0173184Y0073513D01*
X0172300Y0073513D01*
X0171858Y0073071D01*
X0171858Y0072629D01*
X0172300Y0072187D01*
X0173184Y0072187D01*
X0173626Y0072629D01*
X0174758Y0072187D02*
X0174758Y0074839D01*
X0175642Y0073955D01*
X0176526Y0074839D01*
X0176526Y0072187D01*
X0178542Y0072187D02*
X0178542Y0074839D01*
X0179426Y0074839D02*
X0177658Y0074839D01*
X0183459Y0074397D02*
X0183459Y0072629D01*
X0183901Y0072187D01*
X0184785Y0072187D01*
X0185227Y0072629D01*
X0185227Y0074397D01*
X0184785Y0074839D01*
X0183901Y0074839D01*
X0183459Y0074397D01*
X0186276Y0074839D02*
X0187160Y0074839D01*
X0186718Y0074839D02*
X0186718Y0072187D01*
X0187160Y0072187D02*
X0186276Y0072187D01*
X0188292Y0072629D02*
X0188292Y0074397D01*
X0188734Y0074839D01*
X0190060Y0074839D01*
X0190060Y0072187D01*
X0188734Y0072187D01*
X0188292Y0072629D01*
X0191192Y0072187D02*
X0191192Y0074839D01*
X0192960Y0074839D02*
X0192960Y0072187D01*
X0192076Y0073071D01*
X0191192Y0072187D01*
X0194092Y0072629D02*
X0194092Y0073071D01*
X0194534Y0073513D01*
X0195418Y0073513D01*
X0195860Y0073955D01*
X0195860Y0074397D01*
X0195418Y0074839D01*
X0194534Y0074839D01*
X0194092Y0074397D01*
X0194092Y0072629D02*
X0194534Y0072187D01*
X0195418Y0072187D01*
X0195860Y0072629D01*
X0195418Y0064800D02*
X0194534Y0064800D01*
X0194092Y0064358D01*
X0192960Y0064800D02*
X0192960Y0062148D01*
X0195418Y0063474D02*
X0195860Y0063916D01*
X0195860Y0064358D01*
X0195418Y0064800D01*
X0190060Y0064358D02*
X0189618Y0064800D01*
X0188734Y0064800D01*
X0188292Y0064358D01*
X0187160Y0064800D02*
X0187160Y0062148D01*
X0175230Y0067511D02*
X0174788Y0067069D01*
X0173904Y0067069D01*
X0173462Y0067511D01*
X0172330Y0067069D02*
X0170562Y0068837D01*
X0170562Y0069279D01*
X0171004Y0069721D01*
X0171888Y0069721D01*
X0172330Y0069279D01*
X0173462Y0069279D02*
X0173904Y0069721D01*
X0174788Y0069721D01*
X0175230Y0069279D01*
X0175230Y0067511D01*
X0172330Y0067069D02*
X0170562Y0067069D01*
X0169430Y0067511D02*
X0168988Y0067069D01*
X0168104Y0067069D01*
X0167662Y0067511D01*
X0167662Y0067953D01*
X0168104Y0068395D01*
X0169430Y0068395D01*
X0169430Y0067511D01*
X0169430Y0068395D02*
X0168546Y0069279D01*
X0167662Y0069721D01*
X0158507Y0079077D02*
X0157182Y0079077D01*
X0156740Y0079519D01*
X0157182Y0079961D01*
X0158066Y0079961D01*
X0158507Y0080403D01*
X0158066Y0080845D01*
X0156740Y0080845D01*
X0155165Y0080845D02*
X0154281Y0080845D01*
X0153839Y0080403D01*
X0153839Y0079077D01*
X0155165Y0079077D01*
X0155607Y0079519D01*
X0155165Y0079961D01*
X0153839Y0079961D01*
X0152707Y0079961D02*
X0151381Y0080845D01*
X0149849Y0080845D02*
X0148965Y0080845D01*
X0148523Y0080403D01*
X0148523Y0079077D01*
X0149849Y0079077D01*
X0150291Y0079519D01*
X0149849Y0079961D01*
X0148523Y0079961D01*
X0147390Y0079519D02*
X0147390Y0081287D01*
X0146948Y0081729D01*
X0146064Y0081729D01*
X0145622Y0081287D01*
X0151381Y0079077D02*
X0152707Y0079961D01*
X0152707Y0079077D02*
X0152707Y0081729D01*
X0163424Y0083801D02*
X0164308Y0083801D01*
X0163866Y0083801D02*
X0163866Y0086453D01*
X0164308Y0086453D01*
X0165799Y0086453D02*
X0165799Y0086895D01*
X0165799Y0085569D02*
X0165799Y0083801D01*
X0166241Y0083801D02*
X0165357Y0083801D01*
X0167373Y0083801D02*
X0167373Y0085127D01*
X0167815Y0085569D01*
X0168699Y0085569D01*
X0168699Y0084685D02*
X0167373Y0084685D01*
X0167373Y0083801D02*
X0168699Y0083801D01*
X0169141Y0084243D01*
X0168699Y0084685D01*
X0170273Y0085127D02*
X0170273Y0086011D01*
X0170715Y0086453D01*
X0172041Y0086453D01*
X0172041Y0083801D01*
X0172041Y0084685D02*
X0170715Y0084685D01*
X0170273Y0085127D01*
X0171157Y0084685D02*
X0170273Y0083801D01*
X0166241Y0085569D02*
X0165799Y0085569D01*
X0128056Y0084243D02*
X0127614Y0084243D01*
X0127614Y0083801D01*
X0128056Y0083801D01*
X0128056Y0084243D01*
X0126606Y0084243D02*
X0124838Y0086011D01*
X0124838Y0084243D01*
X0125280Y0083801D01*
X0126164Y0083801D01*
X0126606Y0084243D01*
X0126606Y0086011D01*
X0126164Y0086453D01*
X0125280Y0086453D01*
X0124838Y0086011D01*
X0124885Y0067752D02*
X0124885Y0065100D01*
X0125893Y0063470D02*
X0125893Y0063028D01*
X0125893Y0062144D02*
X0126335Y0062144D01*
X0122579Y0050333D02*
X0120811Y0048565D01*
X0119990Y0044130D02*
X0119990Y0041478D01*
X0120874Y0041478D02*
X0119106Y0041478D01*
X0117973Y0041920D02*
X0117531Y0041478D01*
X0116647Y0041478D01*
X0116205Y0041920D01*
X0116205Y0042362D01*
X0116647Y0042804D01*
X0117089Y0042804D01*
X0116647Y0042804D02*
X0116205Y0043246D01*
X0116205Y0043688D01*
X0116647Y0044130D01*
X0117531Y0044130D01*
X0117973Y0043688D01*
X0119990Y0044130D02*
X0120874Y0043246D01*
X0122006Y0043688D02*
X0122448Y0044130D01*
X0123332Y0044130D01*
X0123774Y0043688D01*
X0123774Y0041920D01*
X0123332Y0041478D01*
X0122448Y0041478D01*
X0122006Y0041920D01*
X0127356Y0032713D02*
X0128240Y0032713D01*
X0128682Y0032271D01*
X0128682Y0031829D01*
X0128240Y0031387D01*
X0126914Y0031387D01*
X0126914Y0030503D02*
X0126914Y0032271D01*
X0127356Y0032713D01*
X0129814Y0032271D02*
X0130256Y0032713D01*
X0131140Y0032713D01*
X0131582Y0032271D01*
X0131582Y0030503D01*
X0131140Y0030061D01*
X0130256Y0030061D01*
X0129814Y0030503D01*
X0128682Y0030503D02*
X0128240Y0030061D01*
X0127356Y0030061D01*
X0126914Y0030503D01*
X0118303Y0028044D02*
X0118303Y0027160D01*
X0117861Y0026718D01*
X0116094Y0026718D01*
X0115652Y0027160D01*
X0115652Y0028044D01*
X0116094Y0028486D01*
X0117861Y0028486D01*
X0118303Y0028044D01*
X0118303Y0025669D02*
X0118303Y0024785D01*
X0118303Y0025227D02*
X0115652Y0025227D01*
X0115652Y0024785D02*
X0115652Y0025669D01*
X0116094Y0023653D02*
X0117861Y0023653D01*
X0118303Y0023211D01*
X0118303Y0021885D01*
X0115652Y0021885D01*
X0115652Y0023211D01*
X0116094Y0023653D01*
X0113382Y0023211D02*
X0113382Y0022327D01*
X0112940Y0021885D01*
X0111172Y0021885D01*
X0110730Y0022327D01*
X0110730Y0023211D01*
X0111172Y0023653D01*
X0110730Y0024785D02*
X0110730Y0026553D01*
X0110730Y0027685D02*
X0113382Y0027685D01*
X0112056Y0028127D02*
X0110730Y0029453D01*
X0111614Y0027685D02*
X0113382Y0029453D01*
X0113382Y0024785D02*
X0110730Y0024785D01*
X0112940Y0023653D02*
X0113382Y0023211D01*
X0113382Y0020753D02*
X0110730Y0020753D01*
X0111614Y0019869D01*
X0110730Y0018985D01*
X0113382Y0018985D01*
X0112940Y0017853D02*
X0113382Y0017411D01*
X0113382Y0016527D01*
X0112940Y0016085D01*
X0112498Y0016085D01*
X0112056Y0016527D01*
X0112056Y0017411D01*
X0111614Y0017853D01*
X0111172Y0017853D01*
X0110730Y0017411D01*
X0110730Y0016527D01*
X0111172Y0016085D01*
X0115652Y0016527D02*
X0116094Y0016085D01*
X0115652Y0016527D02*
X0115652Y0017411D01*
X0116094Y0017853D01*
X0116536Y0017853D01*
X0116978Y0017411D01*
X0116978Y0016527D01*
X0117419Y0016085D01*
X0117861Y0016085D01*
X0118303Y0016527D01*
X0118303Y0017411D01*
X0117861Y0017853D01*
X0118303Y0018985D02*
X0115652Y0018985D01*
X0116536Y0019869D01*
X0115652Y0020753D01*
X0118303Y0020753D01*
X0121163Y0020753D02*
X0123815Y0020753D01*
X0123815Y0021885D02*
X0121163Y0021885D01*
X0121163Y0023211D01*
X0121605Y0023653D01*
X0123373Y0023653D01*
X0123815Y0023211D01*
X0123815Y0021885D01*
X0121163Y0020753D02*
X0123815Y0018985D01*
X0121163Y0018985D01*
X0121605Y0017853D02*
X0122489Y0017853D01*
X0122489Y0016969D01*
X0121605Y0017853D02*
X0121163Y0017411D01*
X0121163Y0016527D01*
X0121605Y0016085D01*
X0123373Y0016085D01*
X0123815Y0016527D01*
X0123815Y0017411D01*
X0123373Y0017853D01*
X0128489Y0016326D02*
X0130256Y0014558D01*
X0129814Y0014116D01*
X0128931Y0014116D01*
X0128489Y0014558D01*
X0128489Y0016326D01*
X0128931Y0016768D01*
X0129814Y0016768D01*
X0130256Y0016326D01*
X0130256Y0014558D01*
X0131265Y0014558D02*
X0131265Y0014116D01*
X0131707Y0014116D01*
X0131707Y0014558D01*
X0131265Y0014558D01*
X0132839Y0015442D02*
X0134607Y0015442D01*
X0133281Y0016768D01*
X0133281Y0014116D01*
X0138639Y0014116D02*
X0138639Y0015884D01*
X0139523Y0016768D01*
X0140407Y0015884D01*
X0140407Y0014116D01*
X0141539Y0014558D02*
X0141539Y0015000D01*
X0141981Y0015442D01*
X0142865Y0015442D01*
X0143307Y0015884D01*
X0143307Y0016326D01*
X0142865Y0016768D01*
X0141981Y0016768D01*
X0141539Y0016326D01*
X0140407Y0015442D02*
X0138639Y0015442D01*
X0141539Y0014558D02*
X0141981Y0014116D01*
X0142865Y0014116D01*
X0143307Y0014558D01*
X0144439Y0015442D02*
X0146207Y0015442D01*
X0147339Y0016326D02*
X0147339Y0016768D01*
X0147339Y0016326D02*
X0148223Y0015442D01*
X0148223Y0014116D01*
X0148223Y0015442D02*
X0149107Y0016326D01*
X0149107Y0016768D01*
X0150239Y0016326D02*
X0150239Y0015884D01*
X0150681Y0015442D01*
X0152007Y0015442D01*
X0153139Y0015442D02*
X0154907Y0015442D01*
X0156040Y0014558D02*
X0156482Y0014116D01*
X0157366Y0014116D01*
X0157808Y0014558D01*
X0157808Y0016326D01*
X0157366Y0016768D01*
X0156482Y0016768D01*
X0156040Y0016326D01*
X0158940Y0016326D02*
X0159382Y0016768D01*
X0160266Y0016768D01*
X0160708Y0016326D01*
X0160708Y0014558D01*
X0160266Y0014116D01*
X0159382Y0014116D01*
X0158940Y0014558D01*
X0152007Y0014116D02*
X0150681Y0014116D01*
X0150239Y0014558D01*
X0150239Y0015000D01*
X0150681Y0015442D01*
X0150239Y0016326D02*
X0150681Y0016768D01*
X0152007Y0016768D01*
X0152007Y0014116D01*
X0151565Y0018841D02*
X0152007Y0019283D01*
X0152007Y0019725D01*
X0151565Y0020166D01*
X0150681Y0020166D01*
X0150239Y0019725D01*
X0150239Y0019283D01*
X0150681Y0018841D01*
X0151565Y0018841D01*
X0151565Y0020166D02*
X0152007Y0020608D01*
X0152007Y0021050D01*
X0151565Y0021492D01*
X0150681Y0021492D01*
X0150239Y0021050D01*
X0150239Y0020608D01*
X0150681Y0020166D01*
X0153139Y0018841D02*
X0154907Y0018841D01*
X0154023Y0018841D02*
X0154023Y0021492D01*
X0154907Y0020608D01*
X0156040Y0021050D02*
X0156040Y0019283D01*
X0156482Y0018841D01*
X0157366Y0018841D01*
X0157808Y0019283D01*
X0156040Y0021050D01*
X0156482Y0021492D01*
X0157366Y0021492D01*
X0157808Y0021050D01*
X0157808Y0019283D01*
X0158940Y0018841D02*
X0160708Y0018841D01*
X0158940Y0020608D01*
X0158940Y0021050D01*
X0159382Y0021492D01*
X0160266Y0021492D01*
X0160708Y0021050D01*
X0175497Y0019279D02*
X0175497Y0017511D01*
X0175939Y0017069D01*
X0177265Y0017069D01*
X0177265Y0019721D01*
X0175939Y0019721D01*
X0175497Y0019279D01*
X0176136Y0021400D02*
X0175694Y0021842D01*
X0175694Y0023609D01*
X0176136Y0024051D01*
X0177462Y0024051D01*
X0177462Y0021400D01*
X0176136Y0021400D01*
X0178594Y0021400D02*
X0180362Y0024051D01*
X0181494Y0023609D02*
X0181494Y0022726D01*
X0181936Y0022284D01*
X0183262Y0022284D01*
X0182378Y0022284D02*
X0181494Y0021400D01*
X0180362Y0021400D02*
X0178594Y0024051D01*
X0181494Y0023609D02*
X0181936Y0024051D01*
X0183262Y0024051D01*
X0183262Y0021400D01*
X0183065Y0019721D02*
X0181297Y0019721D01*
X0182181Y0019721D02*
X0182181Y0017069D01*
X0180165Y0017069D02*
X0178397Y0019721D01*
X0180165Y0019721D02*
X0178397Y0017069D01*
X0178200Y0013815D02*
X0178200Y0011163D01*
X0179968Y0013815D01*
X0179968Y0011163D01*
X0181100Y0011605D02*
X0181100Y0012489D01*
X0181984Y0012489D01*
X0181100Y0011605D02*
X0181542Y0011163D01*
X0182426Y0011163D01*
X0182868Y0011605D01*
X0182868Y0013373D01*
X0182426Y0013815D01*
X0181542Y0013815D01*
X0181100Y0013373D01*
X0177068Y0013815D02*
X0177068Y0011163D01*
X0175742Y0011163D01*
X0175300Y0011605D01*
X0175300Y0013373D01*
X0175742Y0013815D01*
X0177068Y0013815D01*
X0165930Y0028880D02*
X0165046Y0028880D01*
X0164604Y0029322D01*
X0163471Y0028880D02*
X0161704Y0030648D01*
X0161704Y0031090D01*
X0162146Y0031532D01*
X0163030Y0031532D01*
X0163471Y0031090D01*
X0164604Y0031090D02*
X0165046Y0031532D01*
X0165930Y0031532D01*
X0166372Y0031090D01*
X0166372Y0029322D01*
X0165930Y0028880D01*
X0163471Y0028880D02*
X0161704Y0028880D01*
X0160571Y0030206D02*
X0158803Y0030206D01*
X0159245Y0031532D02*
X0160571Y0030206D01*
X0159245Y0028880D02*
X0159245Y0031532D01*
X0167268Y0037393D02*
X0167710Y0036951D01*
X0168594Y0036951D01*
X0169036Y0037393D01*
X0170168Y0036951D02*
X0171936Y0036951D01*
X0170168Y0038719D01*
X0170168Y0039161D01*
X0170610Y0039603D01*
X0171494Y0039603D01*
X0171936Y0039161D01*
X0173068Y0039161D02*
X0173510Y0039603D01*
X0174394Y0039603D01*
X0174836Y0039161D01*
X0174836Y0037393D01*
X0174394Y0036951D01*
X0173510Y0036951D01*
X0173068Y0037393D01*
X0169036Y0039161D02*
X0168594Y0039603D01*
X0167710Y0039603D01*
X0167268Y0039161D01*
X0167268Y0038719D01*
X0167710Y0038277D01*
X0167268Y0037835D01*
X0167268Y0037393D01*
X0167710Y0038277D02*
X0168152Y0038277D01*
X0157947Y0042957D02*
X0157505Y0042957D01*
X0157063Y0043399D01*
X0157063Y0045608D01*
X0158389Y0045608D01*
X0158831Y0045166D01*
X0158831Y0044283D01*
X0158389Y0043841D01*
X0157063Y0043841D01*
X0159963Y0043841D02*
X0159963Y0045608D01*
X0161731Y0045608D02*
X0161731Y0044283D01*
X0161289Y0043841D01*
X0159963Y0043841D01*
X0162863Y0044283D02*
X0163305Y0043841D01*
X0164631Y0043841D01*
X0164631Y0046492D01*
X0164631Y0045608D02*
X0163305Y0045608D01*
X0162863Y0045166D01*
X0162863Y0044283D01*
X0165763Y0044725D02*
X0167531Y0044725D01*
X0167531Y0045166D02*
X0167089Y0045608D01*
X0166205Y0045608D01*
X0165763Y0045166D01*
X0165763Y0044725D01*
X0166205Y0043841D02*
X0167089Y0043841D01*
X0167531Y0044283D01*
X0167531Y0045166D01*
X0168663Y0044283D02*
X0168663Y0046050D01*
X0169105Y0046492D01*
X0170431Y0046492D01*
X0170431Y0043841D01*
X0169105Y0043841D01*
X0168663Y0044283D01*
X0153030Y0044725D02*
X0151705Y0044725D01*
X0151263Y0045166D01*
X0151263Y0046050D01*
X0151705Y0046492D01*
X0153030Y0046492D01*
X0153030Y0043841D01*
X0150130Y0043841D02*
X0150130Y0045608D01*
X0150130Y0044725D02*
X0149246Y0045608D01*
X0148804Y0045608D01*
X0147714Y0045166D02*
X0147714Y0044283D01*
X0147272Y0043841D01*
X0146388Y0043841D01*
X0145946Y0044283D01*
X0145946Y0045166D01*
X0146388Y0045608D01*
X0147272Y0045608D01*
X0147714Y0045166D01*
X0144814Y0045608D02*
X0143488Y0045608D01*
X0143046Y0045166D01*
X0143046Y0044283D01*
X0143488Y0043841D01*
X0144814Y0043841D01*
X0144814Y0046492D01*
X0141913Y0045166D02*
X0141471Y0045608D01*
X0140587Y0045608D01*
X0140145Y0045166D01*
X0140145Y0044725D01*
X0141913Y0044725D01*
X0141913Y0045166D02*
X0141913Y0044283D01*
X0141471Y0043841D01*
X0140587Y0043841D01*
X0188292Y0034878D02*
X0190060Y0034878D01*
X0189176Y0034878D02*
X0189176Y0032226D01*
X0191192Y0032668D02*
X0191634Y0032226D01*
X0192518Y0032226D01*
X0192960Y0032668D01*
X0192518Y0033552D02*
X0191634Y0033552D01*
X0191192Y0033110D01*
X0191192Y0032668D01*
X0192518Y0033552D02*
X0192960Y0033994D01*
X0192960Y0034436D01*
X0192518Y0034878D01*
X0191634Y0034878D01*
X0191192Y0034436D01*
X0194092Y0034436D02*
X0194092Y0033552D01*
X0194534Y0033110D01*
X0195860Y0033110D01*
X0195860Y0032226D02*
X0195860Y0034878D01*
X0194534Y0034878D01*
X0194092Y0034436D01*
X0194976Y0033110D02*
X0194092Y0032226D01*
X0194976Y0042069D02*
X0194976Y0044721D01*
X0195860Y0044721D02*
X0194092Y0044721D01*
X0192960Y0044721D02*
X0191634Y0044721D01*
X0191192Y0044279D01*
X0191192Y0042511D01*
X0191634Y0042069D01*
X0192960Y0042069D01*
X0192960Y0044721D01*
X0190060Y0044721D02*
X0189176Y0044721D01*
X0189618Y0044721D02*
X0189618Y0042069D01*
X0190060Y0042069D02*
X0189176Y0042069D01*
D12*
X0165835Y0041858D02*
X0165835Y0037055D01*
X0155126Y0037055D01*
X0155126Y0041858D01*
X0165835Y0041858D01*
X0165835Y0052213D02*
X0155126Y0052213D01*
X0155126Y0057016D01*
X0165835Y0057016D01*
X0165835Y0052213D01*
X0166622Y0065992D02*
X0155913Y0065992D01*
X0155913Y0070795D01*
X0166622Y0070795D01*
X0166622Y0065992D01*
X0155795Y0066583D02*
X0155795Y0071386D01*
X0145087Y0071386D01*
X0145087Y0066583D01*
X0155795Y0066583D01*
X0112488Y0054457D02*
X0106504Y0054457D01*
X0106504Y0041386D01*
X0112488Y0041386D01*
X0112488Y0054457D01*
X0102646Y0055441D02*
X0097843Y0055441D01*
X0097843Y0044732D01*
X0102646Y0044732D01*
X0102646Y0055441D01*
X0090205Y0047331D02*
X0083512Y0047331D01*
X0082134Y0048709D01*
X0081543Y0048709D01*
X0081543Y0046543D02*
X0081543Y0041740D01*
X0092252Y0041740D01*
X0092252Y0046543D01*
X0081543Y0046543D01*
X0075087Y0043630D02*
X0070283Y0043630D01*
X0070283Y0032921D01*
X0075087Y0032921D01*
X0075087Y0043630D01*
X0073906Y0046110D02*
X0069102Y0046110D01*
X0069102Y0056819D01*
X0073906Y0056819D01*
X0073906Y0046110D01*
X0074024Y0051228D02*
X0078827Y0051228D01*
X0078827Y0061937D01*
X0074024Y0061937D01*
X0074024Y0051228D01*
X0075008Y0051110D02*
X0080992Y0051110D01*
X0080992Y0038039D01*
X0075008Y0038039D01*
X0075008Y0051110D01*
X0047528Y0052606D02*
X0047528Y0058591D01*
X0034457Y0058591D01*
X0034457Y0052606D01*
X0047528Y0052606D01*
X0048413Y0043039D02*
X0034358Y0043039D01*
X0034358Y0027213D01*
X0048413Y0027213D01*
X0046406Y0027213D01*
X0048413Y0029220D01*
X0048413Y0027213D01*
X0048413Y0043039D01*
X0070283Y0033000D02*
X0070283Y0028197D01*
X0080992Y0028197D01*
X0080992Y0033000D01*
X0070283Y0033000D01*
X0070283Y0027291D02*
X0070283Y0022488D01*
X0080992Y0022488D01*
X0080992Y0027291D01*
X0070283Y0027291D01*
X0070283Y0021976D02*
X0070283Y0017173D01*
X0080992Y0017173D01*
X0080992Y0021976D01*
X0070283Y0021976D01*
X0048413Y0027551D02*
X0046744Y0027551D01*
X0047215Y0028022D02*
X0048413Y0028022D01*
X0048413Y0028493D02*
X0047686Y0028493D01*
X0048157Y0028964D02*
X0048413Y0028964D01*
X0047724Y0026110D02*
X0042921Y0026110D01*
X0042921Y0015402D01*
X0047724Y0015402D01*
X0047724Y0026110D01*
X0040047Y0026110D02*
X0035244Y0026110D01*
X0035244Y0015402D01*
X0040047Y0015402D01*
X0040047Y0026110D01*
X0109811Y0036071D02*
X0120520Y0036071D01*
X0120520Y0040874D01*
X0109811Y0040874D01*
X0109811Y0036071D01*
X0114969Y0033787D02*
X0114969Y0028984D01*
X0125677Y0028984D01*
X0125677Y0033787D01*
X0114969Y0033787D01*
X0155126Y0028079D02*
X0155126Y0023276D01*
X0165835Y0023276D01*
X0165835Y0028079D01*
X0155126Y0028079D01*
X0183315Y0022528D02*
X0188827Y0022528D01*
X0190402Y0020953D01*
X0080402Y0068551D02*
X0059457Y0068551D01*
X0059457Y0077685D01*
X0080402Y0077685D01*
X0080402Y0068551D01*
X0056189Y0068551D02*
X0035244Y0068551D01*
X0035244Y0077685D01*
X0056189Y0077685D01*
X0056189Y0068551D01*
D13*
X0056590Y0067540D02*
X0056590Y0065313D01*
X0057703Y0066427D02*
X0055477Y0066427D01*
X0079689Y0066427D02*
X0081916Y0066427D01*
X0080802Y0067540D02*
X0080802Y0065313D01*
M02*
