%
M48
M72
T01C0.01181
T02C0.01575
T03C0.01969
T04C0.02362
T05C0.03150
T06C0.03543
T07C0.05906
T08C0.09055
%
T01
X31543Y15638
X45323Y15441
X62449Y13276
X68945Y13276
X68059Y19181
X62449Y18591
X69339Y24102
X62449Y24890
X62449Y31189
X68354Y34535
X62449Y37488
X65795Y40441
X62449Y43787
X62449Y50087
X62449Y56386
X71504Y58157
X80165Y58945
X85087Y58748
X88236Y56976
X91189Y58748
X91189Y55205
X85087Y55205
X79575Y53630
X87252Y49299
X91189Y49299
X96701Y43000
X105165Y43000
X113630Y43000
X121898Y47921
X133709Y47921
X143748Y45953
X143945Y42016
X147094Y40047
X143945Y37488
X140598Y33945
X143551Y28827
X153394Y32173
X155953Y34339
X163039Y35717
X167173Y40441
X153984Y43197
X153787Y50874
X147685Y54417
X144142Y52646
X144142Y56386
X142173Y58945
X143748Y62291
X139417Y67803
X134299Y67803
X131543Y65835
X130362Y71150
X126622Y71150
X140598Y76858
X145323Y73118
X151031Y73118
X164024Y71937
X165992Y75087
X174457Y79811
X182724Y75480
X188236Y75480
X194535Y75480
X193945Y65638
X190205Y65638
X186071Y63276
X180953Y62685
X181937Y54220
X182134Y46740
X163039Y50283
X156346Y61307
X156346Y64260
X163039Y64260
X155559Y82567
X113827Y85323
X109299Y76858
X99063Y76858
X92173Y72921
X91189Y65835
X86858Y65835
X81740Y65835
X77016Y67409
X77213Y80402
X77213Y85323
X67764Y85323
X62449Y85323
X62449Y80402
X67764Y80402
X93157Y85126
X109299Y57961
X105165Y54417
X87646Y40638
X81543Y37685
X87449Y35913
X85283Y33551
X96701Y34535
X105165Y34535
X113630Y34535
X122291Y38472
X122882Y26071
X113630Y26071
X105165Y26071
X96701Y26071
X87646Y20953
X82921Y20756
X81937Y25677
X86858Y16031
X90598Y16031
X143945Y17016
X143945Y20756
X153787Y17606
X163433Y20953
X166780Y23512
X172291Y20756
X178197Y20756
X188039Y24693
X193945Y24693
X181937Y26858
X181543Y33551
X186858Y33157
X178197Y14850
X172291Y14850
X164024Y14850
X45913Y45165
T02
X94339Y52449
X152409Y62291
X83512Y13669
T03
X45913Y50087
X67370Y49102
X117961Y82961
X156150Y73315
X169339Y72528
T04
X112370Y14260
X117370Y14260
X122370Y14260
T05
X42724Y64654
X52724Y64654
X62724Y64654
X72724Y64654
T06
X28984Y35520
X28984Y45362
X28984Y53236
X28984Y63079
T07
X21110Y40441
X21110Y58157
T08
X21110Y25677
X21110Y72921
M30
