G75*
%MOIN*%
%OFA0B0*%
%FSLAX25Y25*%
%IPPOS*%
%LPD*%
%AMOC8*
5,1,8,0,0,1.08239X$1,22.5*
%
%ADD10C,0.00000*%
%ADD11R,0.03943X0.03156*%
%ADD12R,0.03156X0.03943*%
%ADD13R,0.02762X0.05124*%
%ADD14R,0.04731X0.04337*%
%ADD15R,0.04337X0.04731*%
%ADD16R,0.08274X0.05124*%
%ADD17R,0.12211X0.03746*%
%ADD18C,0.05550*%
%ADD19C,0.04369*%
%ADD20C,0.06699*%
%ADD21C,0.13786*%
%ADD22C,0.06306*%
D10*
X0010283Y0010126D02*
X0096110Y0010126D01*
X0096110Y0015244D01*
X0108709Y0015244D01*
X0108709Y0010126D01*
X0194535Y0010126D01*
X0194630Y0010128D01*
X0194725Y0010134D01*
X0194820Y0010143D01*
X0194914Y0010157D01*
X0195007Y0010174D01*
X0195100Y0010195D01*
X0195192Y0010219D01*
X0195283Y0010248D01*
X0195373Y0010279D01*
X0195461Y0010315D01*
X0195548Y0010354D01*
X0195633Y0010397D01*
X0195716Y0010442D01*
X0195797Y0010492D01*
X0195877Y0010544D01*
X0195954Y0010600D01*
X0196029Y0010658D01*
X0196101Y0010720D01*
X0196171Y0010785D01*
X0196238Y0010852D01*
X0196303Y0010922D01*
X0196365Y0010994D01*
X0196423Y0011069D01*
X0196479Y0011146D01*
X0196531Y0011226D01*
X0196581Y0011307D01*
X0196626Y0011390D01*
X0196669Y0011475D01*
X0196708Y0011562D01*
X0196744Y0011650D01*
X0196775Y0011740D01*
X0196804Y0011831D01*
X0196828Y0011923D01*
X0196849Y0012016D01*
X0196866Y0012109D01*
X0196880Y0012203D01*
X0196889Y0012298D01*
X0196895Y0012393D01*
X0196897Y0012488D01*
X0196898Y0012488D02*
X0196898Y0086504D01*
X0196897Y0086504D02*
X0196895Y0086599D01*
X0196889Y0086694D01*
X0196880Y0086789D01*
X0196866Y0086883D01*
X0196849Y0086976D01*
X0196828Y0087069D01*
X0196804Y0087161D01*
X0196775Y0087252D01*
X0196744Y0087342D01*
X0196708Y0087430D01*
X0196669Y0087517D01*
X0196626Y0087602D01*
X0196581Y0087685D01*
X0196531Y0087766D01*
X0196479Y0087846D01*
X0196423Y0087923D01*
X0196365Y0087998D01*
X0196303Y0088070D01*
X0196238Y0088140D01*
X0196171Y0088207D01*
X0196101Y0088272D01*
X0196029Y0088334D01*
X0195954Y0088392D01*
X0195877Y0088448D01*
X0195797Y0088500D01*
X0195716Y0088550D01*
X0195633Y0088595D01*
X0195548Y0088638D01*
X0195461Y0088677D01*
X0195373Y0088713D01*
X0195283Y0088744D01*
X0195192Y0088773D01*
X0195100Y0088797D01*
X0195007Y0088818D01*
X0194914Y0088835D01*
X0194820Y0088849D01*
X0194725Y0088858D01*
X0194630Y0088864D01*
X0194535Y0088866D01*
X0108709Y0088866D01*
X0108709Y0083748D01*
X0096110Y0083748D01*
X0096110Y0088866D01*
X0010283Y0088866D01*
X0010188Y0088864D01*
X0010093Y0088858D01*
X0009998Y0088849D01*
X0009904Y0088835D01*
X0009811Y0088818D01*
X0009718Y0088797D01*
X0009626Y0088773D01*
X0009535Y0088744D01*
X0009445Y0088713D01*
X0009357Y0088677D01*
X0009270Y0088638D01*
X0009185Y0088595D01*
X0009102Y0088550D01*
X0009021Y0088500D01*
X0008941Y0088448D01*
X0008864Y0088392D01*
X0008789Y0088334D01*
X0008717Y0088272D01*
X0008647Y0088207D01*
X0008580Y0088140D01*
X0008515Y0088070D01*
X0008453Y0087998D01*
X0008395Y0087923D01*
X0008339Y0087846D01*
X0008287Y0087766D01*
X0008237Y0087685D01*
X0008192Y0087602D01*
X0008149Y0087517D01*
X0008110Y0087430D01*
X0008074Y0087342D01*
X0008043Y0087252D01*
X0008014Y0087161D01*
X0007990Y0087069D01*
X0007969Y0086976D01*
X0007952Y0086883D01*
X0007938Y0086789D01*
X0007929Y0086694D01*
X0007923Y0086599D01*
X0007921Y0086504D01*
X0007921Y0012488D01*
X0007923Y0012393D01*
X0007929Y0012298D01*
X0007938Y0012203D01*
X0007952Y0012109D01*
X0007969Y0012016D01*
X0007990Y0011923D01*
X0008014Y0011831D01*
X0008043Y0011740D01*
X0008074Y0011650D01*
X0008110Y0011562D01*
X0008149Y0011475D01*
X0008192Y0011390D01*
X0008237Y0011307D01*
X0008287Y0011226D01*
X0008339Y0011146D01*
X0008395Y0011069D01*
X0008453Y0010994D01*
X0008515Y0010922D01*
X0008580Y0010852D01*
X0008647Y0010785D01*
X0008717Y0010720D01*
X0008789Y0010658D01*
X0008864Y0010600D01*
X0008941Y0010544D01*
X0009021Y0010492D01*
X0009102Y0010442D01*
X0009185Y0010397D01*
X0009270Y0010354D01*
X0009357Y0010315D01*
X0009445Y0010279D01*
X0009535Y0010248D01*
X0009626Y0010219D01*
X0009718Y0010195D01*
X0009811Y0010174D01*
X0009904Y0010157D01*
X0009998Y0010143D01*
X0010093Y0010134D01*
X0010188Y0010128D01*
X0010283Y0010126D01*
X0016582Y0040638D02*
X0016584Y0040746D01*
X0016590Y0040855D01*
X0016600Y0040963D01*
X0016614Y0041070D01*
X0016632Y0041177D01*
X0016653Y0041284D01*
X0016679Y0041389D01*
X0016709Y0041494D01*
X0016742Y0041597D01*
X0016779Y0041699D01*
X0016820Y0041799D01*
X0016864Y0041898D01*
X0016913Y0041996D01*
X0016964Y0042091D01*
X0017019Y0042184D01*
X0017078Y0042276D01*
X0017140Y0042365D01*
X0017205Y0042452D01*
X0017273Y0042536D01*
X0017344Y0042618D01*
X0017418Y0042697D01*
X0017495Y0042773D01*
X0017575Y0042847D01*
X0017658Y0042917D01*
X0017743Y0042985D01*
X0017830Y0043049D01*
X0017920Y0043110D01*
X0018012Y0043168D01*
X0018106Y0043222D01*
X0018202Y0043273D01*
X0018299Y0043320D01*
X0018399Y0043364D01*
X0018500Y0043404D01*
X0018602Y0043440D01*
X0018705Y0043472D01*
X0018810Y0043501D01*
X0018916Y0043525D01*
X0019022Y0043546D01*
X0019129Y0043563D01*
X0019237Y0043576D01*
X0019345Y0043585D01*
X0019454Y0043590D01*
X0019562Y0043591D01*
X0019671Y0043588D01*
X0019779Y0043581D01*
X0019887Y0043570D01*
X0019994Y0043555D01*
X0020101Y0043536D01*
X0020207Y0043513D01*
X0020312Y0043487D01*
X0020417Y0043456D01*
X0020519Y0043422D01*
X0020621Y0043384D01*
X0020721Y0043342D01*
X0020820Y0043297D01*
X0020917Y0043248D01*
X0021011Y0043195D01*
X0021104Y0043139D01*
X0021195Y0043080D01*
X0021284Y0043017D01*
X0021370Y0042952D01*
X0021454Y0042883D01*
X0021535Y0042811D01*
X0021613Y0042736D01*
X0021689Y0042658D01*
X0021762Y0042577D01*
X0021832Y0042494D01*
X0021898Y0042409D01*
X0021962Y0042321D01*
X0022022Y0042230D01*
X0022079Y0042138D01*
X0022132Y0042043D01*
X0022182Y0041947D01*
X0022228Y0041849D01*
X0022271Y0041749D01*
X0022310Y0041648D01*
X0022345Y0041545D01*
X0022377Y0041442D01*
X0022404Y0041337D01*
X0022428Y0041231D01*
X0022448Y0041124D01*
X0022464Y0041017D01*
X0022476Y0040909D01*
X0022484Y0040801D01*
X0022488Y0040692D01*
X0022488Y0040584D01*
X0022484Y0040475D01*
X0022476Y0040367D01*
X0022464Y0040259D01*
X0022448Y0040152D01*
X0022428Y0040045D01*
X0022404Y0039939D01*
X0022377Y0039834D01*
X0022345Y0039731D01*
X0022310Y0039628D01*
X0022271Y0039527D01*
X0022228Y0039427D01*
X0022182Y0039329D01*
X0022132Y0039233D01*
X0022079Y0039138D01*
X0022022Y0039046D01*
X0021962Y0038955D01*
X0021898Y0038867D01*
X0021832Y0038782D01*
X0021762Y0038699D01*
X0021689Y0038618D01*
X0021613Y0038540D01*
X0021535Y0038465D01*
X0021454Y0038393D01*
X0021370Y0038324D01*
X0021284Y0038259D01*
X0021195Y0038196D01*
X0021104Y0038137D01*
X0021012Y0038081D01*
X0020917Y0038028D01*
X0020820Y0037979D01*
X0020721Y0037934D01*
X0020621Y0037892D01*
X0020519Y0037854D01*
X0020417Y0037820D01*
X0020312Y0037789D01*
X0020207Y0037763D01*
X0020101Y0037740D01*
X0019994Y0037721D01*
X0019887Y0037706D01*
X0019779Y0037695D01*
X0019671Y0037688D01*
X0019562Y0037685D01*
X0019454Y0037686D01*
X0019345Y0037691D01*
X0019237Y0037700D01*
X0019129Y0037713D01*
X0019022Y0037730D01*
X0018916Y0037751D01*
X0018810Y0037775D01*
X0018705Y0037804D01*
X0018602Y0037836D01*
X0018500Y0037872D01*
X0018399Y0037912D01*
X0018299Y0037956D01*
X0018202Y0038003D01*
X0018106Y0038054D01*
X0018012Y0038108D01*
X0017920Y0038166D01*
X0017830Y0038227D01*
X0017743Y0038291D01*
X0017658Y0038359D01*
X0017575Y0038429D01*
X0017495Y0038503D01*
X0017418Y0038579D01*
X0017344Y0038658D01*
X0017273Y0038740D01*
X0017205Y0038824D01*
X0017140Y0038911D01*
X0017078Y0039000D01*
X0017019Y0039092D01*
X0016964Y0039185D01*
X0016913Y0039280D01*
X0016864Y0039378D01*
X0016820Y0039477D01*
X0016779Y0039577D01*
X0016742Y0039679D01*
X0016709Y0039782D01*
X0016679Y0039887D01*
X0016653Y0039992D01*
X0016632Y0040099D01*
X0016614Y0040206D01*
X0016600Y0040313D01*
X0016590Y0040421D01*
X0016584Y0040530D01*
X0016582Y0040638D01*
X0016582Y0058354D02*
X0016584Y0058462D01*
X0016590Y0058571D01*
X0016600Y0058679D01*
X0016614Y0058786D01*
X0016632Y0058893D01*
X0016653Y0059000D01*
X0016679Y0059105D01*
X0016709Y0059210D01*
X0016742Y0059313D01*
X0016779Y0059415D01*
X0016820Y0059515D01*
X0016864Y0059614D01*
X0016913Y0059712D01*
X0016964Y0059807D01*
X0017019Y0059900D01*
X0017078Y0059992D01*
X0017140Y0060081D01*
X0017205Y0060168D01*
X0017273Y0060252D01*
X0017344Y0060334D01*
X0017418Y0060413D01*
X0017495Y0060489D01*
X0017575Y0060563D01*
X0017658Y0060633D01*
X0017743Y0060701D01*
X0017830Y0060765D01*
X0017920Y0060826D01*
X0018012Y0060884D01*
X0018106Y0060938D01*
X0018202Y0060989D01*
X0018299Y0061036D01*
X0018399Y0061080D01*
X0018500Y0061120D01*
X0018602Y0061156D01*
X0018705Y0061188D01*
X0018810Y0061217D01*
X0018916Y0061241D01*
X0019022Y0061262D01*
X0019129Y0061279D01*
X0019237Y0061292D01*
X0019345Y0061301D01*
X0019454Y0061306D01*
X0019562Y0061307D01*
X0019671Y0061304D01*
X0019779Y0061297D01*
X0019887Y0061286D01*
X0019994Y0061271D01*
X0020101Y0061252D01*
X0020207Y0061229D01*
X0020312Y0061203D01*
X0020417Y0061172D01*
X0020519Y0061138D01*
X0020621Y0061100D01*
X0020721Y0061058D01*
X0020820Y0061013D01*
X0020917Y0060964D01*
X0021011Y0060911D01*
X0021104Y0060855D01*
X0021195Y0060796D01*
X0021284Y0060733D01*
X0021370Y0060668D01*
X0021454Y0060599D01*
X0021535Y0060527D01*
X0021613Y0060452D01*
X0021689Y0060374D01*
X0021762Y0060293D01*
X0021832Y0060210D01*
X0021898Y0060125D01*
X0021962Y0060037D01*
X0022022Y0059946D01*
X0022079Y0059854D01*
X0022132Y0059759D01*
X0022182Y0059663D01*
X0022228Y0059565D01*
X0022271Y0059465D01*
X0022310Y0059364D01*
X0022345Y0059261D01*
X0022377Y0059158D01*
X0022404Y0059053D01*
X0022428Y0058947D01*
X0022448Y0058840D01*
X0022464Y0058733D01*
X0022476Y0058625D01*
X0022484Y0058517D01*
X0022488Y0058408D01*
X0022488Y0058300D01*
X0022484Y0058191D01*
X0022476Y0058083D01*
X0022464Y0057975D01*
X0022448Y0057868D01*
X0022428Y0057761D01*
X0022404Y0057655D01*
X0022377Y0057550D01*
X0022345Y0057447D01*
X0022310Y0057344D01*
X0022271Y0057243D01*
X0022228Y0057143D01*
X0022182Y0057045D01*
X0022132Y0056949D01*
X0022079Y0056854D01*
X0022022Y0056762D01*
X0021962Y0056671D01*
X0021898Y0056583D01*
X0021832Y0056498D01*
X0021762Y0056415D01*
X0021689Y0056334D01*
X0021613Y0056256D01*
X0021535Y0056181D01*
X0021454Y0056109D01*
X0021370Y0056040D01*
X0021284Y0055975D01*
X0021195Y0055912D01*
X0021104Y0055853D01*
X0021012Y0055797D01*
X0020917Y0055744D01*
X0020820Y0055695D01*
X0020721Y0055650D01*
X0020621Y0055608D01*
X0020519Y0055570D01*
X0020417Y0055536D01*
X0020312Y0055505D01*
X0020207Y0055479D01*
X0020101Y0055456D01*
X0019994Y0055437D01*
X0019887Y0055422D01*
X0019779Y0055411D01*
X0019671Y0055404D01*
X0019562Y0055401D01*
X0019454Y0055402D01*
X0019345Y0055407D01*
X0019237Y0055416D01*
X0019129Y0055429D01*
X0019022Y0055446D01*
X0018916Y0055467D01*
X0018810Y0055491D01*
X0018705Y0055520D01*
X0018602Y0055552D01*
X0018500Y0055588D01*
X0018399Y0055628D01*
X0018299Y0055672D01*
X0018202Y0055719D01*
X0018106Y0055770D01*
X0018012Y0055824D01*
X0017920Y0055882D01*
X0017830Y0055943D01*
X0017743Y0056007D01*
X0017658Y0056075D01*
X0017575Y0056145D01*
X0017495Y0056219D01*
X0017418Y0056295D01*
X0017344Y0056374D01*
X0017273Y0056456D01*
X0017205Y0056540D01*
X0017140Y0056627D01*
X0017078Y0056716D01*
X0017019Y0056808D01*
X0016964Y0056901D01*
X0016913Y0056996D01*
X0016864Y0057094D01*
X0016820Y0057193D01*
X0016779Y0057293D01*
X0016742Y0057395D01*
X0016709Y0057498D01*
X0016679Y0057603D01*
X0016653Y0057708D01*
X0016632Y0057815D01*
X0016614Y0057922D01*
X0016600Y0058029D01*
X0016590Y0058137D01*
X0016584Y0058246D01*
X0016582Y0058354D01*
D11*
X0073079Y0030598D03*
X0078197Y0030598D03*
X0078197Y0024890D03*
X0073079Y0024890D03*
X0073079Y0019575D03*
X0078197Y0019575D03*
X0117764Y0031386D03*
X0122882Y0031386D03*
X0117724Y0038472D03*
X0112606Y0038472D03*
X0089457Y0044142D03*
X0084339Y0044142D03*
X0147882Y0068984D03*
X0153000Y0068984D03*
X0158709Y0068394D03*
X0163827Y0068394D03*
X0163039Y0054614D03*
X0157921Y0054614D03*
X0157921Y0039457D03*
X0163039Y0039457D03*
X0163039Y0025677D03*
X0157921Y0025677D03*
D12*
X0100244Y0047528D03*
X0100244Y0052646D03*
X0076425Y0054024D03*
X0071504Y0054024D03*
X0076425Y0059142D03*
X0071504Y0048906D03*
X0072685Y0040835D03*
X0072685Y0035717D03*
X0045323Y0023315D03*
X0037646Y0023315D03*
X0037646Y0018197D03*
X0045323Y0018197D03*
D13*
X0045126Y0030598D03*
X0041386Y0030598D03*
X0037646Y0030598D03*
X0037646Y0039654D03*
X0041386Y0039654D03*
X0045126Y0039654D03*
D14*
X0044339Y0055598D03*
X0037646Y0055598D03*
D15*
X0078000Y0047921D03*
X0078000Y0041228D03*
X0109496Y0044575D03*
X0109496Y0051268D03*
D16*
X0075441Y0073118D03*
X0064417Y0073118D03*
X0051228Y0073118D03*
X0040205Y0073118D03*
D17*
X0189969Y0069496D03*
X0189969Y0059496D03*
X0189969Y0049496D03*
X0189969Y0039496D03*
X0189969Y0029496D03*
D18*
X0072724Y0064850D03*
X0062724Y0064850D03*
X0052724Y0064850D03*
X0042724Y0064850D03*
D19*
X0112370Y0013472D03*
X0117370Y0013472D03*
X0122370Y0013472D03*
X0185343Y0013531D03*
X0190343Y0013531D03*
X0190343Y0018531D03*
X0185343Y0018531D03*
D20*
X0028984Y0035717D03*
X0028984Y0045559D03*
X0028984Y0053433D03*
X0028984Y0063276D03*
D21*
X0021110Y0073118D03*
X0021110Y0025874D03*
D22*
X0019535Y0040638D03*
X0019535Y0058354D03*
M02*
