G75*
%MOIN*%
%OFA0B0*%
%FSLAX25Y25*%
%IPPOS*%
%LPD*%
%AMOC8*
5,1,8,0,0,1.08239X$1,22.5*
%
%ADD10C,0.00000*%
%ADD11R,0.07874X0.02362*%
%ADD12R,0.03543X0.02756*%
%ADD13R,0.03150X0.01181*%
%ADD14R,0.02756X0.03543*%
%ADD15R,0.04331X0.05118*%
%ADD16R,0.05512X0.03937*%
%ADD17R,0.03937X0.05512*%
%ADD18R,0.11811X0.03346*%
%ADD19R,0.04724X0.02362*%
%ADD20R,0.03937X0.04331*%
%ADD21R,0.03150X0.03150*%
%ADD22R,0.04331X0.01772*%
%ADD23R,0.04331X0.02559*%
%ADD24R,0.01772X0.04331*%
%ADD25R,0.02559X0.04331*%
%ADD26C,0.01764*%
%ADD27R,0.01181X0.03150*%
%ADD28R,0.06693X0.04724*%
%ADD29C,0.05150*%
%ADD30C,0.03969*%
%ADD31C,0.06299*%
%ADD32C,0.13386*%
%ADD33C,0.00787*%
%ADD34C,0.02381*%
%ADD35C,0.01575*%
%ADD36C,0.01181*%
%ADD37C,0.01969*%
%ADD38C,0.03150*%
%ADD39C,0.03937*%
%ADD40C,0.03543*%
%ADD41C,0.03150*%
D10*
X0015795Y0011110D02*
X0015795Y0018000D01*
X0008906Y0018000D01*
X0008906Y0080992D01*
X0015795Y0080992D01*
X0015795Y0087882D01*
X0096110Y0087882D01*
X0096110Y0083748D01*
X0108709Y0083748D01*
X0108709Y0087882D01*
X0189024Y0087882D01*
X0189024Y0080992D01*
X0196898Y0080992D01*
X0196898Y0018000D01*
X0189024Y0018000D01*
X0189024Y0011110D01*
X0108709Y0011110D01*
X0108709Y0015244D01*
X0096110Y0015244D01*
X0096110Y0011110D01*
X0015795Y0011110D01*
X0016582Y0040638D02*
X0016584Y0040746D01*
X0016590Y0040855D01*
X0016600Y0040963D01*
X0016614Y0041070D01*
X0016632Y0041177D01*
X0016653Y0041284D01*
X0016679Y0041389D01*
X0016709Y0041494D01*
X0016742Y0041597D01*
X0016779Y0041699D01*
X0016820Y0041799D01*
X0016864Y0041898D01*
X0016913Y0041996D01*
X0016964Y0042091D01*
X0017019Y0042184D01*
X0017078Y0042276D01*
X0017140Y0042365D01*
X0017205Y0042452D01*
X0017273Y0042536D01*
X0017344Y0042618D01*
X0017418Y0042697D01*
X0017495Y0042773D01*
X0017575Y0042847D01*
X0017658Y0042917D01*
X0017743Y0042985D01*
X0017830Y0043049D01*
X0017920Y0043110D01*
X0018012Y0043168D01*
X0018106Y0043222D01*
X0018202Y0043273D01*
X0018299Y0043320D01*
X0018399Y0043364D01*
X0018500Y0043404D01*
X0018602Y0043440D01*
X0018705Y0043472D01*
X0018810Y0043501D01*
X0018916Y0043525D01*
X0019022Y0043546D01*
X0019129Y0043563D01*
X0019237Y0043576D01*
X0019345Y0043585D01*
X0019454Y0043590D01*
X0019562Y0043591D01*
X0019671Y0043588D01*
X0019779Y0043581D01*
X0019887Y0043570D01*
X0019994Y0043555D01*
X0020101Y0043536D01*
X0020207Y0043513D01*
X0020312Y0043487D01*
X0020417Y0043456D01*
X0020519Y0043422D01*
X0020621Y0043384D01*
X0020721Y0043342D01*
X0020820Y0043297D01*
X0020917Y0043248D01*
X0021011Y0043195D01*
X0021104Y0043139D01*
X0021195Y0043080D01*
X0021284Y0043017D01*
X0021370Y0042952D01*
X0021454Y0042883D01*
X0021535Y0042811D01*
X0021613Y0042736D01*
X0021689Y0042658D01*
X0021762Y0042577D01*
X0021832Y0042494D01*
X0021898Y0042409D01*
X0021962Y0042321D01*
X0022022Y0042230D01*
X0022079Y0042138D01*
X0022132Y0042043D01*
X0022182Y0041947D01*
X0022228Y0041849D01*
X0022271Y0041749D01*
X0022310Y0041648D01*
X0022345Y0041545D01*
X0022377Y0041442D01*
X0022404Y0041337D01*
X0022428Y0041231D01*
X0022448Y0041124D01*
X0022464Y0041017D01*
X0022476Y0040909D01*
X0022484Y0040801D01*
X0022488Y0040692D01*
X0022488Y0040584D01*
X0022484Y0040475D01*
X0022476Y0040367D01*
X0022464Y0040259D01*
X0022448Y0040152D01*
X0022428Y0040045D01*
X0022404Y0039939D01*
X0022377Y0039834D01*
X0022345Y0039731D01*
X0022310Y0039628D01*
X0022271Y0039527D01*
X0022228Y0039427D01*
X0022182Y0039329D01*
X0022132Y0039233D01*
X0022079Y0039138D01*
X0022022Y0039046D01*
X0021962Y0038955D01*
X0021898Y0038867D01*
X0021832Y0038782D01*
X0021762Y0038699D01*
X0021689Y0038618D01*
X0021613Y0038540D01*
X0021535Y0038465D01*
X0021454Y0038393D01*
X0021370Y0038324D01*
X0021284Y0038259D01*
X0021195Y0038196D01*
X0021104Y0038137D01*
X0021012Y0038081D01*
X0020917Y0038028D01*
X0020820Y0037979D01*
X0020721Y0037934D01*
X0020621Y0037892D01*
X0020519Y0037854D01*
X0020417Y0037820D01*
X0020312Y0037789D01*
X0020207Y0037763D01*
X0020101Y0037740D01*
X0019994Y0037721D01*
X0019887Y0037706D01*
X0019779Y0037695D01*
X0019671Y0037688D01*
X0019562Y0037685D01*
X0019454Y0037686D01*
X0019345Y0037691D01*
X0019237Y0037700D01*
X0019129Y0037713D01*
X0019022Y0037730D01*
X0018916Y0037751D01*
X0018810Y0037775D01*
X0018705Y0037804D01*
X0018602Y0037836D01*
X0018500Y0037872D01*
X0018399Y0037912D01*
X0018299Y0037956D01*
X0018202Y0038003D01*
X0018106Y0038054D01*
X0018012Y0038108D01*
X0017920Y0038166D01*
X0017830Y0038227D01*
X0017743Y0038291D01*
X0017658Y0038359D01*
X0017575Y0038429D01*
X0017495Y0038503D01*
X0017418Y0038579D01*
X0017344Y0038658D01*
X0017273Y0038740D01*
X0017205Y0038824D01*
X0017140Y0038911D01*
X0017078Y0039000D01*
X0017019Y0039092D01*
X0016964Y0039185D01*
X0016913Y0039280D01*
X0016864Y0039378D01*
X0016820Y0039477D01*
X0016779Y0039577D01*
X0016742Y0039679D01*
X0016709Y0039782D01*
X0016679Y0039887D01*
X0016653Y0039992D01*
X0016632Y0040099D01*
X0016614Y0040206D01*
X0016600Y0040313D01*
X0016590Y0040421D01*
X0016584Y0040530D01*
X0016582Y0040638D01*
X0016582Y0058354D02*
X0016584Y0058462D01*
X0016590Y0058571D01*
X0016600Y0058679D01*
X0016614Y0058786D01*
X0016632Y0058893D01*
X0016653Y0059000D01*
X0016679Y0059105D01*
X0016709Y0059210D01*
X0016742Y0059313D01*
X0016779Y0059415D01*
X0016820Y0059515D01*
X0016864Y0059614D01*
X0016913Y0059712D01*
X0016964Y0059807D01*
X0017019Y0059900D01*
X0017078Y0059992D01*
X0017140Y0060081D01*
X0017205Y0060168D01*
X0017273Y0060252D01*
X0017344Y0060334D01*
X0017418Y0060413D01*
X0017495Y0060489D01*
X0017575Y0060563D01*
X0017658Y0060633D01*
X0017743Y0060701D01*
X0017830Y0060765D01*
X0017920Y0060826D01*
X0018012Y0060884D01*
X0018106Y0060938D01*
X0018202Y0060989D01*
X0018299Y0061036D01*
X0018399Y0061080D01*
X0018500Y0061120D01*
X0018602Y0061156D01*
X0018705Y0061188D01*
X0018810Y0061217D01*
X0018916Y0061241D01*
X0019022Y0061262D01*
X0019129Y0061279D01*
X0019237Y0061292D01*
X0019345Y0061301D01*
X0019454Y0061306D01*
X0019562Y0061307D01*
X0019671Y0061304D01*
X0019779Y0061297D01*
X0019887Y0061286D01*
X0019994Y0061271D01*
X0020101Y0061252D01*
X0020207Y0061229D01*
X0020312Y0061203D01*
X0020417Y0061172D01*
X0020519Y0061138D01*
X0020621Y0061100D01*
X0020721Y0061058D01*
X0020820Y0061013D01*
X0020917Y0060964D01*
X0021011Y0060911D01*
X0021104Y0060855D01*
X0021195Y0060796D01*
X0021284Y0060733D01*
X0021370Y0060668D01*
X0021454Y0060599D01*
X0021535Y0060527D01*
X0021613Y0060452D01*
X0021689Y0060374D01*
X0021762Y0060293D01*
X0021832Y0060210D01*
X0021898Y0060125D01*
X0021962Y0060037D01*
X0022022Y0059946D01*
X0022079Y0059854D01*
X0022132Y0059759D01*
X0022182Y0059663D01*
X0022228Y0059565D01*
X0022271Y0059465D01*
X0022310Y0059364D01*
X0022345Y0059261D01*
X0022377Y0059158D01*
X0022404Y0059053D01*
X0022428Y0058947D01*
X0022448Y0058840D01*
X0022464Y0058733D01*
X0022476Y0058625D01*
X0022484Y0058517D01*
X0022488Y0058408D01*
X0022488Y0058300D01*
X0022484Y0058191D01*
X0022476Y0058083D01*
X0022464Y0057975D01*
X0022448Y0057868D01*
X0022428Y0057761D01*
X0022404Y0057655D01*
X0022377Y0057550D01*
X0022345Y0057447D01*
X0022310Y0057344D01*
X0022271Y0057243D01*
X0022228Y0057143D01*
X0022182Y0057045D01*
X0022132Y0056949D01*
X0022079Y0056854D01*
X0022022Y0056762D01*
X0021962Y0056671D01*
X0021898Y0056583D01*
X0021832Y0056498D01*
X0021762Y0056415D01*
X0021689Y0056334D01*
X0021613Y0056256D01*
X0021535Y0056181D01*
X0021454Y0056109D01*
X0021370Y0056040D01*
X0021284Y0055975D01*
X0021195Y0055912D01*
X0021104Y0055853D01*
X0021012Y0055797D01*
X0020917Y0055744D01*
X0020820Y0055695D01*
X0020721Y0055650D01*
X0020621Y0055608D01*
X0020519Y0055570D01*
X0020417Y0055536D01*
X0020312Y0055505D01*
X0020207Y0055479D01*
X0020101Y0055456D01*
X0019994Y0055437D01*
X0019887Y0055422D01*
X0019779Y0055411D01*
X0019671Y0055404D01*
X0019562Y0055401D01*
X0019454Y0055402D01*
X0019345Y0055407D01*
X0019237Y0055416D01*
X0019129Y0055429D01*
X0019022Y0055446D01*
X0018916Y0055467D01*
X0018810Y0055491D01*
X0018705Y0055520D01*
X0018602Y0055552D01*
X0018500Y0055588D01*
X0018399Y0055628D01*
X0018299Y0055672D01*
X0018202Y0055719D01*
X0018106Y0055770D01*
X0018012Y0055824D01*
X0017920Y0055882D01*
X0017830Y0055943D01*
X0017743Y0056007D01*
X0017658Y0056075D01*
X0017575Y0056145D01*
X0017495Y0056219D01*
X0017418Y0056295D01*
X0017344Y0056374D01*
X0017273Y0056456D01*
X0017205Y0056540D01*
X0017140Y0056627D01*
X0017078Y0056716D01*
X0017019Y0056808D01*
X0016964Y0056901D01*
X0016913Y0056996D01*
X0016864Y0057094D01*
X0016820Y0057193D01*
X0016779Y0057293D01*
X0016742Y0057395D01*
X0016709Y0057498D01*
X0016679Y0057603D01*
X0016653Y0057708D01*
X0016632Y0057815D01*
X0016614Y0057922D01*
X0016600Y0058029D01*
X0016590Y0058137D01*
X0016584Y0058246D01*
X0016582Y0058354D01*
D11*
X0038630Y0050461D03*
X0038630Y0045461D03*
X0038630Y0040461D03*
X0038630Y0035461D03*
X0038630Y0030461D03*
X0038630Y0025461D03*
X0038630Y0020461D03*
X0038630Y0015461D03*
X0075638Y0015461D03*
X0075638Y0020461D03*
X0075638Y0025461D03*
X0075638Y0030461D03*
X0075638Y0035461D03*
X0075638Y0040461D03*
X0075638Y0045461D03*
X0075638Y0050461D03*
D12*
X0083906Y0062488D03*
X0089024Y0062488D03*
X0127606Y0043984D03*
X0132724Y0043984D03*
X0132724Y0038866D03*
X0127606Y0038866D03*
X0151228Y0039850D03*
X0156346Y0039850D03*
X0156346Y0025283D03*
X0151228Y0025283D03*
X0134890Y0016031D03*
X0129772Y0016031D03*
X0151622Y0054417D03*
X0156740Y0054417D03*
X0150244Y0069772D03*
X0145126Y0069772D03*
X0139417Y0071346D03*
X0134299Y0071346D03*
X0159693Y0080402D03*
X0164811Y0080402D03*
X0173472Y0084535D03*
X0178591Y0084535D03*
X0164811Y0085126D03*
X0159693Y0085126D03*
X0026228Y0014063D03*
X0021110Y0014063D03*
D13*
X0091386Y0023906D03*
X0091386Y0025874D03*
X0091386Y0027843D03*
X0091386Y0029811D03*
X0091386Y0031780D03*
X0091386Y0033748D03*
X0091386Y0035717D03*
X0091386Y0037685D03*
X0091386Y0039654D03*
X0091386Y0041622D03*
X0091386Y0043591D03*
X0091386Y0045559D03*
X0118945Y0045559D03*
X0118945Y0043591D03*
X0118945Y0041622D03*
X0118945Y0039654D03*
X0118945Y0037685D03*
X0118945Y0035717D03*
X0118945Y0033748D03*
X0118945Y0031780D03*
X0118945Y0029811D03*
X0118945Y0027843D03*
X0118945Y0025874D03*
X0118945Y0023906D03*
X0147685Y0020953D03*
X0147685Y0018984D03*
X0147685Y0017016D03*
X0147685Y0015047D03*
X0159890Y0015047D03*
X0159890Y0017016D03*
X0159890Y0018984D03*
X0159890Y0020953D03*
X0159890Y0029614D03*
X0159890Y0031583D03*
X0159890Y0033551D03*
X0159890Y0035520D03*
X0147685Y0035520D03*
X0147685Y0033551D03*
X0147685Y0031583D03*
X0147685Y0029614D03*
X0147685Y0044181D03*
X0147685Y0046150D03*
X0147685Y0048118D03*
X0147685Y0050087D03*
X0159890Y0050087D03*
X0159890Y0048118D03*
X0159890Y0046150D03*
X0159890Y0044181D03*
X0159890Y0058748D03*
X0159890Y0060717D03*
X0159890Y0062685D03*
X0159890Y0064654D03*
X0147685Y0064654D03*
X0147685Y0062685D03*
X0147685Y0060717D03*
X0147685Y0058748D03*
D14*
X0160480Y0069969D03*
X0160480Y0075087D03*
D15*
X0134496Y0031976D03*
X0127016Y0031976D03*
X0127016Y0022921D03*
X0134496Y0022921D03*
D16*
X0127016Y0058551D03*
X0119535Y0058551D03*
X0110874Y0062291D03*
X0119535Y0066031D03*
X0127016Y0066031D03*
X0135677Y0062291D03*
D17*
X0171110Y0077843D03*
X0178591Y0077843D03*
X0174850Y0069181D03*
D18*
X0189969Y0069496D03*
X0189969Y0059496D03*
X0189969Y0049496D03*
X0189969Y0039496D03*
X0189969Y0029496D03*
D19*
X0145126Y0076661D03*
X0136071Y0076661D03*
X0136071Y0080402D03*
X0136071Y0084142D03*
X0145126Y0084142D03*
D20*
X0151622Y0084339D03*
X0151622Y0077646D03*
X0128984Y0077055D03*
X0128984Y0083748D03*
D21*
X0122882Y0080402D03*
X0113827Y0080402D03*
X0104772Y0080402D03*
X0095717Y0080402D03*
X0095717Y0074496D03*
X0104772Y0074496D03*
X0113827Y0074496D03*
X0122882Y0074496D03*
D22*
X0169929Y0054417D03*
X0169929Y0051268D03*
X0177409Y0051268D03*
X0177409Y0054417D03*
X0177409Y0033748D03*
X0177409Y0030598D03*
X0169929Y0030598D03*
X0169929Y0033748D03*
D23*
X0169929Y0037291D03*
X0177409Y0037291D03*
X0177409Y0027055D03*
X0169929Y0027055D03*
X0169929Y0047724D03*
X0177409Y0047724D03*
X0177409Y0057961D03*
X0169929Y0057961D03*
D24*
X0101228Y0060717D03*
X0098079Y0060717D03*
X0098079Y0068197D03*
X0101228Y0068197D03*
D25*
X0104772Y0068197D03*
X0094535Y0068197D03*
X0094535Y0060717D03*
X0104772Y0060717D03*
D26*
X0095024Y0044873D02*
X0115306Y0044873D01*
X0115306Y0024591D01*
X0095024Y0024591D01*
X0095024Y0044873D01*
X0095024Y0026354D02*
X0115306Y0026354D01*
X0115306Y0028117D02*
X0095024Y0028117D01*
X0095024Y0029880D02*
X0115306Y0029880D01*
X0115306Y0031643D02*
X0095024Y0031643D01*
X0095024Y0033406D02*
X0115306Y0033406D01*
X0115306Y0035169D02*
X0095024Y0035169D01*
X0095024Y0036932D02*
X0115306Y0036932D01*
X0115306Y0038695D02*
X0095024Y0038695D01*
X0095024Y0040458D02*
X0115306Y0040458D01*
X0115306Y0042221D02*
X0095024Y0042221D01*
X0095024Y0043984D02*
X0115306Y0043984D01*
D27*
X0115992Y0048512D03*
X0114024Y0048512D03*
X0112055Y0048512D03*
X0110087Y0048512D03*
X0108118Y0048512D03*
X0106150Y0048512D03*
X0104181Y0048512D03*
X0102213Y0048512D03*
X0100244Y0048512D03*
X0098276Y0048512D03*
X0096307Y0048512D03*
X0094339Y0048512D03*
X0094339Y0020953D03*
X0096307Y0020953D03*
X0098276Y0020953D03*
X0100244Y0020953D03*
X0102213Y0020953D03*
X0104181Y0020953D03*
X0106150Y0020953D03*
X0108118Y0020953D03*
X0110087Y0020953D03*
X0112055Y0020953D03*
X0114024Y0020953D03*
X0115992Y0020953D03*
D28*
X0086858Y0070362D03*
X0086858Y0083748D03*
D29*
X0072724Y0064850D03*
X0062724Y0064850D03*
X0052724Y0064850D03*
X0042724Y0064850D03*
D30*
X0112370Y0014457D03*
X0117370Y0014457D03*
X0122370Y0014457D03*
X0179437Y0014909D03*
X0184437Y0014909D03*
X0184437Y0019909D03*
X0179437Y0019909D03*
D31*
X0028984Y0035717D03*
X0028984Y0045559D03*
X0028984Y0053433D03*
X0028984Y0063276D03*
D32*
X0021110Y0073118D03*
X0021110Y0025874D03*
D33*
X0020716Y0026043D02*
X0010299Y0026043D01*
X0010299Y0026828D02*
X0013080Y0026828D01*
X0013024Y0026404D02*
X0013024Y0026268D01*
X0020716Y0026268D01*
X0020716Y0025480D01*
X0013024Y0025480D01*
X0013024Y0025344D01*
X0013162Y0024293D01*
X0013436Y0023269D01*
X0013842Y0022290D01*
X0014372Y0021372D01*
X0015017Y0020531D01*
X0015767Y0019781D01*
X0016272Y0019394D01*
X0010299Y0019394D01*
X0010299Y0079598D01*
X0016272Y0079598D01*
X0015767Y0079211D01*
X0015017Y0078461D01*
X0014372Y0077620D01*
X0013842Y0076702D01*
X0013436Y0075723D01*
X0013162Y0074699D01*
X0013024Y0073648D01*
X0013024Y0073512D01*
X0020716Y0073512D01*
X0020716Y0072724D01*
X0013024Y0072724D01*
X0013024Y0072588D01*
X0013162Y0071537D01*
X0013436Y0070513D01*
X0013842Y0069534D01*
X0014372Y0068616D01*
X0015017Y0067775D01*
X0015767Y0067025D01*
X0016608Y0066380D01*
X0017526Y0065850D01*
X0018505Y0065444D01*
X0019529Y0065170D01*
X0020580Y0065031D01*
X0020717Y0065031D01*
X0020717Y0072724D01*
X0021504Y0072724D01*
X0021504Y0065031D01*
X0021640Y0065031D01*
X0022691Y0065170D01*
X0023715Y0065444D01*
X0024695Y0065850D01*
X0025613Y0066380D01*
X0025831Y0066548D01*
X0025519Y0066235D01*
X0025098Y0065657D01*
X0024774Y0065020D01*
X0024553Y0064339D01*
X0024447Y0063669D01*
X0028590Y0063669D01*
X0028590Y0062882D01*
X0024447Y0062882D01*
X0024553Y0062212D01*
X0024774Y0061532D01*
X0025098Y0060894D01*
X0025519Y0060316D01*
X0026024Y0059810D01*
X0026603Y0059390D01*
X0027240Y0059065D01*
X0027920Y0058844D01*
X0028591Y0058738D01*
X0028591Y0062882D01*
X0029378Y0062882D01*
X0029378Y0063669D01*
X0033522Y0063669D01*
X0033416Y0064339D01*
X0033195Y0065020D01*
X0032870Y0065657D01*
X0032450Y0066235D01*
X0031944Y0066741D01*
X0031365Y0067161D01*
X0030728Y0067486D01*
X0030048Y0067707D01*
X0029378Y0067813D01*
X0029378Y0063669D01*
X0028591Y0063669D01*
X0028591Y0067813D01*
X0027920Y0067707D01*
X0027240Y0067486D01*
X0026603Y0067161D01*
X0026554Y0067126D01*
X0027203Y0067775D01*
X0027848Y0068616D01*
X0028378Y0069534D01*
X0028784Y0070513D01*
X0029058Y0071537D01*
X0029197Y0072588D01*
X0029197Y0072724D01*
X0021504Y0072724D01*
X0021504Y0073512D01*
X0020717Y0073512D01*
X0020717Y0081205D01*
X0020580Y0081205D01*
X0019529Y0081066D01*
X0018505Y0080792D01*
X0017526Y0080386D01*
X0016661Y0079887D01*
X0017189Y0080415D01*
X0017189Y0086488D01*
X0049850Y0086488D01*
X0049850Y0067288D01*
X0049540Y0066978D01*
X0048969Y0065597D01*
X0048969Y0064103D01*
X0049540Y0062723D01*
X0049850Y0062413D01*
X0049850Y0012504D01*
X0029181Y0012504D01*
X0029181Y0014843D01*
X0030561Y0013463D01*
X0032526Y0013463D01*
X0033299Y0014237D01*
X0033299Y0014096D01*
X0033394Y0013742D01*
X0033578Y0013424D01*
X0033837Y0013164D01*
X0034155Y0012981D01*
X0034509Y0012886D01*
X0038433Y0012886D01*
X0038433Y0015264D01*
X0038827Y0015264D01*
X0038827Y0012886D01*
X0042750Y0012886D01*
X0043105Y0012981D01*
X0043423Y0013164D01*
X0043682Y0013424D01*
X0043866Y0013742D01*
X0043961Y0014096D01*
X0043961Y0014237D01*
X0044340Y0013857D01*
X0046305Y0013857D01*
X0047694Y0015246D01*
X0047694Y0017211D01*
X0047094Y0017811D01*
X0047094Y0023852D01*
X0044752Y0026194D01*
X0043714Y0027232D01*
X0043647Y0027232D01*
X0043056Y0027823D01*
X0034204Y0027823D01*
X0033512Y0027131D01*
X0033512Y0023790D01*
X0034204Y0023098D01*
X0042837Y0023098D01*
X0043551Y0022384D01*
X0043551Y0022328D01*
X0043056Y0022823D01*
X0034204Y0022823D01*
X0033613Y0022232D01*
X0033073Y0022232D01*
X0032035Y0021194D01*
X0031937Y0021096D01*
X0031937Y0026912D01*
X0033664Y0028638D01*
X0034204Y0028098D01*
X0043056Y0028098D01*
X0043748Y0028790D01*
X0043748Y0032131D01*
X0043056Y0032823D01*
X0040402Y0032823D01*
X0040402Y0033098D01*
X0043056Y0033098D01*
X0043748Y0033790D01*
X0043748Y0037131D01*
X0043056Y0037823D01*
X0040402Y0037823D01*
X0040402Y0038098D01*
X0043056Y0038098D01*
X0043748Y0038790D01*
X0043748Y0042131D01*
X0043056Y0042823D01*
X0034204Y0042823D01*
X0033512Y0042131D01*
X0033512Y0038790D01*
X0034204Y0038098D01*
X0036858Y0038098D01*
X0036858Y0037823D01*
X0034204Y0037823D01*
X0033512Y0037131D01*
X0033512Y0033790D01*
X0034204Y0033098D01*
X0036858Y0033098D01*
X0036858Y0032823D01*
X0034204Y0032823D01*
X0033613Y0032232D01*
X0032246Y0032232D01*
X0031209Y0031194D01*
X0029432Y0029417D01*
X0029432Y0029417D01*
X0028699Y0028685D01*
X0028378Y0029458D01*
X0027848Y0030376D01*
X0027203Y0031217D01*
X0026454Y0031967D01*
X0025613Y0032612D01*
X0024695Y0033142D01*
X0023715Y0033548D01*
X0022691Y0033822D01*
X0021640Y0033961D01*
X0021504Y0033961D01*
X0021504Y0026268D01*
X0020717Y0026268D01*
X0020717Y0033961D01*
X0020580Y0033961D01*
X0019529Y0033822D01*
X0018505Y0033548D01*
X0017526Y0033142D01*
X0016608Y0032612D01*
X0015767Y0031967D01*
X0015017Y0031217D01*
X0014372Y0030376D01*
X0013842Y0029458D01*
X0013436Y0028479D01*
X0013162Y0027455D01*
X0013024Y0026404D01*
X0013035Y0025257D02*
X0010299Y0025257D01*
X0010299Y0024471D02*
X0013139Y0024471D01*
X0013325Y0023685D02*
X0010299Y0023685D01*
X0010299Y0022899D02*
X0013590Y0022899D01*
X0013944Y0022113D02*
X0010299Y0022113D01*
X0010299Y0021327D02*
X0014406Y0021327D01*
X0015009Y0020541D02*
X0010299Y0020541D01*
X0010299Y0019755D02*
X0015801Y0019755D01*
X0016661Y0019105D02*
X0017526Y0018606D01*
X0018505Y0018200D01*
X0019529Y0017926D01*
X0020580Y0017787D01*
X0020717Y0017787D01*
X0020717Y0025480D01*
X0021504Y0025480D01*
X0021504Y0017787D01*
X0021640Y0017787D01*
X0022691Y0017926D01*
X0023715Y0018200D01*
X0024695Y0018606D01*
X0025613Y0019136D01*
X0026454Y0019781D01*
X0027203Y0020531D01*
X0027848Y0021372D01*
X0028378Y0022290D01*
X0028394Y0022327D01*
X0028394Y0021096D01*
X0026085Y0018787D01*
X0025047Y0017750D01*
X0025047Y0016622D01*
X0023967Y0016622D01*
X0023820Y0016474D01*
X0023738Y0016556D01*
X0023420Y0016740D01*
X0023065Y0016835D01*
X0021406Y0016835D01*
X0021406Y0014358D01*
X0020815Y0014358D01*
X0020815Y0013768D01*
X0017945Y0013768D01*
X0017945Y0012504D01*
X0017189Y0012504D01*
X0017189Y0018577D01*
X0016661Y0019105D01*
X0016797Y0018969D02*
X0016896Y0018969D01*
X0017189Y0018183D02*
X0018567Y0018183D01*
X0018801Y0016740D02*
X0018483Y0016556D01*
X0018223Y0016297D01*
X0018040Y0015979D01*
X0017945Y0015624D01*
X0017945Y0014358D01*
X0020815Y0014358D01*
X0020815Y0016835D01*
X0019155Y0016835D01*
X0018801Y0016740D01*
X0018579Y0016612D02*
X0017189Y0016612D01*
X0017189Y0017398D02*
X0025047Y0017398D01*
X0025481Y0018183D02*
X0023653Y0018183D01*
X0023642Y0016612D02*
X0023957Y0016612D01*
X0021504Y0018183D02*
X0020717Y0018183D01*
X0020717Y0018969D02*
X0021504Y0018969D01*
X0021504Y0019755D02*
X0020717Y0019755D01*
X0020717Y0020541D02*
X0021504Y0020541D01*
X0021504Y0021327D02*
X0020717Y0021327D01*
X0020717Y0022113D02*
X0021504Y0022113D01*
X0021504Y0022899D02*
X0020717Y0022899D01*
X0020717Y0023685D02*
X0021504Y0023685D01*
X0021504Y0024471D02*
X0020717Y0024471D01*
X0020717Y0025257D02*
X0021504Y0025257D01*
X0021504Y0026828D02*
X0020717Y0026828D01*
X0020717Y0027614D02*
X0021504Y0027614D01*
X0021504Y0028400D02*
X0020717Y0028400D01*
X0020717Y0029186D02*
X0021504Y0029186D01*
X0021504Y0029972D02*
X0020717Y0029972D01*
X0020717Y0030758D02*
X0021504Y0030758D01*
X0021504Y0031544D02*
X0020717Y0031544D01*
X0020717Y0032330D02*
X0021504Y0032330D01*
X0021504Y0033116D02*
X0020717Y0033116D01*
X0020717Y0033902D02*
X0021504Y0033902D01*
X0022088Y0033902D02*
X0025048Y0033902D01*
X0025313Y0033263D02*
X0026531Y0032045D01*
X0028123Y0031386D01*
X0029846Y0031386D01*
X0031437Y0032045D01*
X0032656Y0033263D01*
X0033315Y0034855D01*
X0033315Y0036578D01*
X0032656Y0038170D01*
X0031437Y0039388D01*
X0029846Y0040047D01*
X0028123Y0040047D01*
X0026531Y0039388D01*
X0025313Y0038170D01*
X0024654Y0036578D01*
X0024654Y0034855D01*
X0025313Y0033263D01*
X0025460Y0033116D02*
X0024740Y0033116D01*
X0025980Y0032330D02*
X0026246Y0032330D01*
X0026876Y0031544D02*
X0027741Y0031544D01*
X0027556Y0030758D02*
X0030772Y0030758D01*
X0031209Y0031194D02*
X0031209Y0031194D01*
X0031558Y0031544D02*
X0030227Y0031544D01*
X0029986Y0029972D02*
X0028082Y0029972D01*
X0028491Y0029186D02*
X0029200Y0029186D01*
X0032640Y0027614D02*
X0033995Y0027614D01*
X0033902Y0028400D02*
X0033425Y0028400D01*
X0033512Y0026828D02*
X0031937Y0026828D01*
X0031937Y0026043D02*
X0033512Y0026043D01*
X0033512Y0025257D02*
X0031937Y0025257D01*
X0031937Y0024471D02*
X0033512Y0024471D01*
X0033617Y0023685D02*
X0031937Y0023685D01*
X0031937Y0022899D02*
X0043037Y0022899D01*
X0047094Y0022899D02*
X0049850Y0022899D01*
X0049850Y0023685D02*
X0047094Y0023685D01*
X0046476Y0024471D02*
X0049850Y0024471D01*
X0049850Y0025257D02*
X0045690Y0025257D01*
X0044904Y0026043D02*
X0049850Y0026043D01*
X0049850Y0026828D02*
X0044118Y0026828D01*
X0043265Y0027614D02*
X0049850Y0027614D01*
X0049850Y0028400D02*
X0043358Y0028400D01*
X0043748Y0029186D02*
X0049850Y0029186D01*
X0049850Y0029972D02*
X0043748Y0029972D01*
X0043748Y0030758D02*
X0049850Y0030758D01*
X0049850Y0031544D02*
X0043748Y0031544D01*
X0043549Y0032330D02*
X0049850Y0032330D01*
X0049850Y0033116D02*
X0043074Y0033116D01*
X0043748Y0033902D02*
X0049850Y0033902D01*
X0049850Y0034688D02*
X0043748Y0034688D01*
X0043748Y0035474D02*
X0049850Y0035474D01*
X0049850Y0036259D02*
X0043748Y0036259D01*
X0043748Y0037045D02*
X0049850Y0037045D01*
X0049850Y0037831D02*
X0040402Y0037831D01*
X0036858Y0037831D02*
X0032796Y0037831D01*
X0033121Y0037045D02*
X0033512Y0037045D01*
X0033512Y0036259D02*
X0033315Y0036259D01*
X0033315Y0035474D02*
X0033512Y0035474D01*
X0033512Y0034688D02*
X0033246Y0034688D01*
X0033512Y0033902D02*
X0032920Y0033902D01*
X0032508Y0033116D02*
X0034186Y0033116D01*
X0033711Y0032330D02*
X0031722Y0032330D01*
X0024723Y0034688D02*
X0010299Y0034688D01*
X0010299Y0035474D02*
X0024654Y0035474D01*
X0024654Y0036259D02*
X0010299Y0036259D01*
X0010299Y0037045D02*
X0016981Y0037045D01*
X0017073Y0036953D02*
X0018671Y0036291D01*
X0020400Y0036291D01*
X0021997Y0036953D01*
X0023220Y0038176D01*
X0023882Y0039773D01*
X0023882Y0041502D01*
X0023220Y0043100D01*
X0021997Y0044323D01*
X0020400Y0044984D01*
X0018671Y0044984D01*
X0017073Y0044323D01*
X0015851Y0043100D01*
X0015189Y0041502D01*
X0015189Y0039773D01*
X0015851Y0038176D01*
X0017073Y0036953D01*
X0016195Y0037831D02*
X0010299Y0037831D01*
X0010299Y0038617D02*
X0015668Y0038617D01*
X0015342Y0039403D02*
X0010299Y0039403D01*
X0010299Y0040189D02*
X0015189Y0040189D01*
X0015189Y0040975D02*
X0010299Y0040975D01*
X0010299Y0041761D02*
X0015296Y0041761D01*
X0015622Y0042547D02*
X0010299Y0042547D01*
X0010299Y0043333D02*
X0016084Y0043333D01*
X0016869Y0044119D02*
X0010299Y0044119D01*
X0010299Y0044904D02*
X0018478Y0044904D01*
X0020593Y0044904D02*
X0024654Y0044904D01*
X0024654Y0044698D02*
X0025313Y0043106D01*
X0026531Y0041888D01*
X0028123Y0041228D01*
X0029846Y0041228D01*
X0031437Y0041888D01*
X0032656Y0043106D01*
X0033299Y0044660D01*
X0033299Y0044096D01*
X0033394Y0043742D01*
X0033578Y0043424D01*
X0033837Y0043164D01*
X0034155Y0042981D01*
X0034509Y0042886D01*
X0038433Y0042886D01*
X0038433Y0045264D01*
X0038827Y0045264D01*
X0038827Y0042886D01*
X0042750Y0042886D01*
X0043105Y0042981D01*
X0043423Y0043164D01*
X0043682Y0043424D01*
X0043866Y0043742D01*
X0043932Y0043989D01*
X0044931Y0042991D01*
X0046896Y0042991D01*
X0048285Y0044380D01*
X0048285Y0046345D01*
X0047216Y0047414D01*
X0047697Y0047613D01*
X0048583Y0048499D01*
X0049063Y0049657D01*
X0049063Y0050910D01*
X0048583Y0052068D01*
X0047697Y0052954D01*
X0046540Y0053433D01*
X0045287Y0053433D01*
X0044129Y0052954D01*
X0043625Y0052449D01*
X0043430Y0052449D01*
X0043056Y0052823D01*
X0034204Y0052823D01*
X0033512Y0052131D01*
X0033512Y0049496D01*
X0030796Y0049496D01*
X0031437Y0049762D01*
X0032656Y0050980D01*
X0033315Y0052572D01*
X0033315Y0054295D01*
X0032656Y0055886D01*
X0031437Y0057104D01*
X0029846Y0057764D01*
X0028123Y0057764D01*
X0026531Y0057104D01*
X0025313Y0055886D01*
X0024654Y0054295D01*
X0024654Y0052572D01*
X0025313Y0050980D01*
X0026531Y0049762D01*
X0027172Y0049496D01*
X0026531Y0049230D01*
X0025313Y0048012D01*
X0024654Y0046420D01*
X0024654Y0044698D01*
X0024893Y0044119D02*
X0022201Y0044119D01*
X0022987Y0043333D02*
X0025219Y0043333D01*
X0025872Y0042547D02*
X0023449Y0042547D01*
X0023775Y0041761D02*
X0026837Y0041761D01*
X0023882Y0040975D02*
X0033512Y0040975D01*
X0033512Y0041761D02*
X0031131Y0041761D01*
X0032096Y0042547D02*
X0033928Y0042547D01*
X0033669Y0043333D02*
X0032750Y0043333D01*
X0033075Y0044119D02*
X0033299Y0044119D01*
X0031346Y0047921D02*
X0028984Y0045559D01*
X0031346Y0047921D02*
X0042961Y0047921D01*
X0045520Y0045362D01*
X0045913Y0045362D01*
X0048285Y0045690D02*
X0049850Y0045690D01*
X0049850Y0044904D02*
X0048285Y0044904D01*
X0048024Y0044119D02*
X0049850Y0044119D01*
X0049850Y0043333D02*
X0047238Y0043333D01*
X0049850Y0042547D02*
X0043332Y0042547D01*
X0043591Y0043333D02*
X0044589Y0043333D01*
X0043748Y0041761D02*
X0049850Y0041761D01*
X0049850Y0040975D02*
X0043748Y0040975D01*
X0043748Y0040189D02*
X0049850Y0040189D01*
X0049850Y0039403D02*
X0043748Y0039403D01*
X0043575Y0038617D02*
X0049850Y0038617D01*
X0060874Y0038617D02*
X0070693Y0038617D01*
X0070520Y0038790D02*
X0071212Y0038098D01*
X0073866Y0038098D01*
X0073866Y0037823D01*
X0071212Y0037823D01*
X0070520Y0037131D01*
X0070520Y0036504D01*
X0069937Y0036504D01*
X0069337Y0037104D01*
X0067372Y0037104D01*
X0065983Y0035715D01*
X0065983Y0033750D01*
X0067372Y0032361D01*
X0069337Y0032361D01*
X0069937Y0032961D01*
X0073866Y0032961D01*
X0073866Y0032823D01*
X0071212Y0032823D01*
X0070520Y0032131D01*
X0070520Y0028790D01*
X0071212Y0028098D01*
X0080064Y0028098D01*
X0080756Y0028790D01*
X0080756Y0032131D01*
X0080064Y0032823D01*
X0077409Y0032823D01*
X0077409Y0033098D01*
X0080064Y0033098D01*
X0080756Y0033790D01*
X0080756Y0035510D01*
X0082526Y0035510D01*
X0083913Y0036898D01*
X0085077Y0036898D01*
X0085077Y0036120D01*
X0084301Y0036120D01*
X0082912Y0034730D01*
X0082912Y0032766D01*
X0084265Y0031413D01*
X0081678Y0028827D01*
X0081097Y0028246D01*
X0080955Y0028246D01*
X0080298Y0027589D01*
X0080064Y0027823D01*
X0071212Y0027823D01*
X0070621Y0027232D01*
X0069766Y0027232D01*
X0069205Y0026671D01*
X0068356Y0026671D01*
X0066967Y0025282D01*
X0066967Y0023317D01*
X0068230Y0022054D01*
X0067925Y0021750D01*
X0067077Y0021750D01*
X0065687Y0020360D01*
X0065687Y0018396D01*
X0067077Y0017006D01*
X0069041Y0017006D01*
X0070431Y0018396D01*
X0070431Y0018689D01*
X0070621Y0018689D01*
X0071212Y0018098D01*
X0080064Y0018098D01*
X0080756Y0018790D01*
X0080756Y0019764D01*
X0081939Y0018581D01*
X0083709Y0018581D01*
X0083709Y0017151D01*
X0084363Y0016497D01*
X0084060Y0016622D01*
X0082964Y0016622D01*
X0081951Y0016202D01*
X0081175Y0015427D01*
X0080968Y0014928D01*
X0080968Y0015264D01*
X0075835Y0015264D01*
X0075835Y0015657D01*
X0080968Y0015657D01*
X0080968Y0016825D01*
X0080874Y0017180D01*
X0080690Y0017497D01*
X0080431Y0017757D01*
X0080113Y0017940D01*
X0079758Y0018035D01*
X0075835Y0018035D01*
X0075835Y0015658D01*
X0075441Y0015658D01*
X0075441Y0018035D01*
X0071517Y0018035D01*
X0071163Y0017940D01*
X0070845Y0017757D01*
X0070586Y0017497D01*
X0070402Y0017180D01*
X0070307Y0016825D01*
X0070307Y0015657D01*
X0075441Y0015657D01*
X0075441Y0015264D01*
X0070307Y0015264D01*
X0070307Y0014096D01*
X0070402Y0013742D01*
X0070586Y0013424D01*
X0070845Y0013164D01*
X0071163Y0012981D01*
X0071517Y0012886D01*
X0075441Y0012886D01*
X0075441Y0015264D01*
X0075835Y0015264D01*
X0075835Y0012886D01*
X0079758Y0012886D01*
X0080113Y0012981D01*
X0080431Y0013164D01*
X0080690Y0013424D01*
X0080756Y0013538D01*
X0080756Y0013318D01*
X0081093Y0012504D01*
X0060874Y0012504D01*
X0060874Y0061321D01*
X0061567Y0061034D01*
X0062331Y0060882D01*
X0062331Y0064457D01*
X0063118Y0064457D01*
X0063118Y0065244D01*
X0062331Y0065244D01*
X0062331Y0068818D01*
X0061567Y0068666D01*
X0060874Y0068379D01*
X0060874Y0086488D01*
X0082170Y0086488D01*
X0082118Y0086294D01*
X0082118Y0084142D01*
X0086465Y0084142D01*
X0086465Y0083354D01*
X0087252Y0083354D01*
X0087252Y0079992D01*
X0090388Y0079992D01*
X0090743Y0080087D01*
X0091060Y0080271D01*
X0095323Y0080271D01*
X0095323Y0080008D02*
X0095323Y0080795D01*
X0092748Y0080795D01*
X0092748Y0082160D01*
X0092843Y0082514D01*
X0093026Y0082832D01*
X0093286Y0083092D01*
X0093604Y0083275D01*
X0093958Y0083370D01*
X0094717Y0083370D01*
X0094717Y0086488D01*
X0091546Y0086488D01*
X0091598Y0086294D01*
X0091598Y0084142D01*
X0087252Y0084142D01*
X0087252Y0083354D01*
X0091598Y0083354D01*
X0091598Y0081202D01*
X0091503Y0080848D01*
X0091320Y0080530D01*
X0091060Y0080271D01*
X0091559Y0081056D02*
X0092748Y0081056D01*
X0092748Y0081842D02*
X0091598Y0081842D01*
X0091598Y0082628D02*
X0092909Y0082628D01*
X0094717Y0083414D02*
X0087252Y0083414D01*
X0087252Y0082628D02*
X0086465Y0082628D01*
X0086465Y0083354D02*
X0086465Y0079992D01*
X0083328Y0079992D01*
X0082974Y0080087D01*
X0082656Y0080271D01*
X0082397Y0080530D01*
X0082213Y0080848D01*
X0082118Y0081202D01*
X0082118Y0083354D01*
X0086465Y0083354D01*
X0086465Y0083414D02*
X0060874Y0083414D01*
X0060874Y0082628D02*
X0082118Y0082628D01*
X0082118Y0081842D02*
X0060874Y0081842D01*
X0060874Y0081056D02*
X0082157Y0081056D01*
X0082656Y0080271D02*
X0060874Y0080271D01*
X0060874Y0079485D02*
X0092748Y0079485D01*
X0092748Y0080008D02*
X0092748Y0078643D01*
X0092843Y0078289D01*
X0093026Y0077971D01*
X0093286Y0077712D01*
X0093604Y0077528D01*
X0093958Y0077433D01*
X0095323Y0077433D01*
X0095323Y0080008D01*
X0096110Y0080008D01*
X0096110Y0077433D01*
X0097475Y0077433D01*
X0097829Y0077528D01*
X0098147Y0077712D01*
X0098407Y0077971D01*
X0098590Y0078289D01*
X0098685Y0078643D01*
X0098685Y0080008D01*
X0096110Y0080008D01*
X0096110Y0080795D01*
X0098685Y0080795D01*
X0098685Y0082160D01*
X0098633Y0082354D01*
X0101855Y0082354D01*
X0101803Y0082160D01*
X0101803Y0080795D01*
X0104378Y0080795D01*
X0104378Y0080008D01*
X0101803Y0080008D01*
X0101803Y0078643D01*
X0101898Y0078289D01*
X0102082Y0077971D01*
X0102341Y0077712D01*
X0102659Y0077528D01*
X0103013Y0077433D01*
X0104378Y0077433D01*
X0104378Y0080008D01*
X0105165Y0080008D01*
X0105165Y0077433D01*
X0106530Y0077433D01*
X0106884Y0077528D01*
X0107202Y0077712D01*
X0107462Y0077971D01*
X0107645Y0078289D01*
X0107740Y0078643D01*
X0107740Y0080008D01*
X0105165Y0080008D01*
X0105165Y0080795D01*
X0107740Y0080795D01*
X0107740Y0082160D01*
X0107688Y0082354D01*
X0109286Y0082354D01*
X0110102Y0083171D01*
X0110102Y0086488D01*
X0118229Y0086488D01*
X0117851Y0086110D01*
X0117373Y0086110D01*
X0116288Y0085661D01*
X0115457Y0084830D01*
X0115008Y0083745D01*
X0115008Y0083370D01*
X0114220Y0083370D01*
X0114220Y0080795D01*
X0113433Y0080795D01*
X0113433Y0080008D01*
X0110858Y0080008D01*
X0110858Y0078643D01*
X0110953Y0078289D01*
X0111137Y0077971D01*
X0111396Y0077712D01*
X0111714Y0077528D01*
X0112068Y0077433D01*
X0113433Y0077433D01*
X0113433Y0080008D01*
X0114220Y0080008D01*
X0114220Y0077433D01*
X0115585Y0077433D01*
X0115940Y0077528D01*
X0116257Y0077712D01*
X0116517Y0077971D01*
X0116700Y0078289D01*
X0116795Y0078643D01*
X0116795Y0080008D01*
X0114221Y0080008D01*
X0114221Y0080795D01*
X0116147Y0080795D01*
X0116288Y0080654D01*
X0117373Y0080205D01*
X0118548Y0080205D01*
X0119633Y0080654D01*
X0119913Y0080934D01*
X0119913Y0080795D01*
X0122488Y0080795D01*
X0122488Y0080008D01*
X0119913Y0080008D01*
X0119913Y0078643D01*
X0120008Y0078289D01*
X0120192Y0077971D01*
X0120451Y0077712D01*
X0120769Y0077528D01*
X0121124Y0077433D01*
X0122488Y0077433D01*
X0122488Y0080008D01*
X0123276Y0080008D01*
X0123276Y0080795D01*
X0125850Y0080795D01*
X0125850Y0081078D01*
X0126434Y0080494D01*
X0126160Y0080336D01*
X0125901Y0080076D01*
X0125850Y0079989D01*
X0125850Y0080008D01*
X0123276Y0080008D01*
X0123276Y0077433D01*
X0124640Y0077433D01*
X0124995Y0077528D01*
X0125312Y0077712D01*
X0125572Y0077971D01*
X0125622Y0078058D01*
X0125622Y0077449D01*
X0128591Y0077449D01*
X0128591Y0076661D01*
X0129378Y0076661D01*
X0129378Y0073496D01*
X0131136Y0073496D01*
X0131491Y0073591D01*
X0131809Y0073775D01*
X0132068Y0074034D01*
X0132251Y0074352D01*
X0132346Y0074706D01*
X0132346Y0076661D01*
X0129378Y0076661D01*
X0129378Y0077449D01*
X0132346Y0077449D01*
X0132346Y0078920D01*
X0132410Y0078683D01*
X0132581Y0078386D01*
X0132528Y0078332D01*
X0132528Y0073905D01*
X0132038Y0073905D01*
X0131346Y0073214D01*
X0131346Y0069479D01*
X0132038Y0068787D01*
X0136560Y0068787D01*
X0136708Y0068935D01*
X0136790Y0068853D01*
X0137108Y0068670D01*
X0137462Y0068575D01*
X0139122Y0068575D01*
X0139122Y0071051D01*
X0139713Y0071051D01*
X0139713Y0068575D01*
X0141372Y0068575D01*
X0141727Y0068670D01*
X0142045Y0068853D01*
X0142173Y0068982D01*
X0142173Y0067904D01*
X0142587Y0067491D01*
X0142567Y0067471D01*
X0139614Y0064518D01*
X0139614Y0064749D01*
X0138922Y0065441D01*
X0133915Y0065441D01*
X0133915Y0067014D01*
X0132526Y0068403D01*
X0130953Y0068403D01*
X0130953Y0068489D01*
X0130261Y0069181D01*
X0123771Y0069181D01*
X0123421Y0068831D01*
X0123407Y0068856D01*
X0123147Y0069115D01*
X0122829Y0069299D01*
X0122475Y0069394D01*
X0119929Y0069394D01*
X0119929Y0066425D01*
X0119142Y0066425D01*
X0119142Y0069394D01*
X0116596Y0069394D01*
X0116242Y0069299D01*
X0116076Y0069203D01*
X0119794Y0072921D01*
X0120126Y0072921D01*
X0120126Y0072432D01*
X0120818Y0071740D01*
X0124946Y0071740D01*
X0125638Y0072432D01*
X0125638Y0074648D01*
X0125717Y0074352D01*
X0125901Y0074034D01*
X0126160Y0073775D01*
X0126478Y0073591D01*
X0126832Y0073496D01*
X0128591Y0073496D01*
X0128591Y0076661D01*
X0125622Y0076661D01*
X0125622Y0076576D01*
X0124946Y0077252D01*
X0120818Y0077252D01*
X0120126Y0076560D01*
X0120126Y0076071D01*
X0118489Y0076071D01*
X0117567Y0075148D01*
X0116583Y0074164D01*
X0116583Y0076560D01*
X0115891Y0077252D01*
X0111763Y0077252D01*
X0111071Y0076560D01*
X0111071Y0076071D01*
X0108844Y0076071D01*
X0107921Y0075148D01*
X0107528Y0074755D01*
X0107528Y0076560D01*
X0106836Y0077252D01*
X0102708Y0077252D01*
X0102016Y0076560D01*
X0102016Y0076071D01*
X0100970Y0076071D01*
X0100047Y0075148D01*
X0098472Y0073574D01*
X0098472Y0076560D01*
X0097781Y0077252D01*
X0093652Y0077252D01*
X0092961Y0076560D01*
X0092961Y0072432D01*
X0093177Y0072215D01*
X0092961Y0071999D01*
X0092961Y0071543D01*
X0092767Y0071543D01*
X0092075Y0070851D01*
X0092075Y0065542D01*
X0092767Y0064850D01*
X0096304Y0064850D01*
X0096504Y0065050D01*
X0096704Y0064850D01*
X0099454Y0064850D01*
X0099654Y0065050D01*
X0099853Y0064850D01*
X0102603Y0064850D01*
X0102803Y0065050D01*
X0103003Y0064850D01*
X0106540Y0064850D01*
X0107232Y0065542D01*
X0107232Y0068197D01*
X0115070Y0068197D01*
X0115577Y0068704D01*
X0115481Y0068538D01*
X0115386Y0068183D01*
X0115386Y0066425D01*
X0119142Y0066425D01*
X0119142Y0065638D01*
X0115386Y0065638D01*
X0115386Y0063880D01*
X0115481Y0063525D01*
X0115664Y0063207D01*
X0115924Y0062948D01*
X0116242Y0062764D01*
X0116596Y0062669D01*
X0118277Y0062669D01*
X0117961Y0062353D01*
X0117961Y0061701D01*
X0116290Y0061701D01*
X0115598Y0061009D01*
X0115598Y0056976D01*
X0114417Y0056976D01*
X0114417Y0059440D01*
X0114811Y0059834D01*
X0114811Y0064749D01*
X0114119Y0065441D01*
X0107629Y0065441D01*
X0106937Y0064749D01*
X0106937Y0063666D01*
X0106540Y0064063D01*
X0103003Y0064063D01*
X0102803Y0063863D01*
X0102603Y0064063D01*
X0099853Y0064063D01*
X0099654Y0063863D01*
X0099454Y0064063D01*
X0096704Y0064063D01*
X0096504Y0063863D01*
X0096304Y0064063D01*
X0092767Y0064063D01*
X0092373Y0063669D01*
X0091976Y0063669D01*
X0091976Y0064355D01*
X0091284Y0065047D01*
X0086763Y0065047D01*
X0086465Y0064749D01*
X0086166Y0065047D01*
X0085874Y0065047D01*
X0085874Y0066819D01*
X0090694Y0066819D01*
X0091386Y0067511D01*
X0091386Y0073214D01*
X0090694Y0073905D01*
X0083023Y0073905D01*
X0082331Y0073214D01*
X0082331Y0067511D01*
X0082724Y0067117D01*
X0082724Y0065047D01*
X0081645Y0065047D01*
X0080953Y0064355D01*
X0080953Y0060621D01*
X0081150Y0060424D01*
X0081150Y0055606D01*
X0080557Y0056198D01*
X0078592Y0056198D01*
X0077203Y0054809D01*
X0077203Y0052844D01*
X0077225Y0052823D01*
X0071212Y0052823D01*
X0070621Y0052232D01*
X0068519Y0052232D01*
X0067997Y0052449D01*
X0066744Y0052449D01*
X0065586Y0051969D01*
X0064700Y0051083D01*
X0064220Y0049926D01*
X0064220Y0048673D01*
X0064700Y0047515D01*
X0065586Y0046629D01*
X0066744Y0046150D01*
X0067997Y0046150D01*
X0069154Y0046629D01*
X0070040Y0047515D01*
X0070520Y0048673D01*
X0070520Y0048689D01*
X0070621Y0048689D01*
X0071212Y0048098D01*
X0079575Y0048098D01*
X0079575Y0048035D01*
X0075835Y0048035D01*
X0075835Y0045658D01*
X0075441Y0045658D01*
X0075441Y0048035D01*
X0071517Y0048035D01*
X0071163Y0047940D01*
X0070845Y0047757D01*
X0070586Y0047497D01*
X0070402Y0047180D01*
X0070307Y0046825D01*
X0070307Y0045657D01*
X0075441Y0045657D01*
X0075441Y0045264D01*
X0070307Y0045264D01*
X0070307Y0044096D01*
X0070402Y0043742D01*
X0070586Y0043424D01*
X0070845Y0043164D01*
X0071163Y0042981D01*
X0071517Y0042886D01*
X0075441Y0042886D01*
X0075441Y0045264D01*
X0075835Y0045264D01*
X0075835Y0042886D01*
X0079758Y0042886D01*
X0080113Y0042981D01*
X0080369Y0043129D01*
X0080497Y0043000D01*
X0081482Y0042016D01*
X0088630Y0042016D01*
X0088630Y0040047D01*
X0082732Y0040047D01*
X0082526Y0040254D01*
X0080756Y0040254D01*
X0080756Y0042131D01*
X0080064Y0042823D01*
X0071212Y0042823D01*
X0070520Y0042131D01*
X0070520Y0038790D01*
X0070520Y0039403D02*
X0060874Y0039403D01*
X0060874Y0040189D02*
X0070520Y0040189D01*
X0070520Y0040975D02*
X0060874Y0040975D01*
X0060874Y0041761D02*
X0070520Y0041761D01*
X0070935Y0042547D02*
X0060874Y0042547D01*
X0060874Y0043333D02*
X0070677Y0043333D01*
X0070307Y0044119D02*
X0060874Y0044119D01*
X0060874Y0044904D02*
X0070307Y0044904D01*
X0070307Y0045690D02*
X0060874Y0045690D01*
X0060874Y0046476D02*
X0065955Y0046476D01*
X0064953Y0047262D02*
X0060874Y0047262D01*
X0060874Y0048048D02*
X0064479Y0048048D01*
X0064220Y0048834D02*
X0060874Y0048834D01*
X0060874Y0049620D02*
X0064220Y0049620D01*
X0064419Y0050406D02*
X0060874Y0050406D01*
X0060874Y0051192D02*
X0064808Y0051192D01*
X0065606Y0051978D02*
X0060874Y0051978D01*
X0060874Y0052764D02*
X0071152Y0052764D01*
X0077203Y0053550D02*
X0060874Y0053550D01*
X0060874Y0054335D02*
X0077203Y0054335D01*
X0077515Y0055121D02*
X0060874Y0055121D01*
X0060874Y0055907D02*
X0078301Y0055907D01*
X0080848Y0055907D02*
X0081150Y0055907D01*
X0081150Y0056693D02*
X0060874Y0056693D01*
X0060874Y0057479D02*
X0081150Y0057479D01*
X0081150Y0058265D02*
X0060874Y0058265D01*
X0060874Y0059051D02*
X0081150Y0059051D01*
X0081150Y0059837D02*
X0060874Y0059837D01*
X0060874Y0060623D02*
X0080953Y0060623D01*
X0080953Y0061409D02*
X0074230Y0061409D01*
X0074852Y0061666D02*
X0075909Y0062723D01*
X0076480Y0064103D01*
X0076480Y0065597D01*
X0075909Y0066978D01*
X0074852Y0068034D01*
X0073472Y0068606D01*
X0071977Y0068606D01*
X0070597Y0068034D01*
X0069540Y0066978D01*
X0068969Y0065597D01*
X0068969Y0064103D01*
X0069540Y0062723D01*
X0070597Y0061666D01*
X0071977Y0061094D01*
X0073472Y0061094D01*
X0074852Y0061666D01*
X0075380Y0062195D02*
X0080953Y0062195D01*
X0080953Y0062980D02*
X0076015Y0062980D01*
X0076341Y0063766D02*
X0080953Y0063766D01*
X0081150Y0064552D02*
X0076480Y0064552D01*
X0076480Y0065338D02*
X0082724Y0065338D01*
X0082724Y0066124D02*
X0076262Y0066124D01*
X0075937Y0066910D02*
X0082724Y0066910D01*
X0082331Y0067696D02*
X0075190Y0067696D01*
X0073772Y0068482D02*
X0082331Y0068482D01*
X0082331Y0069268D02*
X0060874Y0069268D01*
X0060874Y0070054D02*
X0082331Y0070054D01*
X0082331Y0070840D02*
X0060874Y0070840D01*
X0060874Y0071626D02*
X0082331Y0071626D01*
X0082331Y0072411D02*
X0060874Y0072411D01*
X0060874Y0073197D02*
X0082331Y0073197D01*
X0084299Y0070362D02*
X0084299Y0062488D01*
X0083906Y0062488D01*
X0082921Y0062488D01*
X0082921Y0062882D01*
X0083118Y0063079D01*
X0082921Y0062488D02*
X0082724Y0062488D01*
X0082724Y0046740D01*
X0083906Y0045559D01*
X0091386Y0045559D01*
X0092567Y0047331D02*
X0089322Y0047331D01*
X0089125Y0047134D01*
X0084558Y0047134D01*
X0084299Y0047392D01*
X0084299Y0059929D01*
X0086166Y0059929D01*
X0086465Y0060227D01*
X0086763Y0059929D01*
X0091284Y0059929D01*
X0091481Y0060126D01*
X0092075Y0060126D01*
X0092075Y0058062D01*
X0092567Y0057570D01*
X0092567Y0054771D01*
X0092002Y0054207D01*
X0091583Y0053194D01*
X0091583Y0052097D01*
X0092002Y0051085D01*
X0092567Y0050520D01*
X0092567Y0047331D01*
X0092567Y0048048D02*
X0084299Y0048048D01*
X0084299Y0048834D02*
X0092567Y0048834D01*
X0092567Y0049620D02*
X0084299Y0049620D01*
X0084299Y0050406D02*
X0092567Y0050406D01*
X0091958Y0051192D02*
X0084299Y0051192D01*
X0084299Y0051978D02*
X0091632Y0051978D01*
X0091583Y0052764D02*
X0084299Y0052764D01*
X0084299Y0053550D02*
X0091730Y0053550D01*
X0092131Y0054335D02*
X0084299Y0054335D01*
X0084299Y0055121D02*
X0092567Y0055121D01*
X0092567Y0055907D02*
X0084299Y0055907D01*
X0084299Y0056693D02*
X0092567Y0056693D01*
X0092567Y0057479D02*
X0084299Y0057479D01*
X0084299Y0058265D02*
X0092075Y0058265D01*
X0092075Y0059051D02*
X0084299Y0059051D01*
X0084299Y0059837D02*
X0092075Y0059837D01*
X0098079Y0060717D02*
X0098276Y0060717D01*
X0098276Y0048512D01*
X0100244Y0048512D02*
X0100244Y0056386D01*
X0101228Y0057370D01*
X0101228Y0060717D01*
X0103984Y0059457D02*
X0104772Y0059457D01*
X0104772Y0060717D01*
X0103984Y0059457D02*
X0103984Y0057370D01*
X0102213Y0055598D01*
X0102213Y0048512D01*
X0104181Y0048512D02*
X0104181Y0053630D01*
X0105165Y0054614D01*
X0106150Y0051858D02*
X0109299Y0055008D01*
X0109299Y0058157D01*
X0112843Y0056189D02*
X0112843Y0062291D01*
X0110874Y0062291D01*
X0114811Y0062195D02*
X0117961Y0062195D01*
X0119535Y0061701D02*
X0120126Y0062291D01*
X0135677Y0062291D01*
X0139614Y0062291D01*
X0144142Y0066819D01*
X0145323Y0066819D01*
X0166780Y0066819D01*
X0173669Y0059929D01*
X0173669Y0055205D01*
X0172882Y0054417D01*
X0169929Y0054417D01*
X0166583Y0051268D02*
X0165598Y0052252D01*
X0165598Y0057764D01*
X0162646Y0060717D01*
X0159890Y0060717D01*
X0157134Y0060623D02*
X0154441Y0060623D01*
X0154338Y0060520D02*
X0154746Y0060927D01*
X0155165Y0061940D01*
X0155165Y0063036D01*
X0154746Y0064049D01*
X0153971Y0064825D01*
X0152958Y0065244D01*
X0152159Y0065244D01*
X0152159Y0065244D01*
X0157134Y0065244D01*
X0157134Y0064017D01*
X0157016Y0063814D01*
X0156921Y0063459D01*
X0156921Y0062685D01*
X0156921Y0061911D01*
X0157016Y0061557D01*
X0157134Y0061353D01*
X0157134Y0060520D01*
X0154338Y0060520D01*
X0154945Y0061409D02*
X0157102Y0061409D01*
X0156921Y0062195D02*
X0155165Y0062195D01*
X0155165Y0062980D02*
X0156921Y0062980D01*
X0156921Y0062685D02*
X0159890Y0062685D01*
X0156921Y0062685D01*
X0157004Y0063766D02*
X0154863Y0063766D01*
X0154243Y0064552D02*
X0157134Y0064552D01*
X0159890Y0062685D02*
X0159890Y0062685D01*
X0162646Y0058489D02*
X0164024Y0057111D01*
X0164024Y0052850D01*
X0164022Y0052852D01*
X0162057Y0052852D01*
X0161063Y0051858D01*
X0159253Y0051858D01*
X0159368Y0051924D01*
X0159627Y0052184D01*
X0159811Y0052501D01*
X0159905Y0052856D01*
X0159905Y0054122D01*
X0157036Y0054122D01*
X0157036Y0054713D01*
X0159905Y0054713D01*
X0159905Y0055979D01*
X0159811Y0056333D01*
X0159627Y0056651D01*
X0159368Y0056911D01*
X0159253Y0056976D01*
X0161954Y0056976D01*
X0162646Y0057668D01*
X0162646Y0058489D01*
X0162646Y0058265D02*
X0162870Y0058265D01*
X0162457Y0057479D02*
X0163656Y0057479D01*
X0164024Y0056693D02*
X0159585Y0056693D01*
X0159905Y0055907D02*
X0164024Y0055907D01*
X0164024Y0055121D02*
X0159905Y0055121D01*
X0157036Y0054335D02*
X0164024Y0054335D01*
X0164024Y0053550D02*
X0159905Y0053550D01*
X0159881Y0052764D02*
X0161969Y0052764D01*
X0161183Y0051978D02*
X0159421Y0051978D01*
X0157613Y0051646D02*
X0157134Y0051166D01*
X0157134Y0045513D01*
X0157016Y0045310D01*
X0156921Y0044955D01*
X0156921Y0044181D01*
X0156921Y0043407D01*
X0157016Y0043053D01*
X0157200Y0042735D01*
X0157312Y0042622D01*
X0156642Y0042622D01*
X0156642Y0040146D01*
X0156051Y0040146D01*
X0156051Y0042622D01*
X0154391Y0042622D01*
X0154037Y0042527D01*
X0153719Y0042344D01*
X0153637Y0042262D01*
X0153489Y0042409D01*
X0152409Y0042409D01*
X0152409Y0051858D01*
X0153883Y0051858D01*
X0154031Y0052006D01*
X0154113Y0051924D01*
X0154431Y0051741D01*
X0154785Y0051646D01*
X0156445Y0051646D01*
X0156445Y0054122D01*
X0157035Y0054122D01*
X0157035Y0051646D01*
X0157613Y0051646D01*
X0157159Y0051192D02*
X0152409Y0051192D01*
X0152409Y0050406D02*
X0157134Y0050406D01*
X0157134Y0049620D02*
X0152409Y0049620D01*
X0152409Y0048834D02*
X0157134Y0048834D01*
X0157134Y0048048D02*
X0152409Y0048048D01*
X0152409Y0047262D02*
X0157134Y0047262D01*
X0157134Y0046476D02*
X0152409Y0046476D01*
X0152409Y0045690D02*
X0157134Y0045690D01*
X0156921Y0044904D02*
X0152409Y0044904D01*
X0152409Y0044119D02*
X0156921Y0044119D01*
X0156921Y0044181D02*
X0159890Y0044181D01*
X0159890Y0044181D01*
X0162858Y0044181D01*
X0162858Y0043407D01*
X0162763Y0043053D01*
X0162580Y0042735D01*
X0162320Y0042475D01*
X0162003Y0042292D01*
X0161648Y0042197D01*
X0159890Y0042197D01*
X0159890Y0044181D01*
X0162858Y0044181D01*
X0162858Y0044575D01*
X0164749Y0044575D01*
X0168157Y0041167D01*
X0168157Y0039752D01*
X0167275Y0039752D01*
X0166583Y0039060D01*
X0166583Y0035523D01*
X0166782Y0035323D01*
X0166586Y0035126D01*
X0165411Y0035126D01*
X0165411Y0036896D01*
X0164022Y0038285D01*
X0162057Y0038285D01*
X0161063Y0037291D01*
X0158860Y0037291D01*
X0158974Y0037357D01*
X0159233Y0037617D01*
X0159417Y0037934D01*
X0159512Y0038289D01*
X0159512Y0039555D01*
X0156642Y0039555D01*
X0156642Y0040146D01*
X0159512Y0040146D01*
X0159512Y0041412D01*
X0159417Y0041766D01*
X0159233Y0042084D01*
X0159121Y0042197D01*
X0159890Y0042197D01*
X0159890Y0044181D01*
X0159890Y0044181D01*
X0159890Y0044181D01*
X0156921Y0044181D01*
X0156941Y0043333D02*
X0152409Y0043333D01*
X0152409Y0042547D02*
X0154110Y0042547D01*
X0156051Y0042547D02*
X0156642Y0042547D01*
X0156642Y0041761D02*
X0156051Y0041761D01*
X0156051Y0040975D02*
X0156642Y0040975D01*
X0156642Y0040189D02*
X0156051Y0040189D01*
X0156051Y0039555D02*
X0156642Y0039555D01*
X0156642Y0037079D01*
X0157613Y0037079D01*
X0157134Y0036599D01*
X0157134Y0031386D01*
X0152409Y0031386D01*
X0152409Y0037291D01*
X0153489Y0037291D01*
X0153637Y0037439D01*
X0153719Y0037357D01*
X0154037Y0037174D01*
X0154391Y0037079D01*
X0156051Y0037079D01*
X0156051Y0039555D01*
X0156051Y0039403D02*
X0156642Y0039403D01*
X0156642Y0038617D02*
X0156051Y0038617D01*
X0156051Y0037831D02*
X0156642Y0037831D01*
X0157580Y0037045D02*
X0152409Y0037045D01*
X0152409Y0036259D02*
X0157134Y0036259D01*
X0157134Y0035474D02*
X0152409Y0035474D01*
X0152409Y0034688D02*
X0157134Y0034688D01*
X0157134Y0033902D02*
X0152409Y0033902D01*
X0152409Y0033116D02*
X0157134Y0033116D01*
X0157134Y0032330D02*
X0152409Y0032330D01*
X0152409Y0031544D02*
X0157134Y0031544D01*
X0159890Y0031583D02*
X0164614Y0031583D01*
X0165598Y0030598D01*
X0169929Y0030598D01*
X0166782Y0029024D02*
X0166583Y0028824D01*
X0166583Y0025286D01*
X0167275Y0024594D01*
X0168157Y0024594D01*
X0168157Y0020424D01*
X0166324Y0018591D01*
X0162858Y0018591D01*
X0162858Y0018984D01*
X0159890Y0018984D01*
X0159890Y0018984D01*
X0162858Y0018984D01*
X0162858Y0019181D01*
X0162986Y0019181D01*
X0163173Y0019369D01*
X0164022Y0019369D01*
X0165411Y0020758D01*
X0165411Y0022723D01*
X0164022Y0024112D01*
X0162057Y0024112D01*
X0160670Y0022724D01*
X0158860Y0022724D01*
X0158974Y0022790D01*
X0159233Y0023050D01*
X0159417Y0023368D01*
X0159512Y0023722D01*
X0159512Y0024988D01*
X0156642Y0024988D01*
X0156642Y0025579D01*
X0159512Y0025579D01*
X0159512Y0026845D01*
X0159417Y0027199D01*
X0159233Y0027517D01*
X0158974Y0027777D01*
X0158860Y0027843D01*
X0161954Y0027843D01*
X0162646Y0028534D01*
X0162646Y0030008D01*
X0163962Y0030008D01*
X0164024Y0029946D01*
X0164946Y0029024D01*
X0166782Y0029024D01*
X0166583Y0028400D02*
X0162512Y0028400D01*
X0162646Y0029186D02*
X0164784Y0029186D01*
X0163998Y0029972D02*
X0162646Y0029972D01*
X0159136Y0027614D02*
X0166583Y0027614D01*
X0166583Y0026828D02*
X0159512Y0026828D01*
X0159512Y0026043D02*
X0166583Y0026043D01*
X0166612Y0025257D02*
X0156642Y0025257D01*
X0156642Y0024988D02*
X0156051Y0024988D01*
X0156051Y0022512D01*
X0154391Y0022512D01*
X0154037Y0022607D01*
X0153719Y0022790D01*
X0153637Y0022872D01*
X0153489Y0022724D01*
X0152409Y0022724D01*
X0152409Y0021597D01*
X0151031Y0020219D01*
X0150636Y0019823D01*
X0150654Y0019758D01*
X0150654Y0018984D01*
X0147685Y0018984D01*
X0144717Y0018984D01*
X0144717Y0018591D01*
X0143561Y0018591D01*
X0143561Y0018786D01*
X0142171Y0020175D01*
X0140207Y0020175D01*
X0138817Y0018786D01*
X0138817Y0016821D01*
X0140207Y0015431D01*
X0142171Y0015431D01*
X0142181Y0015441D01*
X0144717Y0015441D01*
X0144717Y0015047D01*
X0144717Y0014273D01*
X0144812Y0013919D01*
X0144995Y0013601D01*
X0145254Y0013341D01*
X0145572Y0013158D01*
X0145927Y0013063D01*
X0147685Y0013063D01*
X0147685Y0015047D01*
X0147685Y0015047D01*
X0147685Y0013063D01*
X0149443Y0013063D01*
X0149798Y0013158D01*
X0150116Y0013341D01*
X0150375Y0013601D01*
X0150559Y0013919D01*
X0150654Y0014273D01*
X0150654Y0015047D01*
X0147685Y0015047D01*
X0144717Y0015047D01*
X0147685Y0015047D01*
X0147685Y0015047D01*
X0147685Y0015047D01*
X0150654Y0015047D01*
X0150654Y0015821D01*
X0150559Y0016176D01*
X0150441Y0016379D01*
X0150441Y0017652D01*
X0150559Y0017856D01*
X0150654Y0018210D01*
X0150654Y0018984D01*
X0147685Y0018984D01*
X0147685Y0018984D01*
X0147685Y0018984D01*
X0144717Y0018984D01*
X0144717Y0019758D01*
X0144812Y0020113D01*
X0144929Y0020316D01*
X0144929Y0022033D01*
X0145621Y0022724D01*
X0148526Y0022724D01*
X0148747Y0022945D01*
X0148276Y0023416D01*
X0148276Y0027151D01*
X0148755Y0027630D01*
X0147685Y0027630D01*
X0147685Y0029614D01*
X0147685Y0029614D01*
X0147685Y0027630D01*
X0145927Y0027630D01*
X0145572Y0027725D01*
X0145254Y0027908D01*
X0144995Y0028168D01*
X0144812Y0028486D01*
X0144717Y0028840D01*
X0144717Y0029614D01*
X0147685Y0029614D01*
X0147685Y0029614D01*
X0144717Y0029614D01*
X0144717Y0030008D01*
X0138962Y0030008D01*
X0138055Y0030915D01*
X0138055Y0029234D01*
X0137960Y0028879D01*
X0137777Y0028562D01*
X0137517Y0028302D01*
X0137199Y0028119D01*
X0136845Y0028024D01*
X0135164Y0028024D01*
X0136071Y0027117D01*
X0136071Y0026661D01*
X0137151Y0026661D01*
X0137843Y0025970D01*
X0137843Y0019873D01*
X0137151Y0019181D01*
X0136071Y0019181D01*
X0136071Y0018591D01*
X0137151Y0018591D01*
X0137843Y0017899D01*
X0137843Y0014164D01*
X0137151Y0013472D01*
X0132629Y0013472D01*
X0132481Y0013620D01*
X0132399Y0013538D01*
X0132081Y0013355D01*
X0131727Y0013260D01*
X0130067Y0013260D01*
X0130067Y0015736D01*
X0129476Y0015736D01*
X0126606Y0015736D01*
X0126606Y0014470D01*
X0126701Y0014116D01*
X0126885Y0013798D01*
X0127144Y0013538D01*
X0127462Y0013355D01*
X0127817Y0013260D01*
X0129476Y0013260D01*
X0129476Y0015736D01*
X0129476Y0016327D01*
X0126606Y0016327D01*
X0126606Y0017593D01*
X0126701Y0017947D01*
X0126885Y0018265D01*
X0127144Y0018525D01*
X0127462Y0018708D01*
X0127817Y0018803D01*
X0129476Y0018803D01*
X0129476Y0016327D01*
X0130067Y0016327D01*
X0130067Y0018803D01*
X0131727Y0018803D01*
X0132081Y0018708D01*
X0132399Y0018525D01*
X0132481Y0018443D01*
X0132629Y0018591D01*
X0132921Y0018591D01*
X0132921Y0019181D01*
X0131841Y0019181D01*
X0131150Y0019873D01*
X0131150Y0025970D01*
X0131841Y0026661D01*
X0132072Y0026661D01*
X0132072Y0026661D01*
X0129923Y0026661D01*
X0130037Y0026596D01*
X0130296Y0026336D01*
X0130480Y0026018D01*
X0130575Y0025664D01*
X0130575Y0023315D01*
X0127409Y0023315D01*
X0127409Y0022528D01*
X0127409Y0018969D01*
X0126622Y0018969D01*
X0126622Y0018968D02*
X0126622Y0022528D01*
X0127409Y0022528D01*
X0130575Y0022528D01*
X0130575Y0020179D01*
X0130480Y0019824D01*
X0130296Y0019506D01*
X0130037Y0019247D01*
X0129719Y0019063D01*
X0129365Y0018969D01*
X0127409Y0018969D01*
X0127409Y0019755D02*
X0126622Y0019755D01*
X0126622Y0020541D02*
X0127409Y0020541D01*
X0127409Y0021327D02*
X0126622Y0021327D01*
X0126622Y0022113D02*
X0127409Y0022113D01*
X0127409Y0022899D02*
X0131150Y0022899D01*
X0131150Y0023685D02*
X0130575Y0023685D01*
X0130575Y0024471D02*
X0131150Y0024471D01*
X0131150Y0025257D02*
X0130575Y0025257D01*
X0130466Y0026043D02*
X0131223Y0026043D01*
X0132724Y0028236D02*
X0134496Y0026465D01*
X0134496Y0022921D01*
X0134496Y0016425D01*
X0134890Y0016031D01*
X0137843Y0015826D02*
X0139812Y0015826D01*
X0139026Y0016612D02*
X0137843Y0016612D01*
X0137843Y0017398D02*
X0138817Y0017398D01*
X0138817Y0018183D02*
X0137558Y0018183D01*
X0139001Y0018969D02*
X0136071Y0018969D01*
X0137725Y0019755D02*
X0139787Y0019755D01*
X0137843Y0020541D02*
X0144929Y0020541D01*
X0144929Y0021327D02*
X0137843Y0021327D01*
X0137843Y0022113D02*
X0145010Y0022113D01*
X0144717Y0019755D02*
X0142591Y0019755D01*
X0143377Y0018969D02*
X0144717Y0018969D01*
X0141976Y0017016D02*
X0141189Y0017803D01*
X0141976Y0017016D02*
X0147685Y0017016D01*
X0147685Y0015040D02*
X0147685Y0015040D01*
X0147685Y0014254D02*
X0147685Y0014254D01*
X0147685Y0013468D02*
X0147685Y0013468D01*
X0145128Y0013468D02*
X0132277Y0013468D01*
X0130067Y0013468D02*
X0129476Y0013468D01*
X0129476Y0014254D02*
X0130067Y0014254D01*
X0130067Y0015040D02*
X0129476Y0015040D01*
X0129476Y0015826D02*
X0125459Y0015826D01*
X0125364Y0016057D02*
X0124994Y0016610D01*
X0124523Y0017081D01*
X0123970Y0017450D01*
X0123355Y0017705D01*
X0122998Y0017776D01*
X0124295Y0019073D01*
X0124312Y0019063D01*
X0124667Y0018969D01*
X0126622Y0018968D01*
X0126838Y0018183D02*
X0123405Y0018183D01*
X0124049Y0017398D02*
X0126606Y0017398D01*
X0126606Y0016612D02*
X0124992Y0016612D01*
X0125364Y0016057D02*
X0125618Y0015442D01*
X0125748Y0014789D01*
X0125748Y0014555D01*
X0122469Y0014555D01*
X0122469Y0014358D01*
X0125748Y0014358D01*
X0125748Y0014124D01*
X0125618Y0013471D01*
X0125364Y0012857D01*
X0125128Y0012504D01*
X0162032Y0012504D01*
X0161260Y0013276D01*
X0157826Y0013276D01*
X0157134Y0013967D01*
X0157134Y0017652D01*
X0157016Y0017856D01*
X0156921Y0018210D01*
X0156921Y0018984D01*
X0159890Y0018984D01*
X0159890Y0018984D01*
X0156921Y0018984D01*
X0156921Y0019758D01*
X0157016Y0020113D01*
X0157134Y0020316D01*
X0157134Y0022033D01*
X0157613Y0022512D01*
X0156642Y0022512D01*
X0156642Y0024988D01*
X0156642Y0024471D02*
X0156051Y0024471D01*
X0156051Y0023685D02*
X0156642Y0023685D01*
X0156642Y0022899D02*
X0156051Y0022899D01*
X0157214Y0022113D02*
X0152409Y0022113D01*
X0152140Y0021327D02*
X0157134Y0021327D01*
X0157134Y0020541D02*
X0151354Y0020541D01*
X0150654Y0019755D02*
X0156921Y0019755D01*
X0156921Y0018969D02*
X0150654Y0018969D01*
X0150646Y0018183D02*
X0156928Y0018183D01*
X0157134Y0017398D02*
X0150441Y0017398D01*
X0150441Y0016612D02*
X0157134Y0016612D01*
X0157134Y0015826D02*
X0150652Y0015826D01*
X0150654Y0015040D02*
X0157134Y0015040D01*
X0157134Y0014254D02*
X0150648Y0014254D01*
X0150242Y0013468D02*
X0157633Y0013468D01*
X0159890Y0015047D02*
X0162843Y0015047D01*
X0163236Y0014654D01*
X0165608Y0015040D02*
X0176059Y0015040D01*
X0176059Y0015008D02*
X0179338Y0015008D01*
X0179338Y0014811D01*
X0176059Y0014811D01*
X0176059Y0014577D01*
X0176189Y0013924D01*
X0176444Y0013309D01*
X0176813Y0012756D01*
X0177065Y0012504D01*
X0164441Y0012504D01*
X0165608Y0013671D01*
X0165608Y0015441D01*
X0167629Y0015441D01*
X0171307Y0019119D01*
X0171307Y0024594D01*
X0172094Y0024594D01*
X0172094Y0024434D01*
X0173017Y0023512D01*
X0173079Y0023450D01*
X0174001Y0022528D01*
X0177579Y0022528D01*
X0176754Y0021702D01*
X0176272Y0020539D01*
X0176272Y0019280D01*
X0176754Y0018116D01*
X0177315Y0017554D01*
X0177284Y0017533D01*
X0176813Y0017063D01*
X0176444Y0016509D01*
X0176189Y0015895D01*
X0176059Y0015242D01*
X0176059Y0015008D01*
X0176123Y0014254D02*
X0165608Y0014254D01*
X0165405Y0013468D02*
X0176378Y0013468D01*
X0176887Y0012682D02*
X0164619Y0012682D01*
X0161854Y0012682D02*
X0125247Y0012682D01*
X0125617Y0013468D02*
X0127266Y0013468D01*
X0126664Y0014254D02*
X0125748Y0014254D01*
X0125698Y0015040D02*
X0126606Y0015040D01*
X0129476Y0016612D02*
X0130067Y0016612D01*
X0130067Y0017398D02*
X0129476Y0017398D01*
X0129476Y0018183D02*
X0130067Y0018183D01*
X0129368Y0018969D02*
X0132921Y0018969D01*
X0131267Y0019755D02*
X0130440Y0019755D01*
X0130575Y0020541D02*
X0131150Y0020541D01*
X0131150Y0021327D02*
X0130575Y0021327D01*
X0130575Y0022113D02*
X0131150Y0022113D01*
X0137843Y0022899D02*
X0148701Y0022899D01*
X0148276Y0023685D02*
X0137843Y0023685D01*
X0137843Y0024471D02*
X0148276Y0024471D01*
X0148276Y0025257D02*
X0137843Y0025257D01*
X0137769Y0026043D02*
X0148276Y0026043D01*
X0148276Y0026828D02*
X0136071Y0026828D01*
X0135573Y0027614D02*
X0148739Y0027614D01*
X0147685Y0028400D02*
X0147685Y0028400D01*
X0147685Y0029186D02*
X0147685Y0029186D01*
X0144861Y0028400D02*
X0137615Y0028400D01*
X0138042Y0029186D02*
X0144717Y0029186D01*
X0144717Y0029972D02*
X0138055Y0029972D01*
X0138055Y0030758D02*
X0138212Y0030758D01*
X0139614Y0031583D02*
X0138039Y0033157D01*
X0138039Y0048315D01*
X0135677Y0050677D01*
X0119339Y0050677D01*
X0117173Y0048512D01*
X0115992Y0048512D01*
X0114024Y0048512D02*
X0114024Y0050480D01*
X0115795Y0052252D01*
X0136268Y0052252D01*
X0139614Y0048906D01*
X0139614Y0035126D01*
X0140598Y0034142D01*
X0141189Y0036898D02*
X0144535Y0033551D01*
X0147685Y0033551D01*
X0147685Y0031583D02*
X0139614Y0031583D01*
X0134890Y0032370D02*
X0134102Y0032370D01*
X0134102Y0031583D01*
X0130937Y0031583D01*
X0130937Y0029811D01*
X0130362Y0029811D01*
X0130362Y0035025D01*
X0129670Y0035717D01*
X0129181Y0035717D01*
X0129181Y0036307D01*
X0129867Y0036307D01*
X0130015Y0036455D01*
X0130097Y0036373D01*
X0130415Y0036189D01*
X0130769Y0036094D01*
X0132429Y0036094D01*
X0132429Y0038571D01*
X0133020Y0038571D01*
X0133020Y0039161D01*
X0135890Y0039161D01*
X0135890Y0040428D01*
X0135795Y0040782D01*
X0135611Y0041100D01*
X0135352Y0041359D01*
X0135238Y0041425D01*
X0135352Y0041491D01*
X0135611Y0041751D01*
X0135795Y0042068D01*
X0135890Y0042423D01*
X0135890Y0043689D01*
X0133020Y0043689D01*
X0133020Y0044280D01*
X0135890Y0044280D01*
X0135890Y0045546D01*
X0135795Y0045900D01*
X0135611Y0046218D01*
X0135387Y0046442D01*
X0136080Y0047136D01*
X0136080Y0048047D01*
X0136465Y0047663D01*
X0136465Y0035929D01*
X0134890Y0035929D01*
X0134890Y0032370D01*
X0134890Y0033116D02*
X0134102Y0033116D01*
X0134102Y0032370D02*
X0134102Y0035929D01*
X0132147Y0035929D01*
X0131793Y0035834D01*
X0131475Y0035651D01*
X0131215Y0035391D01*
X0131032Y0035073D01*
X0130937Y0034719D01*
X0130937Y0032370D01*
X0134102Y0032370D01*
X0134102Y0032330D02*
X0130362Y0032330D01*
X0130362Y0033116D02*
X0130937Y0033116D01*
X0130937Y0033902D02*
X0130362Y0033902D01*
X0130362Y0034688D02*
X0130937Y0034688D01*
X0131298Y0035474D02*
X0129913Y0035474D01*
X0130294Y0036259D02*
X0129181Y0036259D01*
X0132429Y0036259D02*
X0133020Y0036259D01*
X0133020Y0036094D02*
X0134680Y0036094D01*
X0135034Y0036189D01*
X0135352Y0036373D01*
X0135611Y0036632D01*
X0135795Y0036950D01*
X0135890Y0037305D01*
X0135890Y0038571D01*
X0133020Y0038571D01*
X0133020Y0036094D01*
X0133020Y0037045D02*
X0132429Y0037045D01*
X0132429Y0037831D02*
X0133020Y0037831D01*
X0133020Y0038617D02*
X0136465Y0038617D01*
X0136465Y0037831D02*
X0135890Y0037831D01*
X0135820Y0037045D02*
X0136465Y0037045D01*
X0136465Y0036259D02*
X0135155Y0036259D01*
X0134890Y0035474D02*
X0134102Y0035474D01*
X0134102Y0034688D02*
X0134890Y0034688D01*
X0134890Y0033902D02*
X0134102Y0033902D01*
X0130937Y0031544D02*
X0130362Y0031544D01*
X0130362Y0030758D02*
X0130937Y0030758D01*
X0130937Y0029972D02*
X0130362Y0029972D01*
X0132724Y0028236D02*
X0124260Y0028236D01*
X0120717Y0031780D01*
X0118945Y0031780D01*
X0118945Y0033748D02*
X0125244Y0033748D01*
X0127016Y0031976D01*
X0127606Y0032567D01*
X0127606Y0038866D01*
X0124654Y0037291D02*
X0124654Y0043394D01*
X0125244Y0043984D01*
X0127606Y0043984D01*
X0132429Y0043689D02*
X0133020Y0043689D01*
X0133020Y0041213D01*
X0133020Y0039161D01*
X0132429Y0039161D01*
X0132429Y0043689D01*
X0132429Y0043333D02*
X0133020Y0043333D01*
X0133020Y0044119D02*
X0136465Y0044119D01*
X0136465Y0044904D02*
X0135890Y0044904D01*
X0135851Y0045690D02*
X0136465Y0045690D01*
X0136465Y0046476D02*
X0135421Y0046476D01*
X0136080Y0047262D02*
X0136465Y0047262D01*
X0133709Y0048118D02*
X0125835Y0048118D01*
X0121307Y0043591D01*
X0118945Y0043591D01*
X0118945Y0045559D02*
X0118945Y0047331D01*
X0119732Y0048118D01*
X0121898Y0048118D01*
X0115008Y0053827D02*
X0112055Y0050874D01*
X0112055Y0048512D01*
X0110087Y0048512D02*
X0110087Y0051071D01*
X0114417Y0055402D01*
X0138236Y0055402D01*
X0145520Y0048118D01*
X0147685Y0048118D01*
X0147685Y0046150D02*
X0143748Y0046150D01*
X0144717Y0043778D02*
X0142766Y0043778D01*
X0142764Y0043780D01*
X0142764Y0037550D01*
X0144929Y0035385D01*
X0144929Y0036599D01*
X0145621Y0037291D01*
X0148866Y0037291D01*
X0148866Y0037393D01*
X0148276Y0037983D01*
X0148276Y0041718D01*
X0148755Y0042197D01*
X0147685Y0042197D01*
X0147685Y0044181D01*
X0147685Y0044181D01*
X0147685Y0042197D01*
X0145927Y0042197D01*
X0145572Y0042292D01*
X0145254Y0042475D01*
X0144995Y0042735D01*
X0144812Y0043053D01*
X0144717Y0043407D01*
X0144717Y0043778D01*
X0144736Y0043333D02*
X0142764Y0043333D01*
X0142764Y0042547D02*
X0145183Y0042547D01*
X0147685Y0042547D02*
X0147685Y0042547D01*
X0147685Y0043333D02*
X0147685Y0043333D01*
X0147685Y0044119D02*
X0147685Y0044119D01*
X0148319Y0041761D02*
X0142764Y0041761D01*
X0142764Y0040975D02*
X0148276Y0040975D01*
X0148276Y0040189D02*
X0142764Y0040189D01*
X0142764Y0039403D02*
X0148276Y0039403D01*
X0148276Y0038617D02*
X0142764Y0038617D01*
X0142764Y0037831D02*
X0148428Y0037831D01*
X0150638Y0039260D02*
X0151228Y0039850D01*
X0145375Y0037045D02*
X0143268Y0037045D01*
X0144054Y0036259D02*
X0144929Y0036259D01*
X0144929Y0035474D02*
X0144840Y0035474D01*
X0141189Y0036898D02*
X0141189Y0049890D01*
X0137252Y0053827D01*
X0115008Y0053827D01*
X0112843Y0056189D02*
X0108118Y0051465D01*
X0108118Y0048512D01*
X0106150Y0048512D02*
X0106150Y0051858D01*
X0096307Y0048512D02*
X0096307Y0043591D01*
X0096701Y0043197D01*
X0103787Y0036110D01*
X0105362Y0037685D01*
X0105559Y0037831D02*
X0104772Y0037831D01*
X0104772Y0037045D02*
X0105559Y0037045D01*
X0105559Y0036259D02*
X0104772Y0036259D01*
X0104772Y0035474D02*
X0105559Y0035474D01*
X0105559Y0035126D02*
X0105559Y0045756D01*
X0104772Y0045756D01*
X0104772Y0035126D01*
X0105559Y0035126D01*
X0116189Y0035126D01*
X0116189Y0034339D01*
X0105559Y0034339D01*
X0105559Y0035126D01*
X0105559Y0034688D02*
X0116189Y0034688D01*
X0113630Y0034732D02*
X0113433Y0034732D01*
X0108118Y0029417D01*
X0108118Y0031780D01*
X0105165Y0034732D01*
X0096701Y0034732D01*
X0094142Y0034688D02*
X0104772Y0034688D01*
X0104772Y0034339D02*
X0094142Y0034339D01*
X0094142Y0035126D01*
X0104772Y0035126D01*
X0104772Y0034339D01*
X0104772Y0023709D01*
X0105559Y0023709D01*
X0105559Y0034339D01*
X0104772Y0034339D01*
X0104772Y0033902D02*
X0105559Y0033902D01*
X0105559Y0033116D02*
X0104772Y0033116D01*
X0104772Y0032330D02*
X0105559Y0032330D01*
X0105559Y0031544D02*
X0104772Y0031544D01*
X0104772Y0030758D02*
X0105559Y0030758D01*
X0105559Y0029972D02*
X0104772Y0029972D01*
X0104772Y0029186D02*
X0105559Y0029186D01*
X0105559Y0028400D02*
X0104772Y0028400D01*
X0104772Y0027614D02*
X0105559Y0027614D01*
X0105559Y0026828D02*
X0104772Y0026828D01*
X0105165Y0026268D02*
X0107724Y0026268D01*
X0108118Y0025874D01*
X0108118Y0020953D01*
X0104181Y0020953D02*
X0104181Y0017803D01*
X0102409Y0017803D02*
X0102213Y0018000D01*
X0102213Y0020953D01*
X0100244Y0020953D02*
X0100244Y0017803D01*
X0094339Y0020953D02*
X0092961Y0020953D01*
X0090598Y0018591D01*
X0090598Y0016228D01*
X0086858Y0016228D02*
X0085283Y0017803D01*
X0085283Y0023315D01*
X0085874Y0023906D01*
X0085874Y0026465D01*
X0087252Y0027843D01*
X0091386Y0027843D01*
X0088417Y0026268D02*
X0088417Y0025874D01*
X0088417Y0025100D01*
X0088512Y0024746D01*
X0088630Y0024542D01*
X0088630Y0023519D01*
X0088628Y0023521D01*
X0087449Y0023521D01*
X0087449Y0025812D01*
X0087904Y0026268D01*
X0088417Y0026268D01*
X0088417Y0026043D02*
X0087679Y0026043D01*
X0088417Y0025874D02*
X0091386Y0025874D01*
X0096307Y0025874D01*
X0096701Y0026268D01*
X0105165Y0034732D01*
X0113630Y0026268D01*
X0114024Y0025874D01*
X0114024Y0020953D01*
X0115992Y0020953D02*
X0115992Y0017803D01*
X0124191Y0018969D02*
X0124664Y0018969D01*
X0122685Y0023906D02*
X0118945Y0023906D01*
X0122685Y0023906D02*
X0122882Y0024102D01*
X0108118Y0025874D02*
X0108118Y0029417D01*
X0105559Y0026043D02*
X0104772Y0026043D01*
X0104772Y0025257D02*
X0105559Y0025257D01*
X0105559Y0024471D02*
X0104772Y0024471D01*
X0091386Y0023906D02*
X0091386Y0021937D01*
X0090598Y0021150D01*
X0087646Y0021150D01*
X0082921Y0020953D02*
X0082921Y0023315D01*
X0084299Y0024693D01*
X0084299Y0027055D01*
X0087055Y0029811D01*
X0091386Y0029811D01*
X0091386Y0031780D02*
X0086858Y0031780D01*
X0082331Y0027252D01*
X0082331Y0026268D01*
X0081937Y0025874D01*
X0080323Y0027614D02*
X0080272Y0027614D01*
X0080366Y0028400D02*
X0081252Y0028400D01*
X0080756Y0029186D02*
X0082038Y0029186D01*
X0082824Y0029972D02*
X0080756Y0029972D01*
X0080756Y0030758D02*
X0083610Y0030758D01*
X0084133Y0031544D02*
X0080756Y0031544D01*
X0080557Y0032330D02*
X0083348Y0032330D01*
X0082912Y0033116D02*
X0080081Y0033116D01*
X0080756Y0033902D02*
X0082912Y0033902D01*
X0082912Y0034688D02*
X0080756Y0034688D01*
X0080756Y0035474D02*
X0083655Y0035474D01*
X0083275Y0036259D02*
X0085077Y0036259D01*
X0087449Y0036110D02*
X0087843Y0035717D01*
X0091386Y0035717D01*
X0091386Y0037685D02*
X0089417Y0037685D01*
X0088630Y0038472D01*
X0082134Y0038472D01*
X0081543Y0037882D01*
X0082590Y0040189D02*
X0088630Y0040189D01*
X0088630Y0040975D02*
X0080756Y0040975D01*
X0080756Y0041761D02*
X0088630Y0041761D01*
X0091386Y0043591D02*
X0082134Y0043591D01*
X0081150Y0044575D01*
X0081150Y0052252D01*
X0079575Y0053827D01*
X0079575Y0048048D02*
X0070261Y0048048D01*
X0070450Y0047262D02*
X0069787Y0047262D01*
X0070307Y0046476D02*
X0068785Y0046476D01*
X0075441Y0046476D02*
X0075835Y0046476D01*
X0075835Y0045690D02*
X0075441Y0045690D01*
X0075441Y0044904D02*
X0075835Y0044904D01*
X0075835Y0044119D02*
X0075441Y0044119D01*
X0075441Y0043333D02*
X0075835Y0043333D01*
X0080340Y0042547D02*
X0080951Y0042547D01*
X0084429Y0047262D02*
X0089253Y0047262D01*
X0094339Y0048512D02*
X0094339Y0052646D01*
X0104772Y0045690D02*
X0105559Y0045690D01*
X0105559Y0044904D02*
X0104772Y0044904D01*
X0104772Y0044119D02*
X0105559Y0044119D01*
X0105559Y0043333D02*
X0104772Y0043333D01*
X0104772Y0042547D02*
X0105559Y0042547D01*
X0105559Y0041761D02*
X0104772Y0041761D01*
X0104772Y0040975D02*
X0105559Y0040975D01*
X0105559Y0040189D02*
X0104772Y0040189D01*
X0104772Y0039403D02*
X0105559Y0039403D01*
X0105559Y0038617D02*
X0104772Y0038617D01*
X0103787Y0036110D02*
X0105165Y0034732D01*
X0113630Y0034732D02*
X0113630Y0036110D01*
X0115205Y0037685D01*
X0118945Y0037685D01*
X0118945Y0035717D02*
X0123079Y0035717D01*
X0124654Y0037291D01*
X0122291Y0038669D02*
X0121307Y0039654D01*
X0118945Y0039654D01*
X0115205Y0037685D02*
X0113630Y0039260D01*
X0113630Y0043197D01*
X0132429Y0042547D02*
X0133020Y0042547D01*
X0133020Y0041761D02*
X0132429Y0041761D01*
X0132429Y0040975D02*
X0133020Y0040975D01*
X0133020Y0040189D02*
X0132429Y0040189D01*
X0132429Y0039403D02*
X0133020Y0039403D01*
X0135890Y0039403D02*
X0136465Y0039403D01*
X0136465Y0040189D02*
X0135890Y0040189D01*
X0135683Y0040975D02*
X0136465Y0040975D01*
X0136465Y0041761D02*
X0135617Y0041761D01*
X0135890Y0042547D02*
X0136465Y0042547D01*
X0136465Y0043333D02*
X0135890Y0043333D01*
X0144673Y0051192D02*
X0144955Y0051192D01*
X0144929Y0051166D02*
X0144929Y0050936D01*
X0138889Y0056976D01*
X0131165Y0056976D01*
X0131165Y0058157D01*
X0127409Y0058157D01*
X0127409Y0058945D01*
X0131165Y0058945D01*
X0131165Y0060703D01*
X0131162Y0060717D01*
X0131740Y0060717D01*
X0131740Y0059834D01*
X0132432Y0059142D01*
X0138922Y0059142D01*
X0139614Y0059834D01*
X0139614Y0060717D01*
X0140266Y0060717D01*
X0144794Y0065244D01*
X0144929Y0065244D01*
X0144929Y0064017D01*
X0144812Y0063814D01*
X0144717Y0063459D01*
X0144717Y0062685D01*
X0144717Y0062140D01*
X0143945Y0061369D01*
X0143623Y0061046D01*
X0143156Y0061513D01*
X0141191Y0061513D01*
X0139802Y0060124D01*
X0139802Y0058159D01*
X0141191Y0056770D01*
X0143156Y0056770D01*
X0143952Y0057567D01*
X0144597Y0057567D01*
X0144777Y0057747D01*
X0144812Y0057620D01*
X0144995Y0057302D01*
X0145254Y0057042D01*
X0145572Y0056859D01*
X0145927Y0056764D01*
X0147685Y0056764D01*
X0147685Y0058748D01*
X0147685Y0058748D01*
X0147685Y0056764D01*
X0148866Y0056764D01*
X0148866Y0056481D01*
X0148669Y0056284D01*
X0148669Y0052550D01*
X0148866Y0052353D01*
X0148866Y0051858D01*
X0145621Y0051858D01*
X0144929Y0051166D01*
X0143887Y0051978D02*
X0148866Y0051978D01*
X0148669Y0052764D02*
X0143101Y0052764D01*
X0142315Y0053550D02*
X0148669Y0053550D01*
X0148669Y0054335D02*
X0141529Y0054335D01*
X0140744Y0055121D02*
X0148669Y0055121D01*
X0148669Y0055907D02*
X0139958Y0055907D01*
X0139172Y0056693D02*
X0148866Y0056693D01*
X0147685Y0057479D02*
X0147685Y0057479D01*
X0147685Y0058265D02*
X0147685Y0058265D01*
X0144893Y0057479D02*
X0143865Y0057479D01*
X0143945Y0059142D02*
X0142173Y0059142D01*
X0143945Y0059142D02*
X0145520Y0060717D01*
X0147685Y0060717D01*
X0143985Y0061409D02*
X0143260Y0061409D01*
X0144717Y0062195D02*
X0141745Y0062195D01*
X0141086Y0061409D02*
X0140959Y0061409D01*
X0140300Y0060623D02*
X0139614Y0060623D01*
X0139614Y0059837D02*
X0139802Y0059837D01*
X0139802Y0059051D02*
X0131165Y0059051D01*
X0131165Y0059837D02*
X0131740Y0059837D01*
X0131740Y0060623D02*
X0131165Y0060623D01*
X0127409Y0058265D02*
X0139802Y0058265D01*
X0140482Y0057479D02*
X0131165Y0057479D01*
X0119535Y0058551D02*
X0119535Y0061701D01*
X0115998Y0061409D02*
X0114811Y0061409D01*
X0114811Y0060623D02*
X0115598Y0060623D01*
X0115598Y0059837D02*
X0114811Y0059837D01*
X0114417Y0059051D02*
X0115598Y0059051D01*
X0115598Y0058265D02*
X0114417Y0058265D01*
X0114417Y0057479D02*
X0115598Y0057479D01*
X0115891Y0062980D02*
X0114811Y0062980D01*
X0114811Y0063766D02*
X0115416Y0063766D01*
X0115386Y0064552D02*
X0114811Y0064552D01*
X0115386Y0065338D02*
X0114222Y0065338D01*
X0115386Y0066910D02*
X0107232Y0066910D01*
X0107232Y0066124D02*
X0119142Y0066124D01*
X0119142Y0066910D02*
X0119929Y0066910D01*
X0119929Y0067696D02*
X0119142Y0067696D01*
X0119142Y0068482D02*
X0119929Y0068482D01*
X0119929Y0069268D02*
X0119142Y0069268D01*
X0116926Y0070054D02*
X0131346Y0070054D01*
X0131346Y0070840D02*
X0117712Y0070840D01*
X0118498Y0071626D02*
X0131346Y0071626D01*
X0131346Y0072411D02*
X0125617Y0072411D01*
X0125638Y0073197D02*
X0131346Y0073197D01*
X0132017Y0073983D02*
X0132528Y0073983D01*
X0132528Y0074769D02*
X0132346Y0074769D01*
X0132346Y0075555D02*
X0132528Y0075555D01*
X0132528Y0076341D02*
X0132346Y0076341D01*
X0132528Y0077127D02*
X0129378Y0077127D01*
X0129378Y0076341D02*
X0128591Y0076341D01*
X0128591Y0075555D02*
X0129378Y0075555D01*
X0129378Y0074769D02*
X0128591Y0074769D01*
X0128591Y0073983D02*
X0129378Y0073983D01*
X0125951Y0073983D02*
X0125638Y0073983D01*
X0122882Y0074496D02*
X0119142Y0074496D01*
X0114417Y0069772D01*
X0104969Y0069772D01*
X0104772Y0069575D01*
X0104772Y0068197D01*
X0101228Y0068197D02*
X0101228Y0070756D01*
X0102016Y0071543D01*
X0106543Y0071543D01*
X0109496Y0074496D01*
X0113827Y0074496D01*
X0116583Y0074769D02*
X0117188Y0074769D01*
X0116583Y0075555D02*
X0117974Y0075555D01*
X0116583Y0076341D02*
X0120126Y0076341D01*
X0120693Y0077127D02*
X0116016Y0077127D01*
X0116459Y0077913D02*
X0120250Y0077913D01*
X0119913Y0078699D02*
X0116795Y0078699D01*
X0116795Y0079485D02*
X0119913Y0079485D01*
X0118707Y0080271D02*
X0122488Y0080271D01*
X0122488Y0079485D02*
X0123276Y0079485D01*
X0123276Y0080205D02*
X0123866Y0080205D01*
X0124063Y0080402D01*
X0136071Y0080402D01*
X0136268Y0080205D01*
X0136268Y0080598D01*
X0139827Y0080598D01*
X0139827Y0081766D01*
X0139770Y0081976D01*
X0142078Y0081976D01*
X0142275Y0081780D01*
X0147977Y0081780D01*
X0148260Y0082062D01*
X0148260Y0081990D01*
X0148355Y0081635D01*
X0148538Y0081317D01*
X0148798Y0081058D01*
X0149072Y0080900D01*
X0148472Y0080300D01*
X0148472Y0078827D01*
X0148174Y0078827D01*
X0147977Y0079024D01*
X0142275Y0079024D01*
X0141583Y0078332D01*
X0141583Y0074991D01*
X0142275Y0074299D01*
X0147977Y0074299D01*
X0148174Y0074496D01*
X0148967Y0074496D01*
X0149164Y0074299D01*
X0152300Y0074299D01*
X0153000Y0073599D01*
X0153000Y0072885D01*
X0153474Y0071740D01*
X0153096Y0071740D01*
X0152505Y0072331D01*
X0147983Y0072331D01*
X0147685Y0072033D01*
X0147387Y0072331D01*
X0142865Y0072331D01*
X0142583Y0072048D01*
X0142583Y0072908D01*
X0142488Y0073262D01*
X0142304Y0073580D01*
X0142045Y0073840D01*
X0141727Y0074023D01*
X0141372Y0074118D01*
X0139713Y0074118D01*
X0139713Y0071642D01*
X0139122Y0071642D01*
X0139122Y0074118D01*
X0137462Y0074118D01*
X0137108Y0074023D01*
X0136790Y0073840D01*
X0136708Y0073758D01*
X0136560Y0073905D01*
X0136465Y0073905D01*
X0136465Y0074299D01*
X0138922Y0074299D01*
X0139614Y0074991D01*
X0139614Y0078332D01*
X0139560Y0078386D01*
X0139732Y0078683D01*
X0139827Y0079037D01*
X0139827Y0080205D01*
X0136268Y0080205D01*
X0135283Y0080205D01*
X0134496Y0080992D01*
X0135874Y0080598D02*
X0135874Y0080205D01*
X0132315Y0080205D01*
X0132315Y0079521D01*
X0132251Y0079758D01*
X0132068Y0080076D01*
X0131809Y0080336D01*
X0131534Y0080494D01*
X0132134Y0081093D01*
X0132134Y0081976D01*
X0132371Y0081976D01*
X0132315Y0081766D01*
X0132315Y0080598D01*
X0135874Y0080598D01*
X0135874Y0080271D02*
X0131874Y0080271D01*
X0132097Y0081056D02*
X0132315Y0081056D01*
X0132335Y0081842D02*
X0132134Y0081842D01*
X0136268Y0080271D02*
X0148472Y0080271D01*
X0148472Y0079485D02*
X0139827Y0079485D01*
X0139736Y0078699D02*
X0141950Y0078699D01*
X0141583Y0077913D02*
X0139614Y0077913D01*
X0139614Y0077127D02*
X0141583Y0077127D01*
X0141583Y0076341D02*
X0139614Y0076341D01*
X0139614Y0075555D02*
X0141583Y0075555D01*
X0141805Y0074769D02*
X0139392Y0074769D01*
X0139122Y0073983D02*
X0139713Y0073983D01*
X0139713Y0073197D02*
X0139122Y0073197D01*
X0139122Y0072411D02*
X0139713Y0072411D01*
X0139713Y0070840D02*
X0139122Y0070840D01*
X0139122Y0070054D02*
X0139713Y0070054D01*
X0139713Y0069268D02*
X0139122Y0069268D01*
X0142173Y0068482D02*
X0130953Y0068482D01*
X0131558Y0069268D02*
X0122883Y0069268D01*
X0120147Y0072411D02*
X0119284Y0072411D01*
X0116188Y0069268D02*
X0116141Y0069268D01*
X0115466Y0068482D02*
X0115355Y0068482D01*
X0115386Y0067696D02*
X0107232Y0067696D01*
X0107028Y0065338D02*
X0107526Y0065338D01*
X0106937Y0064552D02*
X0091779Y0064552D01*
X0091976Y0063766D02*
X0092470Y0063766D01*
X0092279Y0065338D02*
X0085874Y0065338D01*
X0085874Y0066124D02*
X0092075Y0066124D01*
X0092075Y0066910D02*
X0090785Y0066910D01*
X0091386Y0067696D02*
X0092075Y0067696D01*
X0092075Y0068482D02*
X0091386Y0068482D01*
X0091386Y0069268D02*
X0092075Y0069268D01*
X0092075Y0070054D02*
X0091386Y0070054D01*
X0091386Y0070840D02*
X0092075Y0070840D01*
X0091386Y0071626D02*
X0092961Y0071626D01*
X0092981Y0072411D02*
X0091386Y0072411D01*
X0091386Y0073197D02*
X0092961Y0073197D01*
X0092961Y0073983D02*
X0060874Y0073983D01*
X0060874Y0074769D02*
X0092961Y0074769D01*
X0092961Y0075555D02*
X0060874Y0075555D01*
X0060874Y0076341D02*
X0092961Y0076341D01*
X0093527Y0077127D02*
X0060874Y0077127D01*
X0060874Y0077913D02*
X0093085Y0077913D01*
X0092748Y0078699D02*
X0060874Y0078699D01*
X0049850Y0078699D02*
X0026966Y0078699D01*
X0027203Y0078461D02*
X0026454Y0079211D01*
X0025613Y0079856D01*
X0024695Y0080386D01*
X0023715Y0080792D01*
X0022691Y0081066D01*
X0021640Y0081205D01*
X0021504Y0081205D01*
X0021504Y0073512D01*
X0029197Y0073512D01*
X0029197Y0073648D01*
X0029058Y0074699D01*
X0028784Y0075723D01*
X0028378Y0076702D01*
X0027848Y0077620D01*
X0027203Y0078461D01*
X0027624Y0077913D02*
X0049850Y0077913D01*
X0049850Y0077127D02*
X0028133Y0077127D01*
X0028528Y0076341D02*
X0049850Y0076341D01*
X0049850Y0075555D02*
X0028829Y0075555D01*
X0029040Y0074769D02*
X0049850Y0074769D01*
X0049850Y0073983D02*
X0029153Y0073983D01*
X0029174Y0072411D02*
X0049850Y0072411D01*
X0049850Y0071626D02*
X0029070Y0071626D01*
X0028872Y0070840D02*
X0049850Y0070840D01*
X0049850Y0070054D02*
X0028594Y0070054D01*
X0028225Y0069268D02*
X0049850Y0069268D01*
X0049850Y0068482D02*
X0044327Y0068482D01*
X0044604Y0068367D02*
X0043882Y0068666D01*
X0043118Y0068818D01*
X0043118Y0065244D01*
X0042331Y0065244D01*
X0042331Y0068818D01*
X0041567Y0068666D01*
X0040845Y0068367D01*
X0040195Y0067933D01*
X0039642Y0067380D01*
X0039208Y0066730D01*
X0038908Y0066008D01*
X0038756Y0065244D01*
X0042331Y0065244D01*
X0042331Y0064457D01*
X0043118Y0064457D01*
X0043118Y0065244D01*
X0046692Y0065244D01*
X0046540Y0066008D01*
X0046241Y0066730D01*
X0045807Y0067380D01*
X0045254Y0067933D01*
X0044604Y0068367D01*
X0045491Y0067696D02*
X0049850Y0067696D01*
X0049512Y0066910D02*
X0046121Y0066910D01*
X0046492Y0066124D02*
X0049187Y0066124D01*
X0048969Y0065338D02*
X0046674Y0065338D01*
X0046692Y0064457D02*
X0043118Y0064457D01*
X0043118Y0060882D01*
X0043882Y0061034D01*
X0044604Y0061334D01*
X0045254Y0061768D01*
X0045807Y0062321D01*
X0046241Y0062971D01*
X0046540Y0063693D01*
X0046692Y0064457D01*
X0046555Y0063766D02*
X0049108Y0063766D01*
X0048969Y0064552D02*
X0043118Y0064552D01*
X0043118Y0063766D02*
X0042331Y0063766D01*
X0042331Y0064457D02*
X0042331Y0060882D01*
X0041567Y0061034D01*
X0040845Y0061334D01*
X0040195Y0061768D01*
X0039642Y0062321D01*
X0039208Y0062971D01*
X0038908Y0063693D01*
X0038756Y0064457D01*
X0042331Y0064457D01*
X0042331Y0064552D02*
X0033347Y0064552D01*
X0033506Y0063766D02*
X0038894Y0063766D01*
X0039203Y0062980D02*
X0029378Y0062980D01*
X0029378Y0062882D02*
X0033522Y0062882D01*
X0033416Y0062212D01*
X0033195Y0061532D01*
X0032870Y0060894D01*
X0032450Y0060316D01*
X0031944Y0059810D01*
X0031365Y0059390D01*
X0030728Y0059065D01*
X0030048Y0058844D01*
X0029378Y0058738D01*
X0029378Y0062882D01*
X0029378Y0062195D02*
X0028591Y0062195D01*
X0028590Y0062980D02*
X0010299Y0062980D01*
X0010299Y0062195D02*
X0017449Y0062195D01*
X0017073Y0062039D02*
X0018671Y0062701D01*
X0020400Y0062701D01*
X0021997Y0062039D01*
X0023220Y0060816D01*
X0023882Y0059219D01*
X0023882Y0057490D01*
X0023220Y0055892D01*
X0021997Y0054670D01*
X0020400Y0054008D01*
X0018671Y0054008D01*
X0017073Y0054670D01*
X0015851Y0055892D01*
X0015189Y0057490D01*
X0015189Y0059219D01*
X0015851Y0060816D01*
X0017073Y0062039D01*
X0016443Y0061409D02*
X0010299Y0061409D01*
X0010299Y0060623D02*
X0015770Y0060623D01*
X0015445Y0059837D02*
X0010299Y0059837D01*
X0010299Y0059051D02*
X0015189Y0059051D01*
X0015189Y0058265D02*
X0010299Y0058265D01*
X0010299Y0057479D02*
X0015193Y0057479D01*
X0015519Y0056693D02*
X0010299Y0056693D01*
X0010299Y0055907D02*
X0015844Y0055907D01*
X0016622Y0055121D02*
X0010299Y0055121D01*
X0010299Y0054335D02*
X0017880Y0054335D01*
X0021191Y0054335D02*
X0024671Y0054335D01*
X0024654Y0053550D02*
X0010299Y0053550D01*
X0010299Y0052764D02*
X0024654Y0052764D01*
X0024900Y0051978D02*
X0010299Y0051978D01*
X0010299Y0051192D02*
X0025225Y0051192D01*
X0025887Y0050406D02*
X0010299Y0050406D01*
X0010299Y0049620D02*
X0026873Y0049620D01*
X0026135Y0048834D02*
X0010299Y0048834D01*
X0010299Y0048048D02*
X0025349Y0048048D01*
X0025002Y0047262D02*
X0010299Y0047262D01*
X0010299Y0046476D02*
X0024677Y0046476D01*
X0024654Y0045690D02*
X0010299Y0045690D01*
X0023882Y0040189D02*
X0033512Y0040189D01*
X0033512Y0039403D02*
X0031401Y0039403D01*
X0032208Y0038617D02*
X0033685Y0038617D01*
X0026568Y0039403D02*
X0023729Y0039403D01*
X0023403Y0038617D02*
X0025760Y0038617D01*
X0025173Y0037831D02*
X0022876Y0037831D01*
X0022090Y0037045D02*
X0024847Y0037045D01*
X0020133Y0033902D02*
X0010299Y0033902D01*
X0010299Y0033116D02*
X0017480Y0033116D01*
X0016240Y0032330D02*
X0010299Y0032330D01*
X0010299Y0031544D02*
X0015344Y0031544D01*
X0014665Y0030758D02*
X0010299Y0030758D01*
X0010299Y0029972D02*
X0014139Y0029972D01*
X0013729Y0029186D02*
X0010299Y0029186D01*
X0010299Y0028400D02*
X0013415Y0028400D01*
X0013205Y0027614D02*
X0010299Y0027614D01*
X0026420Y0019755D02*
X0027053Y0019755D01*
X0027211Y0020541D02*
X0027839Y0020541D01*
X0027814Y0021327D02*
X0028394Y0021327D01*
X0028394Y0022113D02*
X0028276Y0022113D01*
X0031937Y0022113D02*
X0032954Y0022113D01*
X0032168Y0021327D02*
X0031937Y0021327D01*
X0026267Y0018969D02*
X0025324Y0018969D01*
X0021406Y0016612D02*
X0020815Y0016612D01*
X0020815Y0015826D02*
X0021406Y0015826D01*
X0021406Y0015040D02*
X0020815Y0015040D01*
X0020815Y0014254D02*
X0017189Y0014254D01*
X0017189Y0015040D02*
X0017945Y0015040D01*
X0017999Y0015826D02*
X0017189Y0015826D01*
X0017189Y0013468D02*
X0017945Y0013468D01*
X0017945Y0012682D02*
X0017189Y0012682D01*
X0029181Y0012682D02*
X0049850Y0012682D01*
X0049850Y0013468D02*
X0043708Y0013468D01*
X0046702Y0014254D02*
X0049850Y0014254D01*
X0049850Y0015040D02*
X0047488Y0015040D01*
X0047694Y0015826D02*
X0049850Y0015826D01*
X0049850Y0016612D02*
X0047694Y0016612D01*
X0047508Y0017398D02*
X0049850Y0017398D01*
X0049850Y0018183D02*
X0047094Y0018183D01*
X0047094Y0018969D02*
X0049850Y0018969D01*
X0049850Y0019755D02*
X0047094Y0019755D01*
X0047094Y0020541D02*
X0049850Y0020541D01*
X0049850Y0021327D02*
X0047094Y0021327D01*
X0047094Y0022113D02*
X0049850Y0022113D01*
X0043551Y0018593D02*
X0043551Y0017811D01*
X0043460Y0017720D01*
X0043423Y0017757D01*
X0043105Y0017940D01*
X0042750Y0018035D01*
X0038827Y0018035D01*
X0038827Y0015658D01*
X0038433Y0015658D01*
X0038433Y0018035D01*
X0034509Y0018035D01*
X0034155Y0017940D01*
X0033837Y0017757D01*
X0033578Y0017497D01*
X0033452Y0017280D01*
X0033315Y0017417D01*
X0033315Y0017463D01*
X0034077Y0018225D01*
X0034204Y0018098D01*
X0043056Y0018098D01*
X0043551Y0018593D01*
X0043551Y0018183D02*
X0043141Y0018183D01*
X0038827Y0017398D02*
X0038433Y0017398D01*
X0038433Y0016612D02*
X0038827Y0016612D01*
X0038827Y0015826D02*
X0038433Y0015826D01*
X0038433Y0015040D02*
X0038827Y0015040D01*
X0038827Y0014254D02*
X0038433Y0014254D01*
X0038433Y0013468D02*
X0038827Y0013468D01*
X0033552Y0013468D02*
X0032531Y0013468D01*
X0030556Y0013468D02*
X0029181Y0013468D01*
X0029181Y0014254D02*
X0029770Y0014254D01*
X0033334Y0017398D02*
X0033520Y0017398D01*
X0034035Y0018183D02*
X0034119Y0018183D01*
X0060874Y0018183D02*
X0065900Y0018183D01*
X0065687Y0018969D02*
X0060874Y0018969D01*
X0060874Y0019755D02*
X0065687Y0019755D01*
X0065868Y0020541D02*
X0060874Y0020541D01*
X0060874Y0021327D02*
X0066654Y0021327D01*
X0068171Y0022113D02*
X0060874Y0022113D01*
X0060874Y0022899D02*
X0067385Y0022899D01*
X0066967Y0023685D02*
X0060874Y0023685D01*
X0060874Y0024471D02*
X0066967Y0024471D01*
X0066967Y0025257D02*
X0060874Y0025257D01*
X0060874Y0026043D02*
X0067728Y0026043D01*
X0069362Y0026828D02*
X0060874Y0026828D01*
X0060874Y0027614D02*
X0071003Y0027614D01*
X0070910Y0028400D02*
X0060874Y0028400D01*
X0060874Y0029186D02*
X0070520Y0029186D01*
X0070520Y0029972D02*
X0060874Y0029972D01*
X0060874Y0030758D02*
X0070520Y0030758D01*
X0070520Y0031544D02*
X0060874Y0031544D01*
X0060874Y0032330D02*
X0070719Y0032330D01*
X0066617Y0033116D02*
X0060874Y0033116D01*
X0060874Y0033902D02*
X0065983Y0033902D01*
X0065983Y0034688D02*
X0060874Y0034688D01*
X0060874Y0035474D02*
X0065983Y0035474D01*
X0066527Y0036259D02*
X0060874Y0036259D01*
X0060874Y0037045D02*
X0067313Y0037045D01*
X0069395Y0037045D02*
X0070520Y0037045D01*
X0073866Y0037831D02*
X0060874Y0037831D01*
X0049850Y0046476D02*
X0048153Y0046476D01*
X0047367Y0047262D02*
X0049850Y0047262D01*
X0049850Y0048048D02*
X0048132Y0048048D01*
X0048722Y0048834D02*
X0049850Y0048834D01*
X0049850Y0049620D02*
X0049048Y0049620D01*
X0049063Y0050406D02*
X0049850Y0050406D01*
X0049850Y0051192D02*
X0048946Y0051192D01*
X0048621Y0051978D02*
X0049850Y0051978D01*
X0049850Y0052764D02*
X0047887Y0052764D01*
X0049850Y0053550D02*
X0033315Y0053550D01*
X0033298Y0054335D02*
X0049850Y0054335D01*
X0049850Y0055121D02*
X0032972Y0055121D01*
X0032635Y0055907D02*
X0049850Y0055907D01*
X0049850Y0056693D02*
X0031849Y0056693D01*
X0030533Y0057479D02*
X0049850Y0057479D01*
X0049850Y0058265D02*
X0023882Y0058265D01*
X0023877Y0057479D02*
X0027436Y0057479D01*
X0026120Y0056693D02*
X0023552Y0056693D01*
X0023226Y0055907D02*
X0025334Y0055907D01*
X0024996Y0055121D02*
X0022449Y0055121D01*
X0023882Y0059051D02*
X0027284Y0059051D01*
X0028591Y0059051D02*
X0029378Y0059051D01*
X0029378Y0059837D02*
X0028591Y0059837D01*
X0028591Y0060623D02*
X0029378Y0060623D01*
X0029378Y0061409D02*
X0028591Y0061409D01*
X0028591Y0063766D02*
X0029378Y0063766D01*
X0029378Y0064552D02*
X0028591Y0064552D01*
X0028591Y0065338D02*
X0029378Y0065338D01*
X0029378Y0066124D02*
X0028591Y0066124D01*
X0028591Y0066910D02*
X0029378Y0066910D01*
X0029378Y0067696D02*
X0028591Y0067696D01*
X0027886Y0067696D02*
X0027124Y0067696D01*
X0027746Y0068482D02*
X0041121Y0068482D01*
X0042331Y0068482D02*
X0043118Y0068482D01*
X0043118Y0067696D02*
X0042331Y0067696D01*
X0042331Y0066910D02*
X0043118Y0066910D01*
X0043118Y0066124D02*
X0042331Y0066124D01*
X0042331Y0065338D02*
X0043118Y0065338D01*
X0043118Y0062980D02*
X0042331Y0062980D01*
X0042331Y0062195D02*
X0043118Y0062195D01*
X0043118Y0061409D02*
X0042331Y0061409D01*
X0040732Y0061409D02*
X0033132Y0061409D01*
X0033410Y0062195D02*
X0039768Y0062195D01*
X0044717Y0061409D02*
X0049850Y0061409D01*
X0049850Y0062195D02*
X0045681Y0062195D01*
X0046245Y0062980D02*
X0049434Y0062980D01*
X0049850Y0060623D02*
X0032673Y0060623D01*
X0031971Y0059837D02*
X0049850Y0059837D01*
X0049850Y0059051D02*
X0030684Y0059051D01*
X0025998Y0059837D02*
X0023626Y0059837D01*
X0023300Y0060623D02*
X0025296Y0060623D01*
X0024836Y0061409D02*
X0022628Y0061409D01*
X0021622Y0062195D02*
X0024558Y0062195D01*
X0024462Y0063766D02*
X0010299Y0063766D01*
X0010299Y0064552D02*
X0024622Y0064552D01*
X0024936Y0065338D02*
X0023320Y0065338D01*
X0021504Y0065338D02*
X0020717Y0065338D01*
X0020717Y0066124D02*
X0021504Y0066124D01*
X0021504Y0066910D02*
X0020717Y0066910D01*
X0020717Y0067696D02*
X0021504Y0067696D01*
X0021504Y0068482D02*
X0020717Y0068482D01*
X0020717Y0069268D02*
X0021504Y0069268D01*
X0021504Y0070054D02*
X0020717Y0070054D01*
X0020717Y0070840D02*
X0021504Y0070840D01*
X0021504Y0071626D02*
X0020717Y0071626D01*
X0020717Y0072411D02*
X0021504Y0072411D01*
X0021504Y0073197D02*
X0049850Y0073197D01*
X0039958Y0067696D02*
X0030082Y0067696D01*
X0031711Y0066910D02*
X0039328Y0066910D01*
X0038957Y0066124D02*
X0032530Y0066124D01*
X0033032Y0065338D02*
X0038775Y0065338D01*
X0025438Y0066124D02*
X0025170Y0066124D01*
X0018901Y0065338D02*
X0010299Y0065338D01*
X0010299Y0066124D02*
X0017051Y0066124D01*
X0015917Y0066910D02*
X0010299Y0066910D01*
X0010299Y0067696D02*
X0015096Y0067696D01*
X0014475Y0068482D02*
X0010299Y0068482D01*
X0010299Y0069268D02*
X0013996Y0069268D01*
X0013627Y0070054D02*
X0010299Y0070054D01*
X0010299Y0070840D02*
X0013349Y0070840D01*
X0013150Y0071626D02*
X0010299Y0071626D01*
X0010299Y0072411D02*
X0013047Y0072411D01*
X0013068Y0073983D02*
X0010299Y0073983D01*
X0010299Y0073197D02*
X0020716Y0073197D01*
X0020717Y0073983D02*
X0021504Y0073983D01*
X0021504Y0074769D02*
X0020717Y0074769D01*
X0020717Y0075555D02*
X0021504Y0075555D01*
X0021504Y0076341D02*
X0020717Y0076341D01*
X0020717Y0077127D02*
X0021504Y0077127D01*
X0021504Y0077913D02*
X0020717Y0077913D01*
X0020717Y0078699D02*
X0021504Y0078699D01*
X0021504Y0079485D02*
X0020717Y0079485D01*
X0020717Y0080271D02*
X0021504Y0080271D01*
X0021504Y0081056D02*
X0020717Y0081056D01*
X0019492Y0081056D02*
X0017189Y0081056D01*
X0017189Y0081842D02*
X0049850Y0081842D01*
X0049850Y0081056D02*
X0022728Y0081056D01*
X0024895Y0080271D02*
X0049850Y0080271D01*
X0049850Y0079485D02*
X0026097Y0079485D01*
X0017325Y0080271D02*
X0017045Y0080271D01*
X0016124Y0079485D02*
X0010299Y0079485D01*
X0010299Y0078699D02*
X0015255Y0078699D01*
X0014596Y0077913D02*
X0010299Y0077913D01*
X0010299Y0077127D02*
X0014087Y0077127D01*
X0013692Y0076341D02*
X0010299Y0076341D01*
X0010299Y0075555D02*
X0013391Y0075555D01*
X0013181Y0074769D02*
X0010299Y0074769D01*
X0017189Y0082628D02*
X0049850Y0082628D01*
X0049850Y0083414D02*
X0017189Y0083414D01*
X0017189Y0084200D02*
X0049850Y0084200D01*
X0049850Y0084986D02*
X0017189Y0084986D01*
X0017189Y0085772D02*
X0049850Y0085772D01*
X0060874Y0085772D02*
X0082118Y0085772D01*
X0082118Y0084986D02*
X0060874Y0084986D01*
X0060874Y0084200D02*
X0082118Y0084200D01*
X0086465Y0081842D02*
X0087252Y0081842D01*
X0087252Y0081056D02*
X0086465Y0081056D01*
X0086465Y0080271D02*
X0087252Y0080271D01*
X0092748Y0080008D02*
X0095323Y0080008D01*
X0095323Y0079485D02*
X0096110Y0079485D01*
X0096110Y0080271D02*
X0104378Y0080271D01*
X0104378Y0079485D02*
X0105165Y0079485D01*
X0105165Y0080271D02*
X0113433Y0080271D01*
X0113433Y0080795D02*
X0110858Y0080795D01*
X0110858Y0082160D01*
X0110953Y0082514D01*
X0111137Y0082832D01*
X0111396Y0083092D01*
X0111714Y0083275D01*
X0112068Y0083370D01*
X0113433Y0083370D01*
X0113433Y0080795D01*
X0113433Y0081056D02*
X0114220Y0081056D01*
X0114221Y0080271D02*
X0117214Y0080271D01*
X0114220Y0079485D02*
X0113433Y0079485D01*
X0113433Y0078699D02*
X0114220Y0078699D01*
X0114220Y0077913D02*
X0113433Y0077913D01*
X0111638Y0077127D02*
X0106961Y0077127D01*
X0107404Y0077913D02*
X0111195Y0077913D01*
X0110858Y0078699D02*
X0107740Y0078699D01*
X0107740Y0079485D02*
X0110858Y0079485D01*
X0110858Y0081056D02*
X0107740Y0081056D01*
X0107740Y0081842D02*
X0110858Y0081842D01*
X0111019Y0082628D02*
X0109560Y0082628D01*
X0110102Y0083414D02*
X0115008Y0083414D01*
X0115196Y0084200D02*
X0110102Y0084200D01*
X0110102Y0084986D02*
X0115613Y0084986D01*
X0116557Y0085772D02*
X0110102Y0085772D01*
X0113433Y0082628D02*
X0114220Y0082628D01*
X0114220Y0081842D02*
X0113433Y0081842D01*
X0105165Y0078699D02*
X0104378Y0078699D01*
X0104378Y0077913D02*
X0105165Y0077913D01*
X0102583Y0077127D02*
X0097906Y0077127D01*
X0098348Y0077913D02*
X0102140Y0077913D01*
X0101803Y0078699D02*
X0098685Y0078699D01*
X0098685Y0079485D02*
X0101803Y0079485D01*
X0101803Y0081056D02*
X0098685Y0081056D01*
X0098685Y0081842D02*
X0101803Y0081842D01*
X0096110Y0078699D02*
X0095323Y0078699D01*
X0095323Y0077913D02*
X0096110Y0077913D01*
X0098472Y0076341D02*
X0102016Y0076341D01*
X0100454Y0075555D02*
X0098472Y0075555D01*
X0098472Y0074769D02*
X0099668Y0074769D01*
X0098882Y0073983D02*
X0098472Y0073983D01*
X0095717Y0074496D02*
X0095717Y0072528D01*
X0094535Y0071346D01*
X0094535Y0068197D01*
X0098079Y0068197D02*
X0098079Y0070953D01*
X0101622Y0074496D01*
X0104772Y0074496D01*
X0107528Y0074769D02*
X0107542Y0074769D01*
X0107528Y0075555D02*
X0108328Y0075555D01*
X0107528Y0076341D02*
X0111071Y0076341D01*
X0122488Y0077913D02*
X0123276Y0077913D01*
X0123276Y0078699D02*
X0122488Y0078699D01*
X0125514Y0077913D02*
X0125622Y0077913D01*
X0125071Y0077127D02*
X0128591Y0077127D01*
X0132346Y0077913D02*
X0132528Y0077913D01*
X0132406Y0078699D02*
X0132346Y0078699D01*
X0136268Y0080205D02*
X0140598Y0080205D01*
X0139827Y0081056D02*
X0148800Y0081056D01*
X0148299Y0081842D02*
X0148040Y0081842D01*
X0142212Y0081842D02*
X0139806Y0081842D01*
X0126095Y0080271D02*
X0123276Y0080271D01*
X0125850Y0081056D02*
X0125872Y0081056D01*
X0136465Y0073983D02*
X0137039Y0073983D01*
X0141796Y0073983D02*
X0152616Y0073983D01*
X0153000Y0073197D02*
X0142505Y0073197D01*
X0142583Y0072411D02*
X0153196Y0072411D01*
X0160480Y0075087D02*
X0160480Y0080402D01*
X0159693Y0080402D01*
X0159693Y0082961D01*
X0155756Y0082961D01*
X0155559Y0082764D01*
X0159693Y0082961D02*
X0159693Y0085126D01*
X0159496Y0085126D01*
X0164516Y0084831D02*
X0165106Y0084831D01*
X0165106Y0085421D01*
X0167976Y0085421D01*
X0167976Y0086488D01*
X0170605Y0086488D01*
X0170520Y0086403D01*
X0170520Y0082668D01*
X0170913Y0082275D01*
X0170913Y0081780D01*
X0168652Y0081780D01*
X0167976Y0081103D01*
X0167976Y0081963D01*
X0167881Y0082317D01*
X0167698Y0082635D01*
X0167569Y0082764D01*
X0167698Y0082892D01*
X0167881Y0083210D01*
X0167976Y0083565D01*
X0167976Y0084831D01*
X0165106Y0084831D01*
X0165106Y0082354D01*
X0165106Y0080697D01*
X0164516Y0080697D01*
X0164516Y0084831D01*
X0165106Y0084986D02*
X0170520Y0084986D01*
X0170520Y0084200D02*
X0167976Y0084200D01*
X0167936Y0083414D02*
X0170520Y0083414D01*
X0170560Y0082628D02*
X0167702Y0082628D01*
X0167976Y0081842D02*
X0170913Y0081842D01*
X0172488Y0083551D02*
X0172488Y0080008D01*
X0171110Y0078630D01*
X0171110Y0077843D01*
X0167961Y0077913D02*
X0167443Y0077913D01*
X0167438Y0077908D02*
X0167698Y0078168D01*
X0167881Y0078486D01*
X0167961Y0078781D01*
X0167961Y0075210D01*
X0167259Y0074509D01*
X0166780Y0073351D01*
X0166780Y0072098D01*
X0167091Y0071346D01*
X0163039Y0071346D01*
X0163039Y0072229D01*
X0162741Y0072528D01*
X0163039Y0072826D01*
X0163039Y0077347D01*
X0162721Y0077666D01*
X0162856Y0077630D01*
X0164516Y0077630D01*
X0164516Y0080106D01*
X0165106Y0080106D01*
X0165106Y0077630D01*
X0166766Y0077630D01*
X0167121Y0077725D01*
X0167438Y0077908D01*
X0167938Y0078699D02*
X0167961Y0078699D01*
X0165106Y0078699D02*
X0164516Y0078699D01*
X0164516Y0079485D02*
X0165106Y0079485D01*
X0165106Y0081056D02*
X0164516Y0081056D01*
X0164516Y0081842D02*
X0165106Y0081842D01*
X0165106Y0082628D02*
X0164516Y0082628D01*
X0164516Y0083414D02*
X0165106Y0083414D01*
X0165106Y0084200D02*
X0164516Y0084200D01*
X0167976Y0085772D02*
X0170520Y0085772D01*
X0172488Y0083551D02*
X0173472Y0084535D01*
X0175733Y0081976D02*
X0176031Y0082275D01*
X0176330Y0081976D01*
X0177016Y0081976D01*
X0177016Y0081780D01*
X0176133Y0081780D01*
X0175441Y0081088D01*
X0175441Y0074597D01*
X0176133Y0073906D01*
X0181048Y0073906D01*
X0181740Y0074597D01*
X0181740Y0078032D01*
X0181742Y0078030D01*
X0183707Y0078030D01*
X0185096Y0079419D01*
X0185096Y0081384D01*
X0183707Y0082773D01*
X0181742Y0082773D01*
X0180945Y0081976D01*
X0180165Y0081976D01*
X0180851Y0081976D01*
X0181543Y0082668D01*
X0181543Y0086403D01*
X0181458Y0086488D01*
X0187630Y0086488D01*
X0187630Y0080415D01*
X0188446Y0079598D01*
X0195504Y0079598D01*
X0195504Y0072350D01*
X0183574Y0072350D01*
X0183475Y0072252D01*
X0178000Y0072252D01*
X0178000Y0072426D01*
X0177308Y0073118D01*
X0173079Y0073118D01*
X0173079Y0073351D01*
X0172849Y0073906D01*
X0173568Y0073906D01*
X0174260Y0074597D01*
X0174260Y0081088D01*
X0174063Y0081284D01*
X0174063Y0081976D01*
X0175733Y0081976D01*
X0175441Y0081056D02*
X0174260Y0081056D01*
X0174260Y0080271D02*
X0175441Y0080271D01*
X0175441Y0079485D02*
X0174260Y0079485D01*
X0174260Y0078699D02*
X0175441Y0078699D01*
X0175441Y0077913D02*
X0174260Y0077913D01*
X0174260Y0077127D02*
X0175441Y0077127D01*
X0175441Y0076341D02*
X0174260Y0076341D01*
X0174260Y0075555D02*
X0175441Y0075555D01*
X0175441Y0074769D02*
X0174260Y0074769D01*
X0173646Y0073983D02*
X0176055Y0073983D01*
X0178000Y0072411D02*
X0195504Y0072411D01*
X0195504Y0073197D02*
X0173079Y0073197D01*
X0167520Y0074769D02*
X0163039Y0074769D01*
X0163039Y0073983D02*
X0167041Y0073983D01*
X0166780Y0073197D02*
X0163039Y0073197D01*
X0162857Y0072411D02*
X0166780Y0072411D01*
X0166975Y0071626D02*
X0163039Y0071626D01*
X0163039Y0075555D02*
X0167961Y0075555D01*
X0167961Y0076341D02*
X0163039Y0076341D01*
X0163039Y0077127D02*
X0167961Y0077127D01*
X0165106Y0077913D02*
X0164516Y0077913D01*
X0174063Y0081842D02*
X0177016Y0081842D01*
X0178591Y0080402D02*
X0178591Y0077843D01*
X0181740Y0077913D02*
X0195504Y0077913D01*
X0195504Y0078699D02*
X0184376Y0078699D01*
X0185096Y0079485D02*
X0195504Y0079485D01*
X0195504Y0077127D02*
X0181740Y0077127D01*
X0181740Y0076341D02*
X0195504Y0076341D01*
X0195504Y0075555D02*
X0181740Y0075555D01*
X0181740Y0074769D02*
X0195504Y0074769D01*
X0195504Y0073983D02*
X0181126Y0073983D01*
X0182724Y0080402D02*
X0178591Y0080402D01*
X0178591Y0084535D01*
X0181543Y0084200D02*
X0187630Y0084200D01*
X0187630Y0083414D02*
X0181543Y0083414D01*
X0181503Y0082628D02*
X0181597Y0082628D01*
X0180165Y0081976D02*
X0180165Y0081976D01*
X0183852Y0082628D02*
X0187630Y0082628D01*
X0187630Y0081842D02*
X0184638Y0081842D01*
X0185096Y0081056D02*
X0187630Y0081056D01*
X0187774Y0080271D02*
X0185096Y0080271D01*
X0187630Y0084986D02*
X0181543Y0084986D01*
X0181543Y0085772D02*
X0187630Y0085772D01*
X0192576Y0066642D02*
X0195504Y0066642D01*
X0195504Y0062563D01*
X0190362Y0062563D01*
X0190362Y0059890D01*
X0189575Y0059890D01*
X0189575Y0062563D01*
X0183880Y0062563D01*
X0183525Y0062468D01*
X0183324Y0062352D01*
X0183324Y0063864D01*
X0182759Y0064430D01*
X0182786Y0064457D01*
X0188229Y0064457D01*
X0189222Y0063463D01*
X0191187Y0063463D01*
X0192576Y0064852D01*
X0192576Y0066642D01*
X0192576Y0066124D02*
X0195504Y0066124D01*
X0195504Y0065338D02*
X0192576Y0065338D01*
X0192276Y0064552D02*
X0195504Y0064552D01*
X0195504Y0063766D02*
X0191491Y0063766D01*
X0190362Y0062195D02*
X0189575Y0062195D01*
X0189575Y0061409D02*
X0190362Y0061409D01*
X0190362Y0060623D02*
X0189575Y0060623D01*
X0189575Y0059890D02*
X0189575Y0059102D01*
X0190362Y0059102D01*
X0190362Y0056429D01*
X0195504Y0056429D01*
X0195504Y0052563D01*
X0190362Y0052563D01*
X0190362Y0049890D01*
X0189575Y0049890D01*
X0189575Y0052563D01*
X0183880Y0052563D01*
X0183525Y0052468D01*
X0183207Y0052285D01*
X0182948Y0052025D01*
X0182764Y0051707D01*
X0182669Y0051353D01*
X0182669Y0049890D01*
X0189575Y0049890D01*
X0189575Y0049102D01*
X0190362Y0049102D01*
X0190362Y0046429D01*
X0195504Y0046429D01*
X0195504Y0042350D01*
X0183574Y0042350D01*
X0182882Y0041659D01*
X0182882Y0037334D01*
X0183574Y0036642D01*
X0195504Y0036642D01*
X0195504Y0032563D01*
X0190362Y0032563D01*
X0190362Y0029890D01*
X0189575Y0029890D01*
X0189575Y0032563D01*
X0189230Y0032563D01*
X0189230Y0034337D01*
X0187841Y0035726D01*
X0185876Y0035726D01*
X0185079Y0034929D01*
X0183844Y0034929D01*
X0183780Y0034865D01*
X0182526Y0036120D01*
X0180756Y0036120D01*
X0180756Y0039060D01*
X0180064Y0039752D01*
X0174755Y0039752D01*
X0174063Y0039060D01*
X0174063Y0038866D01*
X0173608Y0038866D01*
X0173276Y0038534D01*
X0173276Y0039060D01*
X0172692Y0039644D01*
X0174455Y0039644D01*
X0175844Y0041033D01*
X0175844Y0042998D01*
X0175047Y0043795D01*
X0175047Y0045264D01*
X0180064Y0045264D01*
X0180162Y0045362D01*
X0180355Y0045362D01*
X0181151Y0044565D01*
X0183116Y0044565D01*
X0184505Y0045955D01*
X0184505Y0046429D01*
X0189575Y0046429D01*
X0189575Y0049102D01*
X0183323Y0049102D01*
X0183116Y0049309D01*
X0181151Y0049309D01*
X0180756Y0048913D01*
X0180756Y0049493D01*
X0180556Y0049693D01*
X0180756Y0049893D01*
X0180756Y0052244D01*
X0180955Y0052046D01*
X0182919Y0052046D01*
X0184309Y0053435D01*
X0184309Y0055400D01*
X0182919Y0056789D01*
X0180955Y0056789D01*
X0180756Y0056590D01*
X0180756Y0059729D01*
X0180064Y0060421D01*
X0179772Y0060421D01*
X0179772Y0060709D01*
X0179970Y0060510D01*
X0181935Y0060510D01*
X0182669Y0061244D01*
X0182669Y0059890D01*
X0189575Y0059890D01*
X0189575Y0059837D02*
X0180648Y0059837D01*
X0180756Y0059051D02*
X0182669Y0059051D01*
X0182669Y0059102D02*
X0182669Y0057639D01*
X0182764Y0057285D01*
X0182948Y0056967D01*
X0183207Y0056708D01*
X0183525Y0056524D01*
X0183880Y0056429D01*
X0189575Y0056429D01*
X0189575Y0059102D01*
X0182669Y0059102D01*
X0182669Y0058265D02*
X0180756Y0058265D01*
X0180756Y0057479D02*
X0182712Y0057479D01*
X0183015Y0056693D02*
X0183232Y0056693D01*
X0183801Y0055907D02*
X0195504Y0055907D01*
X0195504Y0055121D02*
X0184309Y0055121D01*
X0184309Y0054335D02*
X0195504Y0054335D01*
X0195504Y0053550D02*
X0184309Y0053550D01*
X0183637Y0052764D02*
X0195504Y0052764D01*
X0190362Y0051978D02*
X0189575Y0051978D01*
X0189575Y0051192D02*
X0190362Y0051192D01*
X0190362Y0050406D02*
X0189575Y0050406D01*
X0189575Y0049620D02*
X0180629Y0049620D01*
X0180756Y0050406D02*
X0182669Y0050406D01*
X0182669Y0051192D02*
X0180756Y0051192D01*
X0180756Y0051978D02*
X0182920Y0051978D01*
X0181937Y0054417D02*
X0177409Y0054417D01*
X0180756Y0056693D02*
X0180859Y0056693D01*
X0179858Y0060623D02*
X0179772Y0060623D01*
X0182048Y0060623D02*
X0182669Y0060623D01*
X0183324Y0062980D02*
X0195504Y0062980D01*
X0190205Y0065835D02*
X0190008Y0066031D01*
X0182134Y0066031D01*
X0180953Y0064850D01*
X0180953Y0062882D01*
X0183324Y0063766D02*
X0188919Y0063766D01*
X0189575Y0059051D02*
X0190362Y0059051D01*
X0190362Y0058265D02*
X0189575Y0058265D01*
X0189575Y0057479D02*
X0190362Y0057479D01*
X0190362Y0056693D02*
X0189575Y0056693D01*
X0177409Y0051268D02*
X0174063Y0051268D01*
X0173472Y0050677D01*
X0173472Y0042016D01*
X0175510Y0043333D02*
X0195504Y0043333D01*
X0195504Y0044119D02*
X0175047Y0044119D01*
X0175047Y0044904D02*
X0180812Y0044904D01*
X0183455Y0044904D02*
X0195504Y0044904D01*
X0195504Y0045690D02*
X0184241Y0045690D01*
X0182134Y0046937D02*
X0179181Y0046937D01*
X0178374Y0047744D01*
X0177429Y0047744D01*
X0177409Y0047724D01*
X0169929Y0047724D02*
X0169535Y0048118D01*
X0159890Y0048118D01*
X0159890Y0046150D02*
X0165402Y0046150D01*
X0169732Y0041819D01*
X0169732Y0037488D01*
X0169929Y0037291D01*
X0169732Y0037370D02*
X0169732Y0037488D01*
X0173276Y0038617D02*
X0173359Y0038617D01*
X0172933Y0039403D02*
X0174406Y0039403D01*
X0175000Y0040189D02*
X0182882Y0040189D01*
X0182882Y0039403D02*
X0180413Y0039403D01*
X0180756Y0038617D02*
X0182882Y0038617D01*
X0182882Y0037831D02*
X0180756Y0037831D01*
X0180756Y0037045D02*
X0183170Y0037045D01*
X0180756Y0036259D02*
X0195504Y0036259D01*
X0195504Y0035474D02*
X0188093Y0035474D01*
X0188879Y0034688D02*
X0195504Y0034688D01*
X0195504Y0033902D02*
X0189230Y0033902D01*
X0189230Y0033116D02*
X0195504Y0033116D01*
X0190362Y0032330D02*
X0189575Y0032330D01*
X0189575Y0031544D02*
X0190362Y0031544D01*
X0190362Y0030758D02*
X0189575Y0030758D01*
X0189575Y0029972D02*
X0190362Y0029972D01*
X0190362Y0029102D02*
X0190362Y0026429D01*
X0195504Y0026429D01*
X0195504Y0019394D01*
X0188446Y0019394D01*
X0187630Y0018577D01*
X0187630Y0016028D01*
X0187430Y0016509D01*
X0187061Y0017063D01*
X0186590Y0017533D01*
X0186559Y0017555D01*
X0187120Y0018116D01*
X0187602Y0019280D01*
X0187602Y0020539D01*
X0187120Y0021702D01*
X0186230Y0022593D01*
X0185067Y0023075D01*
X0183807Y0023075D01*
X0183589Y0022984D01*
X0181890Y0024683D01*
X0182919Y0024683D01*
X0184309Y0026073D01*
X0184309Y0026429D01*
X0189575Y0026429D01*
X0189575Y0029102D01*
X0190362Y0029102D01*
X0190362Y0028400D02*
X0189575Y0028400D01*
X0189575Y0027614D02*
X0190362Y0027614D01*
X0190362Y0026828D02*
X0189575Y0026828D01*
X0184278Y0026043D02*
X0195504Y0026043D01*
X0195504Y0025257D02*
X0183493Y0025257D01*
X0182103Y0024471D02*
X0195504Y0024471D01*
X0195504Y0023685D02*
X0182889Y0023685D01*
X0180244Y0024102D02*
X0184437Y0019909D01*
X0187602Y0019755D02*
X0195504Y0019755D01*
X0195504Y0020541D02*
X0187601Y0020541D01*
X0187276Y0021327D02*
X0195504Y0021327D01*
X0195504Y0022113D02*
X0186710Y0022113D01*
X0185491Y0022899D02*
X0195504Y0022899D01*
X0188022Y0018969D02*
X0187474Y0018969D01*
X0187630Y0018183D02*
X0187148Y0018183D01*
X0186726Y0017398D02*
X0187630Y0017398D01*
X0187630Y0016612D02*
X0187362Y0016612D01*
X0184338Y0015008D02*
X0184338Y0014811D01*
X0181059Y0014811D01*
X0179536Y0014811D01*
X0179536Y0015008D01*
X0184338Y0015008D01*
X0177148Y0017398D02*
X0169585Y0017398D01*
X0170371Y0018183D02*
X0176726Y0018183D01*
X0176400Y0018969D02*
X0171157Y0018969D01*
X0171307Y0019755D02*
X0176272Y0019755D01*
X0176273Y0020541D02*
X0171307Y0020541D01*
X0171307Y0021327D02*
X0176598Y0021327D01*
X0177164Y0022113D02*
X0171307Y0022113D01*
X0171307Y0022899D02*
X0173630Y0022899D01*
X0172844Y0023685D02*
X0171307Y0023685D01*
X0171307Y0024471D02*
X0172094Y0024471D01*
X0173669Y0025087D02*
X0174654Y0024102D01*
X0180244Y0024102D01*
X0181937Y0027055D02*
X0181917Y0027075D01*
X0177429Y0027075D01*
X0177409Y0027055D01*
X0173669Y0025087D02*
X0173669Y0036701D01*
X0174260Y0037291D01*
X0177409Y0037291D01*
X0176720Y0037980D01*
X0175786Y0040975D02*
X0182882Y0040975D01*
X0182984Y0041761D02*
X0175844Y0041761D01*
X0175844Y0042547D02*
X0195504Y0042547D01*
X0190362Y0046476D02*
X0189575Y0046476D01*
X0189575Y0047262D02*
X0190362Y0047262D01*
X0190362Y0048048D02*
X0189575Y0048048D01*
X0189575Y0048834D02*
X0190362Y0048834D01*
X0169929Y0051268D02*
X0166583Y0051268D01*
X0157035Y0051978D02*
X0156445Y0051978D01*
X0156445Y0052764D02*
X0157035Y0052764D01*
X0157035Y0053550D02*
X0156445Y0053550D01*
X0154059Y0051978D02*
X0154002Y0051978D01*
X0151622Y0054417D02*
X0150638Y0054417D01*
X0147685Y0062685D02*
X0144717Y0062685D01*
X0147685Y0062685D01*
X0147685Y0062685D01*
X0144717Y0062980D02*
X0142530Y0062980D01*
X0143316Y0063766D02*
X0144799Y0063766D01*
X0144929Y0064552D02*
X0144102Y0064552D01*
X0141220Y0066124D02*
X0133915Y0066124D01*
X0133915Y0066910D02*
X0142006Y0066910D01*
X0142382Y0067696D02*
X0133233Y0067696D01*
X0131543Y0066031D02*
X0127016Y0066031D01*
X0139025Y0065338D02*
X0140434Y0065338D01*
X0139648Y0064552D02*
X0139614Y0064552D01*
X0145126Y0067016D02*
X0145323Y0066819D01*
X0145126Y0067016D02*
X0145126Y0069772D01*
X0106937Y0063766D02*
X0106837Y0063766D01*
X0086858Y0070362D02*
X0084299Y0070362D01*
X0071677Y0068482D02*
X0064327Y0068482D01*
X0064604Y0068367D02*
X0063882Y0068666D01*
X0063118Y0068818D01*
X0063118Y0065244D01*
X0066692Y0065244D01*
X0066540Y0066008D01*
X0066241Y0066730D01*
X0065807Y0067380D01*
X0065254Y0067933D01*
X0064604Y0068367D01*
X0065491Y0067696D02*
X0070258Y0067696D01*
X0069512Y0066910D02*
X0066121Y0066910D01*
X0066492Y0066124D02*
X0069187Y0066124D01*
X0068969Y0065338D02*
X0066674Y0065338D01*
X0066692Y0064457D02*
X0063118Y0064457D01*
X0063118Y0060882D01*
X0063882Y0061034D01*
X0064604Y0061334D01*
X0065254Y0061768D01*
X0065807Y0062321D01*
X0066241Y0062971D01*
X0066540Y0063693D01*
X0066692Y0064457D01*
X0066555Y0063766D02*
X0069108Y0063766D01*
X0068969Y0064552D02*
X0063118Y0064552D01*
X0063118Y0063766D02*
X0062331Y0063766D01*
X0062331Y0062980D02*
X0063118Y0062980D01*
X0063118Y0062195D02*
X0062331Y0062195D01*
X0062331Y0061409D02*
X0063118Y0061409D01*
X0064717Y0061409D02*
X0071219Y0061409D01*
X0070069Y0062195D02*
X0065681Y0062195D01*
X0066245Y0062980D02*
X0069434Y0062980D01*
X0063118Y0065338D02*
X0062331Y0065338D01*
X0062331Y0066124D02*
X0063118Y0066124D01*
X0063118Y0066910D02*
X0062331Y0066910D01*
X0062331Y0067696D02*
X0063118Y0067696D01*
X0063118Y0068482D02*
X0062331Y0068482D01*
X0061121Y0068482D02*
X0060874Y0068482D01*
X0043939Y0052764D02*
X0043115Y0052764D01*
X0034144Y0052764D02*
X0033315Y0052764D01*
X0033512Y0051978D02*
X0033069Y0051978D01*
X0032743Y0051192D02*
X0033512Y0051192D01*
X0033512Y0050406D02*
X0032082Y0050406D01*
X0031095Y0049620D02*
X0033512Y0049620D01*
X0030796Y0049496D02*
X0030796Y0049496D01*
X0038433Y0044904D02*
X0038827Y0044904D01*
X0038827Y0044119D02*
X0038433Y0044119D01*
X0038433Y0043333D02*
X0038827Y0043333D01*
X0075441Y0047262D02*
X0075835Y0047262D01*
X0085283Y0033748D02*
X0091386Y0033748D01*
X0091386Y0025874D02*
X0091386Y0025874D01*
X0088417Y0025874D01*
X0088417Y0025257D02*
X0087449Y0025257D01*
X0087449Y0024471D02*
X0088630Y0024471D01*
X0088630Y0023685D02*
X0087449Y0023685D01*
X0080765Y0019755D02*
X0080756Y0019755D01*
X0080756Y0018969D02*
X0081551Y0018969D01*
X0080149Y0018183D02*
X0083709Y0018183D01*
X0083709Y0017398D02*
X0080748Y0017398D01*
X0080968Y0016612D02*
X0082938Y0016612D01*
X0084085Y0016612D02*
X0084248Y0016612D01*
X0081574Y0015826D02*
X0080968Y0015826D01*
X0080968Y0015040D02*
X0081015Y0015040D01*
X0080756Y0013468D02*
X0080716Y0013468D01*
X0081019Y0012682D02*
X0060874Y0012682D01*
X0060874Y0013468D02*
X0070560Y0013468D01*
X0070307Y0014254D02*
X0060874Y0014254D01*
X0060874Y0015040D02*
X0070307Y0015040D01*
X0070307Y0015826D02*
X0060874Y0015826D01*
X0060874Y0016612D02*
X0070307Y0016612D01*
X0070528Y0017398D02*
X0069433Y0017398D01*
X0070219Y0018183D02*
X0071127Y0018183D01*
X0075441Y0017398D02*
X0075835Y0017398D01*
X0075835Y0016612D02*
X0075441Y0016612D01*
X0075441Y0015826D02*
X0075835Y0015826D01*
X0075835Y0015040D02*
X0075441Y0015040D01*
X0075441Y0014254D02*
X0075835Y0014254D01*
X0075835Y0013468D02*
X0075441Y0013468D01*
X0066685Y0017398D02*
X0060874Y0017398D01*
X0127016Y0031976D02*
X0128000Y0032961D01*
X0128197Y0033157D02*
X0127016Y0031976D01*
X0150638Y0026661D02*
X0151228Y0026071D01*
X0151228Y0025283D01*
X0159083Y0022899D02*
X0160844Y0022899D01*
X0161630Y0023685D02*
X0159502Y0023685D01*
X0159512Y0024471D02*
X0168157Y0024471D01*
X0168157Y0023685D02*
X0164449Y0023685D01*
X0165235Y0022899D02*
X0168157Y0022899D01*
X0168157Y0022113D02*
X0165411Y0022113D01*
X0165411Y0021327D02*
X0168157Y0021327D01*
X0168157Y0020541D02*
X0165194Y0020541D01*
X0164409Y0019755D02*
X0167489Y0019755D01*
X0166703Y0018969D02*
X0162858Y0018969D01*
X0159890Y0017016D02*
X0166976Y0017016D01*
X0169732Y0019772D01*
X0169732Y0026976D01*
X0169850Y0026976D01*
X0169929Y0027055D01*
X0177409Y0030598D02*
X0181740Y0030598D01*
X0184496Y0033354D01*
X0186858Y0033354D01*
X0185623Y0035474D02*
X0183172Y0035474D01*
X0181543Y0033748D02*
X0177409Y0033748D01*
X0169929Y0033748D02*
X0169732Y0033551D01*
X0159890Y0033551D01*
X0165411Y0035474D02*
X0166632Y0035474D01*
X0166583Y0036259D02*
X0165411Y0036259D01*
X0165261Y0037045D02*
X0166583Y0037045D01*
X0166583Y0037831D02*
X0164475Y0037831D01*
X0166583Y0038617D02*
X0159512Y0038617D01*
X0159512Y0039403D02*
X0166926Y0039403D01*
X0168157Y0040189D02*
X0159512Y0040189D01*
X0159512Y0040975D02*
X0168157Y0040975D01*
X0167563Y0041761D02*
X0159418Y0041761D01*
X0159890Y0042547D02*
X0159890Y0042547D01*
X0159890Y0043333D02*
X0159890Y0043333D01*
X0159890Y0044119D02*
X0159890Y0044119D01*
X0162392Y0042547D02*
X0166777Y0042547D01*
X0165991Y0043333D02*
X0162838Y0043333D01*
X0162858Y0044119D02*
X0165205Y0044119D01*
X0161603Y0037831D02*
X0159357Y0037831D01*
X0168799Y0016612D02*
X0176512Y0016612D01*
X0176175Y0015826D02*
X0168013Y0015826D01*
X0144717Y0015040D02*
X0137843Y0015040D01*
X0137843Y0014254D02*
X0144722Y0014254D01*
X0094717Y0084200D02*
X0091598Y0084200D01*
X0091598Y0084986D02*
X0094717Y0084986D01*
X0094717Y0085772D02*
X0091598Y0085772D01*
D34*
X0093157Y0085323D03*
X0077213Y0085520D03*
X0077213Y0080598D03*
X0067764Y0080598D03*
X0062449Y0080598D03*
X0062449Y0085520D03*
X0067764Y0085520D03*
X0092173Y0073118D03*
X0099063Y0077055D03*
X0109299Y0077055D03*
X0126622Y0071346D03*
X0130362Y0071346D03*
X0134299Y0068000D03*
X0131543Y0066031D03*
X0139417Y0068000D03*
X0145323Y0073315D03*
X0151031Y0073315D03*
X0140598Y0077055D03*
X0155559Y0082764D03*
X0169142Y0085520D03*
X0182528Y0085520D03*
X0182724Y0080402D03*
X0182724Y0075677D03*
X0188236Y0075677D03*
X0194535Y0075677D03*
X0193945Y0065835D03*
X0190205Y0065835D03*
X0186071Y0063472D03*
X0180953Y0062882D03*
X0163039Y0064457D03*
X0156346Y0064457D03*
X0156346Y0061504D03*
X0143748Y0062488D03*
X0142173Y0059142D03*
X0144142Y0056583D03*
X0147685Y0054614D03*
X0144142Y0052843D03*
X0153787Y0051071D03*
X0163039Y0050480D03*
X0153984Y0043394D03*
X0147094Y0040244D03*
X0143945Y0042213D03*
X0143748Y0046150D03*
X0133709Y0048118D03*
X0121898Y0048118D03*
X0113630Y0043197D03*
X0105165Y0043197D03*
X0096701Y0043197D03*
X0087646Y0040835D03*
X0081543Y0037882D03*
X0087449Y0036110D03*
X0085283Y0033748D03*
X0096701Y0034732D03*
X0105165Y0034732D03*
X0113630Y0034732D03*
X0122291Y0038669D03*
X0135677Y0036110D03*
X0140598Y0034142D03*
X0143945Y0037685D03*
X0153394Y0032370D03*
X0155953Y0034535D03*
X0163039Y0035913D03*
X0167173Y0040638D03*
X0173472Y0042016D03*
X0182134Y0046937D03*
X0181937Y0054417D03*
X0164417Y0072134D03*
X0164417Y0075283D03*
X0113827Y0085520D03*
X0077016Y0067606D03*
X0081740Y0066031D03*
X0086858Y0066031D03*
X0091189Y0066031D03*
X0080165Y0059142D03*
X0085087Y0058945D03*
X0088236Y0057173D03*
X0091189Y0058945D03*
X0091189Y0055402D03*
X0085087Y0055402D03*
X0079575Y0053827D03*
X0087252Y0049496D03*
X0091189Y0049496D03*
X0105165Y0054614D03*
X0109299Y0058157D03*
X0071504Y0058354D03*
X0062449Y0056583D03*
X0062449Y0050283D03*
X0062449Y0043984D03*
X0065795Y0040638D03*
X0062449Y0037685D03*
X0068354Y0034732D03*
X0062449Y0031386D03*
X0062449Y0025087D03*
X0069339Y0024299D03*
X0068059Y0019378D03*
X0062449Y0018787D03*
X0062449Y0013472D03*
X0068945Y0013472D03*
X0082921Y0020953D03*
X0087646Y0021150D03*
X0086858Y0016228D03*
X0090598Y0016228D03*
X0081937Y0025874D03*
X0096701Y0026268D03*
X0105165Y0026268D03*
X0113630Y0026268D03*
X0122882Y0026268D03*
X0141189Y0017803D03*
X0143354Y0020362D03*
X0143354Y0024693D03*
X0147094Y0024693D03*
X0143354Y0029024D03*
X0163039Y0021740D03*
X0165205Y0019378D03*
X0166780Y0023709D03*
X0174457Y0018787D03*
X0163236Y0014654D03*
X0167764Y0013472D03*
X0174457Y0013472D03*
X0156150Y0017803D03*
X0151622Y0017803D03*
X0181937Y0027055D03*
X0181543Y0033748D03*
X0186858Y0033354D03*
X0045913Y0045362D03*
X0045323Y0016228D03*
X0031543Y0015835D03*
D35*
X0094339Y0052646D02*
X0094535Y0052449D01*
X0094535Y0060717D01*
X0094535Y0061071D01*
X0094949Y0061484D01*
X0094358Y0052665D02*
X0094339Y0052646D01*
X0134299Y0071346D02*
X0134496Y0071543D01*
X0134496Y0076465D01*
X0134693Y0076661D01*
X0136071Y0076661D01*
X0140598Y0077055D02*
X0140598Y0080205D01*
X0147291Y0080205D01*
X0150047Y0082961D01*
X0150638Y0082961D01*
X0151819Y0084142D01*
X0151819Y0084339D01*
X0150244Y0069772D02*
X0160480Y0069772D01*
X0163039Y0064457D02*
X0166189Y0064457D01*
X0169831Y0060815D01*
X0169831Y0058059D01*
X0169929Y0057961D01*
X0134496Y0031976D02*
X0134496Y0031583D01*
X0135480Y0030598D01*
X0135874Y0030205D02*
X0137843Y0030205D01*
X0143354Y0024693D01*
D36*
X0147685Y0020953D02*
X0149260Y0020953D01*
X0150638Y0022331D01*
X0150638Y0026661D01*
X0150638Y0029614D01*
X0159890Y0029614D01*
X0150638Y0029614D02*
X0150638Y0035913D01*
X0150244Y0035520D01*
X0147685Y0035520D01*
X0150638Y0035913D02*
X0150638Y0039260D01*
X0150638Y0050087D01*
X0150638Y0054417D01*
X0150638Y0057764D01*
X0151622Y0058748D01*
X0152606Y0058748D01*
X0152409Y0058945D01*
X0152409Y0062488D01*
X0150244Y0064654D01*
X0147685Y0064654D01*
X0152606Y0058748D02*
X0159890Y0058748D01*
X0159890Y0064654D02*
X0162843Y0064654D01*
X0163039Y0064457D01*
X0163039Y0050480D02*
X0162646Y0050087D01*
X0159890Y0050087D01*
X0150638Y0050087D02*
X0147685Y0050087D01*
X0162646Y0035520D02*
X0163039Y0035913D01*
X0162646Y0035520D02*
X0159890Y0035520D01*
X0135874Y0030205D02*
X0133906Y0032173D01*
X0122882Y0026268D02*
X0122882Y0024102D01*
X0122882Y0020165D01*
X0120520Y0017803D01*
X0115992Y0017803D01*
X0104181Y0017803D01*
X0102409Y0017803D01*
X0100244Y0017803D01*
X0095913Y0017803D01*
X0091780Y0013669D01*
X0083709Y0013669D01*
X0083512Y0013866D01*
X0075638Y0020461D02*
X0069142Y0020461D01*
X0068059Y0019378D01*
X0068157Y0019280D01*
X0069339Y0024299D02*
X0070500Y0025461D01*
X0075638Y0025461D01*
X0075638Y0030461D02*
X0075638Y0035461D01*
X0075638Y0034732D01*
X0068354Y0034732D01*
X0075638Y0035461D02*
X0075638Y0040461D01*
X0067370Y0049299D02*
X0068531Y0050461D01*
X0075638Y0050461D01*
X0094535Y0061898D02*
X0094949Y0061484D01*
X0094535Y0061898D02*
X0089024Y0061898D01*
X0089024Y0062488D01*
X0038630Y0040461D02*
X0038630Y0035461D01*
X0038630Y0030461D01*
X0032980Y0030461D01*
X0030165Y0027646D01*
X0030165Y0020362D01*
X0026819Y0017016D01*
X0026819Y0014654D01*
X0026228Y0014063D01*
X0031543Y0015835D02*
X0031543Y0018197D01*
X0033807Y0020461D01*
X0038630Y0020461D01*
X0042980Y0025461D02*
X0045323Y0023118D01*
X0045323Y0016228D01*
X0042980Y0025461D02*
X0038630Y0025461D01*
X0159890Y0020953D02*
X0162252Y0020953D01*
X0163039Y0021740D01*
D37*
X0177409Y0057961D02*
X0177606Y0058157D01*
X0177606Y0062882D01*
X0175441Y0065047D01*
X0175441Y0068591D01*
X0174850Y0069181D01*
X0173276Y0067606D01*
X0169339Y0067606D01*
X0167764Y0069181D01*
X0160677Y0069181D01*
X0160480Y0069378D01*
X0160480Y0069969D01*
X0160480Y0069772D01*
X0160874Y0069378D01*
X0169929Y0072724D02*
X0170126Y0072921D01*
X0170126Y0077449D01*
X0170520Y0077843D01*
X0171110Y0077843D01*
X0156150Y0073512D02*
X0152016Y0077646D01*
X0151622Y0077646D01*
X0150638Y0076661D01*
X0145126Y0076661D01*
X0151622Y0077252D02*
X0151622Y0077646D01*
X0151622Y0084339D02*
X0151819Y0084339D01*
X0145126Y0084142D02*
X0136071Y0084142D01*
X0129378Y0084142D01*
X0128984Y0083748D01*
X0128197Y0084535D01*
X0119339Y0084535D01*
X0117961Y0083157D01*
X0045913Y0050283D02*
X0038807Y0050283D01*
X0038630Y0050461D01*
D38*
X0094339Y0052646D03*
X0152409Y0062488D03*
X0083512Y0013866D03*
D39*
X0067370Y0049299D03*
X0045913Y0050283D03*
X0156150Y0073512D03*
X0169929Y0072724D03*
D40*
X0117961Y0083157D03*
D41*
X0174850Y0069181D02*
X0175165Y0069496D01*
X0189969Y0069496D01*
M02*
