G75*
%MOIN*%
%OFA0B0*%
%FSLAX25Y25*%
%IPPOS*%
%LPD*%
%AMOC8*
5,1,8,0,0,1.08239X$1,22.5*
%
%ADD10C,0.00000*%
%ADD11R,0.08274X0.02762*%
%ADD12R,0.03943X0.03156*%
%ADD13R,0.03550X0.01581*%
%ADD14R,0.03156X0.03943*%
%ADD15R,0.04731X0.05518*%
%ADD16R,0.05912X0.04337*%
%ADD17R,0.04337X0.05912*%
%ADD18R,0.12211X0.03746*%
%ADD19R,0.05124X0.02762*%
%ADD20R,0.04337X0.04731*%
%ADD21R,0.03550X0.03550*%
%ADD22R,0.04731X0.02172*%
%ADD23R,0.04731X0.02959*%
%ADD24R,0.02172X0.04731*%
%ADD25R,0.02959X0.04731*%
%ADD26C,0.01796*%
%ADD27R,0.01581X0.03550*%
%ADD28R,0.07093X0.05124*%
%ADD29C,0.05550*%
%ADD30C,0.04369*%
%ADD31C,0.06699*%
%ADD32C,0.13786*%
%ADD33C,0.06306*%
D10*
X0015795Y0010126D02*
X0015795Y0018000D01*
X0007921Y0018000D01*
X0007921Y0080992D01*
X0015795Y0080992D01*
X0015795Y0088866D01*
X0096110Y0088866D01*
X0096110Y0083748D01*
X0108709Y0083748D01*
X0108709Y0088866D01*
X0189024Y0088866D01*
X0189024Y0080992D01*
X0196898Y0080992D01*
X0196898Y0018000D01*
X0189024Y0018000D01*
X0189024Y0010126D01*
X0108709Y0010126D01*
X0108709Y0015244D01*
X0096110Y0015244D01*
X0096110Y0010126D01*
X0015795Y0010126D01*
X0016582Y0040638D02*
X0016584Y0040746D01*
X0016590Y0040855D01*
X0016600Y0040963D01*
X0016614Y0041070D01*
X0016632Y0041177D01*
X0016653Y0041284D01*
X0016679Y0041389D01*
X0016709Y0041494D01*
X0016742Y0041597D01*
X0016779Y0041699D01*
X0016820Y0041799D01*
X0016864Y0041898D01*
X0016913Y0041996D01*
X0016964Y0042091D01*
X0017019Y0042184D01*
X0017078Y0042276D01*
X0017140Y0042365D01*
X0017205Y0042452D01*
X0017273Y0042536D01*
X0017344Y0042618D01*
X0017418Y0042697D01*
X0017495Y0042773D01*
X0017575Y0042847D01*
X0017658Y0042917D01*
X0017743Y0042985D01*
X0017830Y0043049D01*
X0017920Y0043110D01*
X0018012Y0043168D01*
X0018106Y0043222D01*
X0018202Y0043273D01*
X0018299Y0043320D01*
X0018399Y0043364D01*
X0018500Y0043404D01*
X0018602Y0043440D01*
X0018705Y0043472D01*
X0018810Y0043501D01*
X0018916Y0043525D01*
X0019022Y0043546D01*
X0019129Y0043563D01*
X0019237Y0043576D01*
X0019345Y0043585D01*
X0019454Y0043590D01*
X0019562Y0043591D01*
X0019671Y0043588D01*
X0019779Y0043581D01*
X0019887Y0043570D01*
X0019994Y0043555D01*
X0020101Y0043536D01*
X0020207Y0043513D01*
X0020312Y0043487D01*
X0020417Y0043456D01*
X0020519Y0043422D01*
X0020621Y0043384D01*
X0020721Y0043342D01*
X0020820Y0043297D01*
X0020917Y0043248D01*
X0021011Y0043195D01*
X0021104Y0043139D01*
X0021195Y0043080D01*
X0021284Y0043017D01*
X0021370Y0042952D01*
X0021454Y0042883D01*
X0021535Y0042811D01*
X0021613Y0042736D01*
X0021689Y0042658D01*
X0021762Y0042577D01*
X0021832Y0042494D01*
X0021898Y0042409D01*
X0021962Y0042321D01*
X0022022Y0042230D01*
X0022079Y0042138D01*
X0022132Y0042043D01*
X0022182Y0041947D01*
X0022228Y0041849D01*
X0022271Y0041749D01*
X0022310Y0041648D01*
X0022345Y0041545D01*
X0022377Y0041442D01*
X0022404Y0041337D01*
X0022428Y0041231D01*
X0022448Y0041124D01*
X0022464Y0041017D01*
X0022476Y0040909D01*
X0022484Y0040801D01*
X0022488Y0040692D01*
X0022488Y0040584D01*
X0022484Y0040475D01*
X0022476Y0040367D01*
X0022464Y0040259D01*
X0022448Y0040152D01*
X0022428Y0040045D01*
X0022404Y0039939D01*
X0022377Y0039834D01*
X0022345Y0039731D01*
X0022310Y0039628D01*
X0022271Y0039527D01*
X0022228Y0039427D01*
X0022182Y0039329D01*
X0022132Y0039233D01*
X0022079Y0039138D01*
X0022022Y0039046D01*
X0021962Y0038955D01*
X0021898Y0038867D01*
X0021832Y0038782D01*
X0021762Y0038699D01*
X0021689Y0038618D01*
X0021613Y0038540D01*
X0021535Y0038465D01*
X0021454Y0038393D01*
X0021370Y0038324D01*
X0021284Y0038259D01*
X0021195Y0038196D01*
X0021104Y0038137D01*
X0021012Y0038081D01*
X0020917Y0038028D01*
X0020820Y0037979D01*
X0020721Y0037934D01*
X0020621Y0037892D01*
X0020519Y0037854D01*
X0020417Y0037820D01*
X0020312Y0037789D01*
X0020207Y0037763D01*
X0020101Y0037740D01*
X0019994Y0037721D01*
X0019887Y0037706D01*
X0019779Y0037695D01*
X0019671Y0037688D01*
X0019562Y0037685D01*
X0019454Y0037686D01*
X0019345Y0037691D01*
X0019237Y0037700D01*
X0019129Y0037713D01*
X0019022Y0037730D01*
X0018916Y0037751D01*
X0018810Y0037775D01*
X0018705Y0037804D01*
X0018602Y0037836D01*
X0018500Y0037872D01*
X0018399Y0037912D01*
X0018299Y0037956D01*
X0018202Y0038003D01*
X0018106Y0038054D01*
X0018012Y0038108D01*
X0017920Y0038166D01*
X0017830Y0038227D01*
X0017743Y0038291D01*
X0017658Y0038359D01*
X0017575Y0038429D01*
X0017495Y0038503D01*
X0017418Y0038579D01*
X0017344Y0038658D01*
X0017273Y0038740D01*
X0017205Y0038824D01*
X0017140Y0038911D01*
X0017078Y0039000D01*
X0017019Y0039092D01*
X0016964Y0039185D01*
X0016913Y0039280D01*
X0016864Y0039378D01*
X0016820Y0039477D01*
X0016779Y0039577D01*
X0016742Y0039679D01*
X0016709Y0039782D01*
X0016679Y0039887D01*
X0016653Y0039992D01*
X0016632Y0040099D01*
X0016614Y0040206D01*
X0016600Y0040313D01*
X0016590Y0040421D01*
X0016584Y0040530D01*
X0016582Y0040638D01*
X0016582Y0058354D02*
X0016584Y0058462D01*
X0016590Y0058571D01*
X0016600Y0058679D01*
X0016614Y0058786D01*
X0016632Y0058893D01*
X0016653Y0059000D01*
X0016679Y0059105D01*
X0016709Y0059210D01*
X0016742Y0059313D01*
X0016779Y0059415D01*
X0016820Y0059515D01*
X0016864Y0059614D01*
X0016913Y0059712D01*
X0016964Y0059807D01*
X0017019Y0059900D01*
X0017078Y0059992D01*
X0017140Y0060081D01*
X0017205Y0060168D01*
X0017273Y0060252D01*
X0017344Y0060334D01*
X0017418Y0060413D01*
X0017495Y0060489D01*
X0017575Y0060563D01*
X0017658Y0060633D01*
X0017743Y0060701D01*
X0017830Y0060765D01*
X0017920Y0060826D01*
X0018012Y0060884D01*
X0018106Y0060938D01*
X0018202Y0060989D01*
X0018299Y0061036D01*
X0018399Y0061080D01*
X0018500Y0061120D01*
X0018602Y0061156D01*
X0018705Y0061188D01*
X0018810Y0061217D01*
X0018916Y0061241D01*
X0019022Y0061262D01*
X0019129Y0061279D01*
X0019237Y0061292D01*
X0019345Y0061301D01*
X0019454Y0061306D01*
X0019562Y0061307D01*
X0019671Y0061304D01*
X0019779Y0061297D01*
X0019887Y0061286D01*
X0019994Y0061271D01*
X0020101Y0061252D01*
X0020207Y0061229D01*
X0020312Y0061203D01*
X0020417Y0061172D01*
X0020519Y0061138D01*
X0020621Y0061100D01*
X0020721Y0061058D01*
X0020820Y0061013D01*
X0020917Y0060964D01*
X0021011Y0060911D01*
X0021104Y0060855D01*
X0021195Y0060796D01*
X0021284Y0060733D01*
X0021370Y0060668D01*
X0021454Y0060599D01*
X0021535Y0060527D01*
X0021613Y0060452D01*
X0021689Y0060374D01*
X0021762Y0060293D01*
X0021832Y0060210D01*
X0021898Y0060125D01*
X0021962Y0060037D01*
X0022022Y0059946D01*
X0022079Y0059854D01*
X0022132Y0059759D01*
X0022182Y0059663D01*
X0022228Y0059565D01*
X0022271Y0059465D01*
X0022310Y0059364D01*
X0022345Y0059261D01*
X0022377Y0059158D01*
X0022404Y0059053D01*
X0022428Y0058947D01*
X0022448Y0058840D01*
X0022464Y0058733D01*
X0022476Y0058625D01*
X0022484Y0058517D01*
X0022488Y0058408D01*
X0022488Y0058300D01*
X0022484Y0058191D01*
X0022476Y0058083D01*
X0022464Y0057975D01*
X0022448Y0057868D01*
X0022428Y0057761D01*
X0022404Y0057655D01*
X0022377Y0057550D01*
X0022345Y0057447D01*
X0022310Y0057344D01*
X0022271Y0057243D01*
X0022228Y0057143D01*
X0022182Y0057045D01*
X0022132Y0056949D01*
X0022079Y0056854D01*
X0022022Y0056762D01*
X0021962Y0056671D01*
X0021898Y0056583D01*
X0021832Y0056498D01*
X0021762Y0056415D01*
X0021689Y0056334D01*
X0021613Y0056256D01*
X0021535Y0056181D01*
X0021454Y0056109D01*
X0021370Y0056040D01*
X0021284Y0055975D01*
X0021195Y0055912D01*
X0021104Y0055853D01*
X0021012Y0055797D01*
X0020917Y0055744D01*
X0020820Y0055695D01*
X0020721Y0055650D01*
X0020621Y0055608D01*
X0020519Y0055570D01*
X0020417Y0055536D01*
X0020312Y0055505D01*
X0020207Y0055479D01*
X0020101Y0055456D01*
X0019994Y0055437D01*
X0019887Y0055422D01*
X0019779Y0055411D01*
X0019671Y0055404D01*
X0019562Y0055401D01*
X0019454Y0055402D01*
X0019345Y0055407D01*
X0019237Y0055416D01*
X0019129Y0055429D01*
X0019022Y0055446D01*
X0018916Y0055467D01*
X0018810Y0055491D01*
X0018705Y0055520D01*
X0018602Y0055552D01*
X0018500Y0055588D01*
X0018399Y0055628D01*
X0018299Y0055672D01*
X0018202Y0055719D01*
X0018106Y0055770D01*
X0018012Y0055824D01*
X0017920Y0055882D01*
X0017830Y0055943D01*
X0017743Y0056007D01*
X0017658Y0056075D01*
X0017575Y0056145D01*
X0017495Y0056219D01*
X0017418Y0056295D01*
X0017344Y0056374D01*
X0017273Y0056456D01*
X0017205Y0056540D01*
X0017140Y0056627D01*
X0017078Y0056716D01*
X0017019Y0056808D01*
X0016964Y0056901D01*
X0016913Y0056996D01*
X0016864Y0057094D01*
X0016820Y0057193D01*
X0016779Y0057293D01*
X0016742Y0057395D01*
X0016709Y0057498D01*
X0016679Y0057603D01*
X0016653Y0057708D01*
X0016632Y0057815D01*
X0016614Y0057922D01*
X0016600Y0058029D01*
X0016590Y0058137D01*
X0016584Y0058246D01*
X0016582Y0058354D01*
D11*
X0038630Y0049280D03*
X0038630Y0044280D03*
X0038630Y0039280D03*
X0038630Y0034280D03*
X0038630Y0029280D03*
X0038630Y0024280D03*
X0038630Y0019280D03*
X0038630Y0014280D03*
X0075638Y0014280D03*
X0075638Y0019280D03*
X0075638Y0024280D03*
X0075638Y0029280D03*
X0075638Y0034280D03*
X0075638Y0039280D03*
X0075638Y0044280D03*
X0075638Y0049280D03*
D12*
X0083906Y0062488D03*
X0089024Y0062488D03*
X0127606Y0043984D03*
X0132724Y0043984D03*
X0132724Y0038866D03*
X0127606Y0038866D03*
X0151228Y0039850D03*
X0156346Y0039850D03*
X0156346Y0025283D03*
X0151228Y0025283D03*
X0134890Y0016031D03*
X0129772Y0016031D03*
X0151622Y0054417D03*
X0156740Y0054417D03*
X0150244Y0069772D03*
X0145126Y0069772D03*
X0139417Y0071346D03*
X0134299Y0071346D03*
X0159693Y0080795D03*
X0164811Y0080795D03*
X0164811Y0085323D03*
X0159693Y0085323D03*
X0173472Y0086307D03*
X0178591Y0086307D03*
X0026228Y0014063D03*
X0021110Y0014063D03*
D13*
X0091386Y0023906D03*
X0091386Y0025874D03*
X0091386Y0027843D03*
X0091386Y0029811D03*
X0091386Y0031780D03*
X0091386Y0033748D03*
X0091386Y0035717D03*
X0091386Y0037685D03*
X0091386Y0039654D03*
X0091386Y0041622D03*
X0091386Y0043591D03*
X0091386Y0045559D03*
X0118945Y0045559D03*
X0118945Y0043591D03*
X0118945Y0041622D03*
X0118945Y0039654D03*
X0118945Y0037685D03*
X0118945Y0035717D03*
X0118945Y0033748D03*
X0118945Y0031780D03*
X0118945Y0029811D03*
X0118945Y0027843D03*
X0118945Y0025874D03*
X0118945Y0023906D03*
X0147685Y0020953D03*
X0147685Y0018984D03*
X0147685Y0017016D03*
X0147685Y0015047D03*
X0159890Y0015047D03*
X0159890Y0017016D03*
X0159890Y0018984D03*
X0159890Y0020953D03*
X0159890Y0029614D03*
X0159890Y0031583D03*
X0159890Y0033551D03*
X0159890Y0035520D03*
X0147685Y0035520D03*
X0147685Y0033551D03*
X0147685Y0031583D03*
X0147685Y0029614D03*
X0147685Y0044181D03*
X0147685Y0046150D03*
X0147685Y0048118D03*
X0147685Y0050087D03*
X0159890Y0050087D03*
X0159890Y0048118D03*
X0159890Y0046150D03*
X0159890Y0044181D03*
X0159890Y0058748D03*
X0159890Y0060717D03*
X0159890Y0062685D03*
X0159890Y0064654D03*
X0147685Y0064654D03*
X0147685Y0062685D03*
X0147685Y0060717D03*
X0147685Y0058748D03*
D14*
X0160480Y0069969D03*
X0160480Y0075087D03*
D15*
X0134496Y0031976D03*
X0127016Y0031976D03*
X0127016Y0022921D03*
X0134496Y0022921D03*
D16*
X0127016Y0058551D03*
X0119535Y0058551D03*
X0110874Y0062291D03*
X0119535Y0066031D03*
X0127016Y0066031D03*
X0135677Y0062291D03*
D17*
X0171110Y0079811D03*
X0178591Y0079811D03*
X0174850Y0071150D03*
D18*
X0189969Y0069496D03*
X0189969Y0059496D03*
X0189969Y0049496D03*
X0189969Y0039496D03*
X0189969Y0029496D03*
D19*
X0145126Y0077252D03*
X0136071Y0077252D03*
X0136071Y0080992D03*
X0136071Y0084732D03*
X0145126Y0084732D03*
D20*
X0151622Y0085126D03*
X0151622Y0078433D03*
X0129575Y0077646D03*
X0129575Y0084339D03*
D21*
X0122882Y0080402D03*
X0113827Y0080402D03*
X0104772Y0080402D03*
X0095717Y0080402D03*
X0095717Y0074496D03*
X0104772Y0074496D03*
X0113827Y0074496D03*
X0122882Y0074496D03*
D22*
X0169929Y0054417D03*
X0169929Y0051268D03*
X0177409Y0051268D03*
X0177409Y0054417D03*
X0177409Y0033748D03*
X0177409Y0030598D03*
X0169929Y0030598D03*
X0169929Y0033748D03*
D23*
X0169929Y0037291D03*
X0177409Y0037291D03*
X0177409Y0027055D03*
X0169929Y0027055D03*
X0169929Y0047724D03*
X0177409Y0047724D03*
X0177409Y0057961D03*
X0169929Y0057961D03*
D24*
X0101228Y0060717D03*
X0098079Y0060717D03*
X0098079Y0068197D03*
X0101228Y0068197D03*
D25*
X0104772Y0068197D03*
X0094535Y0068197D03*
X0094535Y0060717D03*
X0104772Y0060717D03*
D26*
X0094840Y0045057D02*
X0115490Y0045057D01*
X0115490Y0024407D01*
X0094840Y0024407D01*
X0094840Y0045057D01*
X0094840Y0026202D02*
X0115490Y0026202D01*
X0115490Y0027997D02*
X0094840Y0027997D01*
X0094840Y0029792D02*
X0115490Y0029792D01*
X0115490Y0031587D02*
X0094840Y0031587D01*
X0094840Y0033382D02*
X0115490Y0033382D01*
X0115490Y0035177D02*
X0094840Y0035177D01*
X0094840Y0036972D02*
X0115490Y0036972D01*
X0115490Y0038767D02*
X0094840Y0038767D01*
X0094840Y0040562D02*
X0115490Y0040562D01*
X0115490Y0042357D02*
X0094840Y0042357D01*
X0094840Y0044152D02*
X0115490Y0044152D01*
D27*
X0115992Y0048512D03*
X0114024Y0048512D03*
X0112055Y0048512D03*
X0110087Y0048512D03*
X0108118Y0048512D03*
X0106150Y0048512D03*
X0104181Y0048512D03*
X0102213Y0048512D03*
X0100244Y0048512D03*
X0098276Y0048512D03*
X0096307Y0048512D03*
X0094339Y0048512D03*
X0094339Y0020953D03*
X0096307Y0020953D03*
X0098276Y0020953D03*
X0100244Y0020953D03*
X0102213Y0020953D03*
X0104181Y0020953D03*
X0106150Y0020953D03*
X0108118Y0020953D03*
X0110087Y0020953D03*
X0112055Y0020953D03*
X0114024Y0020953D03*
X0115992Y0020953D03*
D28*
X0086661Y0071937D03*
X0086661Y0085323D03*
D29*
X0072724Y0064850D03*
X0062724Y0064850D03*
X0052724Y0064850D03*
X0042724Y0064850D03*
D30*
X0112370Y0013472D03*
X0117370Y0013472D03*
X0122370Y0013472D03*
X0179437Y0013531D03*
X0184437Y0013531D03*
X0184437Y0018531D03*
X0179437Y0018531D03*
D31*
X0028984Y0035717D03*
X0028984Y0045559D03*
X0028984Y0053433D03*
X0028984Y0063276D03*
D32*
X0021110Y0073118D03*
X0021110Y0025874D03*
D33*
X0019535Y0040638D03*
X0019535Y0058354D03*
M02*
